<svg xmlns="http://www.w3.org/2000/svg" viewBox="0 0 512 512" width="512" height="512">
<rect width="100%" height="100%" fill="#FFFFFF"/>
<path fill="#000000" d="M25.28 25.28h6.32v6.32h-6.32z M31.60 25.28h6.32v6.32h-6.32z M37.93 25.28h6.32v6.32h-6.32z M44.25 25.28h6.32v6.32h-6.32z M50.57 25.28h6.32v6.32h-6.32z M56.89 25.28h6.32v6.32h-6.32z M63.21 25.28h6.32v6.32h-6.32z M75.85 25.28h6.32v6.32h-6.32z M94.81 25.28h6.32v6.32h-6.32z M101.14 25.28h6.32v6.32h-6.32z M107.46 25.28h6.32v6.32h-6.32z M120.10 25.28h6.32v6.32h-6.32z M132.74 25.28h6.32v6.32h-6.32z M145.38 25.28h6.32v6.32h-6.32z M151.70 25.28h6.32v6.32h-6.32z M158.02 25.28h6.32v6.32h-6.32z M164.35 25.28h6.32v6.32h-6.32z M189.63 25.28h6.32v6.32h-6.32z M195.95 25.28h6.32v6.32h-6.32z M202.27 25.28h6.32v6.32h-6.32z M214.91 25.28h6.32v6.32h-6.32z M221.23 25.28h6.32v6.32h-6.32z M227.56 25.28h6.32v6.32h-6.32z M240.20 25.28h6.32v6.32h-6.32z M246.52 25.28h6.32v6.32h-6.32z M265.48 25.28h6.32v6.32h-6.32z M271.80 25.28h6.32v6.32h-6.32z M290.77 25.28h6.32v6.32h-6.32z M297.09 25.28h6.32v6.32h-6.32z M303.41 25.28h6.32v6.32h-6.32z M322.37 25.28h6.32v6.32h-6.32z M335.01 25.28h6.32v6.32h-6.32z M347.65 25.28h6.32v6.32h-6.32z M360.30 25.28h6.32v6.32h-6.32z M379.26 25.28h6.32v6.32h-6.32z M385.58 25.28h6.32v6.32h-6.32z M404.54 25.28h6.32v6.32h-6.32z M410.86 25.28h6.32v6.32h-6.32z M417.19 25.28h6.32v6.32h-6.32z M429.83 25.28h6.32v6.32h-6.32z M442.47 25.28h6.32v6.32h-6.32z M448.79 25.28h6.32v6.32h-6.32z M455.11 25.28h6.32v6.32h-6.32z M461.43 25.28h6.32v6.32h-6.32z M467.75 25.28h6.32v6.32h-6.32z M474.07 25.28h6.32v6.32h-6.32z M480.40 25.28h6.32v6.32h-6.32z M25.28 31.60h6.32v6.32h-6.32z M63.21 31.60h6.32v6.32h-6.32z M82.17 31.60h6.32v6.32h-6.32z M88.49 31.60h6.32v6.32h-6.32z M101.14 31.60h6.32v6.32h-6.32z M107.46 31.60h6.32v6.32h-6.32z M113.78 31.60h6.32v6.32h-6.32z M145.38 31.60h6.32v6.32h-6.32z M158.02 31.60h6.32v6.32h-6.32z M164.35 31.60h6.32v6.32h-6.32z M183.31 31.60h6.32v6.32h-6.32z M189.63 31.60h6.32v6.32h-6.32z M195.95 31.60h6.32v6.32h-6.32z M202.27 31.60h6.32v6.32h-6.32z M208.59 31.60h6.32v6.32h-6.32z M221.23 31.60h6.32v6.32h-6.32z M227.56 31.60h6.32v6.32h-6.32z M240.20 31.60h6.32v6.32h-6.32z M246.52 31.60h6.32v6.32h-6.32z M259.16 31.60h6.32v6.32h-6.32z M316.05 31.60h6.32v6.32h-6.32z M353.98 31.60h6.32v6.32h-6.32z M360.30 31.60h6.32v6.32h-6.32z M372.94 31.60h6.32v6.32h-6.32z M379.26 31.60h6.32v6.32h-6.32z M385.58 31.60h6.32v6.32h-6.32z M391.90 31.60h6.32v6.32h-6.32z M404.54 31.60h6.32v6.32h-6.32z M410.86 31.60h6.32v6.32h-6.32z M417.19 31.60h6.32v6.32h-6.32z M442.47 31.60h6.32v6.32h-6.32z M480.40 31.60h6.32v6.32h-6.32z M25.28 37.93h6.32v6.32h-6.32z M37.93 37.93h6.32v6.32h-6.32z M44.25 37.93h6.32v6.32h-6.32z M50.57 37.93h6.32v6.32h-6.32z M63.21 37.93h6.32v6.32h-6.32z M82.17 37.93h6.32v6.32h-6.32z M88.49 37.93h6.32v6.32h-6.32z M113.78 37.93h6.32v6.32h-6.32z M120.10 37.93h6.32v6.32h-6.32z M132.74 37.93h6.32v6.32h-6.32z M139.06 37.93h6.32v6.32h-6.32z M158.02 37.93h6.32v6.32h-6.32z M214.91 37.93h6.32v6.32h-6.32z M227.56 37.93h6.32v6.32h-6.32z M240.20 37.93h6.32v6.32h-6.32z M246.52 37.93h6.32v6.32h-6.32z M259.16 37.93h6.32v6.32h-6.32z M271.80 37.93h6.32v6.32h-6.32z M290.77 37.93h6.32v6.32h-6.32z M297.09 37.93h6.32v6.32h-6.32z M303.41 37.93h6.32v6.32h-6.32z M309.73 37.93h6.32v6.32h-6.32z M316.05 37.93h6.32v6.32h-6.32z M328.69 37.93h6.32v6.32h-6.32z M360.30 37.93h6.32v6.32h-6.32z M366.62 37.93h6.32v6.32h-6.32z M379.26 37.93h6.32v6.32h-6.32z M385.58 37.93h6.32v6.32h-6.32z M398.22 37.93h6.32v6.32h-6.32z M442.47 37.93h6.32v6.32h-6.32z M455.11 37.93h6.32v6.32h-6.32z M461.43 37.93h6.32v6.32h-6.32z M467.75 37.93h6.32v6.32h-6.32z M480.40 37.93h6.32v6.32h-6.32z M25.28 44.25h6.32v6.32h-6.32z M37.93 44.25h6.32v6.32h-6.32z M44.25 44.25h6.32v6.32h-6.32z M50.57 44.25h6.32v6.32h-6.32z M63.21 44.25h6.32v6.32h-6.32z M75.85 44.25h6.32v6.32h-6.32z M88.49 44.25h6.32v6.32h-6.32z M94.81 44.25h6.32v6.32h-6.32z M107.46 44.25h6.32v6.32h-6.32z M113.78 44.25h6.32v6.32h-6.32z M120.10 44.25h6.32v6.32h-6.32z M126.42 44.25h6.32v6.32h-6.32z M145.38 44.25h6.32v6.32h-6.32z M151.70 44.25h6.32v6.32h-6.32z M158.02 44.25h6.32v6.32h-6.32z M176.99 44.25h6.32v6.32h-6.32z M189.63 44.25h6.32v6.32h-6.32z M214.91 44.25h6.32v6.32h-6.32z M221.23 44.25h6.32v6.32h-6.32z M227.56 44.25h6.32v6.32h-6.32z M240.20 44.25h6.32v6.32h-6.32z M246.52 44.25h6.32v6.32h-6.32z M252.84 44.25h6.32v6.32h-6.32z M259.16 44.25h6.32v6.32h-6.32z M265.48 44.25h6.32v6.32h-6.32z M278.12 44.25h6.32v6.32h-6.32z M284.44 44.25h6.32v6.32h-6.32z M297.09 44.25h6.32v6.32h-6.32z M303.41 44.25h6.32v6.32h-6.32z M316.05 44.25h6.32v6.32h-6.32z M322.37 44.25h6.32v6.32h-6.32z M335.01 44.25h6.32v6.32h-6.32z M360.30 44.25h6.32v6.32h-6.32z M385.58 44.25h6.32v6.32h-6.32z M391.90 44.25h6.32v6.32h-6.32z M404.54 44.25h6.32v6.32h-6.32z M417.19 44.25h6.32v6.32h-6.32z M423.51 44.25h6.32v6.32h-6.32z M442.47 44.25h6.32v6.32h-6.32z M455.11 44.25h6.32v6.32h-6.32z M461.43 44.25h6.32v6.32h-6.32z M467.75 44.25h6.32v6.32h-6.32z M480.40 44.25h6.32v6.32h-6.32z M25.28 50.57h6.32v6.32h-6.32z M37.93 50.57h6.32v6.32h-6.32z M44.25 50.57h6.32v6.32h-6.32z M50.57 50.57h6.32v6.32h-6.32z M63.21 50.57h6.32v6.32h-6.32z M75.85 50.57h6.32v6.32h-6.32z M94.81 50.57h6.32v6.32h-6.32z M101.14 50.57h6.32v6.32h-6.32z M113.78 50.57h6.32v6.32h-6.32z M126.42 50.57h6.32v6.32h-6.32z M176.99 50.57h6.32v6.32h-6.32z M183.31 50.57h6.32v6.32h-6.32z M189.63 50.57h6.32v6.32h-6.32z M195.95 50.57h6.32v6.32h-6.32z M202.27 50.57h6.32v6.32h-6.32z M214.91 50.57h6.32v6.32h-6.32z M221.23 50.57h6.32v6.32h-6.32z M252.84 50.57h6.32v6.32h-6.32z M259.16 50.57h6.32v6.32h-6.32z M265.48 50.57h6.32v6.32h-6.32z M271.80 50.57h6.32v6.32h-6.32z M290.77 50.57h6.32v6.32h-6.32z M303.41 50.57h6.32v6.32h-6.32z M309.73 50.57h6.32v6.32h-6.32z M316.05 50.57h6.32v6.32h-6.32z M322.37 50.57h6.32v6.32h-6.32z M328.69 50.57h6.32v6.32h-6.32z M335.01 50.57h6.32v6.32h-6.32z M341.33 50.57h6.32v6.32h-6.32z M347.65 50.57h6.32v6.32h-6.32z M353.98 50.57h6.32v6.32h-6.32z M366.62 50.57h6.32v6.32h-6.32z M379.26 50.57h6.32v6.32h-6.32z M385.58 50.57h6.32v6.32h-6.32z M398.22 50.57h6.32v6.32h-6.32z M410.86 50.57h6.32v6.32h-6.32z M423.51 50.57h6.32v6.32h-6.32z M429.83 50.57h6.32v6.32h-6.32z M442.47 50.57h6.32v6.32h-6.32z M455.11 50.57h6.32v6.32h-6.32z M461.43 50.57h6.32v6.32h-6.32z M467.75 50.57h6.32v6.32h-6.32z M480.40 50.57h6.32v6.32h-6.32z M25.28 56.89h6.32v6.32h-6.32z M63.21 56.89h6.32v6.32h-6.32z M75.85 56.89h6.32v6.32h-6.32z M82.17 56.89h6.32v6.32h-6.32z M101.14 56.89h6.32v6.32h-6.32z M113.78 56.89h6.32v6.32h-6.32z M120.10 56.89h6.32v6.32h-6.32z M164.35 56.89h6.32v6.32h-6.32z M170.67 56.89h6.32v6.32h-6.32z M176.99 56.89h6.32v6.32h-6.32z M202.27 56.89h6.32v6.32h-6.32z M208.59 56.89h6.32v6.32h-6.32z M221.23 56.89h6.32v6.32h-6.32z M227.56 56.89h6.32v6.32h-6.32z M233.88 56.89h6.32v6.32h-6.32z M246.52 56.89h6.32v6.32h-6.32z M259.16 56.89h6.32v6.32h-6.32z M265.48 56.89h6.32v6.32h-6.32z M271.80 56.89h6.32v6.32h-6.32z M284.44 56.89h6.32v6.32h-6.32z M297.09 56.89h6.32v6.32h-6.32z M303.41 56.89h6.32v6.32h-6.32z M328.69 56.89h6.32v6.32h-6.32z M341.33 56.89h6.32v6.32h-6.32z M353.98 56.89h6.32v6.32h-6.32z M360.30 56.89h6.32v6.32h-6.32z M372.94 56.89h6.32v6.32h-6.32z M385.58 56.89h6.32v6.32h-6.32z M391.90 56.89h6.32v6.32h-6.32z M404.54 56.89h6.32v6.32h-6.32z M410.86 56.89h6.32v6.32h-6.32z M417.19 56.89h6.32v6.32h-6.32z M442.47 56.89h6.32v6.32h-6.32z M480.40 56.89h6.32v6.32h-6.32z M25.28 63.21h6.32v6.32h-6.32z M31.60 63.21h6.32v6.32h-6.32z M37.93 63.21h6.32v6.32h-6.32z M44.25 63.21h6.32v6.32h-6.32z M50.57 63.21h6.32v6.32h-6.32z M56.89 63.21h6.32v6.32h-6.32z M63.21 63.21h6.32v6.32h-6.32z M75.85 63.21h6.32v6.32h-6.32z M88.49 63.21h6.32v6.32h-6.32z M101.14 63.21h6.32v6.32h-6.32z M113.78 63.21h6.32v6.32h-6.32z M126.42 63.21h6.32v6.32h-6.32z M139.06 63.21h6.32v6.32h-6.32z M151.70 63.21h6.32v6.32h-6.32z M164.35 63.21h6.32v6.32h-6.32z M176.99 63.21h6.32v6.32h-6.32z M189.63 63.21h6.32v6.32h-6.32z M202.27 63.21h6.32v6.32h-6.32z M214.91 63.21h6.32v6.32h-6.32z M227.56 63.21h6.32v6.32h-6.32z M240.20 63.21h6.32v6.32h-6.32z M252.84 63.21h6.32v6.32h-6.32z M265.48 63.21h6.32v6.32h-6.32z M278.12 63.21h6.32v6.32h-6.32z M290.77 63.21h6.32v6.32h-6.32z M303.41 63.21h6.32v6.32h-6.32z M316.05 63.21h6.32v6.32h-6.32z M328.69 63.21h6.32v6.32h-6.32z M341.33 63.21h6.32v6.32h-6.32z M353.98 63.21h6.32v6.32h-6.32z M366.62 63.21h6.32v6.32h-6.32z M379.26 63.21h6.32v6.32h-6.32z M391.90 63.21h6.32v6.32h-6.32z M404.54 63.21h6.32v6.32h-6.32z M417.19 63.21h6.32v6.32h-6.32z M429.83 63.21h6.32v6.32h-6.32z M442.47 63.21h6.32v6.32h-6.32z M448.79 63.21h6.32v6.32h-6.32z M455.11 63.21h6.32v6.32h-6.32z M461.43 63.21h6.32v6.32h-6.32z M467.75 63.21h6.32v6.32h-6.32z M474.07 63.21h6.32v6.32h-6.32z M480.40 63.21h6.32v6.32h-6.32z M75.85 69.53h6.32v6.32h-6.32z M82.17 69.53h6.32v6.32h-6.32z M88.49 69.53h6.32v6.32h-6.32z M145.38 69.53h6.32v6.32h-6.32z M158.02 69.53h6.32v6.32h-6.32z M164.35 69.53h6.32v6.32h-6.32z M170.67 69.53h6.32v6.32h-6.32z M176.99 69.53h6.32v6.32h-6.32z M202.27 69.53h6.32v6.32h-6.32z M208.59 69.53h6.32v6.32h-6.32z M214.91 69.53h6.32v6.32h-6.32z M221.23 69.53h6.32v6.32h-6.32z M265.48 69.53h6.32v6.32h-6.32z M278.12 69.53h6.32v6.32h-6.32z M284.44 69.53h6.32v6.32h-6.32z M290.77 69.53h6.32v6.32h-6.32z M303.41 69.53h6.32v6.32h-6.32z M328.69 69.53h6.32v6.32h-6.32z M335.01 69.53h6.32v6.32h-6.32z M341.33 69.53h6.32v6.32h-6.32z M347.65 69.53h6.32v6.32h-6.32z M353.98 69.53h6.32v6.32h-6.32z M360.30 69.53h6.32v6.32h-6.32z M366.62 69.53h6.32v6.32h-6.32z M398.22 69.53h6.32v6.32h-6.32z M410.86 69.53h6.32v6.32h-6.32z M417.19 69.53h6.32v6.32h-6.32z M423.51 69.53h6.32v6.32h-6.32z M429.83 69.53h6.32v6.32h-6.32z M25.28 75.85h6.32v6.32h-6.32z M31.60 75.85h6.32v6.32h-6.32z M37.93 75.85h6.32v6.32h-6.32z M50.57 75.85h6.32v6.32h-6.32z M63.21 75.85h6.32v6.32h-6.32z M75.85 75.85h6.32v6.32h-6.32z M101.14 75.85h6.32v6.32h-6.32z M107.46 75.85h6.32v6.32h-6.32z M113.78 75.85h6.32v6.32h-6.32z M139.06 75.85h6.32v6.32h-6.32z M145.38 75.85h6.32v6.32h-6.32z M170.67 75.85h6.32v6.32h-6.32z M176.99 75.85h6.32v6.32h-6.32z M183.31 75.85h6.32v6.32h-6.32z M189.63 75.85h6.32v6.32h-6.32z M195.95 75.85h6.32v6.32h-6.32z M202.27 75.85h6.32v6.32h-6.32z M208.59 75.85h6.32v6.32h-6.32z M214.91 75.85h6.32v6.32h-6.32z M233.88 75.85h6.32v6.32h-6.32z M240.20 75.85h6.32v6.32h-6.32z M246.52 75.85h6.32v6.32h-6.32z M252.84 75.85h6.32v6.32h-6.32z M259.16 75.85h6.32v6.32h-6.32z M278.12 75.85h6.32v6.32h-6.32z M290.77 75.85h6.32v6.32h-6.32z M303.41 75.85h6.32v6.32h-6.32z M309.73 75.85h6.32v6.32h-6.32z M316.05 75.85h6.32v6.32h-6.32z M322.37 75.85h6.32v6.32h-6.32z M328.69 75.85h6.32v6.32h-6.32z M335.01 75.85h6.32v6.32h-6.32z M347.65 75.85h6.32v6.32h-6.32z M360.30 75.85h6.32v6.32h-6.32z M372.94 75.85h6.32v6.32h-6.32z M379.26 75.85h6.32v6.32h-6.32z M385.58 75.85h6.32v6.32h-6.32z M404.54 75.85h6.32v6.32h-6.32z M410.86 75.85h6.32v6.32h-6.32z M436.15 75.85h6.32v6.32h-6.32z M455.11 75.85h6.32v6.32h-6.32z M467.75 75.85h6.32v6.32h-6.32z M474.07 75.85h6.32v6.32h-6.32z M480.40 75.85h6.32v6.32h-6.32z M37.93 82.17h6.32v6.32h-6.32z M44.25 82.17h6.32v6.32h-6.32z M56.89 82.17h6.32v6.32h-6.32z M69.53 82.17h6.32v6.32h-6.32z M82.17 82.17h6.32v6.32h-6.32z M88.49 82.17h6.32v6.32h-6.32z M113.78 82.17h6.32v6.32h-6.32z M120.10 82.17h6.32v6.32h-6.32z M145.38 82.17h6.32v6.32h-6.32z M183.31 82.17h6.32v6.32h-6.32z M189.63 82.17h6.32v6.32h-6.32z M202.27 82.17h6.32v6.32h-6.32z M208.59 82.17h6.32v6.32h-6.32z M214.91 82.17h6.32v6.32h-6.32z M227.56 82.17h6.32v6.32h-6.32z M233.88 82.17h6.32v6.32h-6.32z M240.20 82.17h6.32v6.32h-6.32z M246.52 82.17h6.32v6.32h-6.32z M252.84 82.17h6.32v6.32h-6.32z M265.48 82.17h6.32v6.32h-6.32z M284.44 82.17h6.32v6.32h-6.32z M290.77 82.17h6.32v6.32h-6.32z M309.73 82.17h6.32v6.32h-6.32z M328.69 82.17h6.32v6.32h-6.32z M341.33 82.17h6.32v6.32h-6.32z M347.65 82.17h6.32v6.32h-6.32z M372.94 82.17h6.32v6.32h-6.32z M379.26 82.17h6.32v6.32h-6.32z M404.54 82.17h6.32v6.32h-6.32z M417.19 82.17h6.32v6.32h-6.32z M442.47 82.17h6.32v6.32h-6.32z M455.11 82.17h6.32v6.32h-6.32z M461.43 82.17h6.32v6.32h-6.32z M467.75 82.17h6.32v6.32h-6.32z M31.60 88.49h6.32v6.32h-6.32z M44.25 88.49h6.32v6.32h-6.32z M56.89 88.49h6.32v6.32h-6.32z M63.21 88.49h6.32v6.32h-6.32z M69.53 88.49h6.32v6.32h-6.32z M94.81 88.49h6.32v6.32h-6.32z M101.14 88.49h6.32v6.32h-6.32z M113.78 88.49h6.32v6.32h-6.32z M120.10 88.49h6.32v6.32h-6.32z M126.42 88.49h6.32v6.32h-6.32z M139.06 88.49h6.32v6.32h-6.32z M158.02 88.49h6.32v6.32h-6.32z M164.35 88.49h6.32v6.32h-6.32z M176.99 88.49h6.32v6.32h-6.32z M189.63 88.49h6.32v6.32h-6.32z M227.56 88.49h6.32v6.32h-6.32z M240.20 88.49h6.32v6.32h-6.32z M246.52 88.49h6.32v6.32h-6.32z M252.84 88.49h6.32v6.32h-6.32z M271.80 88.49h6.32v6.32h-6.32z M284.44 88.49h6.32v6.32h-6.32z M297.09 88.49h6.32v6.32h-6.32z M303.41 88.49h6.32v6.32h-6.32z M309.73 88.49h6.32v6.32h-6.32z M316.05 88.49h6.32v6.32h-6.32z M322.37 88.49h6.32v6.32h-6.32z M328.69 88.49h6.32v6.32h-6.32z M335.01 88.49h6.32v6.32h-6.32z M379.26 88.49h6.32v6.32h-6.32z M391.90 88.49h6.32v6.32h-6.32z M398.22 88.49h6.32v6.32h-6.32z M404.54 88.49h6.32v6.32h-6.32z M410.86 88.49h6.32v6.32h-6.32z M423.51 88.49h6.32v6.32h-6.32z M442.47 88.49h6.32v6.32h-6.32z M461.43 88.49h6.32v6.32h-6.32z M474.07 88.49h6.32v6.32h-6.32z M480.40 88.49h6.32v6.32h-6.32z M31.60 94.81h6.32v6.32h-6.32z M37.93 94.81h6.32v6.32h-6.32z M69.53 94.81h6.32v6.32h-6.32z M75.85 94.81h6.32v6.32h-6.32z M82.17 94.81h6.32v6.32h-6.32z M107.46 94.81h6.32v6.32h-6.32z M120.10 94.81h6.32v6.32h-6.32z M139.06 94.81h6.32v6.32h-6.32z M145.38 94.81h6.32v6.32h-6.32z M164.35 94.81h6.32v6.32h-6.32z M170.67 94.81h6.32v6.32h-6.32z M183.31 94.81h6.32v6.32h-6.32z M189.63 94.81h6.32v6.32h-6.32z M195.95 94.81h6.32v6.32h-6.32z M208.59 94.81h6.32v6.32h-6.32z M214.91 94.81h6.32v6.32h-6.32z M227.56 94.81h6.32v6.32h-6.32z M233.88 94.81h6.32v6.32h-6.32z M240.20 94.81h6.32v6.32h-6.32z M259.16 94.81h6.32v6.32h-6.32z M284.44 94.81h6.32v6.32h-6.32z M290.77 94.81h6.32v6.32h-6.32z M309.73 94.81h6.32v6.32h-6.32z M316.05 94.81h6.32v6.32h-6.32z M322.37 94.81h6.32v6.32h-6.32z M328.69 94.81h6.32v6.32h-6.32z M341.33 94.81h6.32v6.32h-6.32z M347.65 94.81h6.32v6.32h-6.32z M366.62 94.81h6.32v6.32h-6.32z M372.94 94.81h6.32v6.32h-6.32z M379.26 94.81h6.32v6.32h-6.32z M391.90 94.81h6.32v6.32h-6.32z M423.51 94.81h6.32v6.32h-6.32z M429.83 94.81h6.32v6.32h-6.32z M436.15 94.81h6.32v6.32h-6.32z M448.79 94.81h6.32v6.32h-6.32z M461.43 94.81h6.32v6.32h-6.32z M467.75 94.81h6.32v6.32h-6.32z M480.40 94.81h6.32v6.32h-6.32z M25.28 101.14h6.32v6.32h-6.32z M31.60 101.14h6.32v6.32h-6.32z M37.93 101.14h6.32v6.32h-6.32z M63.21 101.14h6.32v6.32h-6.32z M69.53 101.14h6.32v6.32h-6.32z M75.85 101.14h6.32v6.32h-6.32z M88.49 101.14h6.32v6.32h-6.32z M94.81 101.14h6.32v6.32h-6.32z M107.46 101.14h6.32v6.32h-6.32z M120.10 101.14h6.32v6.32h-6.32z M158.02 101.14h6.32v6.32h-6.32z M164.35 101.14h6.32v6.32h-6.32z M176.99 101.14h6.32v6.32h-6.32z M202.27 101.14h6.32v6.32h-6.32z M208.59 101.14h6.32v6.32h-6.32z M214.91 101.14h6.32v6.32h-6.32z M227.56 101.14h6.32v6.32h-6.32z M252.84 101.14h6.32v6.32h-6.32z M265.48 101.14h6.32v6.32h-6.32z M278.12 101.14h6.32v6.32h-6.32z M284.44 101.14h6.32v6.32h-6.32z M303.41 101.14h6.32v6.32h-6.32z M309.73 101.14h6.32v6.32h-6.32z M328.69 101.14h6.32v6.32h-6.32z M341.33 101.14h6.32v6.32h-6.32z M347.65 101.14h6.32v6.32h-6.32z M353.98 101.14h6.32v6.32h-6.32z M360.30 101.14h6.32v6.32h-6.32z M366.62 101.14h6.32v6.32h-6.32z M372.94 101.14h6.32v6.32h-6.32z M398.22 101.14h6.32v6.32h-6.32z M404.54 101.14h6.32v6.32h-6.32z M417.19 101.14h6.32v6.32h-6.32z M429.83 101.14h6.32v6.32h-6.32z M436.15 101.14h6.32v6.32h-6.32z M442.47 101.14h6.32v6.32h-6.32z M448.79 101.14h6.32v6.32h-6.32z M461.43 101.14h6.32v6.32h-6.32z M480.40 101.14h6.32v6.32h-6.32z M25.28 107.46h6.32v6.32h-6.32z M44.25 107.46h6.32v6.32h-6.32z M56.89 107.46h6.32v6.32h-6.32z M75.85 107.46h6.32v6.32h-6.32z M82.17 107.46h6.32v6.32h-6.32z M88.49 107.46h6.32v6.32h-6.32z M94.81 107.46h6.32v6.32h-6.32z M113.78 107.46h6.32v6.32h-6.32z M120.10 107.46h6.32v6.32h-6.32z M132.74 107.46h6.32v6.32h-6.32z M151.70 107.46h6.32v6.32h-6.32z M202.27 107.46h6.32v6.32h-6.32z M208.59 107.46h6.32v6.32h-6.32z M214.91 107.46h6.32v6.32h-6.32z M221.23 107.46h6.32v6.32h-6.32z M227.56 107.46h6.32v6.32h-6.32z M233.88 107.46h6.32v6.32h-6.32z M252.84 107.46h6.32v6.32h-6.32z M259.16 107.46h6.32v6.32h-6.32z M265.48 107.46h6.32v6.32h-6.32z M271.80 107.46h6.32v6.32h-6.32z M278.12 107.46h6.32v6.32h-6.32z M284.44 107.46h6.32v6.32h-6.32z M290.77 107.46h6.32v6.32h-6.32z M297.09 107.46h6.32v6.32h-6.32z M309.73 107.46h6.32v6.32h-6.32z M316.05 107.46h6.32v6.32h-6.32z M328.69 107.46h6.32v6.32h-6.32z M335.01 107.46h6.32v6.32h-6.32z M353.98 107.46h6.32v6.32h-6.32z M391.90 107.46h6.32v6.32h-6.32z M410.86 107.46h6.32v6.32h-6.32z M429.83 107.46h6.32v6.32h-6.32z M455.11 107.46h6.32v6.32h-6.32z M461.43 107.46h6.32v6.32h-6.32z M467.75 107.46h6.32v6.32h-6.32z M25.28 113.78h6.32v6.32h-6.32z M31.60 113.78h6.32v6.32h-6.32z M63.21 113.78h6.32v6.32h-6.32z M75.85 113.78h6.32v6.32h-6.32z M82.17 113.78h6.32v6.32h-6.32z M88.49 113.78h6.32v6.32h-6.32z M94.81 113.78h6.32v6.32h-6.32z M107.46 113.78h6.32v6.32h-6.32z M120.10 113.78h6.32v6.32h-6.32z M126.42 113.78h6.32v6.32h-6.32z M132.74 113.78h6.32v6.32h-6.32z M139.06 113.78h6.32v6.32h-6.32z M151.70 113.78h6.32v6.32h-6.32z M158.02 113.78h6.32v6.32h-6.32z M170.67 113.78h6.32v6.32h-6.32z M183.31 113.78h6.32v6.32h-6.32z M189.63 113.78h6.32v6.32h-6.32z M195.95 113.78h6.32v6.32h-6.32z M221.23 113.78h6.32v6.32h-6.32z M233.88 113.78h6.32v6.32h-6.32z M252.84 113.78h6.32v6.32h-6.32z M259.16 113.78h6.32v6.32h-6.32z M265.48 113.78h6.32v6.32h-6.32z M271.80 113.78h6.32v6.32h-6.32z M278.12 113.78h6.32v6.32h-6.32z M309.73 113.78h6.32v6.32h-6.32z M316.05 113.78h6.32v6.32h-6.32z M341.33 113.78h6.32v6.32h-6.32z M353.98 113.78h6.32v6.32h-6.32z M360.30 113.78h6.32v6.32h-6.32z M391.90 113.78h6.32v6.32h-6.32z M404.54 113.78h6.32v6.32h-6.32z M417.19 113.78h6.32v6.32h-6.32z M423.51 113.78h6.32v6.32h-6.32z M436.15 113.78h6.32v6.32h-6.32z M442.47 113.78h6.32v6.32h-6.32z M455.11 113.78h6.32v6.32h-6.32z M461.43 113.78h6.32v6.32h-6.32z M467.75 113.78h6.32v6.32h-6.32z M474.07 113.78h6.32v6.32h-6.32z M480.40 113.78h6.32v6.32h-6.32z M25.28 120.10h6.32v6.32h-6.32z M37.93 120.10h6.32v6.32h-6.32z M44.25 120.10h6.32v6.32h-6.32z M50.57 120.10h6.32v6.32h-6.32z M69.53 120.10h6.32v6.32h-6.32z M82.17 120.10h6.32v6.32h-6.32z M101.14 120.10h6.32v6.32h-6.32z M107.46 120.10h6.32v6.32h-6.32z M113.78 120.10h6.32v6.32h-6.32z M120.10 120.10h6.32v6.32h-6.32z M139.06 120.10h6.32v6.32h-6.32z M145.38 120.10h6.32v6.32h-6.32z M158.02 120.10h6.32v6.32h-6.32z M170.67 120.10h6.32v6.32h-6.32z M176.99 120.10h6.32v6.32h-6.32z M183.31 120.10h6.32v6.32h-6.32z M189.63 120.10h6.32v6.32h-6.32z M202.27 120.10h6.32v6.32h-6.32z M214.91 120.10h6.32v6.32h-6.32z M221.23 120.10h6.32v6.32h-6.32z M240.20 120.10h6.32v6.32h-6.32z M265.48 120.10h6.32v6.32h-6.32z M290.77 120.10h6.32v6.32h-6.32z M303.41 120.10h6.32v6.32h-6.32z M309.73 120.10h6.32v6.32h-6.32z M316.05 120.10h6.32v6.32h-6.32z M341.33 120.10h6.32v6.32h-6.32z M347.65 120.10h6.32v6.32h-6.32z M360.30 120.10h6.32v6.32h-6.32z M372.94 120.10h6.32v6.32h-6.32z M391.90 120.10h6.32v6.32h-6.32z M398.22 120.10h6.32v6.32h-6.32z M417.19 120.10h6.32v6.32h-6.32z M429.83 120.10h6.32v6.32h-6.32z M448.79 120.10h6.32v6.32h-6.32z M455.11 120.10h6.32v6.32h-6.32z M461.43 120.10h6.32v6.32h-6.32z M467.75 120.10h6.32v6.32h-6.32z M474.07 120.10h6.32v6.32h-6.32z M480.40 120.10h6.32v6.32h-6.32z M25.28 126.42h6.32v6.32h-6.32z M31.60 126.42h6.32v6.32h-6.32z M37.93 126.42h6.32v6.32h-6.32z M44.25 126.42h6.32v6.32h-6.32z M56.89 126.42h6.32v6.32h-6.32z M63.21 126.42h6.32v6.32h-6.32z M69.53 126.42h6.32v6.32h-6.32z M75.85 126.42h6.32v6.32h-6.32z M82.17 126.42h6.32v6.32h-6.32z M113.78 126.42h6.32v6.32h-6.32z M139.06 126.42h6.32v6.32h-6.32z M145.38 126.42h6.32v6.32h-6.32z M158.02 126.42h6.32v6.32h-6.32z M183.31 126.42h6.32v6.32h-6.32z M214.91 126.42h6.32v6.32h-6.32z M221.23 126.42h6.32v6.32h-6.32z M227.56 126.42h6.32v6.32h-6.32z M252.84 126.42h6.32v6.32h-6.32z M259.16 126.42h6.32v6.32h-6.32z M265.48 126.42h6.32v6.32h-6.32z M290.77 126.42h6.32v6.32h-6.32z M303.41 126.42h6.32v6.32h-6.32z M309.73 126.42h6.32v6.32h-6.32z M316.05 126.42h6.32v6.32h-6.32z M322.37 126.42h6.32v6.32h-6.32z M328.69 126.42h6.32v6.32h-6.32z M335.01 126.42h6.32v6.32h-6.32z M341.33 126.42h6.32v6.32h-6.32z M347.65 126.42h6.32v6.32h-6.32z M353.98 126.42h6.32v6.32h-6.32z M360.30 126.42h6.32v6.32h-6.32z M385.58 126.42h6.32v6.32h-6.32z M398.22 126.42h6.32v6.32h-6.32z M404.54 126.42h6.32v6.32h-6.32z M436.15 126.42h6.32v6.32h-6.32z M461.43 126.42h6.32v6.32h-6.32z M467.75 126.42h6.32v6.32h-6.32z M474.07 126.42h6.32v6.32h-6.32z M480.40 126.42h6.32v6.32h-6.32z M37.93 132.74h6.32v6.32h-6.32z M50.57 132.74h6.32v6.32h-6.32z M69.53 132.74h6.32v6.32h-6.32z M75.85 132.74h6.32v6.32h-6.32z M94.81 132.74h6.32v6.32h-6.32z M101.14 132.74h6.32v6.32h-6.32z M120.10 132.74h6.32v6.32h-6.32z M132.74 132.74h6.32v6.32h-6.32z M139.06 132.74h6.32v6.32h-6.32z M145.38 132.74h6.32v6.32h-6.32z M151.70 132.74h6.32v6.32h-6.32z M158.02 132.74h6.32v6.32h-6.32z M164.35 132.74h6.32v6.32h-6.32z M170.67 132.74h6.32v6.32h-6.32z M189.63 132.74h6.32v6.32h-6.32z M195.95 132.74h6.32v6.32h-6.32z M208.59 132.74h6.32v6.32h-6.32z M214.91 132.74h6.32v6.32h-6.32z M221.23 132.74h6.32v6.32h-6.32z M240.20 132.74h6.32v6.32h-6.32z M278.12 132.74h6.32v6.32h-6.32z M284.44 132.74h6.32v6.32h-6.32z M290.77 132.74h6.32v6.32h-6.32z M303.41 132.74h6.32v6.32h-6.32z M309.73 132.74h6.32v6.32h-6.32z M322.37 132.74h6.32v6.32h-6.32z M353.98 132.74h6.32v6.32h-6.32z M360.30 132.74h6.32v6.32h-6.32z M366.62 132.74h6.32v6.32h-6.32z M391.90 132.74h6.32v6.32h-6.32z M429.83 132.74h6.32v6.32h-6.32z M442.47 132.74h6.32v6.32h-6.32z M461.43 132.74h6.32v6.32h-6.32z M31.60 139.06h6.32v6.32h-6.32z M50.57 139.06h6.32v6.32h-6.32z M56.89 139.06h6.32v6.32h-6.32z M63.21 139.06h6.32v6.32h-6.32z M69.53 139.06h6.32v6.32h-6.32z M75.85 139.06h6.32v6.32h-6.32z M82.17 139.06h6.32v6.32h-6.32z M88.49 139.06h6.32v6.32h-6.32z M145.38 139.06h6.32v6.32h-6.32z M158.02 139.06h6.32v6.32h-6.32z M170.67 139.06h6.32v6.32h-6.32z M202.27 139.06h6.32v6.32h-6.32z M214.91 139.06h6.32v6.32h-6.32z M227.56 139.06h6.32v6.32h-6.32z M240.20 139.06h6.32v6.32h-6.32z M246.52 139.06h6.32v6.32h-6.32z M252.84 139.06h6.32v6.32h-6.32z M265.48 139.06h6.32v6.32h-6.32z M271.80 139.06h6.32v6.32h-6.32z M278.12 139.06h6.32v6.32h-6.32z M290.77 139.06h6.32v6.32h-6.32z M303.41 139.06h6.32v6.32h-6.32z M316.05 139.06h6.32v6.32h-6.32z M322.37 139.06h6.32v6.32h-6.32z M328.69 139.06h6.32v6.32h-6.32z M372.94 139.06h6.32v6.32h-6.32z M379.26 139.06h6.32v6.32h-6.32z M404.54 139.06h6.32v6.32h-6.32z M423.51 139.06h6.32v6.32h-6.32z M429.83 139.06h6.32v6.32h-6.32z M442.47 139.06h6.32v6.32h-6.32z M461.43 139.06h6.32v6.32h-6.32z M480.40 139.06h6.32v6.32h-6.32z M31.60 145.38h6.32v6.32h-6.32z M37.93 145.38h6.32v6.32h-6.32z M44.25 145.38h6.32v6.32h-6.32z M56.89 145.38h6.32v6.32h-6.32z M69.53 145.38h6.32v6.32h-6.32z M75.85 145.38h6.32v6.32h-6.32z M94.81 145.38h6.32v6.32h-6.32z M101.14 145.38h6.32v6.32h-6.32z M107.46 145.38h6.32v6.32h-6.32z M113.78 145.38h6.32v6.32h-6.32z M126.42 145.38h6.32v6.32h-6.32z M132.74 145.38h6.32v6.32h-6.32z M145.38 145.38h6.32v6.32h-6.32z M170.67 145.38h6.32v6.32h-6.32z M195.95 145.38h6.32v6.32h-6.32z M208.59 145.38h6.32v6.32h-6.32z M214.91 145.38h6.32v6.32h-6.32z M221.23 145.38h6.32v6.32h-6.32z M227.56 145.38h6.32v6.32h-6.32z M233.88 145.38h6.32v6.32h-6.32z M252.84 145.38h6.32v6.32h-6.32z M259.16 145.38h6.32v6.32h-6.32z M265.48 145.38h6.32v6.32h-6.32z M284.44 145.38h6.32v6.32h-6.32z M290.77 145.38h6.32v6.32h-6.32z M303.41 145.38h6.32v6.32h-6.32z M328.69 145.38h6.32v6.32h-6.32z M341.33 145.38h6.32v6.32h-6.32z M347.65 145.38h6.32v6.32h-6.32z M353.98 145.38h6.32v6.32h-6.32z M366.62 145.38h6.32v6.32h-6.32z M385.58 145.38h6.32v6.32h-6.32z M391.90 145.38h6.32v6.32h-6.32z M398.22 145.38h6.32v6.32h-6.32z M404.54 145.38h6.32v6.32h-6.32z M410.86 145.38h6.32v6.32h-6.32z M429.83 145.38h6.32v6.32h-6.32z M436.15 145.38h6.32v6.32h-6.32z M455.11 145.38h6.32v6.32h-6.32z M461.43 145.38h6.32v6.32h-6.32z M25.28 151.70h6.32v6.32h-6.32z M37.93 151.70h6.32v6.32h-6.32z M44.25 151.70h6.32v6.32h-6.32z M50.57 151.70h6.32v6.32h-6.32z M63.21 151.70h6.32v6.32h-6.32z M69.53 151.70h6.32v6.32h-6.32z M75.85 151.70h6.32v6.32h-6.32z M88.49 151.70h6.32v6.32h-6.32z M94.81 151.70h6.32v6.32h-6.32z M101.14 151.70h6.32v6.32h-6.32z M107.46 151.70h6.32v6.32h-6.32z M113.78 151.70h6.32v6.32h-6.32z M120.10 151.70h6.32v6.32h-6.32z M132.74 151.70h6.32v6.32h-6.32z M139.06 151.70h6.32v6.32h-6.32z M151.70 151.70h6.32v6.32h-6.32z M158.02 151.70h6.32v6.32h-6.32z M189.63 151.70h6.32v6.32h-6.32z M202.27 151.70h6.32v6.32h-6.32z M214.91 151.70h6.32v6.32h-6.32z M227.56 151.70h6.32v6.32h-6.32z M240.20 151.70h6.32v6.32h-6.32z M246.52 151.70h6.32v6.32h-6.32z M265.48 151.70h6.32v6.32h-6.32z M284.44 151.70h6.32v6.32h-6.32z M290.77 151.70h6.32v6.32h-6.32z M303.41 151.70h6.32v6.32h-6.32z M309.73 151.70h6.32v6.32h-6.32z M316.05 151.70h6.32v6.32h-6.32z M322.37 151.70h6.32v6.32h-6.32z M341.33 151.70h6.32v6.32h-6.32z M347.65 151.70h6.32v6.32h-6.32z M372.94 151.70h6.32v6.32h-6.32z M385.58 151.70h6.32v6.32h-6.32z M391.90 151.70h6.32v6.32h-6.32z M404.54 151.70h6.32v6.32h-6.32z M410.86 151.70h6.32v6.32h-6.32z M417.19 151.70h6.32v6.32h-6.32z M461.43 151.70h6.32v6.32h-6.32z M467.75 151.70h6.32v6.32h-6.32z M480.40 151.70h6.32v6.32h-6.32z M25.28 158.02h6.32v6.32h-6.32z M37.93 158.02h6.32v6.32h-6.32z M50.57 158.02h6.32v6.32h-6.32z M82.17 158.02h6.32v6.32h-6.32z M88.49 158.02h6.32v6.32h-6.32z M94.81 158.02h6.32v6.32h-6.32z M113.78 158.02h6.32v6.32h-6.32z M126.42 158.02h6.32v6.32h-6.32z M139.06 158.02h6.32v6.32h-6.32z M145.38 158.02h6.32v6.32h-6.32z M164.35 158.02h6.32v6.32h-6.32z M183.31 158.02h6.32v6.32h-6.32z M189.63 158.02h6.32v6.32h-6.32z M208.59 158.02h6.32v6.32h-6.32z M214.91 158.02h6.32v6.32h-6.32z M233.88 158.02h6.32v6.32h-6.32z M240.20 158.02h6.32v6.32h-6.32z M259.16 158.02h6.32v6.32h-6.32z M265.48 158.02h6.32v6.32h-6.32z M284.44 158.02h6.32v6.32h-6.32z M290.77 158.02h6.32v6.32h-6.32z M303.41 158.02h6.32v6.32h-6.32z M309.73 158.02h6.32v6.32h-6.32z M328.69 158.02h6.32v6.32h-6.32z M341.33 158.02h6.32v6.32h-6.32z M347.65 158.02h6.32v6.32h-6.32z M366.62 158.02h6.32v6.32h-6.32z M379.26 158.02h6.32v6.32h-6.32z M417.19 158.02h6.32v6.32h-6.32z M436.15 158.02h6.32v6.32h-6.32z M442.47 158.02h6.32v6.32h-6.32z M455.11 158.02h6.32v6.32h-6.32z M467.75 158.02h6.32v6.32h-6.32z M474.07 158.02h6.32v6.32h-6.32z M31.60 164.35h6.32v6.32h-6.32z M37.93 164.35h6.32v6.32h-6.32z M44.25 164.35h6.32v6.32h-6.32z M63.21 164.35h6.32v6.32h-6.32z M75.85 164.35h6.32v6.32h-6.32z M94.81 164.35h6.32v6.32h-6.32z M107.46 164.35h6.32v6.32h-6.32z M113.78 164.35h6.32v6.32h-6.32z M120.10 164.35h6.32v6.32h-6.32z M126.42 164.35h6.32v6.32h-6.32z M139.06 164.35h6.32v6.32h-6.32z M145.38 164.35h6.32v6.32h-6.32z M151.70 164.35h6.32v6.32h-6.32z M176.99 164.35h6.32v6.32h-6.32z M183.31 164.35h6.32v6.32h-6.32z M195.95 164.35h6.32v6.32h-6.32z M221.23 164.35h6.32v6.32h-6.32z M233.88 164.35h6.32v6.32h-6.32z M240.20 164.35h6.32v6.32h-6.32z M278.12 164.35h6.32v6.32h-6.32z M297.09 164.35h6.32v6.32h-6.32z M322.37 164.35h6.32v6.32h-6.32z M335.01 164.35h6.32v6.32h-6.32z M353.98 164.35h6.32v6.32h-6.32z M366.62 164.35h6.32v6.32h-6.32z M379.26 164.35h6.32v6.32h-6.32z M391.90 164.35h6.32v6.32h-6.32z M398.22 164.35h6.32v6.32h-6.32z M404.54 164.35h6.32v6.32h-6.32z M410.86 164.35h6.32v6.32h-6.32z M417.19 164.35h6.32v6.32h-6.32z M423.51 164.35h6.32v6.32h-6.32z M429.83 164.35h6.32v6.32h-6.32z M442.47 164.35h6.32v6.32h-6.32z M461.43 164.35h6.32v6.32h-6.32z M480.40 164.35h6.32v6.32h-6.32z M25.28 170.67h6.32v6.32h-6.32z M37.93 170.67h6.32v6.32h-6.32z M50.57 170.67h6.32v6.32h-6.32z M56.89 170.67h6.32v6.32h-6.32z M75.85 170.67h6.32v6.32h-6.32z M82.17 170.67h6.32v6.32h-6.32z M94.81 170.67h6.32v6.32h-6.32z M101.14 170.67h6.32v6.32h-6.32z M107.46 170.67h6.32v6.32h-6.32z M120.10 170.67h6.32v6.32h-6.32z M139.06 170.67h6.32v6.32h-6.32z M151.70 170.67h6.32v6.32h-6.32z M164.35 170.67h6.32v6.32h-6.32z M176.99 170.67h6.32v6.32h-6.32z M189.63 170.67h6.32v6.32h-6.32z M195.95 170.67h6.32v6.32h-6.32z M202.27 170.67h6.32v6.32h-6.32z M227.56 170.67h6.32v6.32h-6.32z M233.88 170.67h6.32v6.32h-6.32z M240.20 170.67h6.32v6.32h-6.32z M246.52 170.67h6.32v6.32h-6.32z M259.16 170.67h6.32v6.32h-6.32z M265.48 170.67h6.32v6.32h-6.32z M271.80 170.67h6.32v6.32h-6.32z M290.77 170.67h6.32v6.32h-6.32z M303.41 170.67h6.32v6.32h-6.32z M309.73 170.67h6.32v6.32h-6.32z M322.37 170.67h6.32v6.32h-6.32z M328.69 170.67h6.32v6.32h-6.32z M335.01 170.67h6.32v6.32h-6.32z M366.62 170.67h6.32v6.32h-6.32z M372.94 170.67h6.32v6.32h-6.32z M379.26 170.67h6.32v6.32h-6.32z M391.90 170.67h6.32v6.32h-6.32z M436.15 170.67h6.32v6.32h-6.32z M448.79 170.67h6.32v6.32h-6.32z M461.43 170.67h6.32v6.32h-6.32z M467.75 170.67h6.32v6.32h-6.32z M480.40 170.67h6.32v6.32h-6.32z M44.25 176.99h6.32v6.32h-6.32z M50.57 176.99h6.32v6.32h-6.32z M56.89 176.99h6.32v6.32h-6.32z M63.21 176.99h6.32v6.32h-6.32z M69.53 176.99h6.32v6.32h-6.32z M75.85 176.99h6.32v6.32h-6.32z M88.49 176.99h6.32v6.32h-6.32z M94.81 176.99h6.32v6.32h-6.32z M101.14 176.99h6.32v6.32h-6.32z M120.10 176.99h6.32v6.32h-6.32z M132.74 176.99h6.32v6.32h-6.32z M158.02 176.99h6.32v6.32h-6.32z M170.67 176.99h6.32v6.32h-6.32z M176.99 176.99h6.32v6.32h-6.32z M183.31 176.99h6.32v6.32h-6.32z M189.63 176.99h6.32v6.32h-6.32z M195.95 176.99h6.32v6.32h-6.32z M202.27 176.99h6.32v6.32h-6.32z M221.23 176.99h6.32v6.32h-6.32z M227.56 176.99h6.32v6.32h-6.32z M233.88 176.99h6.32v6.32h-6.32z M240.20 176.99h6.32v6.32h-6.32z M252.84 176.99h6.32v6.32h-6.32z M265.48 176.99h6.32v6.32h-6.32z M278.12 176.99h6.32v6.32h-6.32z M290.77 176.99h6.32v6.32h-6.32z M303.41 176.99h6.32v6.32h-6.32z M309.73 176.99h6.32v6.32h-6.32z M316.05 176.99h6.32v6.32h-6.32z M322.37 176.99h6.32v6.32h-6.32z M328.69 176.99h6.32v6.32h-6.32z M335.01 176.99h6.32v6.32h-6.32z M347.65 176.99h6.32v6.32h-6.32z M353.98 176.99h6.32v6.32h-6.32z M372.94 176.99h6.32v6.32h-6.32z M379.26 176.99h6.32v6.32h-6.32z M385.58 176.99h6.32v6.32h-6.32z M391.90 176.99h6.32v6.32h-6.32z M398.22 176.99h6.32v6.32h-6.32z M404.54 176.99h6.32v6.32h-6.32z M417.19 176.99h6.32v6.32h-6.32z M429.83 176.99h6.32v6.32h-6.32z M436.15 176.99h6.32v6.32h-6.32z M442.47 176.99h6.32v6.32h-6.32z M448.79 176.99h6.32v6.32h-6.32z M455.11 176.99h6.32v6.32h-6.32z M461.43 176.99h6.32v6.32h-6.32z M474.07 176.99h6.32v6.32h-6.32z M31.60 183.31h6.32v6.32h-6.32z M44.25 183.31h6.32v6.32h-6.32z M50.57 183.31h6.32v6.32h-6.32z M75.85 183.31h6.32v6.32h-6.32z M82.17 183.31h6.32v6.32h-6.32z M88.49 183.31h6.32v6.32h-6.32z M94.81 183.31h6.32v6.32h-6.32z M113.78 183.31h6.32v6.32h-6.32z M126.42 183.31h6.32v6.32h-6.32z M151.70 183.31h6.32v6.32h-6.32z M158.02 183.31h6.32v6.32h-6.32z M176.99 183.31h6.32v6.32h-6.32z M202.27 183.31h6.32v6.32h-6.32z M208.59 183.31h6.32v6.32h-6.32z M214.91 183.31h6.32v6.32h-6.32z M221.23 183.31h6.32v6.32h-6.32z M227.56 183.31h6.32v6.32h-6.32z M233.88 183.31h6.32v6.32h-6.32z M246.52 183.31h6.32v6.32h-6.32z M252.84 183.31h6.32v6.32h-6.32z M265.48 183.31h6.32v6.32h-6.32z M271.80 183.31h6.32v6.32h-6.32z M284.44 183.31h6.32v6.32h-6.32z M290.77 183.31h6.32v6.32h-6.32z M303.41 183.31h6.32v6.32h-6.32z M328.69 183.31h6.32v6.32h-6.32z M335.01 183.31h6.32v6.32h-6.32z M341.33 183.31h6.32v6.32h-6.32z M366.62 183.31h6.32v6.32h-6.32z M372.94 183.31h6.32v6.32h-6.32z M391.90 183.31h6.32v6.32h-6.32z M398.22 183.31h6.32v6.32h-6.32z M410.86 183.31h6.32v6.32h-6.32z M417.19 183.31h6.32v6.32h-6.32z M423.51 183.31h6.32v6.32h-6.32z M429.83 183.31h6.32v6.32h-6.32z M455.11 183.31h6.32v6.32h-6.32z M467.75 183.31h6.32v6.32h-6.32z M25.28 189.63h6.32v6.32h-6.32z M50.57 189.63h6.32v6.32h-6.32z M63.21 189.63h6.32v6.32h-6.32z M75.85 189.63h6.32v6.32h-6.32z M82.17 189.63h6.32v6.32h-6.32z M101.14 189.63h6.32v6.32h-6.32z M132.74 189.63h6.32v6.32h-6.32z M139.06 189.63h6.32v6.32h-6.32z M145.38 189.63h6.32v6.32h-6.32z M164.35 189.63h6.32v6.32h-6.32z M170.67 189.63h6.32v6.32h-6.32z M176.99 189.63h6.32v6.32h-6.32z M189.63 189.63h6.32v6.32h-6.32z M202.27 189.63h6.32v6.32h-6.32z M208.59 189.63h6.32v6.32h-6.32z M233.88 189.63h6.32v6.32h-6.32z M246.52 189.63h6.32v6.32h-6.32z M252.84 189.63h6.32v6.32h-6.32z M259.16 189.63h6.32v6.32h-6.32z M265.48 189.63h6.32v6.32h-6.32z M278.12 189.63h6.32v6.32h-6.32z M303.41 189.63h6.32v6.32h-6.32z M316.05 189.63h6.32v6.32h-6.32z M328.69 189.63h6.32v6.32h-6.32z M341.33 189.63h6.32v6.32h-6.32z M347.65 189.63h6.32v6.32h-6.32z M353.98 189.63h6.32v6.32h-6.32z M360.30 189.63h6.32v6.32h-6.32z M366.62 189.63h6.32v6.32h-6.32z M398.22 189.63h6.32v6.32h-6.32z M417.19 189.63h6.32v6.32h-6.32z M423.51 189.63h6.32v6.32h-6.32z M429.83 189.63h6.32v6.32h-6.32z M442.47 189.63h6.32v6.32h-6.32z M455.11 189.63h6.32v6.32h-6.32z M467.75 189.63h6.32v6.32h-6.32z M474.07 189.63h6.32v6.32h-6.32z M480.40 189.63h6.32v6.32h-6.32z M37.93 195.95h6.32v6.32h-6.32z M50.57 195.95h6.32v6.32h-6.32z M75.85 195.95h6.32v6.32h-6.32z M82.17 195.95h6.32v6.32h-6.32z M88.49 195.95h6.32v6.32h-6.32z M94.81 195.95h6.32v6.32h-6.32z M101.14 195.95h6.32v6.32h-6.32z M107.46 195.95h6.32v6.32h-6.32z M126.42 195.95h6.32v6.32h-6.32z M132.74 195.95h6.32v6.32h-6.32z M139.06 195.95h6.32v6.32h-6.32z M151.70 195.95h6.32v6.32h-6.32z M164.35 195.95h6.32v6.32h-6.32z M176.99 195.95h6.32v6.32h-6.32z M202.27 195.95h6.32v6.32h-6.32z M214.91 195.95h6.32v6.32h-6.32z M221.23 195.95h6.32v6.32h-6.32z M233.88 195.95h6.32v6.32h-6.32z M240.20 195.95h6.32v6.32h-6.32z M259.16 195.95h6.32v6.32h-6.32z M265.48 195.95h6.32v6.32h-6.32z M271.80 195.95h6.32v6.32h-6.32z M284.44 195.95h6.32v6.32h-6.32z M297.09 195.95h6.32v6.32h-6.32z M303.41 195.95h6.32v6.32h-6.32z M328.69 195.95h6.32v6.32h-6.32z M341.33 195.95h6.32v6.32h-6.32z M347.65 195.95h6.32v6.32h-6.32z M353.98 195.95h6.32v6.32h-6.32z M360.30 195.95h6.32v6.32h-6.32z M366.62 195.95h6.32v6.32h-6.32z M372.94 195.95h6.32v6.32h-6.32z M398.22 195.95h6.32v6.32h-6.32z M417.19 195.95h6.32v6.32h-6.32z M423.51 195.95h6.32v6.32h-6.32z M429.83 195.95h6.32v6.32h-6.32z M455.11 195.95h6.32v6.32h-6.32z M461.43 195.95h6.32v6.32h-6.32z M467.75 195.95h6.32v6.32h-6.32z M480.40 195.95h6.32v6.32h-6.32z M25.28 202.27h6.32v6.32h-6.32z M31.60 202.27h6.32v6.32h-6.32z M37.93 202.27h6.32v6.32h-6.32z M44.25 202.27h6.32v6.32h-6.32z M50.57 202.27h6.32v6.32h-6.32z M56.89 202.27h6.32v6.32h-6.32z M63.21 202.27h6.32v6.32h-6.32z M69.53 202.27h6.32v6.32h-6.32z M75.85 202.27h6.32v6.32h-6.32z M88.49 202.27h6.32v6.32h-6.32z M101.14 202.27h6.32v6.32h-6.32z M113.78 202.27h6.32v6.32h-6.32z M120.10 202.27h6.32v6.32h-6.32z M132.74 202.27h6.32v6.32h-6.32z M139.06 202.27h6.32v6.32h-6.32z M164.35 202.27h6.32v6.32h-6.32z M176.99 202.27h6.32v6.32h-6.32z M183.31 202.27h6.32v6.32h-6.32z M189.63 202.27h6.32v6.32h-6.32z M195.95 202.27h6.32v6.32h-6.32z M202.27 202.27h6.32v6.32h-6.32z M214.91 202.27h6.32v6.32h-6.32z M221.23 202.27h6.32v6.32h-6.32z M227.56 202.27h6.32v6.32h-6.32z M240.20 202.27h6.32v6.32h-6.32z M246.52 202.27h6.32v6.32h-6.32z M252.84 202.27h6.32v6.32h-6.32z M259.16 202.27h6.32v6.32h-6.32z M265.48 202.27h6.32v6.32h-6.32z M297.09 202.27h6.32v6.32h-6.32z M303.41 202.27h6.32v6.32h-6.32z M309.73 202.27h6.32v6.32h-6.32z M316.05 202.27h6.32v6.32h-6.32z M322.37 202.27h6.32v6.32h-6.32z M328.69 202.27h6.32v6.32h-6.32z M347.65 202.27h6.32v6.32h-6.32z M379.26 202.27h6.32v6.32h-6.32z M385.58 202.27h6.32v6.32h-6.32z M391.90 202.27h6.32v6.32h-6.32z M398.22 202.27h6.32v6.32h-6.32z M417.19 202.27h6.32v6.32h-6.32z M423.51 202.27h6.32v6.32h-6.32z M429.83 202.27h6.32v6.32h-6.32z M436.15 202.27h6.32v6.32h-6.32z M442.47 202.27h6.32v6.32h-6.32z M448.79 202.27h6.32v6.32h-6.32z M455.11 202.27h6.32v6.32h-6.32z M461.43 202.27h6.32v6.32h-6.32z M467.75 202.27h6.32v6.32h-6.32z M474.07 202.27h6.32v6.32h-6.32z M480.40 202.27h6.32v6.32h-6.32z M44.25 208.59h6.32v6.32h-6.32z M50.57 208.59h6.32v6.32h-6.32z M56.89 208.59h6.32v6.32h-6.32z M75.85 208.59h6.32v6.32h-6.32z M101.14 208.59h6.32v6.32h-6.32z M120.10 208.59h6.32v6.32h-6.32z M132.74 208.59h6.32v6.32h-6.32z M151.70 208.59h6.32v6.32h-6.32z M158.02 208.59h6.32v6.32h-6.32z M164.35 208.59h6.32v6.32h-6.32z M170.67 208.59h6.32v6.32h-6.32z M183.31 208.59h6.32v6.32h-6.32z M195.95 208.59h6.32v6.32h-6.32z M214.91 208.59h6.32v6.32h-6.32z M233.88 208.59h6.32v6.32h-6.32z M240.20 208.59h6.32v6.32h-6.32z M246.52 208.59h6.32v6.32h-6.32z M271.80 208.59h6.32v6.32h-6.32z M278.12 208.59h6.32v6.32h-6.32z M290.77 208.59h6.32v6.32h-6.32z M303.41 208.59h6.32v6.32h-6.32z M347.65 208.59h6.32v6.32h-6.32z M353.98 208.59h6.32v6.32h-6.32z M360.30 208.59h6.32v6.32h-6.32z M379.26 208.59h6.32v6.32h-6.32z M404.54 208.59h6.32v6.32h-6.32z M423.51 208.59h6.32v6.32h-6.32z M429.83 208.59h6.32v6.32h-6.32z M467.75 208.59h6.32v6.32h-6.32z M474.07 208.59h6.32v6.32h-6.32z M25.28 214.91h6.32v6.32h-6.32z M44.25 214.91h6.32v6.32h-6.32z M63.21 214.91h6.32v6.32h-6.32z M82.17 214.91h6.32v6.32h-6.32z M94.81 214.91h6.32v6.32h-6.32z M107.46 214.91h6.32v6.32h-6.32z M120.10 214.91h6.32v6.32h-6.32z M126.42 214.91h6.32v6.32h-6.32z M145.38 214.91h6.32v6.32h-6.32z M164.35 214.91h6.32v6.32h-6.32z M170.67 214.91h6.32v6.32h-6.32z M183.31 214.91h6.32v6.32h-6.32z M202.27 214.91h6.32v6.32h-6.32z M208.59 214.91h6.32v6.32h-6.32z M233.88 214.91h6.32v6.32h-6.32z M259.16 214.91h6.32v6.32h-6.32z M271.80 214.91h6.32v6.32h-6.32z M284.44 214.91h6.32v6.32h-6.32z M322.37 214.91h6.32v6.32h-6.32z M347.65 214.91h6.32v6.32h-6.32z M372.94 214.91h6.32v6.32h-6.32z M398.22 214.91h6.32v6.32h-6.32z M423.51 214.91h6.32v6.32h-6.32z M436.15 214.91h6.32v6.32h-6.32z M448.79 214.91h6.32v6.32h-6.32z M455.11 214.91h6.32v6.32h-6.32z M467.75 214.91h6.32v6.32h-6.32z M474.07 214.91h6.32v6.32h-6.32z M480.40 214.91h6.32v6.32h-6.32z M25.28 221.23h6.32v6.32h-6.32z M31.60 221.23h6.32v6.32h-6.32z M37.93 221.23h6.32v6.32h-6.32z M50.57 221.23h6.32v6.32h-6.32z M56.89 221.23h6.32v6.32h-6.32z M69.53 221.23h6.32v6.32h-6.32z M75.85 221.23h6.32v6.32h-6.32z M88.49 221.23h6.32v6.32h-6.32z M94.81 221.23h6.32v6.32h-6.32z M120.10 221.23h6.32v6.32h-6.32z M126.42 221.23h6.32v6.32h-6.32z M139.06 221.23h6.32v6.32h-6.32z M151.70 221.23h6.32v6.32h-6.32z M158.02 221.23h6.32v6.32h-6.32z M176.99 221.23h6.32v6.32h-6.32z M183.31 221.23h6.32v6.32h-6.32z M195.95 221.23h6.32v6.32h-6.32z M214.91 221.23h6.32v6.32h-6.32z M221.23 221.23h6.32v6.32h-6.32z M252.84 221.23h6.32v6.32h-6.32z M259.16 221.23h6.32v6.32h-6.32z M265.48 221.23h6.32v6.32h-6.32z M278.12 221.23h6.32v6.32h-6.32z M303.41 221.23h6.32v6.32h-6.32z M309.73 221.23h6.32v6.32h-6.32z M335.01 221.23h6.32v6.32h-6.32z M341.33 221.23h6.32v6.32h-6.32z M360.30 221.23h6.32v6.32h-6.32z M366.62 221.23h6.32v6.32h-6.32z M372.94 221.23h6.32v6.32h-6.32z M379.26 221.23h6.32v6.32h-6.32z M385.58 221.23h6.32v6.32h-6.32z M398.22 221.23h6.32v6.32h-6.32z M410.86 221.23h6.32v6.32h-6.32z M417.19 221.23h6.32v6.32h-6.32z M423.51 221.23h6.32v6.32h-6.32z M442.47 221.23h6.32v6.32h-6.32z M448.79 221.23h6.32v6.32h-6.32z M461.43 221.23h6.32v6.32h-6.32z M25.28 227.56h6.32v6.32h-6.32z M37.93 227.56h6.32v6.32h-6.32z M56.89 227.56h6.32v6.32h-6.32z M63.21 227.56h6.32v6.32h-6.32z M69.53 227.56h6.32v6.32h-6.32z M75.85 227.56h6.32v6.32h-6.32z M94.81 227.56h6.32v6.32h-6.32z M107.46 227.56h6.32v6.32h-6.32z M126.42 227.56h6.32v6.32h-6.32z M132.74 227.56h6.32v6.32h-6.32z M151.70 227.56h6.32v6.32h-6.32z M164.35 227.56h6.32v6.32h-6.32z M208.59 227.56h6.32v6.32h-6.32z M221.23 227.56h6.32v6.32h-6.32z M246.52 227.56h6.32v6.32h-6.32z M252.84 227.56h6.32v6.32h-6.32z M259.16 227.56h6.32v6.32h-6.32z M278.12 227.56h6.32v6.32h-6.32z M284.44 227.56h6.32v6.32h-6.32z M290.77 227.56h6.32v6.32h-6.32z M303.41 227.56h6.32v6.32h-6.32z M328.69 227.56h6.32v6.32h-6.32z M335.01 227.56h6.32v6.32h-6.32z M347.65 227.56h6.32v6.32h-6.32z M360.30 227.56h6.32v6.32h-6.32z M372.94 227.56h6.32v6.32h-6.32z M379.26 227.56h6.32v6.32h-6.32z M410.86 227.56h6.32v6.32h-6.32z M429.83 227.56h6.32v6.32h-6.32z M448.79 227.56h6.32v6.32h-6.32z M480.40 227.56h6.32v6.32h-6.32z M25.28 233.88h6.32v6.32h-6.32z M69.53 233.88h6.32v6.32h-6.32z M82.17 233.88h6.32v6.32h-6.32z M94.81 233.88h6.32v6.32h-6.32z M120.10 233.88h6.32v6.32h-6.32z M126.42 233.88h6.32v6.32h-6.32z M139.06 233.88h6.32v6.32h-6.32z M151.70 233.88h6.32v6.32h-6.32z M158.02 233.88h6.32v6.32h-6.32z M164.35 233.88h6.32v6.32h-6.32z M170.67 233.88h6.32v6.32h-6.32z M176.99 233.88h6.32v6.32h-6.32z M183.31 233.88h6.32v6.32h-6.32z M202.27 233.88h6.32v6.32h-6.32z M208.59 233.88h6.32v6.32h-6.32z M214.91 233.88h6.32v6.32h-6.32z M221.23 233.88h6.32v6.32h-6.32z M240.20 233.88h6.32v6.32h-6.32z M252.84 233.88h6.32v6.32h-6.32z M259.16 233.88h6.32v6.32h-6.32z M265.48 233.88h6.32v6.32h-6.32z M271.80 233.88h6.32v6.32h-6.32z M278.12 233.88h6.32v6.32h-6.32z M284.44 233.88h6.32v6.32h-6.32z M290.77 233.88h6.32v6.32h-6.32z M303.41 233.88h6.32v6.32h-6.32z M309.73 233.88h6.32v6.32h-6.32z M316.05 233.88h6.32v6.32h-6.32z M322.37 233.88h6.32v6.32h-6.32z M341.33 233.88h6.32v6.32h-6.32z M353.98 233.88h6.32v6.32h-6.32z M366.62 233.88h6.32v6.32h-6.32z M379.26 233.88h6.32v6.32h-6.32z M417.19 233.88h6.32v6.32h-6.32z M436.15 233.88h6.32v6.32h-6.32z M442.47 233.88h6.32v6.32h-6.32z M448.79 233.88h6.32v6.32h-6.32z M455.11 233.88h6.32v6.32h-6.32z M461.43 233.88h6.32v6.32h-6.32z M467.75 233.88h6.32v6.32h-6.32z M480.40 233.88h6.32v6.32h-6.32z M25.28 240.20h6.32v6.32h-6.32z M31.60 240.20h6.32v6.32h-6.32z M56.89 240.20h6.32v6.32h-6.32z M63.21 240.20h6.32v6.32h-6.32z M82.17 240.20h6.32v6.32h-6.32z M88.49 240.20h6.32v6.32h-6.32z M101.14 240.20h6.32v6.32h-6.32z M107.46 240.20h6.32v6.32h-6.32z M113.78 240.20h6.32v6.32h-6.32z M120.10 240.20h6.32v6.32h-6.32z M132.74 240.20h6.32v6.32h-6.32z M164.35 240.20h6.32v6.32h-6.32z M176.99 240.20h6.32v6.32h-6.32z M227.56 240.20h6.32v6.32h-6.32z M233.88 240.20h6.32v6.32h-6.32z M240.20 240.20h6.32v6.32h-6.32z M246.52 240.20h6.32v6.32h-6.32z M252.84 240.20h6.32v6.32h-6.32z M259.16 240.20h6.32v6.32h-6.32z M284.44 240.20h6.32v6.32h-6.32z M297.09 240.20h6.32v6.32h-6.32z M309.73 240.20h6.32v6.32h-6.32z M316.05 240.20h6.32v6.32h-6.32z M322.37 240.20h6.32v6.32h-6.32z M328.69 240.20h6.32v6.32h-6.32z M335.01 240.20h6.32v6.32h-6.32z M347.65 240.20h6.32v6.32h-6.32z M353.98 240.20h6.32v6.32h-6.32z M366.62 240.20h6.32v6.32h-6.32z M379.26 240.20h6.32v6.32h-6.32z M391.90 240.20h6.32v6.32h-6.32z M398.22 240.20h6.32v6.32h-6.32z M410.86 240.20h6.32v6.32h-6.32z M429.83 240.20h6.32v6.32h-6.32z M442.47 240.20h6.32v6.32h-6.32z M455.11 240.20h6.32v6.32h-6.32z M480.40 240.20h6.32v6.32h-6.32z M31.60 246.52h6.32v6.32h-6.32z M37.93 246.52h6.32v6.32h-6.32z M101.14 246.52h6.32v6.32h-6.32z M113.78 246.52h6.32v6.32h-6.32z M126.42 246.52h6.32v6.32h-6.32z M139.06 246.52h6.32v6.32h-6.32z M145.38 246.52h6.32v6.32h-6.32z M164.35 246.52h6.32v6.32h-6.32z M170.67 246.52h6.32v6.32h-6.32z M183.31 246.52h6.32v6.32h-6.32z M202.27 246.52h6.32v6.32h-6.32z M214.91 246.52h6.32v6.32h-6.32z M227.56 246.52h6.32v6.32h-6.32z M246.52 246.52h6.32v6.32h-6.32z M265.48 246.52h6.32v6.32h-6.32z M271.80 246.52h6.32v6.32h-6.32z M284.44 246.52h6.32v6.32h-6.32z M290.77 246.52h6.32v6.32h-6.32z M297.09 246.52h6.32v6.32h-6.32z M303.41 246.52h6.32v6.32h-6.32z M316.05 246.52h6.32v6.32h-6.32z M322.37 246.52h6.32v6.32h-6.32z M328.69 246.52h6.32v6.32h-6.32z M335.01 246.52h6.32v6.32h-6.32z M341.33 246.52h6.32v6.32h-6.32z M347.65 246.52h6.32v6.32h-6.32z M366.62 246.52h6.32v6.32h-6.32z M372.94 246.52h6.32v6.32h-6.32z M379.26 246.52h6.32v6.32h-6.32z M423.51 246.52h6.32v6.32h-6.32z M429.83 246.52h6.32v6.32h-6.32z M442.47 246.52h6.32v6.32h-6.32z M455.11 246.52h6.32v6.32h-6.32z M461.43 246.52h6.32v6.32h-6.32z M467.75 246.52h6.32v6.32h-6.32z M480.40 246.52h6.32v6.32h-6.32z M25.28 252.84h6.32v6.32h-6.32z M37.93 252.84h6.32v6.32h-6.32z M44.25 252.84h6.32v6.32h-6.32z M63.21 252.84h6.32v6.32h-6.32z M75.85 252.84h6.32v6.32h-6.32z M88.49 252.84h6.32v6.32h-6.32z M94.81 252.84h6.32v6.32h-6.32z M107.46 252.84h6.32v6.32h-6.32z M132.74 252.84h6.32v6.32h-6.32z M139.06 252.84h6.32v6.32h-6.32z M164.35 252.84h6.32v6.32h-6.32z M170.67 252.84h6.32v6.32h-6.32z M176.99 252.84h6.32v6.32h-6.32z M183.31 252.84h6.32v6.32h-6.32z M195.95 252.84h6.32v6.32h-6.32z M202.27 252.84h6.32v6.32h-6.32z M214.91 252.84h6.32v6.32h-6.32z M221.23 252.84h6.32v6.32h-6.32z M227.56 252.84h6.32v6.32h-6.32z M240.20 252.84h6.32v6.32h-6.32z M252.84 252.84h6.32v6.32h-6.32z M265.48 252.84h6.32v6.32h-6.32z M278.12 252.84h6.32v6.32h-6.32z M290.77 252.84h6.32v6.32h-6.32z M309.73 252.84h6.32v6.32h-6.32z M316.05 252.84h6.32v6.32h-6.32z M322.37 252.84h6.32v6.32h-6.32z M328.69 252.84h6.32v6.32h-6.32z M335.01 252.84h6.32v6.32h-6.32z M347.65 252.84h6.32v6.32h-6.32z M353.98 252.84h6.32v6.32h-6.32z M360.30 252.84h6.32v6.32h-6.32z M366.62 252.84h6.32v6.32h-6.32z M372.94 252.84h6.32v6.32h-6.32z M379.26 252.84h6.32v6.32h-6.32z M391.90 252.84h6.32v6.32h-6.32z M398.22 252.84h6.32v6.32h-6.32z M410.86 252.84h6.32v6.32h-6.32z M429.83 252.84h6.32v6.32h-6.32z M455.11 252.84h6.32v6.32h-6.32z M461.43 252.84h6.32v6.32h-6.32z M474.07 252.84h6.32v6.32h-6.32z M480.40 252.84h6.32v6.32h-6.32z M25.28 259.16h6.32v6.32h-6.32z M56.89 259.16h6.32v6.32h-6.32z M88.49 259.16h6.32v6.32h-6.32z M101.14 259.16h6.32v6.32h-6.32z M107.46 259.16h6.32v6.32h-6.32z M120.10 259.16h6.32v6.32h-6.32z M158.02 259.16h6.32v6.32h-6.32z M164.35 259.16h6.32v6.32h-6.32z M170.67 259.16h6.32v6.32h-6.32z M195.95 259.16h6.32v6.32h-6.32z M208.59 259.16h6.32v6.32h-6.32z M214.91 259.16h6.32v6.32h-6.32z M227.56 259.16h6.32v6.32h-6.32z M233.88 259.16h6.32v6.32h-6.32z M252.84 259.16h6.32v6.32h-6.32z M265.48 259.16h6.32v6.32h-6.32z M271.80 259.16h6.32v6.32h-6.32z M278.12 259.16h6.32v6.32h-6.32z M284.44 259.16h6.32v6.32h-6.32z M290.77 259.16h6.32v6.32h-6.32z M297.09 259.16h6.32v6.32h-6.32z M303.41 259.16h6.32v6.32h-6.32z M322.37 259.16h6.32v6.32h-6.32z M335.01 259.16h6.32v6.32h-6.32z M353.98 259.16h6.32v6.32h-6.32z M372.94 259.16h6.32v6.32h-6.32z M379.26 259.16h6.32v6.32h-6.32z M391.90 259.16h6.32v6.32h-6.32z M410.86 259.16h6.32v6.32h-6.32z M417.19 259.16h6.32v6.32h-6.32z M429.83 259.16h6.32v6.32h-6.32z M436.15 259.16h6.32v6.32h-6.32z M442.47 259.16h6.32v6.32h-6.32z M461.43 259.16h6.32v6.32h-6.32z M467.75 259.16h6.32v6.32h-6.32z M37.93 265.48h6.32v6.32h-6.32z M50.57 265.48h6.32v6.32h-6.32z M63.21 265.48h6.32v6.32h-6.32z M75.85 265.48h6.32v6.32h-6.32z M82.17 265.48h6.32v6.32h-6.32z M88.49 265.48h6.32v6.32h-6.32z M94.81 265.48h6.32v6.32h-6.32z M139.06 265.48h6.32v6.32h-6.32z M151.70 265.48h6.32v6.32h-6.32z M195.95 265.48h6.32v6.32h-6.32z M208.59 265.48h6.32v6.32h-6.32z M221.23 265.48h6.32v6.32h-6.32z M227.56 265.48h6.32v6.32h-6.32z M252.84 265.48h6.32v6.32h-6.32z M265.48 265.48h6.32v6.32h-6.32z M303.41 265.48h6.32v6.32h-6.32z M353.98 265.48h6.32v6.32h-6.32z M360.30 265.48h6.32v6.32h-6.32z M372.94 265.48h6.32v6.32h-6.32z M404.54 265.48h6.32v6.32h-6.32z M423.51 265.48h6.32v6.32h-6.32z M436.15 265.48h6.32v6.32h-6.32z M442.47 265.48h6.32v6.32h-6.32z M448.79 265.48h6.32v6.32h-6.32z M461.43 265.48h6.32v6.32h-6.32z M467.75 265.48h6.32v6.32h-6.32z M474.07 265.48h6.32v6.32h-6.32z M480.40 265.48h6.32v6.32h-6.32z M25.28 271.80h6.32v6.32h-6.32z M50.57 271.80h6.32v6.32h-6.32z M56.89 271.80h6.32v6.32h-6.32z M69.53 271.80h6.32v6.32h-6.32z M88.49 271.80h6.32v6.32h-6.32z M94.81 271.80h6.32v6.32h-6.32z M107.46 271.80h6.32v6.32h-6.32z M126.42 271.80h6.32v6.32h-6.32z M132.74 271.80h6.32v6.32h-6.32z M139.06 271.80h6.32v6.32h-6.32z M145.38 271.80h6.32v6.32h-6.32z M158.02 271.80h6.32v6.32h-6.32z M176.99 271.80h6.32v6.32h-6.32z M202.27 271.80h6.32v6.32h-6.32z M214.91 271.80h6.32v6.32h-6.32z M233.88 271.80h6.32v6.32h-6.32z M240.20 271.80h6.32v6.32h-6.32z M259.16 271.80h6.32v6.32h-6.32z M265.48 271.80h6.32v6.32h-6.32z M284.44 271.80h6.32v6.32h-6.32z M290.77 271.80h6.32v6.32h-6.32z M297.09 271.80h6.32v6.32h-6.32z M303.41 271.80h6.32v6.32h-6.32z M316.05 271.80h6.32v6.32h-6.32z M341.33 271.80h6.32v6.32h-6.32z M347.65 271.80h6.32v6.32h-6.32z M366.62 271.80h6.32v6.32h-6.32z M372.94 271.80h6.32v6.32h-6.32z M385.58 271.80h6.32v6.32h-6.32z M391.90 271.80h6.32v6.32h-6.32z M398.22 271.80h6.32v6.32h-6.32z M417.19 271.80h6.32v6.32h-6.32z M429.83 271.80h6.32v6.32h-6.32z M436.15 271.80h6.32v6.32h-6.32z M442.47 271.80h6.32v6.32h-6.32z M461.43 271.80h6.32v6.32h-6.32z M467.75 271.80h6.32v6.32h-6.32z M480.40 271.80h6.32v6.32h-6.32z M25.28 278.12h6.32v6.32h-6.32z M31.60 278.12h6.32v6.32h-6.32z M50.57 278.12h6.32v6.32h-6.32z M56.89 278.12h6.32v6.32h-6.32z M63.21 278.12h6.32v6.32h-6.32z M82.17 278.12h6.32v6.32h-6.32z M88.49 278.12h6.32v6.32h-6.32z M113.78 278.12h6.32v6.32h-6.32z M120.10 278.12h6.32v6.32h-6.32z M126.42 278.12h6.32v6.32h-6.32z M139.06 278.12h6.32v6.32h-6.32z M151.70 278.12h6.32v6.32h-6.32z M170.67 278.12h6.32v6.32h-6.32z M195.95 278.12h6.32v6.32h-6.32z M214.91 278.12h6.32v6.32h-6.32z M221.23 278.12h6.32v6.32h-6.32z M227.56 278.12h6.32v6.32h-6.32z M252.84 278.12h6.32v6.32h-6.32z M265.48 278.12h6.32v6.32h-6.32z M271.80 278.12h6.32v6.32h-6.32z M290.77 278.12h6.32v6.32h-6.32z M297.09 278.12h6.32v6.32h-6.32z M309.73 278.12h6.32v6.32h-6.32z M316.05 278.12h6.32v6.32h-6.32z M328.69 278.12h6.32v6.32h-6.32z M341.33 278.12h6.32v6.32h-6.32z M347.65 278.12h6.32v6.32h-6.32z M360.30 278.12h6.32v6.32h-6.32z M366.62 278.12h6.32v6.32h-6.32z M379.26 278.12h6.32v6.32h-6.32z M391.90 278.12h6.32v6.32h-6.32z M398.22 278.12h6.32v6.32h-6.32z M417.19 278.12h6.32v6.32h-6.32z M436.15 278.12h6.32v6.32h-6.32z M448.79 278.12h6.32v6.32h-6.32z M455.11 278.12h6.32v6.32h-6.32z M461.43 278.12h6.32v6.32h-6.32z M467.75 278.12h6.32v6.32h-6.32z M31.60 284.44h6.32v6.32h-6.32z M44.25 284.44h6.32v6.32h-6.32z M50.57 284.44h6.32v6.32h-6.32z M82.17 284.44h6.32v6.32h-6.32z M94.81 284.44h6.32v6.32h-6.32z M107.46 284.44h6.32v6.32h-6.32z M139.06 284.44h6.32v6.32h-6.32z M170.67 284.44h6.32v6.32h-6.32z M183.31 284.44h6.32v6.32h-6.32z M195.95 284.44h6.32v6.32h-6.32z M214.91 284.44h6.32v6.32h-6.32z M227.56 284.44h6.32v6.32h-6.32z M233.88 284.44h6.32v6.32h-6.32z M240.20 284.44h6.32v6.32h-6.32z M252.84 284.44h6.32v6.32h-6.32z M271.80 284.44h6.32v6.32h-6.32z M278.12 284.44h6.32v6.32h-6.32z M290.77 284.44h6.32v6.32h-6.32z M316.05 284.44h6.32v6.32h-6.32z M328.69 284.44h6.32v6.32h-6.32z M341.33 284.44h6.32v6.32h-6.32z M347.65 284.44h6.32v6.32h-6.32z M353.98 284.44h6.32v6.32h-6.32z M360.30 284.44h6.32v6.32h-6.32z M391.90 284.44h6.32v6.32h-6.32z M417.19 284.44h6.32v6.32h-6.32z M423.51 284.44h6.32v6.32h-6.32z M442.47 284.44h6.32v6.32h-6.32z M467.75 284.44h6.32v6.32h-6.32z M37.93 290.77h6.32v6.32h-6.32z M50.57 290.77h6.32v6.32h-6.32z M56.89 290.77h6.32v6.32h-6.32z M63.21 290.77h6.32v6.32h-6.32z M69.53 290.77h6.32v6.32h-6.32z M82.17 290.77h6.32v6.32h-6.32z M88.49 290.77h6.32v6.32h-6.32z M94.81 290.77h6.32v6.32h-6.32z M107.46 290.77h6.32v6.32h-6.32z M139.06 290.77h6.32v6.32h-6.32z M145.38 290.77h6.32v6.32h-6.32z M151.70 290.77h6.32v6.32h-6.32z M158.02 290.77h6.32v6.32h-6.32z M164.35 290.77h6.32v6.32h-6.32z M170.67 290.77h6.32v6.32h-6.32z M183.31 290.77h6.32v6.32h-6.32z M233.88 290.77h6.32v6.32h-6.32z M252.84 290.77h6.32v6.32h-6.32z M259.16 290.77h6.32v6.32h-6.32z M297.09 290.77h6.32v6.32h-6.32z M303.41 290.77h6.32v6.32h-6.32z M322.37 290.77h6.32v6.32h-6.32z M335.01 290.77h6.32v6.32h-6.32z M341.33 290.77h6.32v6.32h-6.32z M347.65 290.77h6.32v6.32h-6.32z M353.98 290.77h6.32v6.32h-6.32z M360.30 290.77h6.32v6.32h-6.32z M366.62 290.77h6.32v6.32h-6.32z M372.94 290.77h6.32v6.32h-6.32z M379.26 290.77h6.32v6.32h-6.32z M385.58 290.77h6.32v6.32h-6.32z M391.90 290.77h6.32v6.32h-6.32z M404.54 290.77h6.32v6.32h-6.32z M423.51 290.77h6.32v6.32h-6.32z M442.47 290.77h6.32v6.32h-6.32z M455.11 290.77h6.32v6.32h-6.32z M461.43 290.77h6.32v6.32h-6.32z M467.75 290.77h6.32v6.32h-6.32z M480.40 290.77h6.32v6.32h-6.32z M44.25 297.09h6.32v6.32h-6.32z M56.89 297.09h6.32v6.32h-6.32z M69.53 297.09h6.32v6.32h-6.32z M82.17 297.09h6.32v6.32h-6.32z M88.49 297.09h6.32v6.32h-6.32z M94.81 297.09h6.32v6.32h-6.32z M107.46 297.09h6.32v6.32h-6.32z M113.78 297.09h6.32v6.32h-6.32z M126.42 297.09h6.32v6.32h-6.32z M132.74 297.09h6.32v6.32h-6.32z M139.06 297.09h6.32v6.32h-6.32z M151.70 297.09h6.32v6.32h-6.32z M158.02 297.09h6.32v6.32h-6.32z M164.35 297.09h6.32v6.32h-6.32z M214.91 297.09h6.32v6.32h-6.32z M221.23 297.09h6.32v6.32h-6.32z M233.88 297.09h6.32v6.32h-6.32z M259.16 297.09h6.32v6.32h-6.32z M265.48 297.09h6.32v6.32h-6.32z M271.80 297.09h6.32v6.32h-6.32z M278.12 297.09h6.32v6.32h-6.32z M284.44 297.09h6.32v6.32h-6.32z M290.77 297.09h6.32v6.32h-6.32z M297.09 297.09h6.32v6.32h-6.32z M303.41 297.09h6.32v6.32h-6.32z M335.01 297.09h6.32v6.32h-6.32z M347.65 297.09h6.32v6.32h-6.32z M353.98 297.09h6.32v6.32h-6.32z M360.30 297.09h6.32v6.32h-6.32z M385.58 297.09h6.32v6.32h-6.32z M398.22 297.09h6.32v6.32h-6.32z M404.54 297.09h6.32v6.32h-6.32z M423.51 297.09h6.32v6.32h-6.32z M436.15 297.09h6.32v6.32h-6.32z M442.47 297.09h6.32v6.32h-6.32z M461.43 297.09h6.32v6.32h-6.32z M474.07 297.09h6.32v6.32h-6.32z M480.40 297.09h6.32v6.32h-6.32z M25.28 303.41h6.32v6.32h-6.32z M31.60 303.41h6.32v6.32h-6.32z M37.93 303.41h6.32v6.32h-6.32z M44.25 303.41h6.32v6.32h-6.32z M50.57 303.41h6.32v6.32h-6.32z M56.89 303.41h6.32v6.32h-6.32z M63.21 303.41h6.32v6.32h-6.32z M69.53 303.41h6.32v6.32h-6.32z M75.85 303.41h6.32v6.32h-6.32z M82.17 303.41h6.32v6.32h-6.32z M88.49 303.41h6.32v6.32h-6.32z M94.81 303.41h6.32v6.32h-6.32z M101.14 303.41h6.32v6.32h-6.32z M113.78 303.41h6.32v6.32h-6.32z M145.38 303.41h6.32v6.32h-6.32z M151.70 303.41h6.32v6.32h-6.32z M158.02 303.41h6.32v6.32h-6.32z M164.35 303.41h6.32v6.32h-6.32z M176.99 303.41h6.32v6.32h-6.32z M183.31 303.41h6.32v6.32h-6.32z M189.63 303.41h6.32v6.32h-6.32z M195.95 303.41h6.32v6.32h-6.32z M202.27 303.41h6.32v6.32h-6.32z M214.91 303.41h6.32v6.32h-6.32z M221.23 303.41h6.32v6.32h-6.32z M233.88 303.41h6.32v6.32h-6.32z M246.52 303.41h6.32v6.32h-6.32z M252.84 303.41h6.32v6.32h-6.32z M259.16 303.41h6.32v6.32h-6.32z M278.12 303.41h6.32v6.32h-6.32z M284.44 303.41h6.32v6.32h-6.32z M290.77 303.41h6.32v6.32h-6.32z M303.41 303.41h6.32v6.32h-6.32z M309.73 303.41h6.32v6.32h-6.32z M316.05 303.41h6.32v6.32h-6.32z M322.37 303.41h6.32v6.32h-6.32z M328.69 303.41h6.32v6.32h-6.32z M347.65 303.41h6.32v6.32h-6.32z M372.94 303.41h6.32v6.32h-6.32z M385.58 303.41h6.32v6.32h-6.32z M404.54 303.41h6.32v6.32h-6.32z M410.86 303.41h6.32v6.32h-6.32z M423.51 303.41h6.32v6.32h-6.32z M429.83 303.41h6.32v6.32h-6.32z M436.15 303.41h6.32v6.32h-6.32z M442.47 303.41h6.32v6.32h-6.32z M448.79 303.41h6.32v6.32h-6.32z M455.11 303.41h6.32v6.32h-6.32z M461.43 303.41h6.32v6.32h-6.32z M480.40 303.41h6.32v6.32h-6.32z M25.28 309.73h6.32v6.32h-6.32z M44.25 309.73h6.32v6.32h-6.32z M50.57 309.73h6.32v6.32h-6.32z M75.85 309.73h6.32v6.32h-6.32z M88.49 309.73h6.32v6.32h-6.32z M94.81 309.73h6.32v6.32h-6.32z M113.78 309.73h6.32v6.32h-6.32z M151.70 309.73h6.32v6.32h-6.32z M164.35 309.73h6.32v6.32h-6.32z M170.67 309.73h6.32v6.32h-6.32z M176.99 309.73h6.32v6.32h-6.32z M202.27 309.73h6.32v6.32h-6.32z M208.59 309.73h6.32v6.32h-6.32z M214.91 309.73h6.32v6.32h-6.32z M221.23 309.73h6.32v6.32h-6.32z M227.56 309.73h6.32v6.32h-6.32z M233.88 309.73h6.32v6.32h-6.32z M240.20 309.73h6.32v6.32h-6.32z M246.52 309.73h6.32v6.32h-6.32z M252.84 309.73h6.32v6.32h-6.32z M259.16 309.73h6.32v6.32h-6.32z M265.48 309.73h6.32v6.32h-6.32z M271.80 309.73h6.32v6.32h-6.32z M284.44 309.73h6.32v6.32h-6.32z M290.77 309.73h6.32v6.32h-6.32z M297.09 309.73h6.32v6.32h-6.32z M303.41 309.73h6.32v6.32h-6.32z M328.69 309.73h6.32v6.32h-6.32z M366.62 309.73h6.32v6.32h-6.32z M379.26 309.73h6.32v6.32h-6.32z M404.54 309.73h6.32v6.32h-6.32z M423.51 309.73h6.32v6.32h-6.32z M429.83 309.73h6.32v6.32h-6.32z M455.11 309.73h6.32v6.32h-6.32z M461.43 309.73h6.32v6.32h-6.32z M467.75 309.73h6.32v6.32h-6.32z M31.60 316.05h6.32v6.32h-6.32z M50.57 316.05h6.32v6.32h-6.32z M63.21 316.05h6.32v6.32h-6.32z M75.85 316.05h6.32v6.32h-6.32z M88.49 316.05h6.32v6.32h-6.32z M107.46 316.05h6.32v6.32h-6.32z M120.10 316.05h6.32v6.32h-6.32z M126.42 316.05h6.32v6.32h-6.32z M132.74 316.05h6.32v6.32h-6.32z M139.06 316.05h6.32v6.32h-6.32z M158.02 316.05h6.32v6.32h-6.32z M164.35 316.05h6.32v6.32h-6.32z M176.99 316.05h6.32v6.32h-6.32z M189.63 316.05h6.32v6.32h-6.32z M202.27 316.05h6.32v6.32h-6.32z M227.56 316.05h6.32v6.32h-6.32z M233.88 316.05h6.32v6.32h-6.32z M240.20 316.05h6.32v6.32h-6.32z M278.12 316.05h6.32v6.32h-6.32z M303.41 316.05h6.32v6.32h-6.32z M316.05 316.05h6.32v6.32h-6.32z M328.69 316.05h6.32v6.32h-6.32z M335.01 316.05h6.32v6.32h-6.32z M379.26 316.05h6.32v6.32h-6.32z M410.86 316.05h6.32v6.32h-6.32z M423.51 316.05h6.32v6.32h-6.32z M429.83 316.05h6.32v6.32h-6.32z M442.47 316.05h6.32v6.32h-6.32z M455.11 316.05h6.32v6.32h-6.32z M480.40 316.05h6.32v6.32h-6.32z M25.28 322.37h6.32v6.32h-6.32z M50.57 322.37h6.32v6.32h-6.32z M75.85 322.37h6.32v6.32h-6.32z M94.81 322.37h6.32v6.32h-6.32z M101.14 322.37h6.32v6.32h-6.32z M126.42 322.37h6.32v6.32h-6.32z M176.99 322.37h6.32v6.32h-6.32z M202.27 322.37h6.32v6.32h-6.32z M221.23 322.37h6.32v6.32h-6.32z M227.56 322.37h6.32v6.32h-6.32z M246.52 322.37h6.32v6.32h-6.32z M271.80 322.37h6.32v6.32h-6.32z M290.77 322.37h6.32v6.32h-6.32z M297.09 322.37h6.32v6.32h-6.32z M303.41 322.37h6.32v6.32h-6.32z M328.69 322.37h6.32v6.32h-6.32z M347.65 322.37h6.32v6.32h-6.32z M360.30 322.37h6.32v6.32h-6.32z M366.62 322.37h6.32v6.32h-6.32z M372.94 322.37h6.32v6.32h-6.32z M379.26 322.37h6.32v6.32h-6.32z M391.90 322.37h6.32v6.32h-6.32z M417.19 322.37h6.32v6.32h-6.32z M429.83 322.37h6.32v6.32h-6.32z M455.11 322.37h6.32v6.32h-6.32z M467.75 322.37h6.32v6.32h-6.32z M474.07 322.37h6.32v6.32h-6.32z M480.40 322.37h6.32v6.32h-6.32z M25.28 328.69h6.32v6.32h-6.32z M31.60 328.69h6.32v6.32h-6.32z M37.93 328.69h6.32v6.32h-6.32z M44.25 328.69h6.32v6.32h-6.32z M50.57 328.69h6.32v6.32h-6.32z M56.89 328.69h6.32v6.32h-6.32z M63.21 328.69h6.32v6.32h-6.32z M69.53 328.69h6.32v6.32h-6.32z M75.85 328.69h6.32v6.32h-6.32z M107.46 328.69h6.32v6.32h-6.32z M113.78 328.69h6.32v6.32h-6.32z M120.10 328.69h6.32v6.32h-6.32z M126.42 328.69h6.32v6.32h-6.32z M151.70 328.69h6.32v6.32h-6.32z M158.02 328.69h6.32v6.32h-6.32z M170.67 328.69h6.32v6.32h-6.32z M176.99 328.69h6.32v6.32h-6.32z M183.31 328.69h6.32v6.32h-6.32z M189.63 328.69h6.32v6.32h-6.32z M195.95 328.69h6.32v6.32h-6.32z M202.27 328.69h6.32v6.32h-6.32z M208.59 328.69h6.32v6.32h-6.32z M227.56 328.69h6.32v6.32h-6.32z M240.20 328.69h6.32v6.32h-6.32z M246.52 328.69h6.32v6.32h-6.32z M252.84 328.69h6.32v6.32h-6.32z M259.16 328.69h6.32v6.32h-6.32z M265.48 328.69h6.32v6.32h-6.32z M278.12 328.69h6.32v6.32h-6.32z M290.77 328.69h6.32v6.32h-6.32z M297.09 328.69h6.32v6.32h-6.32z M303.41 328.69h6.32v6.32h-6.32z M309.73 328.69h6.32v6.32h-6.32z M316.05 328.69h6.32v6.32h-6.32z M322.37 328.69h6.32v6.32h-6.32z M328.69 328.69h6.32v6.32h-6.32z M335.01 328.69h6.32v6.32h-6.32z M347.65 328.69h6.32v6.32h-6.32z M360.30 328.69h6.32v6.32h-6.32z M372.94 328.69h6.32v6.32h-6.32z M385.58 328.69h6.32v6.32h-6.32z M391.90 328.69h6.32v6.32h-6.32z M398.22 328.69h6.32v6.32h-6.32z M417.19 328.69h6.32v6.32h-6.32z M423.51 328.69h6.32v6.32h-6.32z M429.83 328.69h6.32v6.32h-6.32z M436.15 328.69h6.32v6.32h-6.32z M442.47 328.69h6.32v6.32h-6.32z M448.79 328.69h6.32v6.32h-6.32z M455.11 328.69h6.32v6.32h-6.32z M461.43 328.69h6.32v6.32h-6.32z M480.40 328.69h6.32v6.32h-6.32z M25.28 335.01h6.32v6.32h-6.32z M31.60 335.01h6.32v6.32h-6.32z M50.57 335.01h6.32v6.32h-6.32z M82.17 335.01h6.32v6.32h-6.32z M88.49 335.01h6.32v6.32h-6.32z M94.81 335.01h6.32v6.32h-6.32z M101.14 335.01h6.32v6.32h-6.32z M107.46 335.01h6.32v6.32h-6.32z M126.42 335.01h6.32v6.32h-6.32z M139.06 335.01h6.32v6.32h-6.32z M145.38 335.01h6.32v6.32h-6.32z M164.35 335.01h6.32v6.32h-6.32z M170.67 335.01h6.32v6.32h-6.32z M176.99 335.01h6.32v6.32h-6.32z M183.31 335.01h6.32v6.32h-6.32z M189.63 335.01h6.32v6.32h-6.32z M195.95 335.01h6.32v6.32h-6.32z M202.27 335.01h6.32v6.32h-6.32z M208.59 335.01h6.32v6.32h-6.32z M214.91 335.01h6.32v6.32h-6.32z M227.56 335.01h6.32v6.32h-6.32z M233.88 335.01h6.32v6.32h-6.32z M252.84 335.01h6.32v6.32h-6.32z M265.48 335.01h6.32v6.32h-6.32z M271.80 335.01h6.32v6.32h-6.32z M290.77 335.01h6.32v6.32h-6.32z M303.41 335.01h6.32v6.32h-6.32z M316.05 335.01h6.32v6.32h-6.32z M322.37 335.01h6.32v6.32h-6.32z M328.69 335.01h6.32v6.32h-6.32z M335.01 335.01h6.32v6.32h-6.32z M353.98 335.01h6.32v6.32h-6.32z M366.62 335.01h6.32v6.32h-6.32z M372.94 335.01h6.32v6.32h-6.32z M379.26 335.01h6.32v6.32h-6.32z M404.54 335.01h6.32v6.32h-6.32z M410.86 335.01h6.32v6.32h-6.32z M423.51 335.01h6.32v6.32h-6.32z M429.83 335.01h6.32v6.32h-6.32z M436.15 335.01h6.32v6.32h-6.32z M455.11 335.01h6.32v6.32h-6.32z M31.60 341.33h6.32v6.32h-6.32z M37.93 341.33h6.32v6.32h-6.32z M44.25 341.33h6.32v6.32h-6.32z M56.89 341.33h6.32v6.32h-6.32z M63.21 341.33h6.32v6.32h-6.32z M75.85 341.33h6.32v6.32h-6.32z M82.17 341.33h6.32v6.32h-6.32z M120.10 341.33h6.32v6.32h-6.32z M139.06 341.33h6.32v6.32h-6.32z M145.38 341.33h6.32v6.32h-6.32z M151.70 341.33h6.32v6.32h-6.32z M170.67 341.33h6.32v6.32h-6.32z M183.31 341.33h6.32v6.32h-6.32z M195.95 341.33h6.32v6.32h-6.32z M202.27 341.33h6.32v6.32h-6.32z M208.59 341.33h6.32v6.32h-6.32z M227.56 341.33h6.32v6.32h-6.32z M233.88 341.33h6.32v6.32h-6.32z M246.52 341.33h6.32v6.32h-6.32z M252.84 341.33h6.32v6.32h-6.32z M259.16 341.33h6.32v6.32h-6.32z M265.48 341.33h6.32v6.32h-6.32z M278.12 341.33h6.32v6.32h-6.32z M297.09 341.33h6.32v6.32h-6.32z M303.41 341.33h6.32v6.32h-6.32z M309.73 341.33h6.32v6.32h-6.32z M316.05 341.33h6.32v6.32h-6.32z M322.37 341.33h6.32v6.32h-6.32z M341.33 341.33h6.32v6.32h-6.32z M347.65 341.33h6.32v6.32h-6.32z M353.98 341.33h6.32v6.32h-6.32z M360.30 341.33h6.32v6.32h-6.32z M366.62 341.33h6.32v6.32h-6.32z M398.22 341.33h6.32v6.32h-6.32z M404.54 341.33h6.32v6.32h-6.32z M417.19 341.33h6.32v6.32h-6.32z M423.51 341.33h6.32v6.32h-6.32z M429.83 341.33h6.32v6.32h-6.32z M436.15 341.33h6.32v6.32h-6.32z M442.47 341.33h6.32v6.32h-6.32z M455.11 341.33h6.32v6.32h-6.32z M467.75 341.33h6.32v6.32h-6.32z M474.07 341.33h6.32v6.32h-6.32z M480.40 341.33h6.32v6.32h-6.32z M44.25 347.65h6.32v6.32h-6.32z M56.89 347.65h6.32v6.32h-6.32z M75.85 347.65h6.32v6.32h-6.32z M82.17 347.65h6.32v6.32h-6.32z M88.49 347.65h6.32v6.32h-6.32z M94.81 347.65h6.32v6.32h-6.32z M101.14 347.65h6.32v6.32h-6.32z M107.46 347.65h6.32v6.32h-6.32z M113.78 347.65h6.32v6.32h-6.32z M126.42 347.65h6.32v6.32h-6.32z M132.74 347.65h6.32v6.32h-6.32z M139.06 347.65h6.32v6.32h-6.32z M145.38 347.65h6.32v6.32h-6.32z M151.70 347.65h6.32v6.32h-6.32z M176.99 347.65h6.32v6.32h-6.32z M183.31 347.65h6.32v6.32h-6.32z M208.59 347.65h6.32v6.32h-6.32z M233.88 347.65h6.32v6.32h-6.32z M246.52 347.65h6.32v6.32h-6.32z M259.16 347.65h6.32v6.32h-6.32z M284.44 347.65h6.32v6.32h-6.32z M297.09 347.65h6.32v6.32h-6.32z M303.41 347.65h6.32v6.32h-6.32z M309.73 347.65h6.32v6.32h-6.32z M316.05 347.65h6.32v6.32h-6.32z M328.69 347.65h6.32v6.32h-6.32z M341.33 347.65h6.32v6.32h-6.32z M347.65 347.65h6.32v6.32h-6.32z M366.62 347.65h6.32v6.32h-6.32z M372.94 347.65h6.32v6.32h-6.32z M391.90 347.65h6.32v6.32h-6.32z M398.22 347.65h6.32v6.32h-6.32z M417.19 347.65h6.32v6.32h-6.32z M436.15 347.65h6.32v6.32h-6.32z M442.47 347.65h6.32v6.32h-6.32z M448.79 347.65h6.32v6.32h-6.32z M467.75 347.65h6.32v6.32h-6.32z M480.40 347.65h6.32v6.32h-6.32z M56.89 353.98h6.32v6.32h-6.32z M63.21 353.98h6.32v6.32h-6.32z M75.85 353.98h6.32v6.32h-6.32z M88.49 353.98h6.32v6.32h-6.32z M94.81 353.98h6.32v6.32h-6.32z M101.14 353.98h6.32v6.32h-6.32z M107.46 353.98h6.32v6.32h-6.32z M113.78 353.98h6.32v6.32h-6.32z M120.10 353.98h6.32v6.32h-6.32z M139.06 353.98h6.32v6.32h-6.32z M158.02 353.98h6.32v6.32h-6.32z M164.35 353.98h6.32v6.32h-6.32z M176.99 353.98h6.32v6.32h-6.32z M189.63 353.98h6.32v6.32h-6.32z M195.95 353.98h6.32v6.32h-6.32z M202.27 353.98h6.32v6.32h-6.32z M208.59 353.98h6.32v6.32h-6.32z M221.23 353.98h6.32v6.32h-6.32z M227.56 353.98h6.32v6.32h-6.32z M233.88 353.98h6.32v6.32h-6.32z M240.20 353.98h6.32v6.32h-6.32z M252.84 353.98h6.32v6.32h-6.32z M271.80 353.98h6.32v6.32h-6.32z M284.44 353.98h6.32v6.32h-6.32z M303.41 353.98h6.32v6.32h-6.32z M309.73 353.98h6.32v6.32h-6.32z M322.37 353.98h6.32v6.32h-6.32z M328.69 353.98h6.32v6.32h-6.32z M347.65 353.98h6.32v6.32h-6.32z M353.98 353.98h6.32v6.32h-6.32z M360.30 353.98h6.32v6.32h-6.32z M366.62 353.98h6.32v6.32h-6.32z M379.26 353.98h6.32v6.32h-6.32z M385.58 353.98h6.32v6.32h-6.32z M391.90 353.98h6.32v6.32h-6.32z M398.22 353.98h6.32v6.32h-6.32z M442.47 353.98h6.32v6.32h-6.32z M448.79 353.98h6.32v6.32h-6.32z M461.43 353.98h6.32v6.32h-6.32z M467.75 353.98h6.32v6.32h-6.32z M474.07 353.98h6.32v6.32h-6.32z M480.40 353.98h6.32v6.32h-6.32z M25.28 360.30h6.32v6.32h-6.32z M31.60 360.30h6.32v6.32h-6.32z M37.93 360.30h6.32v6.32h-6.32z M50.57 360.30h6.32v6.32h-6.32z M56.89 360.30h6.32v6.32h-6.32z M69.53 360.30h6.32v6.32h-6.32z M75.85 360.30h6.32v6.32h-6.32z M82.17 360.30h6.32v6.32h-6.32z M94.81 360.30h6.32v6.32h-6.32z M101.14 360.30h6.32v6.32h-6.32z M113.78 360.30h6.32v6.32h-6.32z M120.10 360.30h6.32v6.32h-6.32z M126.42 360.30h6.32v6.32h-6.32z M151.70 360.30h6.32v6.32h-6.32z M164.35 360.30h6.32v6.32h-6.32z M176.99 360.30h6.32v6.32h-6.32z M183.31 360.30h6.32v6.32h-6.32z M189.63 360.30h6.32v6.32h-6.32z M195.95 360.30h6.32v6.32h-6.32z M233.88 360.30h6.32v6.32h-6.32z M246.52 360.30h6.32v6.32h-6.32z M259.16 360.30h6.32v6.32h-6.32z M265.48 360.30h6.32v6.32h-6.32z M278.12 360.30h6.32v6.32h-6.32z M309.73 360.30h6.32v6.32h-6.32z M322.37 360.30h6.32v6.32h-6.32z M328.69 360.30h6.32v6.32h-6.32z M341.33 360.30h6.32v6.32h-6.32z M360.30 360.30h6.32v6.32h-6.32z M398.22 360.30h6.32v6.32h-6.32z M417.19 360.30h6.32v6.32h-6.32z M423.51 360.30h6.32v6.32h-6.32z M436.15 360.30h6.32v6.32h-6.32z M448.79 360.30h6.32v6.32h-6.32z M461.43 360.30h6.32v6.32h-6.32z M25.28 366.62h6.32v6.32h-6.32z M44.25 366.62h6.32v6.32h-6.32z M63.21 366.62h6.32v6.32h-6.32z M75.85 366.62h6.32v6.32h-6.32z M88.49 366.62h6.32v6.32h-6.32z M113.78 366.62h6.32v6.32h-6.32z M132.74 366.62h6.32v6.32h-6.32z M139.06 366.62h6.32v6.32h-6.32z M145.38 366.62h6.32v6.32h-6.32z M170.67 366.62h6.32v6.32h-6.32z M183.31 366.62h6.32v6.32h-6.32z M189.63 366.62h6.32v6.32h-6.32z M208.59 366.62h6.32v6.32h-6.32z M214.91 366.62h6.32v6.32h-6.32z M227.56 366.62h6.32v6.32h-6.32z M233.88 366.62h6.32v6.32h-6.32z M240.20 366.62h6.32v6.32h-6.32z M259.16 366.62h6.32v6.32h-6.32z M265.48 366.62h6.32v6.32h-6.32z M284.44 366.62h6.32v6.32h-6.32z M290.77 366.62h6.32v6.32h-6.32z M297.09 366.62h6.32v6.32h-6.32z M309.73 366.62h6.32v6.32h-6.32z M316.05 366.62h6.32v6.32h-6.32z M328.69 366.62h6.32v6.32h-6.32z M341.33 366.62h6.32v6.32h-6.32z M353.98 366.62h6.32v6.32h-6.32z M372.94 366.62h6.32v6.32h-6.32z M379.26 366.62h6.32v6.32h-6.32z M398.22 366.62h6.32v6.32h-6.32z M423.51 366.62h6.32v6.32h-6.32z M429.83 366.62h6.32v6.32h-6.32z M436.15 366.62h6.32v6.32h-6.32z M442.47 366.62h6.32v6.32h-6.32z M448.79 366.62h6.32v6.32h-6.32z M455.11 366.62h6.32v6.32h-6.32z M461.43 366.62h6.32v6.32h-6.32z M467.75 366.62h6.32v6.32h-6.32z M480.40 366.62h6.32v6.32h-6.32z M25.28 372.94h6.32v6.32h-6.32z M31.60 372.94h6.32v6.32h-6.32z M50.57 372.94h6.32v6.32h-6.32z M69.53 372.94h6.32v6.32h-6.32z M75.85 372.94h6.32v6.32h-6.32z M88.49 372.94h6.32v6.32h-6.32z M113.78 372.94h6.32v6.32h-6.32z M120.10 372.94h6.32v6.32h-6.32z M132.74 372.94h6.32v6.32h-6.32z M170.67 372.94h6.32v6.32h-6.32z M176.99 372.94h6.32v6.32h-6.32z M195.95 372.94h6.32v6.32h-6.32z M202.27 372.94h6.32v6.32h-6.32z M208.59 372.94h6.32v6.32h-6.32z M214.91 372.94h6.32v6.32h-6.32z M227.56 372.94h6.32v6.32h-6.32z M246.52 372.94h6.32v6.32h-6.32z M252.84 372.94h6.32v6.32h-6.32z M271.80 372.94h6.32v6.32h-6.32z M284.44 372.94h6.32v6.32h-6.32z M290.77 372.94h6.32v6.32h-6.32z M297.09 372.94h6.32v6.32h-6.32z M303.41 372.94h6.32v6.32h-6.32z M309.73 372.94h6.32v6.32h-6.32z M316.05 372.94h6.32v6.32h-6.32z M328.69 372.94h6.32v6.32h-6.32z M341.33 372.94h6.32v6.32h-6.32z M347.65 372.94h6.32v6.32h-6.32z M353.98 372.94h6.32v6.32h-6.32z M366.62 372.94h6.32v6.32h-6.32z M379.26 372.94h6.32v6.32h-6.32z M385.58 372.94h6.32v6.32h-6.32z M391.90 372.94h6.32v6.32h-6.32z M398.22 372.94h6.32v6.32h-6.32z M410.86 372.94h6.32v6.32h-6.32z M417.19 372.94h6.32v6.32h-6.32z M423.51 372.94h6.32v6.32h-6.32z M436.15 372.94h6.32v6.32h-6.32z M442.47 372.94h6.32v6.32h-6.32z M448.79 372.94h6.32v6.32h-6.32z M455.11 372.94h6.32v6.32h-6.32z M461.43 372.94h6.32v6.32h-6.32z M480.40 372.94h6.32v6.32h-6.32z M25.28 379.26h6.32v6.32h-6.32z M50.57 379.26h6.32v6.32h-6.32z M56.89 379.26h6.32v6.32h-6.32z M63.21 379.26h6.32v6.32h-6.32z M88.49 379.26h6.32v6.32h-6.32z M101.14 379.26h6.32v6.32h-6.32z M107.46 379.26h6.32v6.32h-6.32z M113.78 379.26h6.32v6.32h-6.32z M132.74 379.26h6.32v6.32h-6.32z M139.06 379.26h6.32v6.32h-6.32z M145.38 379.26h6.32v6.32h-6.32z M164.35 379.26h6.32v6.32h-6.32z M170.67 379.26h6.32v6.32h-6.32z M183.31 379.26h6.32v6.32h-6.32z M189.63 379.26h6.32v6.32h-6.32z M195.95 379.26h6.32v6.32h-6.32z M214.91 379.26h6.32v6.32h-6.32z M221.23 379.26h6.32v6.32h-6.32z M252.84 379.26h6.32v6.32h-6.32z M265.48 379.26h6.32v6.32h-6.32z M271.80 379.26h6.32v6.32h-6.32z M278.12 379.26h6.32v6.32h-6.32z M290.77 379.26h6.32v6.32h-6.32z M303.41 379.26h6.32v6.32h-6.32z M316.05 379.26h6.32v6.32h-6.32z M335.01 379.26h6.32v6.32h-6.32z M347.65 379.26h6.32v6.32h-6.32z M353.98 379.26h6.32v6.32h-6.32z M366.62 379.26h6.32v6.32h-6.32z M372.94 379.26h6.32v6.32h-6.32z M385.58 379.26h6.32v6.32h-6.32z M404.54 379.26h6.32v6.32h-6.32z M410.86 379.26h6.32v6.32h-6.32z M423.51 379.26h6.32v6.32h-6.32z M436.15 379.26h6.32v6.32h-6.32z M442.47 379.26h6.32v6.32h-6.32z M455.11 379.26h6.32v6.32h-6.32z M461.43 379.26h6.32v6.32h-6.32z M474.07 379.26h6.32v6.32h-6.32z M480.40 379.26h6.32v6.32h-6.32z M25.28 385.58h6.32v6.32h-6.32z M31.60 385.58h6.32v6.32h-6.32z M37.93 385.58h6.32v6.32h-6.32z M44.25 385.58h6.32v6.32h-6.32z M50.57 385.58h6.32v6.32h-6.32z M69.53 385.58h6.32v6.32h-6.32z M75.85 385.58h6.32v6.32h-6.32z M88.49 385.58h6.32v6.32h-6.32z M101.14 385.58h6.32v6.32h-6.32z M107.46 385.58h6.32v6.32h-6.32z M126.42 385.58h6.32v6.32h-6.32z M151.70 385.58h6.32v6.32h-6.32z M170.67 385.58h6.32v6.32h-6.32z M189.63 385.58h6.32v6.32h-6.32z M202.27 385.58h6.32v6.32h-6.32z M214.91 385.58h6.32v6.32h-6.32z M221.23 385.58h6.32v6.32h-6.32z M227.56 385.58h6.32v6.32h-6.32z M233.88 385.58h6.32v6.32h-6.32z M240.20 385.58h6.32v6.32h-6.32z M246.52 385.58h6.32v6.32h-6.32z M252.84 385.58h6.32v6.32h-6.32z M259.16 385.58h6.32v6.32h-6.32z M265.48 385.58h6.32v6.32h-6.32z M271.80 385.58h6.32v6.32h-6.32z M278.12 385.58h6.32v6.32h-6.32z M290.77 385.58h6.32v6.32h-6.32z M297.09 385.58h6.32v6.32h-6.32z M309.73 385.58h6.32v6.32h-6.32z M347.65 385.58h6.32v6.32h-6.32z M353.98 385.58h6.32v6.32h-6.32z M366.62 385.58h6.32v6.32h-6.32z M398.22 385.58h6.32v6.32h-6.32z M417.19 385.58h6.32v6.32h-6.32z M423.51 385.58h6.32v6.32h-6.32z M436.15 385.58h6.32v6.32h-6.32z M448.79 385.58h6.32v6.32h-6.32z M455.11 385.58h6.32v6.32h-6.32z M467.75 385.58h6.32v6.32h-6.32z M44.25 391.90h6.32v6.32h-6.32z M56.89 391.90h6.32v6.32h-6.32z M63.21 391.90h6.32v6.32h-6.32z M82.17 391.90h6.32v6.32h-6.32z M94.81 391.90h6.32v6.32h-6.32z M107.46 391.90h6.32v6.32h-6.32z M113.78 391.90h6.32v6.32h-6.32z M145.38 391.90h6.32v6.32h-6.32z M164.35 391.90h6.32v6.32h-6.32z M170.67 391.90h6.32v6.32h-6.32z M176.99 391.90h6.32v6.32h-6.32z M183.31 391.90h6.32v6.32h-6.32z M195.95 391.90h6.32v6.32h-6.32z M208.59 391.90h6.32v6.32h-6.32z M227.56 391.90h6.32v6.32h-6.32z M240.20 391.90h6.32v6.32h-6.32z M246.52 391.90h6.32v6.32h-6.32z M252.84 391.90h6.32v6.32h-6.32z M271.80 391.90h6.32v6.32h-6.32z M284.44 391.90h6.32v6.32h-6.32z M309.73 391.90h6.32v6.32h-6.32z M316.05 391.90h6.32v6.32h-6.32z M335.01 391.90h6.32v6.32h-6.32z M347.65 391.90h6.32v6.32h-6.32z M379.26 391.90h6.32v6.32h-6.32z M404.54 391.90h6.32v6.32h-6.32z M410.86 391.90h6.32v6.32h-6.32z M423.51 391.90h6.32v6.32h-6.32z M429.83 391.90h6.32v6.32h-6.32z M442.47 391.90h6.32v6.32h-6.32z M455.11 391.90h6.32v6.32h-6.32z M480.40 391.90h6.32v6.32h-6.32z M25.28 398.22h6.32v6.32h-6.32z M37.93 398.22h6.32v6.32h-6.32z M56.89 398.22h6.32v6.32h-6.32z M69.53 398.22h6.32v6.32h-6.32z M75.85 398.22h6.32v6.32h-6.32z M94.81 398.22h6.32v6.32h-6.32z M113.78 398.22h6.32v6.32h-6.32z M120.10 398.22h6.32v6.32h-6.32z M139.06 398.22h6.32v6.32h-6.32z M151.70 398.22h6.32v6.32h-6.32z M164.35 398.22h6.32v6.32h-6.32z M170.67 398.22h6.32v6.32h-6.32z M183.31 398.22h6.32v6.32h-6.32z M189.63 398.22h6.32v6.32h-6.32z M214.91 398.22h6.32v6.32h-6.32z M221.23 398.22h6.32v6.32h-6.32z M227.56 398.22h6.32v6.32h-6.32z M233.88 398.22h6.32v6.32h-6.32z M240.20 398.22h6.32v6.32h-6.32z M259.16 398.22h6.32v6.32h-6.32z M265.48 398.22h6.32v6.32h-6.32z M284.44 398.22h6.32v6.32h-6.32z M297.09 398.22h6.32v6.32h-6.32z M309.73 398.22h6.32v6.32h-6.32z M316.05 398.22h6.32v6.32h-6.32z M322.37 398.22h6.32v6.32h-6.32z M347.65 398.22h6.32v6.32h-6.32z M353.98 398.22h6.32v6.32h-6.32z M360.30 398.22h6.32v6.32h-6.32z M366.62 398.22h6.32v6.32h-6.32z M372.94 398.22h6.32v6.32h-6.32z M379.26 398.22h6.32v6.32h-6.32z M391.90 398.22h6.32v6.32h-6.32z M429.83 398.22h6.32v6.32h-6.32z M442.47 398.22h6.32v6.32h-6.32z M461.43 398.22h6.32v6.32h-6.32z M467.75 398.22h6.32v6.32h-6.32z M474.07 398.22h6.32v6.32h-6.32z M480.40 398.22h6.32v6.32h-6.32z M25.28 404.54h6.32v6.32h-6.32z M50.57 404.54h6.32v6.32h-6.32z M56.89 404.54h6.32v6.32h-6.32z M63.21 404.54h6.32v6.32h-6.32z M88.49 404.54h6.32v6.32h-6.32z M132.74 404.54h6.32v6.32h-6.32z M139.06 404.54h6.32v6.32h-6.32z M145.38 404.54h6.32v6.32h-6.32z M164.35 404.54h6.32v6.32h-6.32z M170.67 404.54h6.32v6.32h-6.32z M183.31 404.54h6.32v6.32h-6.32z M195.95 404.54h6.32v6.32h-6.32z M214.91 404.54h6.32v6.32h-6.32z M227.56 404.54h6.32v6.32h-6.32z M240.20 404.54h6.32v6.32h-6.32z M252.84 404.54h6.32v6.32h-6.32z M278.12 404.54h6.32v6.32h-6.32z M290.77 404.54h6.32v6.32h-6.32z M303.41 404.54h6.32v6.32h-6.32z M316.05 404.54h6.32v6.32h-6.32z M322.37 404.54h6.32v6.32h-6.32z M328.69 404.54h6.32v6.32h-6.32z M335.01 404.54h6.32v6.32h-6.32z M341.33 404.54h6.32v6.32h-6.32z M347.65 404.54h6.32v6.32h-6.32z M353.98 404.54h6.32v6.32h-6.32z M360.30 404.54h6.32v6.32h-6.32z M366.62 404.54h6.32v6.32h-6.32z M372.94 404.54h6.32v6.32h-6.32z M385.58 404.54h6.32v6.32h-6.32z M398.22 404.54h6.32v6.32h-6.32z M417.19 404.54h6.32v6.32h-6.32z M429.83 404.54h6.32v6.32h-6.32z M442.47 404.54h6.32v6.32h-6.32z M461.43 404.54h6.32v6.32h-6.32z M25.28 410.86h6.32v6.32h-6.32z M31.60 410.86h6.32v6.32h-6.32z M44.25 410.86h6.32v6.32h-6.32z M50.57 410.86h6.32v6.32h-6.32z M69.53 410.86h6.32v6.32h-6.32z M94.81 410.86h6.32v6.32h-6.32z M107.46 410.86h6.32v6.32h-6.32z M113.78 410.86h6.32v6.32h-6.32z M120.10 410.86h6.32v6.32h-6.32z M126.42 410.86h6.32v6.32h-6.32z M139.06 410.86h6.32v6.32h-6.32z M176.99 410.86h6.32v6.32h-6.32z M202.27 410.86h6.32v6.32h-6.32z M208.59 410.86h6.32v6.32h-6.32z M214.91 410.86h6.32v6.32h-6.32z M227.56 410.86h6.32v6.32h-6.32z M233.88 410.86h6.32v6.32h-6.32z M265.48 410.86h6.32v6.32h-6.32z M284.44 410.86h6.32v6.32h-6.32z M290.77 410.86h6.32v6.32h-6.32z M297.09 410.86h6.32v6.32h-6.32z M303.41 410.86h6.32v6.32h-6.32z M309.73 410.86h6.32v6.32h-6.32z M316.05 410.86h6.32v6.32h-6.32z M322.37 410.86h6.32v6.32h-6.32z M328.69 410.86h6.32v6.32h-6.32z M335.01 410.86h6.32v6.32h-6.32z M347.65 410.86h6.32v6.32h-6.32z M353.98 410.86h6.32v6.32h-6.32z M366.62 410.86h6.32v6.32h-6.32z M372.94 410.86h6.32v6.32h-6.32z M404.54 410.86h6.32v6.32h-6.32z M410.86 410.86h6.32v6.32h-6.32z M423.51 410.86h6.32v6.32h-6.32z M429.83 410.86h6.32v6.32h-6.32z M455.11 410.86h6.32v6.32h-6.32z M461.43 410.86h6.32v6.32h-6.32z M467.75 410.86h6.32v6.32h-6.32z M25.28 417.19h6.32v6.32h-6.32z M31.60 417.19h6.32v6.32h-6.32z M44.25 417.19h6.32v6.32h-6.32z M56.89 417.19h6.32v6.32h-6.32z M63.21 417.19h6.32v6.32h-6.32z M69.53 417.19h6.32v6.32h-6.32z M82.17 417.19h6.32v6.32h-6.32z M94.81 417.19h6.32v6.32h-6.32z M101.14 417.19h6.32v6.32h-6.32z M107.46 417.19h6.32v6.32h-6.32z M126.42 417.19h6.32v6.32h-6.32z M132.74 417.19h6.32v6.32h-6.32z M139.06 417.19h6.32v6.32h-6.32z M145.38 417.19h6.32v6.32h-6.32z M151.70 417.19h6.32v6.32h-6.32z M158.02 417.19h6.32v6.32h-6.32z M164.35 417.19h6.32v6.32h-6.32z M176.99 417.19h6.32v6.32h-6.32z M189.63 417.19h6.32v6.32h-6.32z M195.95 417.19h6.32v6.32h-6.32z M208.59 417.19h6.32v6.32h-6.32z M221.23 417.19h6.32v6.32h-6.32z M233.88 417.19h6.32v6.32h-6.32z M246.52 417.19h6.32v6.32h-6.32z M252.84 417.19h6.32v6.32h-6.32z M259.16 417.19h6.32v6.32h-6.32z M265.48 417.19h6.32v6.32h-6.32z M271.80 417.19h6.32v6.32h-6.32z M278.12 417.19h6.32v6.32h-6.32z M284.44 417.19h6.32v6.32h-6.32z M309.73 417.19h6.32v6.32h-6.32z M341.33 417.19h6.32v6.32h-6.32z M360.30 417.19h6.32v6.32h-6.32z M372.94 417.19h6.32v6.32h-6.32z M398.22 417.19h6.32v6.32h-6.32z M417.19 417.19h6.32v6.32h-6.32z M423.51 417.19h6.32v6.32h-6.32z M429.83 417.19h6.32v6.32h-6.32z M442.47 417.19h6.32v6.32h-6.32z M461.43 417.19h6.32v6.32h-6.32z M480.40 417.19h6.32v6.32h-6.32z M44.25 423.51h6.32v6.32h-6.32z M50.57 423.51h6.32v6.32h-6.32z M69.53 423.51h6.32v6.32h-6.32z M82.17 423.51h6.32v6.32h-6.32z M101.14 423.51h6.32v6.32h-6.32z M139.06 423.51h6.32v6.32h-6.32z M145.38 423.51h6.32v6.32h-6.32z M158.02 423.51h6.32v6.32h-6.32z M176.99 423.51h6.32v6.32h-6.32z M183.31 423.51h6.32v6.32h-6.32z M202.27 423.51h6.32v6.32h-6.32z M208.59 423.51h6.32v6.32h-6.32z M214.91 423.51h6.32v6.32h-6.32z M233.88 423.51h6.32v6.32h-6.32z M265.48 423.51h6.32v6.32h-6.32z M284.44 423.51h6.32v6.32h-6.32z M303.41 423.51h6.32v6.32h-6.32z M309.73 423.51h6.32v6.32h-6.32z M322.37 423.51h6.32v6.32h-6.32z M328.69 423.51h6.32v6.32h-6.32z M335.01 423.51h6.32v6.32h-6.32z M341.33 423.51h6.32v6.32h-6.32z M347.65 423.51h6.32v6.32h-6.32z M360.30 423.51h6.32v6.32h-6.32z M372.94 423.51h6.32v6.32h-6.32z M391.90 423.51h6.32v6.32h-6.32z M398.22 423.51h6.32v6.32h-6.32z M417.19 423.51h6.32v6.32h-6.32z M429.83 423.51h6.32v6.32h-6.32z M442.47 423.51h6.32v6.32h-6.32z M461.43 423.51h6.32v6.32h-6.32z M467.75 423.51h6.32v6.32h-6.32z M25.28 429.83h6.32v6.32h-6.32z M50.57 429.83h6.32v6.32h-6.32z M63.21 429.83h6.32v6.32h-6.32z M88.49 429.83h6.32v6.32h-6.32z M107.46 429.83h6.32v6.32h-6.32z M120.10 429.83h6.32v6.32h-6.32z M126.42 429.83h6.32v6.32h-6.32z M132.74 429.83h6.32v6.32h-6.32z M139.06 429.83h6.32v6.32h-6.32z M158.02 429.83h6.32v6.32h-6.32z M164.35 429.83h6.32v6.32h-6.32z M176.99 429.83h6.32v6.32h-6.32z M183.31 429.83h6.32v6.32h-6.32z M189.63 429.83h6.32v6.32h-6.32z M195.95 429.83h6.32v6.32h-6.32z M202.27 429.83h6.32v6.32h-6.32z M208.59 429.83h6.32v6.32h-6.32z M214.91 429.83h6.32v6.32h-6.32z M221.23 429.83h6.32v6.32h-6.32z M227.56 429.83h6.32v6.32h-6.32z M233.88 429.83h6.32v6.32h-6.32z M240.20 429.83h6.32v6.32h-6.32z M252.84 429.83h6.32v6.32h-6.32z M265.48 429.83h6.32v6.32h-6.32z M284.44 429.83h6.32v6.32h-6.32z M290.77 429.83h6.32v6.32h-6.32z M297.09 429.83h6.32v6.32h-6.32z M303.41 429.83h6.32v6.32h-6.32z M309.73 429.83h6.32v6.32h-6.32z M316.05 429.83h6.32v6.32h-6.32z M322.37 429.83h6.32v6.32h-6.32z M328.69 429.83h6.32v6.32h-6.32z M335.01 429.83h6.32v6.32h-6.32z M347.65 429.83h6.32v6.32h-6.32z M353.98 429.83h6.32v6.32h-6.32z M360.30 429.83h6.32v6.32h-6.32z M379.26 429.83h6.32v6.32h-6.32z M385.58 429.83h6.32v6.32h-6.32z M398.22 429.83h6.32v6.32h-6.32z M404.54 429.83h6.32v6.32h-6.32z M429.83 429.83h6.32v6.32h-6.32z M436.15 429.83h6.32v6.32h-6.32z M442.47 429.83h6.32v6.32h-6.32z M448.79 429.83h6.32v6.32h-6.32z M455.11 429.83h6.32v6.32h-6.32z M461.43 429.83h6.32v6.32h-6.32z M467.75 429.83h6.32v6.32h-6.32z M474.07 429.83h6.32v6.32h-6.32z M480.40 429.83h6.32v6.32h-6.32z M75.85 436.15h6.32v6.32h-6.32z M82.17 436.15h6.32v6.32h-6.32z M94.81 436.15h6.32v6.32h-6.32z M107.46 436.15h6.32v6.32h-6.32z M164.35 436.15h6.32v6.32h-6.32z M170.67 436.15h6.32v6.32h-6.32z M176.99 436.15h6.32v6.32h-6.32z M202.27 436.15h6.32v6.32h-6.32z M214.91 436.15h6.32v6.32h-6.32z M221.23 436.15h6.32v6.32h-6.32z M227.56 436.15h6.32v6.32h-6.32z M233.88 436.15h6.32v6.32h-6.32z M240.20 436.15h6.32v6.32h-6.32z M252.84 436.15h6.32v6.32h-6.32z M259.16 436.15h6.32v6.32h-6.32z M290.77 436.15h6.32v6.32h-6.32z M303.41 436.15h6.32v6.32h-6.32z M328.69 436.15h6.32v6.32h-6.32z M341.33 436.15h6.32v6.32h-6.32z M347.65 436.15h6.32v6.32h-6.32z M360.30 436.15h6.32v6.32h-6.32z M398.22 436.15h6.32v6.32h-6.32z M404.54 436.15h6.32v6.32h-6.32z M417.19 436.15h6.32v6.32h-6.32z M423.51 436.15h6.32v6.32h-6.32z M429.83 436.15h6.32v6.32h-6.32z M455.11 436.15h6.32v6.32h-6.32z M461.43 436.15h6.32v6.32h-6.32z M467.75 436.15h6.32v6.32h-6.32z M25.28 442.47h6.32v6.32h-6.32z M31.60 442.47h6.32v6.32h-6.32z M37.93 442.47h6.32v6.32h-6.32z M44.25 442.47h6.32v6.32h-6.32z M50.57 442.47h6.32v6.32h-6.32z M56.89 442.47h6.32v6.32h-6.32z M63.21 442.47h6.32v6.32h-6.32z M75.85 442.47h6.32v6.32h-6.32z M139.06 442.47h6.32v6.32h-6.32z M145.38 442.47h6.32v6.32h-6.32z M158.02 442.47h6.32v6.32h-6.32z M164.35 442.47h6.32v6.32h-6.32z M170.67 442.47h6.32v6.32h-6.32z M176.99 442.47h6.32v6.32h-6.32z M189.63 442.47h6.32v6.32h-6.32z M202.27 442.47h6.32v6.32h-6.32z M208.59 442.47h6.32v6.32h-6.32z M233.88 442.47h6.32v6.32h-6.32z M246.52 442.47h6.32v6.32h-6.32z M259.16 442.47h6.32v6.32h-6.32z M271.80 442.47h6.32v6.32h-6.32z M278.12 442.47h6.32v6.32h-6.32z M284.44 442.47h6.32v6.32h-6.32z M297.09 442.47h6.32v6.32h-6.32z M303.41 442.47h6.32v6.32h-6.32z M316.05 442.47h6.32v6.32h-6.32z M328.69 442.47h6.32v6.32h-6.32z M341.33 442.47h6.32v6.32h-6.32z M353.98 442.47h6.32v6.32h-6.32z M372.94 442.47h6.32v6.32h-6.32z M379.26 442.47h6.32v6.32h-6.32z M391.90 442.47h6.32v6.32h-6.32z M398.22 442.47h6.32v6.32h-6.32z M423.51 442.47h6.32v6.32h-6.32z M429.83 442.47h6.32v6.32h-6.32z M442.47 442.47h6.32v6.32h-6.32z M455.11 442.47h6.32v6.32h-6.32z M467.75 442.47h6.32v6.32h-6.32z M480.40 442.47h6.32v6.32h-6.32z M25.28 448.79h6.32v6.32h-6.32z M63.21 448.79h6.32v6.32h-6.32z M75.85 448.79h6.32v6.32h-6.32z M94.81 448.79h6.32v6.32h-6.32z M101.14 448.79h6.32v6.32h-6.32z M113.78 448.79h6.32v6.32h-6.32z M120.10 448.79h6.32v6.32h-6.32z M126.42 448.79h6.32v6.32h-6.32z M132.74 448.79h6.32v6.32h-6.32z M139.06 448.79h6.32v6.32h-6.32z M145.38 448.79h6.32v6.32h-6.32z M151.70 448.79h6.32v6.32h-6.32z M164.35 448.79h6.32v6.32h-6.32z M170.67 448.79h6.32v6.32h-6.32z M176.99 448.79h6.32v6.32h-6.32z M202.27 448.79h6.32v6.32h-6.32z M208.59 448.79h6.32v6.32h-6.32z M214.91 448.79h6.32v6.32h-6.32z M259.16 448.79h6.32v6.32h-6.32z M265.48 448.79h6.32v6.32h-6.32z M271.80 448.79h6.32v6.32h-6.32z M278.12 448.79h6.32v6.32h-6.32z M290.77 448.79h6.32v6.32h-6.32z M297.09 448.79h6.32v6.32h-6.32z M303.41 448.79h6.32v6.32h-6.32z M328.69 448.79h6.32v6.32h-6.32z M335.01 448.79h6.32v6.32h-6.32z M341.33 448.79h6.32v6.32h-6.32z M353.98 448.79h6.32v6.32h-6.32z M366.62 448.79h6.32v6.32h-6.32z M372.94 448.79h6.32v6.32h-6.32z M398.22 448.79h6.32v6.32h-6.32z M410.86 448.79h6.32v6.32h-6.32z M423.51 448.79h6.32v6.32h-6.32z M429.83 448.79h6.32v6.32h-6.32z M455.11 448.79h6.32v6.32h-6.32z M461.43 448.79h6.32v6.32h-6.32z M474.07 448.79h6.32v6.32h-6.32z M480.40 448.79h6.32v6.32h-6.32z M25.28 455.11h6.32v6.32h-6.32z M37.93 455.11h6.32v6.32h-6.32z M44.25 455.11h6.32v6.32h-6.32z M50.57 455.11h6.32v6.32h-6.32z M63.21 455.11h6.32v6.32h-6.32z M75.85 455.11h6.32v6.32h-6.32z M82.17 455.11h6.32v6.32h-6.32z M94.81 455.11h6.32v6.32h-6.32z M120.10 455.11h6.32v6.32h-6.32z M126.42 455.11h6.32v6.32h-6.32z M132.74 455.11h6.32v6.32h-6.32z M139.06 455.11h6.32v6.32h-6.32z M145.38 455.11h6.32v6.32h-6.32z M158.02 455.11h6.32v6.32h-6.32z M170.67 455.11h6.32v6.32h-6.32z M176.99 455.11h6.32v6.32h-6.32z M183.31 455.11h6.32v6.32h-6.32z M189.63 455.11h6.32v6.32h-6.32z M195.95 455.11h6.32v6.32h-6.32z M202.27 455.11h6.32v6.32h-6.32z M208.59 455.11h6.32v6.32h-6.32z M214.91 455.11h6.32v6.32h-6.32z M233.88 455.11h6.32v6.32h-6.32z M240.20 455.11h6.32v6.32h-6.32z M252.84 455.11h6.32v6.32h-6.32z M278.12 455.11h6.32v6.32h-6.32z M284.44 455.11h6.32v6.32h-6.32z M290.77 455.11h6.32v6.32h-6.32z M297.09 455.11h6.32v6.32h-6.32z M303.41 455.11h6.32v6.32h-6.32z M309.73 455.11h6.32v6.32h-6.32z M316.05 455.11h6.32v6.32h-6.32z M322.37 455.11h6.32v6.32h-6.32z M328.69 455.11h6.32v6.32h-6.32z M353.98 455.11h6.32v6.32h-6.32z M366.62 455.11h6.32v6.32h-6.32z M391.90 455.11h6.32v6.32h-6.32z M404.54 455.11h6.32v6.32h-6.32z M410.86 455.11h6.32v6.32h-6.32z M417.19 455.11h6.32v6.32h-6.32z M423.51 455.11h6.32v6.32h-6.32z M429.83 455.11h6.32v6.32h-6.32z M436.15 455.11h6.32v6.32h-6.32z M442.47 455.11h6.32v6.32h-6.32z M448.79 455.11h6.32v6.32h-6.32z M455.11 455.11h6.32v6.32h-6.32z M461.43 455.11h6.32v6.32h-6.32z M474.07 455.11h6.32v6.32h-6.32z M480.40 455.11h6.32v6.32h-6.32z M25.28 461.43h6.32v6.32h-6.32z M37.93 461.43h6.32v6.32h-6.32z M44.25 461.43h6.32v6.32h-6.32z M50.57 461.43h6.32v6.32h-6.32z M63.21 461.43h6.32v6.32h-6.32z M75.85 461.43h6.32v6.32h-6.32z M88.49 461.43h6.32v6.32h-6.32z M94.81 461.43h6.32v6.32h-6.32z M101.14 461.43h6.32v6.32h-6.32z M107.46 461.43h6.32v6.32h-6.32z M113.78 461.43h6.32v6.32h-6.32z M120.10 461.43h6.32v6.32h-6.32z M132.74 461.43h6.32v6.32h-6.32z M139.06 461.43h6.32v6.32h-6.32z M183.31 461.43h6.32v6.32h-6.32z M195.95 461.43h6.32v6.32h-6.32z M208.59 461.43h6.32v6.32h-6.32z M214.91 461.43h6.32v6.32h-6.32z M221.23 461.43h6.32v6.32h-6.32z M227.56 461.43h6.32v6.32h-6.32z M233.88 461.43h6.32v6.32h-6.32z M240.20 461.43h6.32v6.32h-6.32z M259.16 461.43h6.32v6.32h-6.32z M265.48 461.43h6.32v6.32h-6.32z M271.80 461.43h6.32v6.32h-6.32z M278.12 461.43h6.32v6.32h-6.32z M284.44 461.43h6.32v6.32h-6.32z M290.77 461.43h6.32v6.32h-6.32z M297.09 461.43h6.32v6.32h-6.32z M316.05 461.43h6.32v6.32h-6.32z M322.37 461.43h6.32v6.32h-6.32z M341.33 461.43h6.32v6.32h-6.32z M347.65 461.43h6.32v6.32h-6.32z M366.62 461.43h6.32v6.32h-6.32z M372.94 461.43h6.32v6.32h-6.32z M391.90 461.43h6.32v6.32h-6.32z M417.19 461.43h6.32v6.32h-6.32z M429.83 461.43h6.32v6.32h-6.32z M436.15 461.43h6.32v6.32h-6.32z M442.47 461.43h6.32v6.32h-6.32z M448.79 461.43h6.32v6.32h-6.32z M461.43 461.43h6.32v6.32h-6.32z M467.75 461.43h6.32v6.32h-6.32z M480.40 461.43h6.32v6.32h-6.32z M25.28 467.75h6.32v6.32h-6.32z M37.93 467.75h6.32v6.32h-6.32z M44.25 467.75h6.32v6.32h-6.32z M50.57 467.75h6.32v6.32h-6.32z M63.21 467.75h6.32v6.32h-6.32z M88.49 467.75h6.32v6.32h-6.32z M94.81 467.75h6.32v6.32h-6.32z M126.42 467.75h6.32v6.32h-6.32z M139.06 467.75h6.32v6.32h-6.32z M164.35 467.75h6.32v6.32h-6.32z M170.67 467.75h6.32v6.32h-6.32z M176.99 467.75h6.32v6.32h-6.32z M195.95 467.75h6.32v6.32h-6.32z M208.59 467.75h6.32v6.32h-6.32z M233.88 467.75h6.32v6.32h-6.32z M240.20 467.75h6.32v6.32h-6.32z M259.16 467.75h6.32v6.32h-6.32z M271.80 467.75h6.32v6.32h-6.32z M284.44 467.75h6.32v6.32h-6.32z M303.41 467.75h6.32v6.32h-6.32z M309.73 467.75h6.32v6.32h-6.32z M316.05 467.75h6.32v6.32h-6.32z M328.69 467.75h6.32v6.32h-6.32z M335.01 467.75h6.32v6.32h-6.32z M372.94 467.75h6.32v6.32h-6.32z M379.26 467.75h6.32v6.32h-6.32z M398.22 467.75h6.32v6.32h-6.32z M404.54 467.75h6.32v6.32h-6.32z M410.86 467.75h6.32v6.32h-6.32z M423.51 467.75h6.32v6.32h-6.32z M436.15 467.75h6.32v6.32h-6.32z M448.79 467.75h6.32v6.32h-6.32z M455.11 467.75h6.32v6.32h-6.32z M461.43 467.75h6.32v6.32h-6.32z M474.07 467.75h6.32v6.32h-6.32z M480.40 467.75h6.32v6.32h-6.32z M25.28 474.07h6.32v6.32h-6.32z M63.21 474.07h6.32v6.32h-6.32z M82.17 474.07h6.32v6.32h-6.32z M88.49 474.07h6.32v6.32h-6.32z M107.46 474.07h6.32v6.32h-6.32z M126.42 474.07h6.32v6.32h-6.32z M132.74 474.07h6.32v6.32h-6.32z M139.06 474.07h6.32v6.32h-6.32z M170.67 474.07h6.32v6.32h-6.32z M176.99 474.07h6.32v6.32h-6.32z M195.95 474.07h6.32v6.32h-6.32z M202.27 474.07h6.32v6.32h-6.32z M208.59 474.07h6.32v6.32h-6.32z M214.91 474.07h6.32v6.32h-6.32z M227.56 474.07h6.32v6.32h-6.32z M240.20 474.07h6.32v6.32h-6.32z M246.52 474.07h6.32v6.32h-6.32z M284.44 474.07h6.32v6.32h-6.32z M290.77 474.07h6.32v6.32h-6.32z M303.41 474.07h6.32v6.32h-6.32z M347.65 474.07h6.32v6.32h-6.32z M372.94 474.07h6.32v6.32h-6.32z M391.90 474.07h6.32v6.32h-6.32z M442.47 474.07h6.32v6.32h-6.32z M448.79 474.07h6.32v6.32h-6.32z M467.75 474.07h6.32v6.32h-6.32z M474.07 474.07h6.32v6.32h-6.32z M480.40 474.07h6.32v6.32h-6.32z M25.28 480.40h6.32v6.32h-6.32z M31.60 480.40h6.32v6.32h-6.32z M37.93 480.40h6.32v6.32h-6.32z M44.25 480.40h6.32v6.32h-6.32z M50.57 480.40h6.32v6.32h-6.32z M56.89 480.40h6.32v6.32h-6.32z M63.21 480.40h6.32v6.32h-6.32z M75.85 480.40h6.32v6.32h-6.32z M101.14 480.40h6.32v6.32h-6.32z M107.46 480.40h6.32v6.32h-6.32z M113.78 480.40h6.32v6.32h-6.32z M120.10 480.40h6.32v6.32h-6.32z M139.06 480.40h6.32v6.32h-6.32z M145.38 480.40h6.32v6.32h-6.32z M151.70 480.40h6.32v6.32h-6.32z M158.02 480.40h6.32v6.32h-6.32z M164.35 480.40h6.32v6.32h-6.32z M170.67 480.40h6.32v6.32h-6.32z M176.99 480.40h6.32v6.32h-6.32z M189.63 480.40h6.32v6.32h-6.32z M195.95 480.40h6.32v6.32h-6.32z M202.27 480.40h6.32v6.32h-6.32z M214.91 480.40h6.32v6.32h-6.32z M227.56 480.40h6.32v6.32h-6.32z M246.52 480.40h6.32v6.32h-6.32z M252.84 480.40h6.32v6.32h-6.32z M278.12 480.40h6.32v6.32h-6.32z M284.44 480.40h6.32v6.32h-6.32z M303.41 480.40h6.32v6.32h-6.32z M322.37 480.40h6.32v6.32h-6.32z M328.69 480.40h6.32v6.32h-6.32z M335.01 480.40h6.32v6.32h-6.32z M341.33 480.40h6.32v6.32h-6.32z M347.65 480.40h6.32v6.32h-6.32z M353.98 480.40h6.32v6.32h-6.32z M360.30 480.40h6.32v6.32h-6.32z M372.94 480.40h6.32v6.32h-6.32z M385.58 480.40h6.32v6.32h-6.32z M398.22 480.40h6.32v6.32h-6.32z M404.54 480.40h6.32v6.32h-6.32z M410.86 480.40h6.32v6.32h-6.32z M417.19 480.40h6.32v6.32h-6.32z M429.83 480.40h6.32v6.32h-6.32z M436.15 480.40h6.32v6.32h-6.32z M442.47 480.40h6.32v6.32h-6.32z M448.79 480.40h6.32v6.32h-6.32z M461.43 480.40h6.32v6.32h-6.32z M480.40 480.40h6.32v6.32h-6.32z "/>
</svg>