<svg xmlns="http://www.w3.org/2000/svg" viewBox="0 0 512 512" width="512" height="512">
<rect width="100%" height="100%" fill="#FFFFFF"/>
<path fill="#000000" d="M70.62 70.62h17.66v17.66h-17.66z M88.28 70.62h17.66v17.66h-17.66z M105.93 70.62h17.66v17.66h-17.66z M123.59 70.62h17.66v17.66h-17.66z M141.24 70.62h17.66v17.66h-17.66z M158.90 70.62h17.66v17.66h-17.66z M176.55 70.62h17.66v17.66h-17.66z M211.86 70.62h17.66v17.66h-17.66z M247.17 70.62h17.66v17.66h-17.66z M317.79 70.62h17.66v17.66h-17.66z M335.45 70.62h17.66v17.66h-17.66z M353.10 70.62h17.66v17.66h-17.66z M370.76 70.62h17.66v17.66h-17.66z M388.41 70.62h17.66v17.66h-17.66z M406.07 70.62h17.66v17.66h-17.66z M423.72 70.62h17.66v17.66h-17.66z M70.62 88.28h17.66v17.66h-17.66z M176.55 88.28h17.66v17.66h-17.66z M229.52 88.28h17.66v17.66h-17.66z M264.83 88.28h17.66v17.66h-17.66z M317.79 88.28h17.66v17.66h-17.66z M423.72 88.28h17.66v17.66h-17.66z M70.62 105.93h17.66v17.66h-17.66z M105.93 105.93h17.66v17.66h-17.66z M123.59 105.93h17.66v17.66h-17.66z M141.24 105.93h17.66v17.66h-17.66z M176.55 105.93h17.66v17.66h-17.66z M229.52 105.93h17.66v17.66h-17.66z M317.79 105.93h17.66v17.66h-17.66z M353.10 105.93h17.66v17.66h-17.66z M370.76 105.93h17.66v17.66h-17.66z M388.41 105.93h17.66v17.66h-17.66z M423.72 105.93h17.66v17.66h-17.66z M70.62 123.59h17.66v17.66h-17.66z M105.93 123.59h17.66v17.66h-17.66z M123.59 123.59h17.66v17.66h-17.66z M141.24 123.59h17.66v17.66h-17.66z M176.55 123.59h17.66v17.66h-17.66z M211.86 123.59h17.66v17.66h-17.66z M229.52 123.59h17.66v17.66h-17.66z M247.17 123.59h17.66v17.66h-17.66z M264.83 123.59h17.66v17.66h-17.66z M317.79 123.59h17.66v17.66h-17.66z M353.10 123.59h17.66v17.66h-17.66z M370.76 123.59h17.66v17.66h-17.66z M388.41 123.59h17.66v17.66h-17.66z M423.72 123.59h17.66v17.66h-17.66z M70.62 141.24h17.66v17.66h-17.66z M105.93 141.24h17.66v17.66h-17.66z M123.59 141.24h17.66v17.66h-17.66z M141.24 141.24h17.66v17.66h-17.66z M176.55 141.24h17.66v17.66h-17.66z M211.86 141.24h17.66v17.66h-17.66z M247.17 141.24h17.66v17.66h-17.66z M264.83 141.24h17.66v17.66h-17.66z M282.48 141.24h17.66v17.66h-17.66z M317.79 141.24h17.66v17.66h-17.66z M353.10 141.24h17.66v17.66h-17.66z M370.76 141.24h17.66v17.66h-17.66z M388.41 141.24h17.66v17.66h-17.66z M423.72 141.24h17.66v17.66h-17.66z M70.62 158.90h17.66v17.66h-17.66z M176.55 158.90h17.66v17.66h-17.66z M211.86 158.90h17.66v17.66h-17.66z M247.17 158.90h17.66v17.66h-17.66z M317.79 158.90h17.66v17.66h-17.66z M423.72 158.90h17.66v17.66h-17.66z M70.62 176.55h17.66v17.66h-17.66z M88.28 176.55h17.66v17.66h-17.66z M105.93 176.55h17.66v17.66h-17.66z M123.59 176.55h17.66v17.66h-17.66z M141.24 176.55h17.66v17.66h-17.66z M158.90 176.55h17.66v17.66h-17.66z M176.55 176.55h17.66v17.66h-17.66z M211.86 176.55h17.66v17.66h-17.66z M247.17 176.55h17.66v17.66h-17.66z M282.48 176.55h17.66v17.66h-17.66z M317.79 176.55h17.66v17.66h-17.66z M335.45 176.55h17.66v17.66h-17.66z M353.10 176.55h17.66v17.66h-17.66z M370.76 176.55h17.66v17.66h-17.66z M388.41 176.55h17.66v17.66h-17.66z M406.07 176.55h17.66v17.66h-17.66z M423.72 176.55h17.66v17.66h-17.66z M211.86 194.21h17.66v17.66h-17.66z M70.62 211.86h17.66v17.66h-17.66z M88.28 211.86h17.66v17.66h-17.66z M105.93 211.86h17.66v17.66h-17.66z M141.24 211.86h17.66v17.66h-17.66z M176.55 211.86h17.66v17.66h-17.66z M211.86 211.86h17.66v17.66h-17.66z M229.52 211.86h17.66v17.66h-17.66z M247.17 211.86h17.66v17.66h-17.66z M264.83 211.86h17.66v17.66h-17.66z M300.14 211.86h17.66v17.66h-17.66z M353.10 211.86h17.66v17.66h-17.66z M388.41 211.86h17.66v17.66h-17.66z M406.07 211.86h17.66v17.66h-17.66z M423.72 211.86h17.66v17.66h-17.66z M70.62 229.52h17.66v17.66h-17.66z M88.28 229.52h17.66v17.66h-17.66z M158.90 229.52h17.66v17.66h-17.66z M211.86 229.52h17.66v17.66h-17.66z M229.52 229.52h17.66v17.66h-17.66z M264.83 229.52h17.66v17.66h-17.66z M282.48 229.52h17.66v17.66h-17.66z M335.45 229.52h17.66v17.66h-17.66z M353.10 229.52h17.66v17.66h-17.66z M370.76 229.52h17.66v17.66h-17.66z M388.41 229.52h17.66v17.66h-17.66z M406.07 229.52h17.66v17.66h-17.66z M70.62 247.17h17.66v17.66h-17.66z M105.93 247.17h17.66v17.66h-17.66z M123.59 247.17h17.66v17.66h-17.66z M141.24 247.17h17.66v17.66h-17.66z M176.55 247.17h17.66v17.66h-17.66z M194.21 247.17h17.66v17.66h-17.66z M211.86 247.17h17.66v17.66h-17.66z M247.17 247.17h17.66v17.66h-17.66z M264.83 247.17h17.66v17.66h-17.66z M282.48 247.17h17.66v17.66h-17.66z M335.45 247.17h17.66v17.66h-17.66z M353.10 247.17h17.66v17.66h-17.66z M70.62 264.83h17.66v17.66h-17.66z M88.28 264.83h17.66v17.66h-17.66z M123.59 264.83h17.66v17.66h-17.66z M158.90 264.83h17.66v17.66h-17.66z M194.21 264.83h17.66v17.66h-17.66z M211.86 264.83h17.66v17.66h-17.66z M229.52 264.83h17.66v17.66h-17.66z M247.17 264.83h17.66v17.66h-17.66z M282.48 264.83h17.66v17.66h-17.66z M300.14 264.83h17.66v17.66h-17.66z M317.79 264.83h17.66v17.66h-17.66z M370.76 264.83h17.66v17.66h-17.66z M388.41 264.83h17.66v17.66h-17.66z M406.07 264.83h17.66v17.66h-17.66z M423.72 264.83h17.66v17.66h-17.66z M88.28 282.48h17.66v17.66h-17.66z M123.59 282.48h17.66v17.66h-17.66z M141.24 282.48h17.66v17.66h-17.66z M176.55 282.48h17.66v17.66h-17.66z M211.86 282.48h17.66v17.66h-17.66z M229.52 282.48h17.66v17.66h-17.66z M247.17 282.48h17.66v17.66h-17.66z M264.83 282.48h17.66v17.66h-17.66z M282.48 282.48h17.66v17.66h-17.66z M317.79 282.48h17.66v17.66h-17.66z M335.45 282.48h17.66v17.66h-17.66z M370.76 282.48h17.66v17.66h-17.66z M423.72 282.48h17.66v17.66h-17.66z M211.86 300.14h17.66v17.66h-17.66z M229.52 300.14h17.66v17.66h-17.66z M282.48 300.14h17.66v17.66h-17.66z M300.14 300.14h17.66v17.66h-17.66z M317.79 300.14h17.66v17.66h-17.66z M335.45 300.14h17.66v17.66h-17.66z M388.41 300.14h17.66v17.66h-17.66z M406.07 300.14h17.66v17.66h-17.66z M423.72 300.14h17.66v17.66h-17.66z M70.62 317.79h17.66v17.66h-17.66z M88.28 317.79h17.66v17.66h-17.66z M105.93 317.79h17.66v17.66h-17.66z M123.59 317.79h17.66v17.66h-17.66z M141.24 317.79h17.66v17.66h-17.66z M158.90 317.79h17.66v17.66h-17.66z M176.55 317.79h17.66v17.66h-17.66z M211.86 317.79h17.66v17.66h-17.66z M229.52 317.79h17.66v17.66h-17.66z M247.17 317.79h17.66v17.66h-17.66z M264.83 317.79h17.66v17.66h-17.66z M300.14 317.79h17.66v17.66h-17.66z M335.45 317.79h17.66v17.66h-17.66z M370.76 317.79h17.66v17.66h-17.66z M406.07 317.79h17.66v17.66h-17.66z M70.62 335.45h17.66v17.66h-17.66z M176.55 335.45h17.66v17.66h-17.66z M211.86 335.45h17.66v17.66h-17.66z M229.52 335.45h17.66v17.66h-17.66z M247.17 335.45h17.66v17.66h-17.66z M317.79 335.45h17.66v17.66h-17.66z M335.45 335.45h17.66v17.66h-17.66z M353.10 335.45h17.66v17.66h-17.66z M388.41 335.45h17.66v17.66h-17.66z M406.07 335.45h17.66v17.66h-17.66z M423.72 335.45h17.66v17.66h-17.66z M70.62 353.10h17.66v17.66h-17.66z M105.93 353.10h17.66v17.66h-17.66z M123.59 353.10h17.66v17.66h-17.66z M141.24 353.10h17.66v17.66h-17.66z M176.55 353.10h17.66v17.66h-17.66z M211.86 353.10h17.66v17.66h-17.66z M229.52 353.10h17.66v17.66h-17.66z M247.17 353.10h17.66v17.66h-17.66z M317.79 353.10h17.66v17.66h-17.66z M388.41 353.10h17.66v17.66h-17.66z M406.07 353.10h17.66v17.66h-17.66z M423.72 353.10h17.66v17.66h-17.66z M70.62 370.76h17.66v17.66h-17.66z M105.93 370.76h17.66v17.66h-17.66z M123.59 370.76h17.66v17.66h-17.66z M141.24 370.76h17.66v17.66h-17.66z M176.55 370.76h17.66v17.66h-17.66z M211.86 370.76h17.66v17.66h-17.66z M247.17 370.76h17.66v17.66h-17.66z M282.48 370.76h17.66v17.66h-17.66z M300.14 370.76h17.66v17.66h-17.66z M317.79 370.76h17.66v17.66h-17.66z M335.45 370.76h17.66v17.66h-17.66z M353.10 370.76h17.66v17.66h-17.66z M388.41 370.76h17.66v17.66h-17.66z M70.62 388.41h17.66v17.66h-17.66z M105.93 388.41h17.66v17.66h-17.66z M123.59 388.41h17.66v17.66h-17.66z M141.24 388.41h17.66v17.66h-17.66z M176.55 388.41h17.66v17.66h-17.66z M229.52 388.41h17.66v17.66h-17.66z M247.17 388.41h17.66v17.66h-17.66z M264.83 388.41h17.66v17.66h-17.66z M282.48 388.41h17.66v17.66h-17.66z M300.14 388.41h17.66v17.66h-17.66z M335.45 388.41h17.66v17.66h-17.66z M353.10 388.41h17.66v17.66h-17.66z M388.41 388.41h17.66v17.66h-17.66z M406.07 388.41h17.66v17.66h-17.66z M423.72 388.41h17.66v17.66h-17.66z M70.62 406.07h17.66v17.66h-17.66z M176.55 406.07h17.66v17.66h-17.66z M229.52 406.07h17.66v17.66h-17.66z M264.83 406.07h17.66v17.66h-17.66z M282.48 406.07h17.66v17.66h-17.66z M335.45 406.07h17.66v17.66h-17.66z M353.10 406.07h17.66v17.66h-17.66z M388.41 406.07h17.66v17.66h-17.66z M423.72 406.07h17.66v17.66h-17.66z M70.62 423.72h17.66v17.66h-17.66z M88.28 423.72h17.66v17.66h-17.66z M105.93 423.72h17.66v17.66h-17.66z M123.59 423.72h17.66v17.66h-17.66z M141.24 423.72h17.66v17.66h-17.66z M158.90 423.72h17.66v17.66h-17.66z M176.55 423.72h17.66v17.66h-17.66z M211.86 423.72h17.66v17.66h-17.66z M229.52 423.72h17.66v17.66h-17.66z M282.48 423.72h17.66v17.66h-17.66z M300.14 423.72h17.66v17.66h-17.66z M335.45 423.72h17.66v17.66h-17.66z M353.10 423.72h17.66v17.66h-17.66z M388.41 423.72h17.66v17.66h-17.66z M406.07 423.72h17.66v17.66h-17.66z "/>
</svg>