<svg xmlns="http://www.w3.org/2000/svg" viewBox="0 0 512 512" width="512" height="512">
<rect width="100%" height="100%" fill="#FFFFFF"/>
<path fill="#9b59b6" d="M69.82 64.39A5.43 5.43 0 0 1 69.82 75.25A5.43 5.43 0 0 1 69.82 64.39Z M85.33 64.39A5.43 5.43 0 0 1 85.33 75.25A5.43 5.43 0 0 1 85.33 64.39Z M100.85 64.39A5.43 5.43 0 0 1 100.85 75.25A5.43 5.43 0 0 1 100.85 64.39Z M116.36 64.39A5.43 5.43 0 0 1 116.36 75.25A5.43 5.43 0 0 1 116.36 64.39Z M131.88 64.39A5.43 5.43 0 0 1 131.88 75.25A5.43 5.43 0 0 1 131.88 64.39Z M147.39 64.39A5.43 5.43 0 0 1 147.39 75.25A5.43 5.43 0 0 1 147.39 64.39Z M162.91 64.39A5.43 5.43 0 0 1 162.91 75.25A5.43 5.43 0 0 1 162.91 64.39Z M193.94 64.39A5.43 5.43 0 0 1 193.94 75.25A5.43 5.43 0 0 1 193.94 64.39Z M209.45 64.39A5.43 5.43 0 0 1 209.45 75.25A5.43 5.43 0 0 1 209.45 64.39Z M240.48 64.39A5.43 5.43 0 0 1 240.48 75.25A5.43 5.43 0 0 1 240.48 64.39Z M256.00 64.39A5.43 5.43 0 0 1 256.00 75.25A5.43 5.43 0 0 1 256.00 64.39Z M287.03 64.39A5.43 5.43 0 0 1 287.03 75.25A5.43 5.43 0 0 1 287.03 64.39Z M302.55 64.39A5.43 5.43 0 0 1 302.55 75.25A5.43 5.43 0 0 1 302.55 64.39Z M318.06 64.39A5.43 5.43 0 0 1 318.06 75.25A5.43 5.43 0 0 1 318.06 64.39Z M349.09 64.39A5.43 5.43 0 0 1 349.09 75.25A5.43 5.43 0 0 1 349.09 64.39Z M364.61 64.39A5.43 5.43 0 0 1 364.61 75.25A5.43 5.43 0 0 1 364.61 64.39Z M380.12 64.39A5.43 5.43 0 0 1 380.12 75.25A5.43 5.43 0 0 1 380.12 64.39Z M395.64 64.39A5.43 5.43 0 0 1 395.64 75.25A5.43 5.43 0 0 1 395.64 64.39Z M411.15 64.39A5.43 5.43 0 0 1 411.15 75.25A5.43 5.43 0 0 1 411.15 64.39Z M426.67 64.39A5.43 5.43 0 0 1 426.67 75.25A5.43 5.43 0 0 1 426.67 64.39Z M442.18 64.39A5.43 5.43 0 0 1 442.18 75.25A5.43 5.43 0 0 1 442.18 64.39Z M69.82 79.90A5.43 5.43 0 0 1 69.82 90.76A5.43 5.43 0 0 1 69.82 79.90Z M162.91 79.90A5.43 5.43 0 0 1 162.91 90.76A5.43 5.43 0 0 1 162.91 79.90Z M224.97 79.90A5.43 5.43 0 0 1 224.97 90.76A5.43 5.43 0 0 1 224.97 79.90Z M240.48 79.90A5.43 5.43 0 0 1 240.48 90.76A5.43 5.43 0 0 1 240.48 79.90Z M271.52 79.90A5.43 5.43 0 0 1 271.52 90.76A5.43 5.43 0 0 1 271.52 79.90Z M318.06 79.90A5.43 5.43 0 0 1 318.06 90.76A5.43 5.43 0 0 1 318.06 79.90Z M349.09 79.90A5.43 5.43 0 0 1 349.09 90.76A5.43 5.43 0 0 1 349.09 79.90Z M442.18 79.90A5.43 5.43 0 0 1 442.18 90.76A5.43 5.43 0 0 1 442.18 79.90Z M69.82 95.42A5.43 5.43 0 0 1 69.82 106.28A5.43 5.43 0 0 1 69.82 95.42Z M100.85 95.42A5.43 5.43 0 0 1 100.85 106.28A5.43 5.43 0 0 1 100.85 95.42Z M116.36 95.42A5.43 5.43 0 0 1 116.36 106.28A5.43 5.43 0 0 1 116.36 95.42Z M131.88 95.42A5.43 5.43 0 0 1 131.88 106.28A5.43 5.43 0 0 1 131.88 95.42Z M162.91 95.42A5.43 5.43 0 0 1 162.91 106.28A5.43 5.43 0 0 1 162.91 95.42Z M209.45 95.42A5.43 5.43 0 0 1 209.45 106.28A5.43 5.43 0 0 1 209.45 95.42Z M224.97 95.42A5.43 5.43 0 0 1 224.97 106.28A5.43 5.43 0 0 1 224.97 95.42Z M256.00 95.42A5.43 5.43 0 0 1 256.00 106.28A5.43 5.43 0 0 1 256.00 95.42Z M287.03 95.42A5.43 5.43 0 0 1 287.03 106.28A5.43 5.43 0 0 1 287.03 95.42Z M349.09 95.42A5.43 5.43 0 0 1 349.09 106.28A5.43 5.43 0 0 1 349.09 95.42Z M380.12 95.42A5.43 5.43 0 0 1 380.12 106.28A5.43 5.43 0 0 1 380.12 95.42Z M395.64 95.42A5.43 5.43 0 0 1 395.64 106.28A5.43 5.43 0 0 1 395.64 95.42Z M411.15 95.42A5.43 5.43 0 0 1 411.15 106.28A5.43 5.43 0 0 1 411.15 95.42Z M442.18 95.42A5.43 5.43 0 0 1 442.18 106.28A5.43 5.43 0 0 1 442.18 95.42Z M69.82 110.93A5.43 5.43 0 0 1 69.82 121.79A5.43 5.43 0 0 1 69.82 110.93Z M100.85 110.93A5.43 5.43 0 0 1 100.85 121.79A5.43 5.43 0 0 1 100.85 110.93Z M116.36 110.93A5.43 5.43 0 0 1 116.36 121.79A5.43 5.43 0 0 1 116.36 110.93Z M131.88 110.93A5.43 5.43 0 0 1 131.88 121.79A5.43 5.43 0 0 1 131.88 110.93Z M162.91 110.93A5.43 5.43 0 0 1 162.91 121.79A5.43 5.43 0 0 1 162.91 110.93Z M318.06 110.93A5.43 5.43 0 0 1 318.06 121.79A5.43 5.43 0 0 1 318.06 110.93Z M349.09 110.93A5.43 5.43 0 0 1 349.09 121.79A5.43 5.43 0 0 1 349.09 110.93Z M380.12 110.93A5.43 5.43 0 0 1 380.12 121.79A5.43 5.43 0 0 1 380.12 110.93Z M395.64 110.93A5.43 5.43 0 0 1 395.64 121.79A5.43 5.43 0 0 1 395.64 110.93Z M411.15 110.93A5.43 5.43 0 0 1 411.15 121.79A5.43 5.43 0 0 1 411.15 110.93Z M442.18 110.93A5.43 5.43 0 0 1 442.18 121.79A5.43 5.43 0 0 1 442.18 110.93Z M69.82 126.45A5.43 5.43 0 0 1 69.82 137.31A5.43 5.43 0 0 1 69.82 126.45Z M100.85 126.45A5.43 5.43 0 0 1 100.85 137.31A5.43 5.43 0 0 1 100.85 126.45Z M116.36 126.45A5.43 5.43 0 0 1 116.36 137.31A5.43 5.43 0 0 1 116.36 126.45Z M131.88 126.45A5.43 5.43 0 0 1 131.88 137.31A5.43 5.43 0 0 1 131.88 126.45Z M162.91 126.45A5.43 5.43 0 0 1 162.91 137.31A5.43 5.43 0 0 1 162.91 126.45Z M193.94 126.45A5.43 5.43 0 0 1 193.94 137.31A5.43 5.43 0 0 1 193.94 126.45Z M209.45 126.45A5.43 5.43 0 0 1 209.45 137.31A5.43 5.43 0 0 1 209.45 126.45Z M240.48 126.45A5.43 5.43 0 0 1 240.48 137.31A5.43 5.43 0 0 1 240.48 126.45Z M256.00 126.45A5.43 5.43 0 0 1 256.00 137.31A5.43 5.43 0 0 1 256.00 126.45Z M287.03 126.45A5.43 5.43 0 0 1 287.03 137.31A5.43 5.43 0 0 1 287.03 126.45Z M302.55 126.45A5.43 5.43 0 0 1 302.55 137.31A5.43 5.43 0 0 1 302.55 126.45Z M318.06 126.45A5.43 5.43 0 0 1 318.06 137.31A5.43 5.43 0 0 1 318.06 126.45Z M349.09 126.45A5.43 5.43 0 0 1 349.09 137.31A5.43 5.43 0 0 1 349.09 126.45Z M380.12 126.45A5.43 5.43 0 0 1 380.12 137.31A5.43 5.43 0 0 1 380.12 126.45Z M395.64 126.45A5.43 5.43 0 0 1 395.64 137.31A5.43 5.43 0 0 1 395.64 126.45Z M411.15 126.45A5.43 5.43 0 0 1 411.15 137.31A5.43 5.43 0 0 1 411.15 126.45Z M442.18 126.45A5.43 5.43 0 0 1 442.18 137.31A5.43 5.43 0 0 1 442.18 126.45Z M69.82 141.96A5.43 5.43 0 0 1 69.82 152.82A5.43 5.43 0 0 1 69.82 141.96Z M162.91 141.96A5.43 5.43 0 0 1 162.91 152.82A5.43 5.43 0 0 1 162.91 141.96Z M224.97 141.96A5.43 5.43 0 0 1 224.97 152.82A5.43 5.43 0 0 1 224.97 141.96Z M240.48 141.96A5.43 5.43 0 0 1 240.48 152.82A5.43 5.43 0 0 1 240.48 141.96Z M318.06 141.96A5.43 5.43 0 0 1 318.06 152.82A5.43 5.43 0 0 1 318.06 141.96Z M349.09 141.96A5.43 5.43 0 0 1 349.09 152.82A5.43 5.43 0 0 1 349.09 141.96Z M442.18 141.96A5.43 5.43 0 0 1 442.18 152.82A5.43 5.43 0 0 1 442.18 141.96Z M69.82 157.48A5.43 5.43 0 0 1 69.82 168.34A5.43 5.43 0 0 1 69.82 157.48Z M85.33 157.48A5.43 5.43 0 0 1 85.33 168.34A5.43 5.43 0 0 1 85.33 157.48Z M100.85 157.48A5.43 5.43 0 0 1 100.85 168.34A5.43 5.43 0 0 1 100.85 157.48Z M116.36 157.48A5.43 5.43 0 0 1 116.36 168.34A5.43 5.43 0 0 1 116.36 157.48Z M131.88 157.48A5.43 5.43 0 0 1 131.88 168.34A5.43 5.43 0 0 1 131.88 157.48Z M147.39 157.48A5.43 5.43 0 0 1 147.39 168.34A5.43 5.43 0 0 1 147.39 157.48Z M162.91 157.48A5.43 5.43 0 0 1 162.91 168.34A5.43 5.43 0 0 1 162.91 157.48Z M193.94 157.48A5.43 5.43 0 0 1 193.94 168.34A5.43 5.43 0 0 1 193.94 157.48Z M224.97 157.48A5.43 5.43 0 0 1 224.97 168.34A5.43 5.43 0 0 1 224.97 157.48Z M256.00 157.48A5.43 5.43 0 0 1 256.00 168.34A5.43 5.43 0 0 1 256.00 157.48Z M287.03 157.48A5.43 5.43 0 0 1 287.03 168.34A5.43 5.43 0 0 1 287.03 157.48Z M318.06 157.48A5.43 5.43 0 0 1 318.06 168.34A5.43 5.43 0 0 1 318.06 157.48Z M349.09 157.48A5.43 5.43 0 0 1 349.09 168.34A5.43 5.43 0 0 1 349.09 157.48Z M364.61 157.48A5.43 5.43 0 0 1 364.61 168.34A5.43 5.43 0 0 1 364.61 157.48Z M380.12 157.48A5.43 5.43 0 0 1 380.12 168.34A5.43 5.43 0 0 1 380.12 157.48Z M395.64 157.48A5.43 5.43 0 0 1 395.64 168.34A5.43 5.43 0 0 1 395.64 157.48Z M411.15 157.48A5.43 5.43 0 0 1 411.15 168.34A5.43 5.43 0 0 1 411.15 157.48Z M426.67 157.48A5.43 5.43 0 0 1 426.67 168.34A5.43 5.43 0 0 1 426.67 157.48Z M442.18 157.48A5.43 5.43 0 0 1 442.18 168.34A5.43 5.43 0 0 1 442.18 157.48Z M193.94 172.99A5.43 5.43 0 0 1 193.94 183.85A5.43 5.43 0 0 1 193.94 172.99Z M209.45 172.99A5.43 5.43 0 0 1 209.45 183.85A5.43 5.43 0 0 1 209.45 172.99Z M256.00 172.99A5.43 5.43 0 0 1 256.00 183.85A5.43 5.43 0 0 1 256.00 172.99Z M271.52 172.99A5.43 5.43 0 0 1 271.52 183.85A5.43 5.43 0 0 1 271.52 172.99Z M318.06 172.99A5.43 5.43 0 0 1 318.06 183.85A5.43 5.43 0 0 1 318.06 172.99Z M69.82 188.51A5.43 5.43 0 0 1 69.82 199.37A5.43 5.43 0 0 1 69.82 188.51Z M116.36 188.51A5.43 5.43 0 0 1 116.36 199.37A5.43 5.43 0 0 1 116.36 188.51Z M131.88 188.51A5.43 5.43 0 0 1 131.88 199.37A5.43 5.43 0 0 1 131.88 188.51Z M147.39 188.51A5.43 5.43 0 0 1 147.39 199.37A5.43 5.43 0 0 1 147.39 188.51Z M162.91 188.51A5.43 5.43 0 0 1 162.91 199.37A5.43 5.43 0 0 1 162.91 188.51Z M178.42 188.51A5.43 5.43 0 0 1 178.42 199.37A5.43 5.43 0 0 1 178.42 188.51Z M193.94 188.51A5.43 5.43 0 0 1 193.94 199.37A5.43 5.43 0 0 1 193.94 188.51Z M209.45 188.51A5.43 5.43 0 0 1 209.45 199.37A5.43 5.43 0 0 1 209.45 188.51Z M271.52 188.51A5.43 5.43 0 0 1 271.52 199.37A5.43 5.43 0 0 1 271.52 188.51Z M333.58 188.51A5.43 5.43 0 0 1 333.58 199.37A5.43 5.43 0 0 1 333.58 188.51Z M349.09 188.51A5.43 5.43 0 0 1 349.09 199.37A5.43 5.43 0 0 1 349.09 188.51Z M364.61 188.51A5.43 5.43 0 0 1 364.61 199.37A5.43 5.43 0 0 1 364.61 188.51Z M380.12 188.51A5.43 5.43 0 0 1 380.12 199.37A5.43 5.43 0 0 1 380.12 188.51Z M395.64 188.51A5.43 5.43 0 0 1 395.64 199.37A5.43 5.43 0 0 1 395.64 188.51Z M442.18 188.51A5.43 5.43 0 0 1 442.18 199.37A5.43 5.43 0 0 1 442.18 188.51Z M116.36 204.02A5.43 5.43 0 0 1 116.36 214.88A5.43 5.43 0 0 1 116.36 204.02Z M193.94 204.02A5.43 5.43 0 0 1 193.94 214.88A5.43 5.43 0 0 1 193.94 204.02Z M224.97 204.02A5.43 5.43 0 0 1 224.97 214.88A5.43 5.43 0 0 1 224.97 204.02Z M271.52 204.02A5.43 5.43 0 0 1 271.52 214.88A5.43 5.43 0 0 1 271.52 204.02Z M287.03 204.02A5.43 5.43 0 0 1 287.03 214.88A5.43 5.43 0 0 1 287.03 204.02Z M302.55 204.02A5.43 5.43 0 0 1 302.55 214.88A5.43 5.43 0 0 1 302.55 204.02Z M318.06 204.02A5.43 5.43 0 0 1 318.06 214.88A5.43 5.43 0 0 1 318.06 204.02Z M380.12 204.02A5.43 5.43 0 0 1 380.12 214.88A5.43 5.43 0 0 1 380.12 204.02Z M395.64 204.02A5.43 5.43 0 0 1 395.64 214.88A5.43 5.43 0 0 1 395.64 204.02Z M426.67 204.02A5.43 5.43 0 0 1 426.67 214.88A5.43 5.43 0 0 1 426.67 204.02Z M69.82 219.54A5.43 5.43 0 0 1 69.82 230.40A5.43 5.43 0 0 1 69.82 219.54Z M85.33 219.54A5.43 5.43 0 0 1 85.33 230.40A5.43 5.43 0 0 1 85.33 219.54Z M100.85 219.54A5.43 5.43 0 0 1 100.85 230.40A5.43 5.43 0 0 1 100.85 219.54Z M116.36 219.54A5.43 5.43 0 0 1 116.36 230.40A5.43 5.43 0 0 1 116.36 219.54Z M131.88 219.54A5.43 5.43 0 0 1 131.88 230.40A5.43 5.43 0 0 1 131.88 219.54Z M147.39 219.54A5.43 5.43 0 0 1 147.39 230.40A5.43 5.43 0 0 1 147.39 219.54Z M162.91 219.54A5.43 5.43 0 0 1 162.91 230.40A5.43 5.43 0 0 1 162.91 219.54Z M193.94 219.54A5.43 5.43 0 0 1 193.94 230.40A5.43 5.43 0 0 1 193.94 219.54Z M209.45 219.54A5.43 5.43 0 0 1 209.45 230.40A5.43 5.43 0 0 1 209.45 219.54Z M240.48 219.54A5.43 5.43 0 0 1 240.48 230.40A5.43 5.43 0 0 1 240.48 219.54Z M256.00 219.54A5.43 5.43 0 0 1 256.00 230.40A5.43 5.43 0 0 1 256.00 219.54Z M302.55 219.54A5.43 5.43 0 0 1 302.55 230.40A5.43 5.43 0 0 1 302.55 219.54Z M318.06 219.54A5.43 5.43 0 0 1 318.06 230.40A5.43 5.43 0 0 1 318.06 219.54Z M349.09 219.54A5.43 5.43 0 0 1 349.09 230.40A5.43 5.43 0 0 1 349.09 219.54Z M364.61 219.54A5.43 5.43 0 0 1 364.61 230.40A5.43 5.43 0 0 1 364.61 219.54Z M380.12 219.54A5.43 5.43 0 0 1 380.12 230.40A5.43 5.43 0 0 1 380.12 219.54Z M395.64 219.54A5.43 5.43 0 0 1 395.64 230.40A5.43 5.43 0 0 1 395.64 219.54Z M411.15 219.54A5.43 5.43 0 0 1 411.15 230.40A5.43 5.43 0 0 1 411.15 219.54Z M69.82 235.05A5.43 5.43 0 0 1 69.82 245.92A5.43 5.43 0 0 1 69.82 235.05Z M100.85 235.05A5.43 5.43 0 0 1 100.85 245.92A5.43 5.43 0 0 1 100.85 235.05Z M193.94 235.05A5.43 5.43 0 0 1 193.94 245.92A5.43 5.43 0 0 1 193.94 235.05Z M209.45 235.05A5.43 5.43 0 0 1 209.45 245.92A5.43 5.43 0 0 1 209.45 235.05Z M287.03 235.05A5.43 5.43 0 0 1 287.03 245.92A5.43 5.43 0 0 1 287.03 235.05Z M349.09 235.05A5.43 5.43 0 0 1 349.09 245.92A5.43 5.43 0 0 1 349.09 235.05Z M364.61 235.05A5.43 5.43 0 0 1 364.61 245.92A5.43 5.43 0 0 1 364.61 235.05Z M411.15 235.05A5.43 5.43 0 0 1 411.15 245.92A5.43 5.43 0 0 1 411.15 235.05Z M426.67 235.05A5.43 5.43 0 0 1 426.67 245.92A5.43 5.43 0 0 1 426.67 235.05Z M69.82 250.57A5.43 5.43 0 0 1 69.82 261.43A5.43 5.43 0 0 1 69.82 250.57Z M100.85 250.57A5.43 5.43 0 0 1 100.85 261.43A5.43 5.43 0 0 1 100.85 250.57Z M131.88 250.57A5.43 5.43 0 0 1 131.88 261.43A5.43 5.43 0 0 1 131.88 250.57Z M147.39 250.57A5.43 5.43 0 0 1 147.39 261.43A5.43 5.43 0 0 1 147.39 250.57Z M162.91 250.57A5.43 5.43 0 0 1 162.91 261.43A5.43 5.43 0 0 1 162.91 250.57Z M178.42 250.57A5.43 5.43 0 0 1 178.42 261.43A5.43 5.43 0 0 1 178.42 250.57Z M209.45 250.57A5.43 5.43 0 0 1 209.45 261.43A5.43 5.43 0 0 1 209.45 250.57Z M224.97 250.57A5.43 5.43 0 0 1 224.97 261.43A5.43 5.43 0 0 1 224.97 250.57Z M271.52 250.57A5.43 5.43 0 0 1 271.52 261.43A5.43 5.43 0 0 1 271.52 250.57Z M287.03 250.57A5.43 5.43 0 0 1 287.03 261.43A5.43 5.43 0 0 1 287.03 250.57Z M302.55 250.57A5.43 5.43 0 0 1 302.55 261.43A5.43 5.43 0 0 1 302.55 250.57Z M333.58 250.57A5.43 5.43 0 0 1 333.58 261.43A5.43 5.43 0 0 1 333.58 250.57Z M349.09 250.57A5.43 5.43 0 0 1 349.09 261.43A5.43 5.43 0 0 1 349.09 250.57Z M364.61 250.57A5.43 5.43 0 0 1 364.61 261.43A5.43 5.43 0 0 1 364.61 250.57Z M395.64 250.57A5.43 5.43 0 0 1 395.64 261.43A5.43 5.43 0 0 1 395.64 250.57Z M411.15 250.57A5.43 5.43 0 0 1 411.15 261.43A5.43 5.43 0 0 1 411.15 250.57Z M426.67 250.57A5.43 5.43 0 0 1 426.67 261.43A5.43 5.43 0 0 1 426.67 250.57Z M442.18 250.57A5.43 5.43 0 0 1 442.18 261.43A5.43 5.43 0 0 1 442.18 250.57Z M69.82 266.08A5.43 5.43 0 0 1 69.82 276.95A5.43 5.43 0 0 1 69.82 266.08Z M85.33 266.08A5.43 5.43 0 0 1 85.33 276.95A5.43 5.43 0 0 1 85.33 266.08Z M116.36 266.08A5.43 5.43 0 0 1 116.36 276.95A5.43 5.43 0 0 1 116.36 266.08Z M131.88 266.08A5.43 5.43 0 0 1 131.88 276.95A5.43 5.43 0 0 1 131.88 266.08Z M147.39 266.08A5.43 5.43 0 0 1 147.39 276.95A5.43 5.43 0 0 1 147.39 266.08Z M193.94 266.08A5.43 5.43 0 0 1 193.94 276.95A5.43 5.43 0 0 1 193.94 266.08Z M209.45 266.08A5.43 5.43 0 0 1 209.45 276.95A5.43 5.43 0 0 1 209.45 266.08Z M224.97 266.08A5.43 5.43 0 0 1 224.97 276.95A5.43 5.43 0 0 1 224.97 266.08Z M256.00 266.08A5.43 5.43 0 0 1 256.00 276.95A5.43 5.43 0 0 1 256.00 266.08Z M302.55 266.08A5.43 5.43 0 0 1 302.55 276.95A5.43 5.43 0 0 1 302.55 266.08Z M380.12 266.08A5.43 5.43 0 0 1 380.12 276.95A5.43 5.43 0 0 1 380.12 266.08Z M426.67 266.08A5.43 5.43 0 0 1 426.67 276.95A5.43 5.43 0 0 1 426.67 266.08Z M162.91 281.60A5.43 5.43 0 0 1 162.91 292.46A5.43 5.43 0 0 1 162.91 281.60Z M193.94 281.60A5.43 5.43 0 0 1 193.94 292.46A5.43 5.43 0 0 1 193.94 281.60Z M209.45 281.60A5.43 5.43 0 0 1 209.45 292.46A5.43 5.43 0 0 1 209.45 281.60Z M240.48 281.60A5.43 5.43 0 0 1 240.48 292.46A5.43 5.43 0 0 1 240.48 281.60Z M256.00 281.60A5.43 5.43 0 0 1 256.00 292.46A5.43 5.43 0 0 1 256.00 281.60Z M271.52 281.60A5.43 5.43 0 0 1 271.52 292.46A5.43 5.43 0 0 1 271.52 281.60Z M287.03 281.60A5.43 5.43 0 0 1 287.03 292.46A5.43 5.43 0 0 1 287.03 281.60Z M302.55 281.60A5.43 5.43 0 0 1 302.55 292.46A5.43 5.43 0 0 1 302.55 281.60Z M349.09 281.60A5.43 5.43 0 0 1 349.09 292.46A5.43 5.43 0 0 1 349.09 281.60Z M364.61 281.60A5.43 5.43 0 0 1 364.61 292.46A5.43 5.43 0 0 1 364.61 281.60Z M380.12 281.60A5.43 5.43 0 0 1 380.12 292.46A5.43 5.43 0 0 1 380.12 281.60Z M395.64 281.60A5.43 5.43 0 0 1 395.64 292.46A5.43 5.43 0 0 1 395.64 281.60Z M411.15 281.60A5.43 5.43 0 0 1 411.15 292.46A5.43 5.43 0 0 1 411.15 281.60Z M116.36 297.12A5.43 5.43 0 0 1 116.36 307.98A5.43 5.43 0 0 1 116.36 297.12Z M131.88 297.12A5.43 5.43 0 0 1 131.88 307.98A5.43 5.43 0 0 1 131.88 297.12Z M178.42 297.12A5.43 5.43 0 0 1 178.42 307.98A5.43 5.43 0 0 1 178.42 297.12Z M240.48 297.12A5.43 5.43 0 0 1 240.48 307.98A5.43 5.43 0 0 1 240.48 297.12Z M271.52 297.12A5.43 5.43 0 0 1 271.52 307.98A5.43 5.43 0 0 1 271.52 297.12Z M302.55 297.12A5.43 5.43 0 0 1 302.55 307.98A5.43 5.43 0 0 1 302.55 297.12Z M349.09 297.12A5.43 5.43 0 0 1 349.09 307.98A5.43 5.43 0 0 1 349.09 297.12Z M364.61 297.12A5.43 5.43 0 0 1 364.61 307.98A5.43 5.43 0 0 1 364.61 297.12Z M380.12 297.12A5.43 5.43 0 0 1 380.12 307.98A5.43 5.43 0 0 1 380.12 297.12Z M411.15 297.12A5.43 5.43 0 0 1 411.15 307.98A5.43 5.43 0 0 1 411.15 297.12Z M426.67 297.12A5.43 5.43 0 0 1 426.67 307.98A5.43 5.43 0 0 1 426.67 297.12Z M69.82 312.63A5.43 5.43 0 0 1 69.82 323.49A5.43 5.43 0 0 1 69.82 312.63Z M85.33 312.63A5.43 5.43 0 0 1 85.33 323.49A5.43 5.43 0 0 1 85.33 312.63Z M116.36 312.63A5.43 5.43 0 0 1 116.36 323.49A5.43 5.43 0 0 1 116.36 312.63Z M131.88 312.63A5.43 5.43 0 0 1 131.88 323.49A5.43 5.43 0 0 1 131.88 312.63Z M147.39 312.63A5.43 5.43 0 0 1 147.39 323.49A5.43 5.43 0 0 1 147.39 312.63Z M162.91 312.63A5.43 5.43 0 0 1 162.91 323.49A5.43 5.43 0 0 1 162.91 312.63Z M178.42 312.63A5.43 5.43 0 0 1 178.42 323.49A5.43 5.43 0 0 1 178.42 312.63Z M224.97 312.63A5.43 5.43 0 0 1 224.97 323.49A5.43 5.43 0 0 1 224.97 312.63Z M256.00 312.63A5.43 5.43 0 0 1 256.00 323.49A5.43 5.43 0 0 1 256.00 312.63Z M271.52 312.63A5.43 5.43 0 0 1 271.52 323.49A5.43 5.43 0 0 1 271.52 312.63Z M318.06 312.63A5.43 5.43 0 0 1 318.06 323.49A5.43 5.43 0 0 1 318.06 312.63Z M333.58 312.63A5.43 5.43 0 0 1 333.58 323.49A5.43 5.43 0 0 1 333.58 312.63Z M349.09 312.63A5.43 5.43 0 0 1 349.09 323.49A5.43 5.43 0 0 1 349.09 312.63Z M364.61 312.63A5.43 5.43 0 0 1 364.61 323.49A5.43 5.43 0 0 1 364.61 312.63Z M380.12 312.63A5.43 5.43 0 0 1 380.12 323.49A5.43 5.43 0 0 1 380.12 312.63Z M395.64 312.63A5.43 5.43 0 0 1 395.64 323.49A5.43 5.43 0 0 1 395.64 312.63Z M411.15 312.63A5.43 5.43 0 0 1 411.15 323.49A5.43 5.43 0 0 1 411.15 312.63Z M193.94 328.15A5.43 5.43 0 0 1 193.94 339.01A5.43 5.43 0 0 1 193.94 328.15Z M224.97 328.15A5.43 5.43 0 0 1 224.97 339.01A5.43 5.43 0 0 1 224.97 328.15Z M271.52 328.15A5.43 5.43 0 0 1 271.52 339.01A5.43 5.43 0 0 1 271.52 328.15Z M287.03 328.15A5.43 5.43 0 0 1 287.03 339.01A5.43 5.43 0 0 1 287.03 328.15Z M318.06 328.15A5.43 5.43 0 0 1 318.06 339.01A5.43 5.43 0 0 1 318.06 328.15Z M380.12 328.15A5.43 5.43 0 0 1 380.12 339.01A5.43 5.43 0 0 1 380.12 328.15Z M69.82 343.66A5.43 5.43 0 0 1 69.82 354.52A5.43 5.43 0 0 1 69.82 343.66Z M85.33 343.66A5.43 5.43 0 0 1 85.33 354.52A5.43 5.43 0 0 1 85.33 343.66Z M100.85 343.66A5.43 5.43 0 0 1 100.85 354.52A5.43 5.43 0 0 1 100.85 343.66Z M116.36 343.66A5.43 5.43 0 0 1 116.36 354.52A5.43 5.43 0 0 1 116.36 343.66Z M131.88 343.66A5.43 5.43 0 0 1 131.88 354.52A5.43 5.43 0 0 1 131.88 343.66Z M147.39 343.66A5.43 5.43 0 0 1 147.39 354.52A5.43 5.43 0 0 1 147.39 343.66Z M162.91 343.66A5.43 5.43 0 0 1 162.91 354.52A5.43 5.43 0 0 1 162.91 343.66Z M193.94 343.66A5.43 5.43 0 0 1 193.94 354.52A5.43 5.43 0 0 1 193.94 343.66Z M224.97 343.66A5.43 5.43 0 0 1 224.97 354.52A5.43 5.43 0 0 1 224.97 343.66Z M318.06 343.66A5.43 5.43 0 0 1 318.06 354.52A5.43 5.43 0 0 1 318.06 343.66Z M349.09 343.66A5.43 5.43 0 0 1 349.09 354.52A5.43 5.43 0 0 1 349.09 343.66Z M380.12 343.66A5.43 5.43 0 0 1 380.12 354.52A5.43 5.43 0 0 1 380.12 343.66Z M69.82 359.18A5.43 5.43 0 0 1 69.82 370.04A5.43 5.43 0 0 1 69.82 359.18Z M162.91 359.18A5.43 5.43 0 0 1 162.91 370.04A5.43 5.43 0 0 1 162.91 359.18Z M224.97 359.18A5.43 5.43 0 0 1 224.97 370.04A5.43 5.43 0 0 1 224.97 359.18Z M256.00 359.18A5.43 5.43 0 0 1 256.00 370.04A5.43 5.43 0 0 1 256.00 359.18Z M287.03 359.18A5.43 5.43 0 0 1 287.03 370.04A5.43 5.43 0 0 1 287.03 359.18Z M318.06 359.18A5.43 5.43 0 0 1 318.06 370.04A5.43 5.43 0 0 1 318.06 359.18Z M380.12 359.18A5.43 5.43 0 0 1 380.12 370.04A5.43 5.43 0 0 1 380.12 359.18Z M395.64 359.18A5.43 5.43 0 0 1 395.64 370.04A5.43 5.43 0 0 1 395.64 359.18Z M411.15 359.18A5.43 5.43 0 0 1 411.15 370.04A5.43 5.43 0 0 1 411.15 359.18Z M426.67 359.18A5.43 5.43 0 0 1 426.67 370.04A5.43 5.43 0 0 1 426.67 359.18Z M442.18 359.18A5.43 5.43 0 0 1 442.18 370.04A5.43 5.43 0 0 1 442.18 359.18Z M69.82 374.69A5.43 5.43 0 0 1 69.82 385.55A5.43 5.43 0 0 1 69.82 374.69Z M100.85 374.69A5.43 5.43 0 0 1 100.85 385.55A5.43 5.43 0 0 1 100.85 374.69Z M116.36 374.69A5.43 5.43 0 0 1 116.36 385.55A5.43 5.43 0 0 1 116.36 374.69Z M131.88 374.69A5.43 5.43 0 0 1 131.88 385.55A5.43 5.43 0 0 1 131.88 374.69Z M162.91 374.69A5.43 5.43 0 0 1 162.91 385.55A5.43 5.43 0 0 1 162.91 374.69Z M193.94 374.69A5.43 5.43 0 0 1 193.94 385.55A5.43 5.43 0 0 1 193.94 374.69Z M209.45 374.69A5.43 5.43 0 0 1 209.45 385.55A5.43 5.43 0 0 1 209.45 374.69Z M240.48 374.69A5.43 5.43 0 0 1 240.48 385.55A5.43 5.43 0 0 1 240.48 374.69Z M271.52 374.69A5.43 5.43 0 0 1 271.52 385.55A5.43 5.43 0 0 1 271.52 374.69Z M287.03 374.69A5.43 5.43 0 0 1 287.03 385.55A5.43 5.43 0 0 1 287.03 374.69Z M318.06 374.69A5.43 5.43 0 0 1 318.06 385.55A5.43 5.43 0 0 1 318.06 374.69Z M333.58 374.69A5.43 5.43 0 0 1 333.58 385.55A5.43 5.43 0 0 1 333.58 374.69Z M349.09 374.69A5.43 5.43 0 0 1 349.09 385.55A5.43 5.43 0 0 1 349.09 374.69Z M364.61 374.69A5.43 5.43 0 0 1 364.61 385.55A5.43 5.43 0 0 1 364.61 374.69Z M380.12 374.69A5.43 5.43 0 0 1 380.12 385.55A5.43 5.43 0 0 1 380.12 374.69Z M395.64 374.69A5.43 5.43 0 0 1 395.64 385.55A5.43 5.43 0 0 1 395.64 374.69Z M411.15 374.69A5.43 5.43 0 0 1 411.15 385.55A5.43 5.43 0 0 1 411.15 374.69Z M442.18 374.69A5.43 5.43 0 0 1 442.18 385.55A5.43 5.43 0 0 1 442.18 374.69Z M69.82 390.21A5.43 5.43 0 0 1 69.82 401.07A5.43 5.43 0 0 1 69.82 390.21Z M100.85 390.21A5.43 5.43 0 0 1 100.85 401.07A5.43 5.43 0 0 1 100.85 390.21Z M116.36 390.21A5.43 5.43 0 0 1 116.36 401.07A5.43 5.43 0 0 1 116.36 390.21Z M131.88 390.21A5.43 5.43 0 0 1 131.88 401.07A5.43 5.43 0 0 1 131.88 390.21Z M162.91 390.21A5.43 5.43 0 0 1 162.91 401.07A5.43 5.43 0 0 1 162.91 390.21Z M209.45 390.21A5.43 5.43 0 0 1 209.45 401.07A5.43 5.43 0 0 1 209.45 390.21Z M224.97 390.21A5.43 5.43 0 0 1 224.97 401.07A5.43 5.43 0 0 1 224.97 390.21Z M256.00 390.21A5.43 5.43 0 0 1 256.00 401.07A5.43 5.43 0 0 1 256.00 390.21Z M333.58 390.21A5.43 5.43 0 0 1 333.58 401.07A5.43 5.43 0 0 1 333.58 390.21Z M349.09 390.21A5.43 5.43 0 0 1 349.09 401.07A5.43 5.43 0 0 1 349.09 390.21Z M364.61 390.21A5.43 5.43 0 0 1 364.61 401.07A5.43 5.43 0 0 1 364.61 390.21Z M411.15 390.21A5.43 5.43 0 0 1 411.15 401.07A5.43 5.43 0 0 1 411.15 390.21Z M426.67 390.21A5.43 5.43 0 0 1 426.67 401.07A5.43 5.43 0 0 1 426.67 390.21Z M442.18 390.21A5.43 5.43 0 0 1 442.18 401.07A5.43 5.43 0 0 1 442.18 390.21Z M69.82 405.72A5.43 5.43 0 0 1 69.82 416.58A5.43 5.43 0 0 1 69.82 405.72Z M100.85 405.72A5.43 5.43 0 0 1 100.85 416.58A5.43 5.43 0 0 1 100.85 405.72Z M116.36 405.72A5.43 5.43 0 0 1 116.36 416.58A5.43 5.43 0 0 1 116.36 405.72Z M131.88 405.72A5.43 5.43 0 0 1 131.88 416.58A5.43 5.43 0 0 1 131.88 405.72Z M162.91 405.72A5.43 5.43 0 0 1 162.91 416.58A5.43 5.43 0 0 1 162.91 405.72Z M209.45 405.72A5.43 5.43 0 0 1 209.45 416.58A5.43 5.43 0 0 1 209.45 405.72Z M224.97 405.72A5.43 5.43 0 0 1 224.97 416.58A5.43 5.43 0 0 1 224.97 405.72Z M240.48 405.72A5.43 5.43 0 0 1 240.48 416.58A5.43 5.43 0 0 1 240.48 405.72Z M256.00 405.72A5.43 5.43 0 0 1 256.00 416.58A5.43 5.43 0 0 1 256.00 405.72Z M271.52 405.72A5.43 5.43 0 0 1 271.52 416.58A5.43 5.43 0 0 1 271.52 405.72Z M287.03 405.72A5.43 5.43 0 0 1 287.03 416.58A5.43 5.43 0 0 1 287.03 405.72Z M333.58 405.72A5.43 5.43 0 0 1 333.58 416.58A5.43 5.43 0 0 1 333.58 405.72Z M349.09 405.72A5.43 5.43 0 0 1 349.09 416.58A5.43 5.43 0 0 1 349.09 405.72Z M395.64 405.72A5.43 5.43 0 0 1 395.64 416.58A5.43 5.43 0 0 1 395.64 405.72Z M426.67 405.72A5.43 5.43 0 0 1 426.67 416.58A5.43 5.43 0 0 1 426.67 405.72Z M69.82 421.24A5.43 5.43 0 0 1 69.82 432.10A5.43 5.43 0 0 1 69.82 421.24Z M162.91 421.24A5.43 5.43 0 0 1 162.91 432.10A5.43 5.43 0 0 1 162.91 421.24Z M224.97 421.24A5.43 5.43 0 0 1 224.97 432.10A5.43 5.43 0 0 1 224.97 421.24Z M240.48 421.24A5.43 5.43 0 0 1 240.48 432.10A5.43 5.43 0 0 1 240.48 421.24Z M271.52 421.24A5.43 5.43 0 0 1 271.52 432.10A5.43 5.43 0 0 1 271.52 421.24Z M302.55 421.24A5.43 5.43 0 0 1 302.55 432.10A5.43 5.43 0 0 1 302.55 421.24Z M364.61 421.24A5.43 5.43 0 0 1 364.61 432.10A5.43 5.43 0 0 1 364.61 421.24Z M380.12 421.24A5.43 5.43 0 0 1 380.12 432.10A5.43 5.43 0 0 1 380.12 421.24Z M395.64 421.24A5.43 5.43 0 0 1 395.64 432.10A5.43 5.43 0 0 1 395.64 421.24Z M411.15 421.24A5.43 5.43 0 0 1 411.15 432.10A5.43 5.43 0 0 1 411.15 421.24Z M426.67 421.24A5.43 5.43 0 0 1 426.67 432.10A5.43 5.43 0 0 1 426.67 421.24Z M69.82 436.75A5.43 5.43 0 0 1 69.82 447.61A5.43 5.43 0 0 1 69.82 436.75Z M85.33 436.75A5.43 5.43 0 0 1 85.33 447.61A5.43 5.43 0 0 1 85.33 436.75Z M100.85 436.75A5.43 5.43 0 0 1 100.85 447.61A5.43 5.43 0 0 1 100.85 436.75Z M116.36 436.75A5.43 5.43 0 0 1 116.36 447.61A5.43 5.43 0 0 1 116.36 436.75Z M131.88 436.75A5.43 5.43 0 0 1 131.88 447.61A5.43 5.43 0 0 1 131.88 436.75Z M147.39 436.75A5.43 5.43 0 0 1 147.39 447.61A5.43 5.43 0 0 1 147.39 436.75Z M162.91 436.75A5.43 5.43 0 0 1 162.91 447.61A5.43 5.43 0 0 1 162.91 436.75Z M193.94 436.75A5.43 5.43 0 0 1 193.94 447.61A5.43 5.43 0 0 1 193.94 436.75Z M224.97 436.75A5.43 5.43 0 0 1 224.97 447.61A5.43 5.43 0 0 1 224.97 436.75Z M256.00 436.75A5.43 5.43 0 0 1 256.00 447.61A5.43 5.43 0 0 1 256.00 436.75Z M271.52 436.75A5.43 5.43 0 0 1 271.52 447.61A5.43 5.43 0 0 1 271.52 436.75Z M302.55 436.75A5.43 5.43 0 0 1 302.55 447.61A5.43 5.43 0 0 1 302.55 436.75Z M333.58 436.75A5.43 5.43 0 0 1 333.58 447.61A5.43 5.43 0 0 1 333.58 436.75Z M411.15 436.75A5.43 5.43 0 0 1 411.15 447.61A5.43 5.43 0 0 1 411.15 436.75Z M426.67 436.75A5.43 5.43 0 0 1 426.67 447.61A5.43 5.43 0 0 1 426.67 436.75Z M442.18 436.75A5.43 5.43 0 0 1 442.18 447.61A5.43 5.43 0 0 1 442.18 436.75Z "/>
</svg>