<svg xmlns="http://www.w3.org/2000/svg" viewBox="0 0 512 512" width="512" height="512">
<defs><linearGradient id="module-fill" x1="15%" y1="15%" x2="85%" y2="85%"><stop offset="0%" stop-color="#00ff88"/><stop offset="100%" stop-color="#00ffff"/></linearGradient></defs>
<rect width="100%" height="100%" fill="#0d0d0d"/>
<path fill="url(#module-fill)" d="M69.82 62.06A7.76 7.76 0 0 1 69.82 77.58A7.76 7.76 0 0 1 69.82 62.06Z M85.33 62.06A7.76 7.76 0 0 1 85.33 77.58A7.76 7.76 0 0 1 85.33 62.06Z M100.85 62.06A7.76 7.76 0 0 1 100.85 77.58A7.76 7.76 0 0 1 100.85 62.06Z M116.36 62.06A7.76 7.76 0 0 1 116.36 77.58A7.76 7.76 0 0 1 116.36 62.06Z M131.88 62.06A7.76 7.76 0 0 1 131.88 77.58A7.76 7.76 0 0 1 131.88 62.06Z M147.39 62.06A7.76 7.76 0 0 1 147.39 77.58A7.76 7.76 0 0 1 147.39 62.06Z M162.91 62.06A7.76 7.76 0 0 1 162.91 77.58A7.76 7.76 0 0 1 162.91 62.06Z M193.94 62.06A7.76 7.76 0 0 1 193.94 77.58A7.76 7.76 0 0 1 193.94 62.06Z M209.45 62.06A7.76 7.76 0 0 1 209.45 77.58A7.76 7.76 0 0 1 209.45 62.06Z M240.48 62.06A7.76 7.76 0 0 1 240.48 77.58A7.76 7.76 0 0 1 240.48 62.06Z M256.00 62.06A7.76 7.76 0 0 1 256.00 77.58A7.76 7.76 0 0 1 256.00 62.06Z M287.03 62.06A7.76 7.76 0 0 1 287.03 77.58A7.76 7.76 0 0 1 287.03 62.06Z M302.55 62.06A7.76 7.76 0 0 1 302.55 77.58A7.76 7.76 0 0 1 302.55 62.06Z M318.06 62.06A7.76 7.76 0 0 1 318.06 77.58A7.76 7.76 0 0 1 318.06 62.06Z M349.09 62.06A7.76 7.76 0 0 1 349.09 77.58A7.76 7.76 0 0 1 349.09 62.06Z M364.61 62.06A7.76 7.76 0 0 1 364.61 77.58A7.76 7.76 0 0 1 364.61 62.06Z M380.12 62.06A7.76 7.76 0 0 1 380.12 77.58A7.76 7.76 0 0 1 380.12 62.06Z M395.64 62.06A7.76 7.76 0 0 1 395.64 77.58A7.76 7.76 0 0 1 395.64 62.06Z M411.15 62.06A7.76 7.76 0 0 1 411.15 77.58A7.76 7.76 0 0 1 411.15 62.06Z M426.67 62.06A7.76 7.76 0 0 1 426.67 77.58A7.76 7.76 0 0 1 426.67 62.06Z M442.18 62.06A7.76 7.76 0 0 1 442.18 77.58A7.76 7.76 0 0 1 442.18 62.06Z M69.82 77.58A7.76 7.76 0 0 1 69.82 93.09A7.76 7.76 0 0 1 69.82 77.58Z M162.91 77.58A7.76 7.76 0 0 1 162.91 93.09A7.76 7.76 0 0 1 162.91 77.58Z M224.97 77.58A7.76 7.76 0 0 1 224.97 93.09A7.76 7.76 0 0 1 224.97 77.58Z M240.48 77.58A7.76 7.76 0 0 1 240.48 93.09A7.76 7.76 0 0 1 240.48 77.58Z M271.52 77.58A7.76 7.76 0 0 1 271.52 93.09A7.76 7.76 0 0 1 271.52 77.58Z M318.06 77.58A7.76 7.76 0 0 1 318.06 93.09A7.76 7.76 0 0 1 318.06 77.58Z M349.09 77.58A7.76 7.76 0 0 1 349.09 93.09A7.76 7.76 0 0 1 349.09 77.58Z M442.18 77.58A7.76 7.76 0 0 1 442.18 93.09A7.76 7.76 0 0 1 442.18 77.58Z M69.82 93.09A7.76 7.76 0 0 1 69.82 108.61A7.76 7.76 0 0 1 69.82 93.09Z M100.85 93.09A7.76 7.76 0 0 1 100.85 108.61A7.76 7.76 0 0 1 100.85 93.09Z M116.36 93.09A7.76 7.76 0 0 1 116.36 108.61A7.76 7.76 0 0 1 116.36 93.09Z M131.88 93.09A7.76 7.76 0 0 1 131.88 108.61A7.76 7.76 0 0 1 131.88 93.09Z M162.91 93.09A7.76 7.76 0 0 1 162.91 108.61A7.76 7.76 0 0 1 162.91 93.09Z M209.45 93.09A7.76 7.76 0 0 1 209.45 108.61A7.76 7.76 0 0 1 209.45 93.09Z M224.97 93.09A7.76 7.76 0 0 1 224.97 108.61A7.76 7.76 0 0 1 224.97 93.09Z M256.00 93.09A7.76 7.76 0 0 1 256.00 108.61A7.76 7.76 0 0 1 256.00 93.09Z M287.03 93.09A7.76 7.76 0 0 1 287.03 108.61A7.76 7.76 0 0 1 287.03 93.09Z M349.09 93.09A7.76 7.76 0 0 1 349.09 108.61A7.76 7.76 0 0 1 349.09 93.09Z M380.12 93.09A7.76 7.76 0 0 1 380.12 108.61A7.76 7.76 0 0 1 380.12 93.09Z M395.64 93.09A7.76 7.76 0 0 1 395.64 108.61A7.76 7.76 0 0 1 395.64 93.09Z M411.15 93.09A7.76 7.76 0 0 1 411.15 108.61A7.76 7.76 0 0 1 411.15 93.09Z M442.18 93.09A7.76 7.76 0 0 1 442.18 108.61A7.76 7.76 0 0 1 442.18 93.09Z M69.82 108.61A7.76 7.76 0 0 1 69.82 124.12A7.76 7.76 0 0 1 69.82 108.61Z M100.85 108.61A7.76 7.76 0 0 1 100.85 124.12A7.76 7.76 0 0 1 100.85 108.61Z M116.36 108.61A7.76 7.76 0 0 1 116.36 124.12A7.76 7.76 0 0 1 116.36 108.61Z M131.88 108.61A7.76 7.76 0 0 1 131.88 124.12A7.76 7.76 0 0 1 131.88 108.61Z M162.91 108.61A7.76 7.76 0 0 1 162.91 124.12A7.76 7.76 0 0 1 162.91 108.61Z M318.06 108.61A7.76 7.76 0 0 1 318.06 124.12A7.76 7.76 0 0 1 318.06 108.61Z M349.09 108.61A7.76 7.76 0 0 1 349.09 124.12A7.76 7.76 0 0 1 349.09 108.61Z M380.12 108.61A7.76 7.76 0 0 1 380.12 124.12A7.76 7.76 0 0 1 380.12 108.61Z M395.64 108.61A7.76 7.76 0 0 1 395.64 124.12A7.76 7.76 0 0 1 395.64 108.61Z M411.15 108.61A7.76 7.76 0 0 1 411.15 124.12A7.76 7.76 0 0 1 411.15 108.61Z M442.18 108.61A7.76 7.76 0 0 1 442.18 124.12A7.76 7.76 0 0 1 442.18 108.61Z M69.82 124.12A7.76 7.76 0 0 1 69.82 139.64A7.76 7.76 0 0 1 69.82 124.12Z M100.85 124.12A7.76 7.76 0 0 1 100.85 139.64A7.76 7.76 0 0 1 100.85 124.12Z M116.36 124.12A7.76 7.76 0 0 1 116.36 139.64A7.76 7.76 0 0 1 116.36 124.12Z M131.88 124.12A7.76 7.76 0 0 1 131.88 139.64A7.76 7.76 0 0 1 131.88 124.12Z M162.91 124.12A7.76 7.76 0 0 1 162.91 139.64A7.76 7.76 0 0 1 162.91 124.12Z M193.94 124.12A7.76 7.76 0 0 1 193.94 139.64A7.76 7.76 0 0 1 193.94 124.12Z M209.45 124.12A7.76 7.76 0 0 1 209.45 139.64A7.76 7.76 0 0 1 209.45 124.12Z M240.48 124.12A7.76 7.76 0 0 1 240.48 139.64A7.76 7.76 0 0 1 240.48 124.12Z M256.00 124.12A7.76 7.76 0 0 1 256.00 139.64A7.76 7.76 0 0 1 256.00 124.12Z M287.03 124.12A7.76 7.76 0 0 1 287.03 139.64A7.76 7.76 0 0 1 287.03 124.12Z M302.55 124.12A7.76 7.76 0 0 1 302.55 139.64A7.76 7.76 0 0 1 302.55 124.12Z M318.06 124.12A7.76 7.76 0 0 1 318.06 139.64A7.76 7.76 0 0 1 318.06 124.12Z M349.09 124.12A7.76 7.76 0 0 1 349.09 139.64A7.76 7.76 0 0 1 349.09 124.12Z M380.12 124.12A7.76 7.76 0 0 1 380.12 139.64A7.76 7.76 0 0 1 380.12 124.12Z M395.64 124.12A7.76 7.76 0 0 1 395.64 139.64A7.76 7.76 0 0 1 395.64 124.12Z M411.15 124.12A7.76 7.76 0 0 1 411.15 139.64A7.76 7.76 0 0 1 411.15 124.12Z M442.18 124.12A7.76 7.76 0 0 1 442.18 139.64A7.76 7.76 0 0 1 442.18 124.12Z M69.82 139.64A7.76 7.76 0 0 1 69.82 155.15A7.76 7.76 0 0 1 69.82 139.64Z M162.91 139.64A7.76 7.76 0 0 1 162.91 155.15A7.76 7.76 0 0 1 162.91 139.64Z M224.97 139.64A7.76 7.76 0 0 1 224.97 155.15A7.76 7.76 0 0 1 224.97 139.64Z M240.48 139.64A7.76 7.76 0 0 1 240.48 155.15A7.76 7.76 0 0 1 240.48 139.64Z M318.06 139.64A7.76 7.76 0 0 1 318.06 155.15A7.76 7.76 0 0 1 318.06 139.64Z M349.09 139.64A7.76 7.76 0 0 1 349.09 155.15A7.76 7.76 0 0 1 349.09 139.64Z M442.18 139.64A7.76 7.76 0 0 1 442.18 155.15A7.76 7.76 0 0 1 442.18 139.64Z M69.82 155.15A7.76 7.76 0 0 1 69.82 170.67A7.76 7.76 0 0 1 69.82 155.15Z M85.33 155.15A7.76 7.76 0 0 1 85.33 170.67A7.76 7.76 0 0 1 85.33 155.15Z M100.85 155.15A7.76 7.76 0 0 1 100.85 170.67A7.76 7.76 0 0 1 100.85 155.15Z M116.36 155.15A7.76 7.76 0 0 1 116.36 170.67A7.76 7.76 0 0 1 116.36 155.15Z M131.88 155.15A7.76 7.76 0 0 1 131.88 170.67A7.76 7.76 0 0 1 131.88 155.15Z M147.39 155.15A7.76 7.76 0 0 1 147.39 170.67A7.76 7.76 0 0 1 147.39 155.15Z M162.91 155.15A7.76 7.76 0 0 1 162.91 170.67A7.76 7.76 0 0 1 162.91 155.15Z M193.94 155.15A7.76 7.76 0 0 1 193.94 170.67A7.76 7.76 0 0 1 193.94 155.15Z M224.97 155.15A7.76 7.76 0 0 1 224.97 170.67A7.76 7.76 0 0 1 224.97 155.15Z M256.00 155.15A7.76 7.76 0 0 1 256.00 170.67A7.76 7.76 0 0 1 256.00 155.15Z M287.03 155.15A7.76 7.76 0 0 1 287.03 170.67A7.76 7.76 0 0 1 287.03 155.15Z M318.06 155.15A7.76 7.76 0 0 1 318.06 170.67A7.76 7.76 0 0 1 318.06 155.15Z M349.09 155.15A7.76 7.76 0 0 1 349.09 170.67A7.76 7.76 0 0 1 349.09 155.15Z M364.61 155.15A7.76 7.76 0 0 1 364.61 170.67A7.76 7.76 0 0 1 364.61 155.15Z M380.12 155.15A7.76 7.76 0 0 1 380.12 170.67A7.76 7.76 0 0 1 380.12 155.15Z M395.64 155.15A7.76 7.76 0 0 1 395.64 170.67A7.76 7.76 0 0 1 395.64 155.15Z M411.15 155.15A7.76 7.76 0 0 1 411.15 170.67A7.76 7.76 0 0 1 411.15 155.15Z M426.67 155.15A7.76 7.76 0 0 1 426.67 170.67A7.76 7.76 0 0 1 426.67 155.15Z M442.18 155.15A7.76 7.76 0 0 1 442.18 170.67A7.76 7.76 0 0 1 442.18 155.15Z M193.94 170.67A7.76 7.76 0 0 1 193.94 186.18A7.76 7.76 0 0 1 193.94 170.67Z M209.45 170.67A7.76 7.76 0 0 1 209.45 186.18A7.76 7.76 0 0 1 209.45 170.67Z M256.00 170.67A7.76 7.76 0 0 1 256.00 186.18A7.76 7.76 0 0 1 256.00 170.67Z M271.52 170.67A7.76 7.76 0 0 1 271.52 186.18A7.76 7.76 0 0 1 271.52 170.67Z M318.06 170.67A7.76 7.76 0 0 1 318.06 186.18A7.76 7.76 0 0 1 318.06 170.67Z M69.82 186.18A7.76 7.76 0 0 1 69.82 201.70A7.76 7.76 0 0 1 69.82 186.18Z M116.36 186.18A7.76 7.76 0 0 1 116.36 201.70A7.76 7.76 0 0 1 116.36 186.18Z M131.88 186.18A7.76 7.76 0 0 1 131.88 201.70A7.76 7.76 0 0 1 131.88 186.18Z M147.39 186.18A7.76 7.76 0 0 1 147.39 201.70A7.76 7.76 0 0 1 147.39 186.18Z M162.91 186.18A7.76 7.76 0 0 1 162.91 201.70A7.76 7.76 0 0 1 162.91 186.18Z M178.42 186.18A7.76 7.76 0 0 1 178.42 201.70A7.76 7.76 0 0 1 178.42 186.18Z M193.94 186.18A7.76 7.76 0 0 1 193.94 201.70A7.76 7.76 0 0 1 193.94 186.18Z M209.45 186.18A7.76 7.76 0 0 1 209.45 201.70A7.76 7.76 0 0 1 209.45 186.18Z M271.52 186.18A7.76 7.76 0 0 1 271.52 201.70A7.76 7.76 0 0 1 271.52 186.18Z M333.58 186.18A7.76 7.76 0 0 1 333.58 201.70A7.76 7.76 0 0 1 333.58 186.18Z M349.09 186.18A7.76 7.76 0 0 1 349.09 201.70A7.76 7.76 0 0 1 349.09 186.18Z M364.61 186.18A7.76 7.76 0 0 1 364.61 201.70A7.76 7.76 0 0 1 364.61 186.18Z M380.12 186.18A7.76 7.76 0 0 1 380.12 201.70A7.76 7.76 0 0 1 380.12 186.18Z M395.64 186.18A7.76 7.76 0 0 1 395.64 201.70A7.76 7.76 0 0 1 395.64 186.18Z M442.18 186.18A7.76 7.76 0 0 1 442.18 201.70A7.76 7.76 0 0 1 442.18 186.18Z M116.36 201.70A7.76 7.76 0 0 1 116.36 217.21A7.76 7.76 0 0 1 116.36 201.70Z M193.94 201.70A7.76 7.76 0 0 1 193.94 217.21A7.76 7.76 0 0 1 193.94 201.70Z M224.97 201.70A7.76 7.76 0 0 1 224.97 217.21A7.76 7.76 0 0 1 224.97 201.70Z M271.52 201.70A7.76 7.76 0 0 1 271.52 217.21A7.76 7.76 0 0 1 271.52 201.70Z M287.03 201.70A7.76 7.76 0 0 1 287.03 217.21A7.76 7.76 0 0 1 287.03 201.70Z M302.55 201.70A7.76 7.76 0 0 1 302.55 217.21A7.76 7.76 0 0 1 302.55 201.70Z M318.06 201.70A7.76 7.76 0 0 1 318.06 217.21A7.76 7.76 0 0 1 318.06 201.70Z M380.12 201.70A7.76 7.76 0 0 1 380.12 217.21A7.76 7.76 0 0 1 380.12 201.70Z M395.64 201.70A7.76 7.76 0 0 1 395.64 217.21A7.76 7.76 0 0 1 395.64 201.70Z M426.67 201.70A7.76 7.76 0 0 1 426.67 217.21A7.76 7.76 0 0 1 426.67 201.70Z M69.82 217.21A7.76 7.76 0 0 1 69.82 232.73A7.76 7.76 0 0 1 69.82 217.21Z M85.33 217.21A7.76 7.76 0 0 1 85.33 232.73A7.76 7.76 0 0 1 85.33 217.21Z M100.85 217.21A7.76 7.76 0 0 1 100.85 232.73A7.76 7.76 0 0 1 100.85 217.21Z M116.36 217.21A7.76 7.76 0 0 1 116.36 232.73A7.76 7.76 0 0 1 116.36 217.21Z M131.88 217.21A7.76 7.76 0 0 1 131.88 232.73A7.76 7.76 0 0 1 131.88 217.21Z M147.39 217.21A7.76 7.76 0 0 1 147.39 232.73A7.76 7.76 0 0 1 147.39 217.21Z M162.91 217.21A7.76 7.76 0 0 1 162.91 232.73A7.76 7.76 0 0 1 162.91 217.21Z M193.94 217.21A7.76 7.76 0 0 1 193.94 232.73A7.76 7.76 0 0 1 193.94 217.21Z M209.45 217.21A7.76 7.76 0 0 1 209.45 232.73A7.76 7.76 0 0 1 209.45 217.21Z M240.48 217.21A7.76 7.76 0 0 1 240.48 232.73A7.76 7.76 0 0 1 240.48 217.21Z M256.00 217.21A7.76 7.76 0 0 1 256.00 232.73A7.76 7.76 0 0 1 256.00 217.21Z M302.55 217.21A7.76 7.76 0 0 1 302.55 232.73A7.76 7.76 0 0 1 302.55 217.21Z M318.06 217.21A7.76 7.76 0 0 1 318.06 232.73A7.76 7.76 0 0 1 318.06 217.21Z M349.09 217.21A7.76 7.76 0 0 1 349.09 232.73A7.76 7.76 0 0 1 349.09 217.21Z M364.61 217.21A7.76 7.76 0 0 1 364.61 232.73A7.76 7.76 0 0 1 364.61 217.21Z M380.12 217.21A7.76 7.76 0 0 1 380.12 232.73A7.76 7.76 0 0 1 380.12 217.21Z M395.64 217.21A7.76 7.76 0 0 1 395.64 232.73A7.76 7.76 0 0 1 395.64 217.21Z M411.15 217.21A7.76 7.76 0 0 1 411.15 232.73A7.76 7.76 0 0 1 411.15 217.21Z M69.82 232.73A7.76 7.76 0 0 1 69.82 248.24A7.76 7.76 0 0 1 69.82 232.73Z M100.85 232.73A7.76 7.76 0 0 1 100.85 248.24A7.76 7.76 0 0 1 100.85 232.73Z M193.94 232.73A7.76 7.76 0 0 1 193.94 248.24A7.76 7.76 0 0 1 193.94 232.73Z M209.45 232.73A7.76 7.76 0 0 1 209.45 248.24A7.76 7.76 0 0 1 209.45 232.73Z M287.03 232.73A7.76 7.76 0 0 1 287.03 248.24A7.76 7.76 0 0 1 287.03 232.73Z M349.09 232.73A7.76 7.76 0 0 1 349.09 248.24A7.76 7.76 0 0 1 349.09 232.73Z M364.61 232.73A7.76 7.76 0 0 1 364.61 248.24A7.76 7.76 0 0 1 364.61 232.73Z M411.15 232.73A7.76 7.76 0 0 1 411.15 248.24A7.76 7.76 0 0 1 411.15 232.73Z M426.67 232.73A7.76 7.76 0 0 1 426.67 248.24A7.76 7.76 0 0 1 426.67 232.73Z M69.82 248.24A7.76 7.76 0 0 1 69.82 263.76A7.76 7.76 0 0 1 69.82 248.24Z M100.85 248.24A7.76 7.76 0 0 1 100.85 263.76A7.76 7.76 0 0 1 100.85 248.24Z M131.88 248.24A7.76 7.76 0 0 1 131.88 263.76A7.76 7.76 0 0 1 131.88 248.24Z M147.39 248.24A7.76 7.76 0 0 1 147.39 263.76A7.76 7.76 0 0 1 147.39 248.24Z M162.91 248.24A7.76 7.76 0 0 1 162.91 263.76A7.76 7.76 0 0 1 162.91 248.24Z M178.42 248.24A7.76 7.76 0 0 1 178.42 263.76A7.76 7.76 0 0 1 178.42 248.24Z M209.45 248.24A7.76 7.76 0 0 1 209.45 263.76A7.76 7.76 0 0 1 209.45 248.24Z M224.97 248.24A7.76 7.76 0 0 1 224.97 263.76A7.76 7.76 0 0 1 224.97 248.24Z M271.52 248.24A7.76 7.76 0 0 1 271.52 263.76A7.76 7.76 0 0 1 271.52 248.24Z M287.03 248.24A7.76 7.76 0 0 1 287.03 263.76A7.76 7.76 0 0 1 287.03 248.24Z M302.55 248.24A7.76 7.76 0 0 1 302.55 263.76A7.76 7.76 0 0 1 302.55 248.24Z M333.58 248.24A7.76 7.76 0 0 1 333.58 263.76A7.76 7.76 0 0 1 333.58 248.24Z M349.09 248.24A7.76 7.76 0 0 1 349.09 263.76A7.76 7.76 0 0 1 349.09 248.24Z M364.61 248.24A7.76 7.76 0 0 1 364.61 263.76A7.76 7.76 0 0 1 364.61 248.24Z M395.64 248.24A7.76 7.76 0 0 1 395.64 263.76A7.76 7.76 0 0 1 395.64 248.24Z M411.15 248.24A7.76 7.76 0 0 1 411.15 263.76A7.76 7.76 0 0 1 411.15 248.24Z M426.67 248.24A7.76 7.76 0 0 1 426.67 263.76A7.76 7.76 0 0 1 426.67 248.24Z M442.18 248.24A7.76 7.76 0 0 1 442.18 263.76A7.76 7.76 0 0 1 442.18 248.24Z M69.82 263.76A7.76 7.76 0 0 1 69.82 279.27A7.76 7.76 0 0 1 69.82 263.76Z M85.33 263.76A7.76 7.76 0 0 1 85.33 279.27A7.76 7.76 0 0 1 85.33 263.76Z M116.36 263.76A7.76 7.76 0 0 1 116.36 279.27A7.76 7.76 0 0 1 116.36 263.76Z M131.88 263.76A7.76 7.76 0 0 1 131.88 279.27A7.76 7.76 0 0 1 131.88 263.76Z M147.39 263.76A7.76 7.76 0 0 1 147.39 279.27A7.76 7.76 0 0 1 147.39 263.76Z M193.94 263.76A7.76 7.76 0 0 1 193.94 279.27A7.76 7.76 0 0 1 193.94 263.76Z M209.45 263.76A7.76 7.76 0 0 1 209.45 279.27A7.76 7.76 0 0 1 209.45 263.76Z M224.97 263.76A7.76 7.76 0 0 1 224.97 279.27A7.76 7.76 0 0 1 224.97 263.76Z M256.00 263.76A7.76 7.76 0 0 1 256.00 279.27A7.76 7.76 0 0 1 256.00 263.76Z M302.55 263.76A7.76 7.76 0 0 1 302.55 279.27A7.76 7.76 0 0 1 302.55 263.76Z M380.12 263.76A7.76 7.76 0 0 1 380.12 279.27A7.76 7.76 0 0 1 380.12 263.76Z M426.67 263.76A7.76 7.76 0 0 1 426.67 279.27A7.76 7.76 0 0 1 426.67 263.76Z M162.91 279.27A7.76 7.76 0 0 1 162.91 294.79A7.76 7.76 0 0 1 162.91 279.27Z M193.94 279.27A7.76 7.76 0 0 1 193.94 294.79A7.76 7.76 0 0 1 193.94 279.27Z M209.45 279.27A7.76 7.76 0 0 1 209.45 294.79A7.76 7.76 0 0 1 209.45 279.27Z M240.48 279.27A7.76 7.76 0 0 1 240.48 294.79A7.76 7.76 0 0 1 240.48 279.27Z M256.00 279.27A7.76 7.76 0 0 1 256.00 294.79A7.76 7.76 0 0 1 256.00 279.27Z M271.52 279.27A7.76 7.76 0 0 1 271.52 294.79A7.76 7.76 0 0 1 271.52 279.27Z M287.03 279.27A7.76 7.76 0 0 1 287.03 294.79A7.76 7.76 0 0 1 287.03 279.27Z M302.55 279.27A7.76 7.76 0 0 1 302.55 294.79A7.76 7.76 0 0 1 302.55 279.27Z M349.09 279.27A7.76 7.76 0 0 1 349.09 294.79A7.76 7.76 0 0 1 349.09 279.27Z M364.61 279.27A7.76 7.76 0 0 1 364.61 294.79A7.76 7.76 0 0 1 364.61 279.27Z M380.12 279.27A7.76 7.76 0 0 1 380.12 294.79A7.76 7.76 0 0 1 380.12 279.27Z M395.64 279.27A7.76 7.76 0 0 1 395.64 294.79A7.76 7.76 0 0 1 395.64 279.27Z M411.15 279.27A7.76 7.76 0 0 1 411.15 294.79A7.76 7.76 0 0 1 411.15 279.27Z M116.36 294.79A7.76 7.76 0 0 1 116.36 310.30A7.76 7.76 0 0 1 116.36 294.79Z M131.88 294.79A7.76 7.76 0 0 1 131.88 310.30A7.76 7.76 0 0 1 131.88 294.79Z M178.42 294.79A7.76 7.76 0 0 1 178.42 310.30A7.76 7.76 0 0 1 178.42 294.79Z M240.48 294.79A7.76 7.76 0 0 1 240.48 310.30A7.76 7.76 0 0 1 240.48 294.79Z M271.52 294.79A7.76 7.76 0 0 1 271.52 310.30A7.76 7.76 0 0 1 271.52 294.79Z M302.55 294.79A7.76 7.76 0 0 1 302.55 310.30A7.76 7.76 0 0 1 302.55 294.79Z M349.09 294.79A7.76 7.76 0 0 1 349.09 310.30A7.76 7.76 0 0 1 349.09 294.79Z M364.61 294.79A7.76 7.76 0 0 1 364.61 310.30A7.76 7.76 0 0 1 364.61 294.79Z M380.12 294.79A7.76 7.76 0 0 1 380.12 310.30A7.76 7.76 0 0 1 380.12 294.79Z M411.15 294.79A7.76 7.76 0 0 1 411.15 310.30A7.76 7.76 0 0 1 411.15 294.79Z M426.67 294.79A7.76 7.76 0 0 1 426.67 310.30A7.76 7.76 0 0 1 426.67 294.79Z M69.82 310.30A7.76 7.76 0 0 1 69.82 325.82A7.76 7.76 0 0 1 69.82 310.30Z M85.33 310.30A7.76 7.76 0 0 1 85.33 325.82A7.76 7.76 0 0 1 85.33 310.30Z M116.36 310.30A7.76 7.76 0 0 1 116.36 325.82A7.76 7.76 0 0 1 116.36 310.30Z M131.88 310.30A7.76 7.76 0 0 1 131.88 325.82A7.76 7.76 0 0 1 131.88 310.30Z M147.39 310.30A7.76 7.76 0 0 1 147.39 325.82A7.76 7.76 0 0 1 147.39 310.30Z M162.91 310.30A7.76 7.76 0 0 1 162.91 325.82A7.76 7.76 0 0 1 162.91 310.30Z M178.42 310.30A7.76 7.76 0 0 1 178.42 325.82A7.76 7.76 0 0 1 178.42 310.30Z M224.97 310.30A7.76 7.76 0 0 1 224.97 325.82A7.76 7.76 0 0 1 224.97 310.30Z M256.00 310.30A7.76 7.76 0 0 1 256.00 325.82A7.76 7.76 0 0 1 256.00 310.30Z M271.52 310.30A7.76 7.76 0 0 1 271.52 325.82A7.76 7.76 0 0 1 271.52 310.30Z M318.06 310.30A7.76 7.76 0 0 1 318.06 325.82A7.76 7.76 0 0 1 318.06 310.30Z M333.58 310.30A7.76 7.76 0 0 1 333.58 325.82A7.76 7.76 0 0 1 333.58 310.30Z M349.09 310.30A7.76 7.76 0 0 1 349.09 325.82A7.76 7.76 0 0 1 349.09 310.30Z M364.61 310.30A7.76 7.76 0 0 1 364.61 325.82A7.76 7.76 0 0 1 364.61 310.30Z M380.12 310.30A7.76 7.76 0 0 1 380.12 325.82A7.76 7.76 0 0 1 380.12 310.30Z M395.64 310.30A7.76 7.76 0 0 1 395.64 325.82A7.76 7.76 0 0 1 395.64 310.30Z M411.15 310.30A7.76 7.76 0 0 1 411.15 325.82A7.76 7.76 0 0 1 411.15 310.30Z M193.94 325.82A7.76 7.76 0 0 1 193.94 341.33A7.76 7.76 0 0 1 193.94 325.82Z M224.97 325.82A7.76 7.76 0 0 1 224.97 341.33A7.76 7.76 0 0 1 224.97 325.82Z M271.52 325.82A7.76 7.76 0 0 1 271.52 341.33A7.76 7.76 0 0 1 271.52 325.82Z M287.03 325.82A7.76 7.76 0 0 1 287.03 341.33A7.76 7.76 0 0 1 287.03 325.82Z M318.06 325.82A7.76 7.76 0 0 1 318.06 341.33A7.76 7.76 0 0 1 318.06 325.82Z M380.12 325.82A7.76 7.76 0 0 1 380.12 341.33A7.76 7.76 0 0 1 380.12 325.82Z M69.82 341.33A7.76 7.76 0 0 1 69.82 356.85A7.76 7.76 0 0 1 69.82 341.33Z M85.33 341.33A7.76 7.76 0 0 1 85.33 356.85A7.76 7.76 0 0 1 85.33 341.33Z M100.85 341.33A7.76 7.76 0 0 1 100.85 356.85A7.76 7.76 0 0 1 100.85 341.33Z M116.36 341.33A7.76 7.76 0 0 1 116.36 356.85A7.76 7.76 0 0 1 116.36 341.33Z M131.88 341.33A7.76 7.76 0 0 1 131.88 356.85A7.76 7.76 0 0 1 131.88 341.33Z M147.39 341.33A7.76 7.76 0 0 1 147.39 356.85A7.76 7.76 0 0 1 147.39 341.33Z M162.91 341.33A7.76 7.76 0 0 1 162.91 356.85A7.76 7.76 0 0 1 162.91 341.33Z M193.94 341.33A7.76 7.76 0 0 1 193.94 356.85A7.76 7.76 0 0 1 193.94 341.33Z M224.97 341.33A7.76 7.76 0 0 1 224.97 356.85A7.76 7.76 0 0 1 224.97 341.33Z M318.06 341.33A7.76 7.76 0 0 1 318.06 356.85A7.76 7.76 0 0 1 318.06 341.33Z M349.09 341.33A7.76 7.76 0 0 1 349.09 356.85A7.76 7.76 0 0 1 349.09 341.33Z M380.12 341.33A7.76 7.76 0 0 1 380.12 356.85A7.76 7.76 0 0 1 380.12 341.33Z M69.82 356.85A7.76 7.76 0 0 1 69.82 372.36A7.76 7.76 0 0 1 69.82 356.85Z M162.91 356.85A7.76 7.76 0 0 1 162.91 372.36A7.76 7.76 0 0 1 162.91 356.85Z M224.97 356.85A7.76 7.76 0 0 1 224.97 372.36A7.76 7.76 0 0 1 224.97 356.85Z M256.00 356.85A7.76 7.76 0 0 1 256.00 372.36A7.76 7.76 0 0 1 256.00 356.85Z M287.03 356.85A7.76 7.76 0 0 1 287.03 372.36A7.76 7.76 0 0 1 287.03 356.85Z M318.06 356.85A7.76 7.76 0 0 1 318.06 372.36A7.76 7.76 0 0 1 318.06 356.85Z M380.12 356.85A7.76 7.76 0 0 1 380.12 372.36A7.76 7.76 0 0 1 380.12 356.85Z M395.64 356.85A7.76 7.76 0 0 1 395.64 372.36A7.76 7.76 0 0 1 395.64 356.85Z M411.15 356.85A7.76 7.76 0 0 1 411.15 372.36A7.76 7.76 0 0 1 411.15 356.85Z M426.67 356.85A7.76 7.76 0 0 1 426.67 372.36A7.76 7.76 0 0 1 426.67 356.85Z M442.18 356.85A7.76 7.76 0 0 1 442.18 372.36A7.76 7.76 0 0 1 442.18 356.85Z M69.82 372.36A7.76 7.76 0 0 1 69.82 387.88A7.76 7.76 0 0 1 69.82 372.36Z M100.85 372.36A7.76 7.76 0 0 1 100.85 387.88A7.76 7.76 0 0 1 100.85 372.36Z M116.36 372.36A7.76 7.76 0 0 1 116.36 387.88A7.76 7.76 0 0 1 116.36 372.36Z M131.88 372.36A7.76 7.76 0 0 1 131.88 387.88A7.76 7.76 0 0 1 131.88 372.36Z M162.91 372.36A7.76 7.76 0 0 1 162.91 387.88A7.76 7.76 0 0 1 162.91 372.36Z M193.94 372.36A7.76 7.76 0 0 1 193.94 387.88A7.76 7.76 0 0 1 193.94 372.36Z M209.45 372.36A7.76 7.76 0 0 1 209.45 387.88A7.76 7.76 0 0 1 209.45 372.36Z M240.48 372.36A7.76 7.76 0 0 1 240.48 387.88A7.76 7.76 0 0 1 240.48 372.36Z M271.52 372.36A7.76 7.76 0 0 1 271.52 387.88A7.76 7.76 0 0 1 271.52 372.36Z M287.03 372.36A7.76 7.76 0 0 1 287.03 387.88A7.76 7.76 0 0 1 287.03 372.36Z M318.06 372.36A7.76 7.76 0 0 1 318.06 387.88A7.76 7.76 0 0 1 318.06 372.36Z M333.58 372.36A7.76 7.76 0 0 1 333.58 387.88A7.76 7.76 0 0 1 333.58 372.36Z M349.09 372.36A7.76 7.76 0 0 1 349.09 387.88A7.76 7.76 0 0 1 349.09 372.36Z M364.61 372.36A7.76 7.76 0 0 1 364.61 387.88A7.76 7.76 0 0 1 364.61 372.36Z M380.12 372.36A7.76 7.76 0 0 1 380.12 387.88A7.76 7.76 0 0 1 380.12 372.36Z M395.64 372.36A7.76 7.76 0 0 1 395.64 387.88A7.76 7.76 0 0 1 395.64 372.36Z M411.15 372.36A7.76 7.76 0 0 1 411.15 387.88A7.76 7.76 0 0 1 411.15 372.36Z M442.18 372.36A7.76 7.76 0 0 1 442.18 387.88A7.76 7.76 0 0 1 442.18 372.36Z M69.82 387.88A7.76 7.76 0 0 1 69.82 403.39A7.76 7.76 0 0 1 69.82 387.88Z M100.85 387.88A7.76 7.76 0 0 1 100.85 403.39A7.76 7.76 0 0 1 100.85 387.88Z M116.36 387.88A7.76 7.76 0 0 1 116.36 403.39A7.76 7.76 0 0 1 116.36 387.88Z M131.88 387.88A7.76 7.76 0 0 1 131.88 403.39A7.76 7.76 0 0 1 131.88 387.88Z M162.91 387.88A7.76 7.76 0 0 1 162.91 403.39A7.76 7.76 0 0 1 162.91 387.88Z M209.45 387.88A7.76 7.76 0 0 1 209.45 403.39A7.76 7.76 0 0 1 209.45 387.88Z M224.97 387.88A7.76 7.76 0 0 1 224.97 403.39A7.76 7.76 0 0 1 224.97 387.88Z M256.00 387.88A7.76 7.76 0 0 1 256.00 403.39A7.76 7.76 0 0 1 256.00 387.88Z M333.58 387.88A7.76 7.76 0 0 1 333.58 403.39A7.76 7.76 0 0 1 333.58 387.88Z M349.09 387.88A7.76 7.76 0 0 1 349.09 403.39A7.76 7.76 0 0 1 349.09 387.88Z M364.61 387.88A7.76 7.76 0 0 1 364.61 403.39A7.76 7.76 0 0 1 364.61 387.88Z M411.15 387.88A7.76 7.76 0 0 1 411.15 403.39A7.76 7.76 0 0 1 411.15 387.88Z M426.67 387.88A7.76 7.76 0 0 1 426.67 403.39A7.76 7.76 0 0 1 426.67 387.88Z M442.18 387.88A7.76 7.76 0 0 1 442.18 403.39A7.76 7.76 0 0 1 442.18 387.88Z M69.82 403.39A7.76 7.76 0 0 1 69.82 418.91A7.76 7.76 0 0 1 69.82 403.39Z M100.85 403.39A7.76 7.76 0 0 1 100.85 418.91A7.76 7.76 0 0 1 100.85 403.39Z M116.36 403.39A7.76 7.76 0 0 1 116.36 418.91A7.76 7.76 0 0 1 116.36 403.39Z M131.88 403.39A7.76 7.76 0 0 1 131.88 418.91A7.76 7.76 0 0 1 131.88 403.39Z M162.91 403.39A7.76 7.76 0 0 1 162.91 418.91A7.76 7.76 0 0 1 162.91 403.39Z M209.45 403.39A7.76 7.76 0 0 1 209.45 418.91A7.76 7.76 0 0 1 209.45 403.39Z M224.97 403.39A7.76 7.76 0 0 1 224.97 418.91A7.76 7.76 0 0 1 224.97 403.39Z M240.48 403.39A7.76 7.76 0 0 1 240.48 418.91A7.76 7.76 0 0 1 240.48 403.39Z M256.00 403.39A7.76 7.76 0 0 1 256.00 418.91A7.76 7.76 0 0 1 256.00 403.39Z M271.52 403.39A7.76 7.76 0 0 1 271.52 418.91A7.76 7.76 0 0 1 271.52 403.39Z M287.03 403.39A7.76 7.76 0 0 1 287.03 418.91A7.76 7.76 0 0 1 287.03 403.39Z M333.58 403.39A7.76 7.76 0 0 1 333.58 418.91A7.76 7.76 0 0 1 333.58 403.39Z M349.09 403.39A7.76 7.76 0 0 1 349.09 418.91A7.76 7.76 0 0 1 349.09 403.39Z M395.64 403.39A7.76 7.76 0 0 1 395.64 418.91A7.76 7.76 0 0 1 395.64 403.39Z M426.67 403.39A7.76 7.76 0 0 1 426.67 418.91A7.76 7.76 0 0 1 426.67 403.39Z M69.82 418.91A7.76 7.76 0 0 1 69.82 434.42A7.76 7.76 0 0 1 69.82 418.91Z M162.91 418.91A7.76 7.76 0 0 1 162.91 434.42A7.76 7.76 0 0 1 162.91 418.91Z M224.97 418.91A7.76 7.76 0 0 1 224.97 434.42A7.76 7.76 0 0 1 224.97 418.91Z M240.48 418.91A7.76 7.76 0 0 1 240.48 434.42A7.76 7.76 0 0 1 240.48 418.91Z M271.52 418.91A7.76 7.76 0 0 1 271.52 434.42A7.76 7.76 0 0 1 271.52 418.91Z M302.55 418.91A7.76 7.76 0 0 1 302.55 434.42A7.76 7.76 0 0 1 302.55 418.91Z M364.61 418.91A7.76 7.76 0 0 1 364.61 434.42A7.76 7.76 0 0 1 364.61 418.91Z M380.12 418.91A7.76 7.76 0 0 1 380.12 434.42A7.76 7.76 0 0 1 380.12 418.91Z M395.64 418.91A7.76 7.76 0 0 1 395.64 434.42A7.76 7.76 0 0 1 395.64 418.91Z M411.15 418.91A7.76 7.76 0 0 1 411.15 434.42A7.76 7.76 0 0 1 411.15 418.91Z M426.67 418.91A7.76 7.76 0 0 1 426.67 434.42A7.76 7.76 0 0 1 426.67 418.91Z M69.82 434.42A7.76 7.76 0 0 1 69.82 449.94A7.76 7.76 0 0 1 69.82 434.42Z M85.33 434.42A7.76 7.76 0 0 1 85.33 449.94A7.76 7.76 0 0 1 85.33 434.42Z M100.85 434.42A7.76 7.76 0 0 1 100.85 449.94A7.76 7.76 0 0 1 100.85 434.42Z M116.36 434.42A7.76 7.76 0 0 1 116.36 449.94A7.76 7.76 0 0 1 116.36 434.42Z M131.88 434.42A7.76 7.76 0 0 1 131.88 449.94A7.76 7.76 0 0 1 131.88 434.42Z M147.39 434.42A7.76 7.76 0 0 1 147.39 449.94A7.76 7.76 0 0 1 147.39 434.42Z M162.91 434.42A7.76 7.76 0 0 1 162.91 449.94A7.76 7.76 0 0 1 162.91 434.42Z M193.94 434.42A7.76 7.76 0 0 1 193.94 449.94A7.76 7.76 0 0 1 193.94 434.42Z M224.97 434.42A7.76 7.76 0 0 1 224.97 449.94A7.76 7.76 0 0 1 224.97 434.42Z M256.00 434.42A7.76 7.76 0 0 1 256.00 449.94A7.76 7.76 0 0 1 256.00 434.42Z M271.52 434.42A7.76 7.76 0 0 1 271.52 449.94A7.76 7.76 0 0 1 271.52 434.42Z M302.55 434.42A7.76 7.76 0 0 1 302.55 449.94A7.76 7.76 0 0 1 302.55 434.42Z M333.58 434.42A7.76 7.76 0 0 1 333.58 449.94A7.76 7.76 0 0 1 333.58 434.42Z M411.15 434.42A7.76 7.76 0 0 1 411.15 449.94A7.76 7.76 0 0 1 411.15 434.42Z M426.67 434.42A7.76 7.76 0 0 1 426.67 449.94A7.76 7.76 0 0 1 426.67 434.42Z M442.18 434.42A7.76 7.76 0 0 1 442.18 449.94A7.76 7.76 0 0 1 442.18 434.42Z "/>
</svg>