<svg xmlns="http://www.w3.org/2000/svg" viewBox="0 0 512 512" width="512" height="512">
<defs><linearGradient id="module-fill" x1="15%" y1="15%" x2="85%" y2="85%"><stop offset="0%" stop-color="#ff6b6b"/><stop offset="50%" stop-color="#feca57"/><stop offset="100%" stop-color="#ff9ff3"/></linearGradient></defs>
<rect width="100%" height="100%" fill="#FFFFFF"/>
<path fill="url(#module-fill)" d="M66.72 62.06L68.27 62.06Q66.72 62.06 66.72 66.72L62.06 68.27Q62.06 66.72 57.41 66.72L55.85 62.06Q57.41 62.06 57.41 57.41L62.06 55.85Q62.06 57.41 66.72 57.41Z M82.23 62.06L83.78 62.06Q82.23 62.06 82.23 66.72L77.58 68.27Q77.58 66.72 72.92 66.72L71.37 62.06Q72.92 62.06 72.92 57.41L77.58 55.85Q77.58 57.41 82.23 57.41Z M97.75 62.06L99.30 62.06Q97.75 62.06 97.75 66.72L93.09 68.27Q93.09 66.72 88.44 66.72L86.88 62.06Q88.44 62.06 88.44 57.41L93.09 55.85Q93.09 57.41 97.75 57.41Z M113.26 62.06L114.81 62.06Q113.26 62.06 113.26 66.72L108.61 68.27Q108.61 66.72 103.95 66.72L102.40 62.06Q103.95 62.06 103.95 57.41L108.61 55.85Q108.61 57.41 113.26 57.41Z M128.78 62.06L130.33 62.06Q128.78 62.06 128.78 66.72L124.12 68.27Q124.12 66.72 119.47 66.72L117.92 62.06Q119.47 62.06 119.47 57.41L124.12 55.85Q124.12 57.41 128.78 57.41Z M144.29 62.06L145.84 62.06Q144.29 62.06 144.29 66.72L139.64 68.27Q139.64 66.72 134.98 66.72L133.43 62.06Q134.98 62.06 134.98 57.41L139.64 55.85Q139.64 57.41 144.29 57.41Z M159.81 62.06L161.36 62.06Q159.81 62.06 159.81 66.72L155.15 68.27Q155.15 66.72 150.50 66.72L148.95 62.06Q150.50 62.06 150.50 57.41L155.15 55.85Q155.15 57.41 159.81 57.41Z M190.84 62.06L192.39 62.06Q190.84 62.06 190.84 66.72L186.18 68.27Q186.18 66.72 181.53 66.72L179.98 62.06Q181.53 62.06 181.53 57.41L186.18 55.85Q186.18 57.41 190.84 57.41Z M206.35 62.06L207.90 62.06Q206.35 62.06 206.35 66.72L201.70 68.27Q201.70 66.72 197.04 66.72L195.49 62.06Q197.04 62.06 197.04 57.41L201.70 55.85Q201.70 57.41 206.35 57.41Z M237.38 62.06L238.93 62.06Q237.38 62.06 237.38 66.72L232.73 68.27Q232.73 66.72 228.07 66.72L226.52 62.06Q228.07 62.06 228.07 57.41L232.73 55.85Q232.73 57.41 237.38 57.41Z M252.90 62.06L254.45 62.06Q252.90 62.06 252.90 66.72L248.24 68.27Q248.24 66.72 243.59 66.72L242.04 62.06Q243.59 62.06 243.59 57.41L248.24 55.85Q248.24 57.41 252.90 57.41Z M283.93 62.06L285.48 62.06Q283.93 62.06 283.93 66.72L279.27 68.27Q279.27 66.72 274.62 66.72L273.07 62.06Q274.62 62.06 274.62 57.41L279.27 55.85Q279.27 57.41 283.93 57.41Z M299.44 62.06L300.99 62.06Q299.44 62.06 299.44 66.72L294.79 68.27Q294.79 66.72 290.13 66.72L288.58 62.06Q290.13 62.06 290.13 57.41L294.79 55.85Q294.79 57.41 299.44 57.41Z M314.96 62.06L316.51 62.06Q314.96 62.06 314.96 66.72L310.30 68.27Q310.30 66.72 305.65 66.72L304.10 62.06Q305.65 62.06 305.65 57.41L310.30 55.85Q310.30 57.41 314.96 57.41Z M345.99 62.06L347.54 62.06Q345.99 62.06 345.99 66.72L341.33 68.27Q341.33 66.72 336.68 66.72L335.13 62.06Q336.68 62.06 336.68 57.41L341.33 55.85Q341.33 57.41 345.99 57.41Z M361.50 62.06L363.05 62.06Q361.50 62.06 361.50 66.72L356.85 68.27Q356.85 66.72 352.19 66.72L350.64 62.06Q352.19 62.06 352.19 57.41L356.85 55.85Q356.85 57.41 361.50 57.41Z M377.02 62.06L378.57 62.06Q377.02 62.06 377.02 66.72L372.36 68.27Q372.36 66.72 367.71 66.72L366.16 62.06Q367.71 62.06 367.71 57.41L372.36 55.85Q372.36 57.41 377.02 57.41Z M392.53 62.06L394.08 62.06Q392.53 62.06 392.53 66.72L387.88 68.27Q387.88 66.72 383.22 66.72L381.67 62.06Q383.22 62.06 383.22 57.41L387.88 55.85Q387.88 57.41 392.53 57.41Z M408.05 62.06L409.60 62.06Q408.05 62.06 408.05 66.72L403.39 68.27Q403.39 66.72 398.74 66.72L397.19 62.06Q398.74 62.06 398.74 57.41L403.39 55.85Q403.39 57.41 408.05 57.41Z M423.56 62.06L425.12 62.06Q423.56 62.06 423.56 66.72L418.91 68.27Q418.91 66.72 414.25 66.72L412.70 62.06Q414.25 62.06 414.25 57.41L418.91 55.85Q418.91 57.41 423.56 57.41Z M439.08 62.06L440.63 62.06Q439.08 62.06 439.08 66.72L434.42 68.27Q434.42 66.72 429.77 66.72L428.22 62.06Q429.77 62.06 429.77 57.41L434.42 55.85Q434.42 57.41 439.08 57.41Z M66.72 77.58L68.27 77.58Q66.72 77.58 66.72 82.23L62.06 83.78Q62.06 82.23 57.41 82.23L55.85 77.58Q57.41 77.58 57.41 72.92L62.06 71.37Q62.06 72.92 66.72 72.92Z M159.81 77.58L161.36 77.58Q159.81 77.58 159.81 82.23L155.15 83.78Q155.15 82.23 150.50 82.23L148.95 77.58Q150.50 77.58 150.50 72.92L155.15 71.37Q155.15 72.92 159.81 72.92Z M221.87 77.58L223.42 77.58Q221.87 77.58 221.87 82.23L217.21 83.78Q217.21 82.23 212.56 82.23L211.01 77.58Q212.56 77.58 212.56 72.92L217.21 71.37Q217.21 72.92 221.87 72.92Z M237.38 77.58L238.93 77.58Q237.38 77.58 237.38 82.23L232.73 83.78Q232.73 82.23 228.07 82.23L226.52 77.58Q228.07 77.58 228.07 72.92L232.73 71.37Q232.73 72.92 237.38 72.92Z M268.41 77.58L269.96 77.58Q268.41 77.58 268.41 82.23L263.76 83.78Q263.76 82.23 259.10 82.23L257.55 77.58Q259.10 77.58 259.10 72.92L263.76 71.37Q263.76 72.92 268.41 72.92Z M314.96 77.58L316.51 77.58Q314.96 77.58 314.96 82.23L310.30 83.78Q310.30 82.23 305.65 82.23L304.10 77.58Q305.65 77.58 305.65 72.92L310.30 71.37Q310.30 72.92 314.96 72.92Z M345.99 77.58L347.54 77.58Q345.99 77.58 345.99 82.23L341.33 83.78Q341.33 82.23 336.68 82.23L335.13 77.58Q336.68 77.58 336.68 72.92L341.33 71.37Q341.33 72.92 345.99 72.92Z M439.08 77.58L440.63 77.58Q439.08 77.58 439.08 82.23L434.42 83.78Q434.42 82.23 429.77 82.23L428.22 77.58Q429.77 77.58 429.77 72.92L434.42 71.37Q434.42 72.92 439.08 72.92Z M66.72 93.09L68.27 93.09Q66.72 93.09 66.72 97.75L62.06 99.30Q62.06 97.75 57.41 97.75L55.85 93.09Q57.41 93.09 57.41 88.44L62.06 86.88Q62.06 88.44 66.72 88.44Z M97.75 93.09L99.30 93.09Q97.75 93.09 97.75 97.75L93.09 99.30Q93.09 97.75 88.44 97.75L86.88 93.09Q88.44 93.09 88.44 88.44L93.09 86.88Q93.09 88.44 97.75 88.44Z M113.26 93.09L114.81 93.09Q113.26 93.09 113.26 97.75L108.61 99.30Q108.61 97.75 103.95 97.75L102.40 93.09Q103.95 93.09 103.95 88.44L108.61 86.88Q108.61 88.44 113.26 88.44Z M128.78 93.09L130.33 93.09Q128.78 93.09 128.78 97.75L124.12 99.30Q124.12 97.75 119.47 97.75L117.92 93.09Q119.47 93.09 119.47 88.44L124.12 86.88Q124.12 88.44 128.78 88.44Z M159.81 93.09L161.36 93.09Q159.81 93.09 159.81 97.75L155.15 99.30Q155.15 97.75 150.50 97.75L148.95 93.09Q150.50 93.09 150.50 88.44L155.15 86.88Q155.15 88.44 159.81 88.44Z M206.35 93.09L207.90 93.09Q206.35 93.09 206.35 97.75L201.70 99.30Q201.70 97.75 197.04 97.75L195.49 93.09Q197.04 93.09 197.04 88.44L201.70 86.88Q201.70 88.44 206.35 88.44Z M221.87 93.09L223.42 93.09Q221.87 93.09 221.87 97.75L217.21 99.30Q217.21 97.75 212.56 97.75L211.01 93.09Q212.56 93.09 212.56 88.44L217.21 86.88Q217.21 88.44 221.87 88.44Z M252.90 93.09L254.45 93.09Q252.90 93.09 252.90 97.75L248.24 99.30Q248.24 97.75 243.59 97.75L242.04 93.09Q243.59 93.09 243.59 88.44L248.24 86.88Q248.24 88.44 252.90 88.44Z M283.93 93.09L285.48 93.09Q283.93 93.09 283.93 97.75L279.27 99.30Q279.27 97.75 274.62 97.75L273.07 93.09Q274.62 93.09 274.62 88.44L279.27 86.88Q279.27 88.44 283.93 88.44Z M345.99 93.09L347.54 93.09Q345.99 93.09 345.99 97.75L341.33 99.30Q341.33 97.75 336.68 97.75L335.13 93.09Q336.68 93.09 336.68 88.44L341.33 86.88Q341.33 88.44 345.99 88.44Z M377.02 93.09L378.57 93.09Q377.02 93.09 377.02 97.75L372.36 99.30Q372.36 97.75 367.71 97.75L366.16 93.09Q367.71 93.09 367.71 88.44L372.36 86.88Q372.36 88.44 377.02 88.44Z M392.53 93.09L394.08 93.09Q392.53 93.09 392.53 97.75L387.88 99.30Q387.88 97.75 383.22 97.75L381.67 93.09Q383.22 93.09 383.22 88.44L387.88 86.88Q387.88 88.44 392.53 88.44Z M408.05 93.09L409.60 93.09Q408.05 93.09 408.05 97.75L403.39 99.30Q403.39 97.75 398.74 97.75L397.19 93.09Q398.74 93.09 398.74 88.44L403.39 86.88Q403.39 88.44 408.05 88.44Z M439.08 93.09L440.63 93.09Q439.08 93.09 439.08 97.75L434.42 99.30Q434.42 97.75 429.77 97.75L428.22 93.09Q429.77 93.09 429.77 88.44L434.42 86.88Q434.42 88.44 439.08 88.44Z M66.72 108.61L68.27 108.61Q66.72 108.61 66.72 113.26L62.06 114.81Q62.06 113.26 57.41 113.26L55.85 108.61Q57.41 108.61 57.41 103.95L62.06 102.40Q62.06 103.95 66.72 103.95Z M97.75 108.61L99.30 108.61Q97.75 108.61 97.75 113.26L93.09 114.81Q93.09 113.26 88.44 113.26L86.88 108.61Q88.44 108.61 88.44 103.95L93.09 102.40Q93.09 103.95 97.75 103.95Z M113.26 108.61L114.81 108.61Q113.26 108.61 113.26 113.26L108.61 114.81Q108.61 113.26 103.95 113.26L102.40 108.61Q103.95 108.61 103.95 103.95L108.61 102.40Q108.61 103.95 113.26 103.95Z M128.78 108.61L130.33 108.61Q128.78 108.61 128.78 113.26L124.12 114.81Q124.12 113.26 119.47 113.26L117.92 108.61Q119.47 108.61 119.47 103.95L124.12 102.40Q124.12 103.95 128.78 103.95Z M159.81 108.61L161.36 108.61Q159.81 108.61 159.81 113.26L155.15 114.81Q155.15 113.26 150.50 113.26L148.95 108.61Q150.50 108.61 150.50 103.95L155.15 102.40Q155.15 103.95 159.81 103.95Z M314.96 108.61L316.51 108.61Q314.96 108.61 314.96 113.26L310.30 114.81Q310.30 113.26 305.65 113.26L304.10 108.61Q305.65 108.61 305.65 103.95L310.30 102.40Q310.30 103.95 314.96 103.95Z M345.99 108.61L347.54 108.61Q345.99 108.61 345.99 113.26L341.33 114.81Q341.33 113.26 336.68 113.26L335.13 108.61Q336.68 108.61 336.68 103.95L341.33 102.40Q341.33 103.95 345.99 103.95Z M377.02 108.61L378.57 108.61Q377.02 108.61 377.02 113.26L372.36 114.81Q372.36 113.26 367.71 113.26L366.16 108.61Q367.71 108.61 367.71 103.95L372.36 102.40Q372.36 103.95 377.02 103.95Z M392.53 108.61L394.08 108.61Q392.53 108.61 392.53 113.26L387.88 114.81Q387.88 113.26 383.22 113.26L381.67 108.61Q383.22 108.61 383.22 103.95L387.88 102.40Q387.88 103.95 392.53 103.95Z M408.05 108.61L409.60 108.61Q408.05 108.61 408.05 113.26L403.39 114.81Q403.39 113.26 398.74 113.26L397.19 108.61Q398.74 108.61 398.74 103.95L403.39 102.40Q403.39 103.95 408.05 103.95Z M439.08 108.61L440.63 108.61Q439.08 108.61 439.08 113.26L434.42 114.81Q434.42 113.26 429.77 113.26L428.22 108.61Q429.77 108.61 429.77 103.95L434.42 102.40Q434.42 103.95 439.08 103.95Z M66.72 124.12L68.27 124.12Q66.72 124.12 66.72 128.78L62.06 130.33Q62.06 128.78 57.41 128.78L55.85 124.12Q57.41 124.12 57.41 119.47L62.06 117.92Q62.06 119.47 66.72 119.47Z M97.75 124.12L99.30 124.12Q97.75 124.12 97.75 128.78L93.09 130.33Q93.09 128.78 88.44 128.78L86.88 124.12Q88.44 124.12 88.44 119.47L93.09 117.92Q93.09 119.47 97.75 119.47Z M113.26 124.12L114.81 124.12Q113.26 124.12 113.26 128.78L108.61 130.33Q108.61 128.78 103.95 128.78L102.40 124.12Q103.95 124.12 103.95 119.47L108.61 117.92Q108.61 119.47 113.26 119.47Z M128.78 124.12L130.33 124.12Q128.78 124.12 128.78 128.78L124.12 130.33Q124.12 128.78 119.47 128.78L117.92 124.12Q119.47 124.12 119.47 119.47L124.12 117.92Q124.12 119.47 128.78 119.47Z M159.81 124.12L161.36 124.12Q159.81 124.12 159.81 128.78L155.15 130.33Q155.15 128.78 150.50 128.78L148.95 124.12Q150.50 124.12 150.50 119.47L155.15 117.92Q155.15 119.47 159.81 119.47Z M190.84 124.12L192.39 124.12Q190.84 124.12 190.84 128.78L186.18 130.33Q186.18 128.78 181.53 128.78L179.98 124.12Q181.53 124.12 181.53 119.47L186.18 117.92Q186.18 119.47 190.84 119.47Z M206.35 124.12L207.90 124.12Q206.35 124.12 206.35 128.78L201.70 130.33Q201.70 128.78 197.04 128.78L195.49 124.12Q197.04 124.12 197.04 119.47L201.70 117.92Q201.70 119.47 206.35 119.47Z M237.38 124.12L238.93 124.12Q237.38 124.12 237.38 128.78L232.73 130.33Q232.73 128.78 228.07 128.78L226.52 124.12Q228.07 124.12 228.07 119.47L232.73 117.92Q232.73 119.47 237.38 119.47Z M252.90 124.12L254.45 124.12Q252.90 124.12 252.90 128.78L248.24 130.33Q248.24 128.78 243.59 128.78L242.04 124.12Q243.59 124.12 243.59 119.47L248.24 117.92Q248.24 119.47 252.90 119.47Z M283.93 124.12L285.48 124.12Q283.93 124.12 283.93 128.78L279.27 130.33Q279.27 128.78 274.62 128.78L273.07 124.12Q274.62 124.12 274.62 119.47L279.27 117.92Q279.27 119.47 283.93 119.47Z M299.44 124.12L300.99 124.12Q299.44 124.12 299.44 128.78L294.79 130.33Q294.79 128.78 290.13 128.78L288.58 124.12Q290.13 124.12 290.13 119.47L294.79 117.92Q294.79 119.47 299.44 119.47Z M314.96 124.12L316.51 124.12Q314.96 124.12 314.96 128.78L310.30 130.33Q310.30 128.78 305.65 128.78L304.10 124.12Q305.65 124.12 305.65 119.47L310.30 117.92Q310.30 119.47 314.96 119.47Z M345.99 124.12L347.54 124.12Q345.99 124.12 345.99 128.78L341.33 130.33Q341.33 128.78 336.68 128.78L335.13 124.12Q336.68 124.12 336.68 119.47L341.33 117.92Q341.33 119.47 345.99 119.47Z M377.02 124.12L378.57 124.12Q377.02 124.12 377.02 128.78L372.36 130.33Q372.36 128.78 367.71 128.78L366.16 124.12Q367.71 124.12 367.71 119.47L372.36 117.92Q372.36 119.47 377.02 119.47Z M392.53 124.12L394.08 124.12Q392.53 124.12 392.53 128.78L387.88 130.33Q387.88 128.78 383.22 128.78L381.67 124.12Q383.22 124.12 383.22 119.47L387.88 117.92Q387.88 119.47 392.53 119.47Z M408.05 124.12L409.60 124.12Q408.05 124.12 408.05 128.78L403.39 130.33Q403.39 128.78 398.74 128.78L397.19 124.12Q398.74 124.12 398.74 119.47L403.39 117.92Q403.39 119.47 408.05 119.47Z M439.08 124.12L440.63 124.12Q439.08 124.12 439.08 128.78L434.42 130.33Q434.42 128.78 429.77 128.78L428.22 124.12Q429.77 124.12 429.77 119.47L434.42 117.92Q434.42 119.47 439.08 119.47Z M66.72 139.64L68.27 139.64Q66.72 139.64 66.72 144.29L62.06 145.84Q62.06 144.29 57.41 144.29L55.85 139.64Q57.41 139.64 57.41 134.98L62.06 133.43Q62.06 134.98 66.72 134.98Z M159.81 139.64L161.36 139.64Q159.81 139.64 159.81 144.29L155.15 145.84Q155.15 144.29 150.50 144.29L148.95 139.64Q150.50 139.64 150.50 134.98L155.15 133.43Q155.15 134.98 159.81 134.98Z M221.87 139.64L223.42 139.64Q221.87 139.64 221.87 144.29L217.21 145.84Q217.21 144.29 212.56 144.29L211.01 139.64Q212.56 139.64 212.56 134.98L217.21 133.43Q217.21 134.98 221.87 134.98Z M237.38 139.64L238.93 139.64Q237.38 139.64 237.38 144.29L232.73 145.84Q232.73 144.29 228.07 144.29L226.52 139.64Q228.07 139.64 228.07 134.98L232.73 133.43Q232.73 134.98 237.38 134.98Z M314.96 139.64L316.51 139.64Q314.96 139.64 314.96 144.29L310.30 145.84Q310.30 144.29 305.65 144.29L304.10 139.64Q305.65 139.64 305.65 134.98L310.30 133.43Q310.30 134.98 314.96 134.98Z M345.99 139.64L347.54 139.64Q345.99 139.64 345.99 144.29L341.33 145.84Q341.33 144.29 336.68 144.29L335.13 139.64Q336.68 139.64 336.68 134.98L341.33 133.43Q341.33 134.98 345.99 134.98Z M439.08 139.64L440.63 139.64Q439.08 139.64 439.08 144.29L434.42 145.84Q434.42 144.29 429.77 144.29L428.22 139.64Q429.77 139.64 429.77 134.98L434.42 133.43Q434.42 134.98 439.08 134.98Z M66.72 155.15L68.27 155.15Q66.72 155.15 66.72 159.81L62.06 161.36Q62.06 159.81 57.41 159.81L55.85 155.15Q57.41 155.15 57.41 150.50L62.06 148.95Q62.06 150.50 66.72 150.50Z M82.23 155.15L83.78 155.15Q82.23 155.15 82.23 159.81L77.58 161.36Q77.58 159.81 72.92 159.81L71.37 155.15Q72.92 155.15 72.92 150.50L77.58 148.95Q77.58 150.50 82.23 150.50Z M97.75 155.15L99.30 155.15Q97.75 155.15 97.75 159.81L93.09 161.36Q93.09 159.81 88.44 159.81L86.88 155.15Q88.44 155.15 88.44 150.50L93.09 148.95Q93.09 150.50 97.75 150.50Z M113.26 155.15L114.81 155.15Q113.26 155.15 113.26 159.81L108.61 161.36Q108.61 159.81 103.95 159.81L102.40 155.15Q103.95 155.15 103.95 150.50L108.61 148.95Q108.61 150.50 113.26 150.50Z M128.78 155.15L130.33 155.15Q128.78 155.15 128.78 159.81L124.12 161.36Q124.12 159.81 119.47 159.81L117.92 155.15Q119.47 155.15 119.47 150.50L124.12 148.95Q124.12 150.50 128.78 150.50Z M144.29 155.15L145.84 155.15Q144.29 155.15 144.29 159.81L139.64 161.36Q139.64 159.81 134.98 159.81L133.43 155.15Q134.98 155.15 134.98 150.50L139.64 148.95Q139.64 150.50 144.29 150.50Z M159.81 155.15L161.36 155.15Q159.81 155.15 159.81 159.81L155.15 161.36Q155.15 159.81 150.50 159.81L148.95 155.15Q150.50 155.15 150.50 150.50L155.15 148.95Q155.15 150.50 159.81 150.50Z M190.84 155.15L192.39 155.15Q190.84 155.15 190.84 159.81L186.18 161.36Q186.18 159.81 181.53 159.81L179.98 155.15Q181.53 155.15 181.53 150.50L186.18 148.95Q186.18 150.50 190.84 150.50Z M221.87 155.15L223.42 155.15Q221.87 155.15 221.87 159.81L217.21 161.36Q217.21 159.81 212.56 159.81L211.01 155.15Q212.56 155.15 212.56 150.50L217.21 148.95Q217.21 150.50 221.87 150.50Z M252.90 155.15L254.45 155.15Q252.90 155.15 252.90 159.81L248.24 161.36Q248.24 159.81 243.59 159.81L242.04 155.15Q243.59 155.15 243.59 150.50L248.24 148.95Q248.24 150.50 252.90 150.50Z M283.93 155.15L285.48 155.15Q283.93 155.15 283.93 159.81L279.27 161.36Q279.27 159.81 274.62 159.81L273.07 155.15Q274.62 155.15 274.62 150.50L279.27 148.95Q279.27 150.50 283.93 150.50Z M314.96 155.15L316.51 155.15Q314.96 155.15 314.96 159.81L310.30 161.36Q310.30 159.81 305.65 159.81L304.10 155.15Q305.65 155.15 305.65 150.50L310.30 148.95Q310.30 150.50 314.96 150.50Z M345.99 155.15L347.54 155.15Q345.99 155.15 345.99 159.81L341.33 161.36Q341.33 159.81 336.68 159.81L335.13 155.15Q336.68 155.15 336.68 150.50L341.33 148.95Q341.33 150.50 345.99 150.50Z M361.50 155.15L363.05 155.15Q361.50 155.15 361.50 159.81L356.85 161.36Q356.85 159.81 352.19 159.81L350.64 155.15Q352.19 155.15 352.19 150.50L356.85 148.95Q356.85 150.50 361.50 150.50Z M377.02 155.15L378.57 155.15Q377.02 155.15 377.02 159.81L372.36 161.36Q372.36 159.81 367.71 159.81L366.16 155.15Q367.71 155.15 367.71 150.50L372.36 148.95Q372.36 150.50 377.02 150.50Z M392.53 155.15L394.08 155.15Q392.53 155.15 392.53 159.81L387.88 161.36Q387.88 159.81 383.22 159.81L381.67 155.15Q383.22 155.15 383.22 150.50L387.88 148.95Q387.88 150.50 392.53 150.50Z M408.05 155.15L409.60 155.15Q408.05 155.15 408.05 159.81L403.39 161.36Q403.39 159.81 398.74 159.81L397.19 155.15Q398.74 155.15 398.74 150.50L403.39 148.95Q403.39 150.50 408.05 150.50Z M423.56 155.15L425.12 155.15Q423.56 155.15 423.56 159.81L418.91 161.36Q418.91 159.81 414.25 159.81L412.70 155.15Q414.25 155.15 414.25 150.50L418.91 148.95Q418.91 150.50 423.56 150.50Z M439.08 155.15L440.63 155.15Q439.08 155.15 439.08 159.81L434.42 161.36Q434.42 159.81 429.77 159.81L428.22 155.15Q429.77 155.15 429.77 150.50L434.42 148.95Q434.42 150.50 439.08 150.50Z M190.84 170.67L192.39 170.67Q190.84 170.67 190.84 175.32L186.18 176.87Q186.18 175.32 181.53 175.32L179.98 170.67Q181.53 170.67 181.53 166.01L186.18 164.46Q186.18 166.01 190.84 166.01Z M206.35 170.67L207.90 170.67Q206.35 170.67 206.35 175.32L201.70 176.87Q201.70 175.32 197.04 175.32L195.49 170.67Q197.04 170.67 197.04 166.01L201.70 164.46Q201.70 166.01 206.35 166.01Z M252.90 170.67L254.45 170.67Q252.90 170.67 252.90 175.32L248.24 176.87Q248.24 175.32 243.59 175.32L242.04 170.67Q243.59 170.67 243.59 166.01L248.24 164.46Q248.24 166.01 252.90 166.01Z M268.41 170.67L269.96 170.67Q268.41 170.67 268.41 175.32L263.76 176.87Q263.76 175.32 259.10 175.32L257.55 170.67Q259.10 170.67 259.10 166.01L263.76 164.46Q263.76 166.01 268.41 166.01Z M314.96 170.67L316.51 170.67Q314.96 170.67 314.96 175.32L310.30 176.87Q310.30 175.32 305.65 175.32L304.10 170.67Q305.65 170.67 305.65 166.01L310.30 164.46Q310.30 166.01 314.96 166.01Z M66.72 186.18L68.27 186.18Q66.72 186.18 66.72 190.84L62.06 192.39Q62.06 190.84 57.41 190.84L55.85 186.18Q57.41 186.18 57.41 181.53L62.06 179.98Q62.06 181.53 66.72 181.53Z M113.26 186.18L114.81 186.18Q113.26 186.18 113.26 190.84L108.61 192.39Q108.61 190.84 103.95 190.84L102.40 186.18Q103.95 186.18 103.95 181.53L108.61 179.98Q108.61 181.53 113.26 181.53Z M128.78 186.18L130.33 186.18Q128.78 186.18 128.78 190.84L124.12 192.39Q124.12 190.84 119.47 190.84L117.92 186.18Q119.47 186.18 119.47 181.53L124.12 179.98Q124.12 181.53 128.78 181.53Z M144.29 186.18L145.84 186.18Q144.29 186.18 144.29 190.84L139.64 192.39Q139.64 190.84 134.98 190.84L133.43 186.18Q134.98 186.18 134.98 181.53L139.64 179.98Q139.64 181.53 144.29 181.53Z M159.81 186.18L161.36 186.18Q159.81 186.18 159.81 190.84L155.15 192.39Q155.15 190.84 150.50 190.84L148.95 186.18Q150.50 186.18 150.50 181.53L155.15 179.98Q155.15 181.53 159.81 181.53Z M175.32 186.18L176.87 186.18Q175.32 186.18 175.32 190.84L170.67 192.39Q170.67 190.84 166.01 190.84L164.46 186.18Q166.01 186.18 166.01 181.53L170.67 179.98Q170.67 181.53 175.32 181.53Z M190.84 186.18L192.39 186.18Q190.84 186.18 190.84 190.84L186.18 192.39Q186.18 190.84 181.53 190.84L179.98 186.18Q181.53 186.18 181.53 181.53L186.18 179.98Q186.18 181.53 190.84 181.53Z M206.35 186.18L207.90 186.18Q206.35 186.18 206.35 190.84L201.70 192.39Q201.70 190.84 197.04 190.84L195.49 186.18Q197.04 186.18 197.04 181.53L201.70 179.98Q201.70 181.53 206.35 181.53Z M268.41 186.18L269.96 186.18Q268.41 186.18 268.41 190.84L263.76 192.39Q263.76 190.84 259.10 190.84L257.55 186.18Q259.10 186.18 259.10 181.53L263.76 179.98Q263.76 181.53 268.41 181.53Z M330.47 186.18L332.02 186.18Q330.47 186.18 330.47 190.84L325.82 192.39Q325.82 190.84 321.16 190.84L319.61 186.18Q321.16 186.18 321.16 181.53L325.82 179.98Q325.82 181.53 330.47 181.53Z M345.99 186.18L347.54 186.18Q345.99 186.18 345.99 190.84L341.33 192.39Q341.33 190.84 336.68 190.84L335.13 186.18Q336.68 186.18 336.68 181.53L341.33 179.98Q341.33 181.53 345.99 181.53Z M361.50 186.18L363.05 186.18Q361.50 186.18 361.50 190.84L356.85 192.39Q356.85 190.84 352.19 190.84L350.64 186.18Q352.19 186.18 352.19 181.53L356.85 179.98Q356.85 181.53 361.50 181.53Z M377.02 186.18L378.57 186.18Q377.02 186.18 377.02 190.84L372.36 192.39Q372.36 190.84 367.71 190.84L366.16 186.18Q367.71 186.18 367.71 181.53L372.36 179.98Q372.36 181.53 377.02 181.53Z M392.53 186.18L394.08 186.18Q392.53 186.18 392.53 190.84L387.88 192.39Q387.88 190.84 383.22 190.84L381.67 186.18Q383.22 186.18 383.22 181.53L387.88 179.98Q387.88 181.53 392.53 181.53Z M439.08 186.18L440.63 186.18Q439.08 186.18 439.08 190.84L434.42 192.39Q434.42 190.84 429.77 190.84L428.22 186.18Q429.77 186.18 429.77 181.53L434.42 179.98Q434.42 181.53 439.08 181.53Z M113.26 201.70L114.81 201.70Q113.26 201.70 113.26 206.35L108.61 207.90Q108.61 206.35 103.95 206.35L102.40 201.70Q103.95 201.70 103.95 197.04L108.61 195.49Q108.61 197.04 113.26 197.04Z M190.84 201.70L192.39 201.70Q190.84 201.70 190.84 206.35L186.18 207.90Q186.18 206.35 181.53 206.35L179.98 201.70Q181.53 201.70 181.53 197.04L186.18 195.49Q186.18 197.04 190.84 197.04Z M221.87 201.70L223.42 201.70Q221.87 201.70 221.87 206.35L217.21 207.90Q217.21 206.35 212.56 206.35L211.01 201.70Q212.56 201.70 212.56 197.04L217.21 195.49Q217.21 197.04 221.87 197.04Z M268.41 201.70L269.96 201.70Q268.41 201.70 268.41 206.35L263.76 207.90Q263.76 206.35 259.10 206.35L257.55 201.70Q259.10 201.70 259.10 197.04L263.76 195.49Q263.76 197.04 268.41 197.04Z M283.93 201.70L285.48 201.70Q283.93 201.70 283.93 206.35L279.27 207.90Q279.27 206.35 274.62 206.35L273.07 201.70Q274.62 201.70 274.62 197.04L279.27 195.49Q279.27 197.04 283.93 197.04Z M299.44 201.70L300.99 201.70Q299.44 201.70 299.44 206.35L294.79 207.90Q294.79 206.35 290.13 206.35L288.58 201.70Q290.13 201.70 290.13 197.04L294.79 195.49Q294.79 197.04 299.44 197.04Z M314.96 201.70L316.51 201.70Q314.96 201.70 314.96 206.35L310.30 207.90Q310.30 206.35 305.65 206.35L304.10 201.70Q305.65 201.70 305.65 197.04L310.30 195.49Q310.30 197.04 314.96 197.04Z M377.02 201.70L378.57 201.70Q377.02 201.70 377.02 206.35L372.36 207.90Q372.36 206.35 367.71 206.35L366.16 201.70Q367.71 201.70 367.71 197.04L372.36 195.49Q372.36 197.04 377.02 197.04Z M392.53 201.70L394.08 201.70Q392.53 201.70 392.53 206.35L387.88 207.90Q387.88 206.35 383.22 206.35L381.67 201.70Q383.22 201.70 383.22 197.04L387.88 195.49Q387.88 197.04 392.53 197.04Z M423.56 201.70L425.12 201.70Q423.56 201.70 423.56 206.35L418.91 207.90Q418.91 206.35 414.25 206.35L412.70 201.70Q414.25 201.70 414.25 197.04L418.91 195.49Q418.91 197.04 423.56 197.04Z M66.72 217.21L68.27 217.21Q66.72 217.21 66.72 221.87L62.06 223.42Q62.06 221.87 57.41 221.87L55.85 217.21Q57.41 217.21 57.41 212.56L62.06 211.01Q62.06 212.56 66.72 212.56Z M82.23 217.21L83.78 217.21Q82.23 217.21 82.23 221.87L77.58 223.42Q77.58 221.87 72.92 221.87L71.37 217.21Q72.92 217.21 72.92 212.56L77.58 211.01Q77.58 212.56 82.23 212.56Z M97.75 217.21L99.30 217.21Q97.75 217.21 97.75 221.87L93.09 223.42Q93.09 221.87 88.44 221.87L86.88 217.21Q88.44 217.21 88.44 212.56L93.09 211.01Q93.09 212.56 97.75 212.56Z M113.26 217.21L114.81 217.21Q113.26 217.21 113.26 221.87L108.61 223.42Q108.61 221.87 103.95 221.87L102.40 217.21Q103.95 217.21 103.95 212.56L108.61 211.01Q108.61 212.56 113.26 212.56Z M128.78 217.21L130.33 217.21Q128.78 217.21 128.78 221.87L124.12 223.42Q124.12 221.87 119.47 221.87L117.92 217.21Q119.47 217.21 119.47 212.56L124.12 211.01Q124.12 212.56 128.78 212.56Z M144.29 217.21L145.84 217.21Q144.29 217.21 144.29 221.87L139.64 223.42Q139.64 221.87 134.98 221.87L133.43 217.21Q134.98 217.21 134.98 212.56L139.64 211.01Q139.64 212.56 144.29 212.56Z M159.81 217.21L161.36 217.21Q159.81 217.21 159.81 221.87L155.15 223.42Q155.15 221.87 150.50 221.87L148.95 217.21Q150.50 217.21 150.50 212.56L155.15 211.01Q155.15 212.56 159.81 212.56Z M190.84 217.21L192.39 217.21Q190.84 217.21 190.84 221.87L186.18 223.42Q186.18 221.87 181.53 221.87L179.98 217.21Q181.53 217.21 181.53 212.56L186.18 211.01Q186.18 212.56 190.84 212.56Z M206.35 217.21L207.90 217.21Q206.35 217.21 206.35 221.87L201.70 223.42Q201.70 221.87 197.04 221.87L195.49 217.21Q197.04 217.21 197.04 212.56L201.70 211.01Q201.70 212.56 206.35 212.56Z M237.38 217.21L238.93 217.21Q237.38 217.21 237.38 221.87L232.73 223.42Q232.73 221.87 228.07 221.87L226.52 217.21Q228.07 217.21 228.07 212.56L232.73 211.01Q232.73 212.56 237.38 212.56Z M252.90 217.21L254.45 217.21Q252.90 217.21 252.90 221.87L248.24 223.42Q248.24 221.87 243.59 221.87L242.04 217.21Q243.59 217.21 243.59 212.56L248.24 211.01Q248.24 212.56 252.90 212.56Z M299.44 217.21L300.99 217.21Q299.44 217.21 299.44 221.87L294.79 223.42Q294.79 221.87 290.13 221.87L288.58 217.21Q290.13 217.21 290.13 212.56L294.79 211.01Q294.79 212.56 299.44 212.56Z M314.96 217.21L316.51 217.21Q314.96 217.21 314.96 221.87L310.30 223.42Q310.30 221.87 305.65 221.87L304.10 217.21Q305.65 217.21 305.65 212.56L310.30 211.01Q310.30 212.56 314.96 212.56Z M345.99 217.21L347.54 217.21Q345.99 217.21 345.99 221.87L341.33 223.42Q341.33 221.87 336.68 221.87L335.13 217.21Q336.68 217.21 336.68 212.56L341.33 211.01Q341.33 212.56 345.99 212.56Z M361.50 217.21L363.05 217.21Q361.50 217.21 361.50 221.87L356.85 223.42Q356.85 221.87 352.19 221.87L350.64 217.21Q352.19 217.21 352.19 212.56L356.85 211.01Q356.85 212.56 361.50 212.56Z M377.02 217.21L378.57 217.21Q377.02 217.21 377.02 221.87L372.36 223.42Q372.36 221.87 367.71 221.87L366.16 217.21Q367.71 217.21 367.71 212.56L372.36 211.01Q372.36 212.56 377.02 212.56Z M392.53 217.21L394.08 217.21Q392.53 217.21 392.53 221.87L387.88 223.42Q387.88 221.87 383.22 221.87L381.67 217.21Q383.22 217.21 383.22 212.56L387.88 211.01Q387.88 212.56 392.53 212.56Z M408.05 217.21L409.60 217.21Q408.05 217.21 408.05 221.87L403.39 223.42Q403.39 221.87 398.74 221.87L397.19 217.21Q398.74 217.21 398.74 212.56L403.39 211.01Q403.39 212.56 408.05 212.56Z M66.72 232.73L68.27 232.73Q66.72 232.73 66.72 237.38L62.06 238.93Q62.06 237.38 57.41 237.38L55.85 232.73Q57.41 232.73 57.41 228.07L62.06 226.52Q62.06 228.07 66.72 228.07Z M97.75 232.73L99.30 232.73Q97.75 232.73 97.75 237.38L93.09 238.93Q93.09 237.38 88.44 237.38L86.88 232.73Q88.44 232.73 88.44 228.07L93.09 226.52Q93.09 228.07 97.75 228.07Z M190.84 232.73L192.39 232.73Q190.84 232.73 190.84 237.38L186.18 238.93Q186.18 237.38 181.53 237.38L179.98 232.73Q181.53 232.73 181.53 228.07L186.18 226.52Q186.18 228.07 190.84 228.07Z M206.35 232.73L207.90 232.73Q206.35 232.73 206.35 237.38L201.70 238.93Q201.70 237.38 197.04 237.38L195.49 232.73Q197.04 232.73 197.04 228.07L201.70 226.52Q201.70 228.07 206.35 228.07Z M283.93 232.73L285.48 232.73Q283.93 232.73 283.93 237.38L279.27 238.93Q279.27 237.38 274.62 237.38L273.07 232.73Q274.62 232.73 274.62 228.07L279.27 226.52Q279.27 228.07 283.93 228.07Z M345.99 232.73L347.54 232.73Q345.99 232.73 345.99 237.38L341.33 238.93Q341.33 237.38 336.68 237.38L335.13 232.73Q336.68 232.73 336.68 228.07L341.33 226.52Q341.33 228.07 345.99 228.07Z M361.50 232.73L363.05 232.73Q361.50 232.73 361.50 237.38L356.85 238.93Q356.85 237.38 352.19 237.38L350.64 232.73Q352.19 232.73 352.19 228.07L356.85 226.52Q356.85 228.07 361.50 228.07Z M408.05 232.73L409.60 232.73Q408.05 232.73 408.05 237.38L403.39 238.93Q403.39 237.38 398.74 237.38L397.19 232.73Q398.74 232.73 398.74 228.07L403.39 226.52Q403.39 228.07 408.05 228.07Z M423.56 232.73L425.12 232.73Q423.56 232.73 423.56 237.38L418.91 238.93Q418.91 237.38 414.25 237.38L412.70 232.73Q414.25 232.73 414.25 228.07L418.91 226.52Q418.91 228.07 423.56 228.07Z M66.72 248.24L68.27 248.24Q66.72 248.24 66.72 252.90L62.06 254.45Q62.06 252.90 57.41 252.90L55.85 248.24Q57.41 248.24 57.41 243.59L62.06 242.04Q62.06 243.59 66.72 243.59Z M97.75 248.24L99.30 248.24Q97.75 248.24 97.75 252.90L93.09 254.45Q93.09 252.90 88.44 252.90L86.88 248.24Q88.44 248.24 88.44 243.59L93.09 242.04Q93.09 243.59 97.75 243.59Z M128.78 248.24L130.33 248.24Q128.78 248.24 128.78 252.90L124.12 254.45Q124.12 252.90 119.47 252.90L117.92 248.24Q119.47 248.24 119.47 243.59L124.12 242.04Q124.12 243.59 128.78 243.59Z M144.29 248.24L145.84 248.24Q144.29 248.24 144.29 252.90L139.64 254.45Q139.64 252.90 134.98 252.90L133.43 248.24Q134.98 248.24 134.98 243.59L139.64 242.04Q139.64 243.59 144.29 243.59Z M159.81 248.24L161.36 248.24Q159.81 248.24 159.81 252.90L155.15 254.45Q155.15 252.90 150.50 252.90L148.95 248.24Q150.50 248.24 150.50 243.59L155.15 242.04Q155.15 243.59 159.81 243.59Z M175.32 248.24L176.87 248.24Q175.32 248.24 175.32 252.90L170.67 254.45Q170.67 252.90 166.01 252.90L164.46 248.24Q166.01 248.24 166.01 243.59L170.67 242.04Q170.67 243.59 175.32 243.59Z M206.35 248.24L207.90 248.24Q206.35 248.24 206.35 252.90L201.70 254.45Q201.70 252.90 197.04 252.90L195.49 248.24Q197.04 248.24 197.04 243.59L201.70 242.04Q201.70 243.59 206.35 243.59Z M221.87 248.24L223.42 248.24Q221.87 248.24 221.87 252.90L217.21 254.45Q217.21 252.90 212.56 252.90L211.01 248.24Q212.56 248.24 212.56 243.59L217.21 242.04Q217.21 243.59 221.87 243.59Z M268.41 248.24L269.96 248.24Q268.41 248.24 268.41 252.90L263.76 254.45Q263.76 252.90 259.10 252.90L257.55 248.24Q259.10 248.24 259.10 243.59L263.76 242.04Q263.76 243.59 268.41 243.59Z M283.93 248.24L285.48 248.24Q283.93 248.24 283.93 252.90L279.27 254.45Q279.27 252.90 274.62 252.90L273.07 248.24Q274.62 248.24 274.62 243.59L279.27 242.04Q279.27 243.59 283.93 243.59Z M299.44 248.24L300.99 248.24Q299.44 248.24 299.44 252.90L294.79 254.45Q294.79 252.90 290.13 252.90L288.58 248.24Q290.13 248.24 290.13 243.59L294.79 242.04Q294.79 243.59 299.44 243.59Z M330.47 248.24L332.02 248.24Q330.47 248.24 330.47 252.90L325.82 254.45Q325.82 252.90 321.16 252.90L319.61 248.24Q321.16 248.24 321.16 243.59L325.82 242.04Q325.82 243.59 330.47 243.59Z M345.99 248.24L347.54 248.24Q345.99 248.24 345.99 252.90L341.33 254.45Q341.33 252.90 336.68 252.90L335.13 248.24Q336.68 248.24 336.68 243.59L341.33 242.04Q341.33 243.59 345.99 243.59Z M361.50 248.24L363.05 248.24Q361.50 248.24 361.50 252.90L356.85 254.45Q356.85 252.90 352.19 252.90L350.64 248.24Q352.19 248.24 352.19 243.59L356.85 242.04Q356.85 243.59 361.50 243.59Z M392.53 248.24L394.08 248.24Q392.53 248.24 392.53 252.90L387.88 254.45Q387.88 252.90 383.22 252.90L381.67 248.24Q383.22 248.24 383.22 243.59L387.88 242.04Q387.88 243.59 392.53 243.59Z M408.05 248.24L409.60 248.24Q408.05 248.24 408.05 252.90L403.39 254.45Q403.39 252.90 398.74 252.90L397.19 248.24Q398.74 248.24 398.74 243.59L403.39 242.04Q403.39 243.59 408.05 243.59Z M423.56 248.24L425.12 248.24Q423.56 248.24 423.56 252.90L418.91 254.45Q418.91 252.90 414.25 252.90L412.70 248.24Q414.25 248.24 414.25 243.59L418.91 242.04Q418.91 243.59 423.56 243.59Z M439.08 248.24L440.63 248.24Q439.08 248.24 439.08 252.90L434.42 254.45Q434.42 252.90 429.77 252.90L428.22 248.24Q429.77 248.24 429.77 243.59L434.42 242.04Q434.42 243.59 439.08 243.59Z M66.72 263.76L68.27 263.76Q66.72 263.76 66.72 268.41L62.06 269.96Q62.06 268.41 57.41 268.41L55.85 263.76Q57.41 263.76 57.41 259.10L62.06 257.55Q62.06 259.10 66.72 259.10Z M82.23 263.76L83.78 263.76Q82.23 263.76 82.23 268.41L77.58 269.96Q77.58 268.41 72.92 268.41L71.37 263.76Q72.92 263.76 72.92 259.10L77.58 257.55Q77.58 259.10 82.23 259.10Z M113.26 263.76L114.81 263.76Q113.26 263.76 113.26 268.41L108.61 269.96Q108.61 268.41 103.95 268.41L102.40 263.76Q103.95 263.76 103.95 259.10L108.61 257.55Q108.61 259.10 113.26 259.10Z M128.78 263.76L130.33 263.76Q128.78 263.76 128.78 268.41L124.12 269.96Q124.12 268.41 119.47 268.41L117.92 263.76Q119.47 263.76 119.47 259.10L124.12 257.55Q124.12 259.10 128.78 259.10Z M144.29 263.76L145.84 263.76Q144.29 263.76 144.29 268.41L139.64 269.96Q139.64 268.41 134.98 268.41L133.43 263.76Q134.98 263.76 134.98 259.10L139.64 257.55Q139.64 259.10 144.29 259.10Z M190.84 263.76L192.39 263.76Q190.84 263.76 190.84 268.41L186.18 269.96Q186.18 268.41 181.53 268.41L179.98 263.76Q181.53 263.76 181.53 259.10L186.18 257.55Q186.18 259.10 190.84 259.10Z M206.35 263.76L207.90 263.76Q206.35 263.76 206.35 268.41L201.70 269.96Q201.70 268.41 197.04 268.41L195.49 263.76Q197.04 263.76 197.04 259.10L201.70 257.55Q201.70 259.10 206.35 259.10Z M221.87 263.76L223.42 263.76Q221.87 263.76 221.87 268.41L217.21 269.96Q217.21 268.41 212.56 268.41L211.01 263.76Q212.56 263.76 212.56 259.10L217.21 257.55Q217.21 259.10 221.87 259.10Z M252.90 263.76L254.45 263.76Q252.90 263.76 252.90 268.41L248.24 269.96Q248.24 268.41 243.59 268.41L242.04 263.76Q243.59 263.76 243.59 259.10L248.24 257.55Q248.24 259.10 252.90 259.10Z M299.44 263.76L300.99 263.76Q299.44 263.76 299.44 268.41L294.79 269.96Q294.79 268.41 290.13 268.41L288.58 263.76Q290.13 263.76 290.13 259.10L294.79 257.55Q294.79 259.10 299.44 259.10Z M377.02 263.76L378.57 263.76Q377.02 263.76 377.02 268.41L372.36 269.96Q372.36 268.41 367.71 268.41L366.16 263.76Q367.71 263.76 367.71 259.10L372.36 257.55Q372.36 259.10 377.02 259.10Z M423.56 263.76L425.12 263.76Q423.56 263.76 423.56 268.41L418.91 269.96Q418.91 268.41 414.25 268.41L412.70 263.76Q414.25 263.76 414.25 259.10L418.91 257.55Q418.91 259.10 423.56 259.10Z M159.81 279.27L161.36 279.27Q159.81 279.27 159.81 283.93L155.15 285.48Q155.15 283.93 150.50 283.93L148.95 279.27Q150.50 279.27 150.50 274.62L155.15 273.07Q155.15 274.62 159.81 274.62Z M190.84 279.27L192.39 279.27Q190.84 279.27 190.84 283.93L186.18 285.48Q186.18 283.93 181.53 283.93L179.98 279.27Q181.53 279.27 181.53 274.62L186.18 273.07Q186.18 274.62 190.84 274.62Z M206.35 279.27L207.90 279.27Q206.35 279.27 206.35 283.93L201.70 285.48Q201.70 283.93 197.04 283.93L195.49 279.27Q197.04 279.27 197.04 274.62L201.70 273.07Q201.70 274.62 206.35 274.62Z M237.38 279.27L238.93 279.27Q237.38 279.27 237.38 283.93L232.73 285.48Q232.73 283.93 228.07 283.93L226.52 279.27Q228.07 279.27 228.07 274.62L232.73 273.07Q232.73 274.62 237.38 274.62Z M252.90 279.27L254.45 279.27Q252.90 279.27 252.90 283.93L248.24 285.48Q248.24 283.93 243.59 283.93L242.04 279.27Q243.59 279.27 243.59 274.62L248.24 273.07Q248.24 274.62 252.90 274.62Z M268.41 279.27L269.96 279.27Q268.41 279.27 268.41 283.93L263.76 285.48Q263.76 283.93 259.10 283.93L257.55 279.27Q259.10 279.27 259.10 274.62L263.76 273.07Q263.76 274.62 268.41 274.62Z M283.93 279.27L285.48 279.27Q283.93 279.27 283.93 283.93L279.27 285.48Q279.27 283.93 274.62 283.93L273.07 279.27Q274.62 279.27 274.62 274.62L279.27 273.07Q279.27 274.62 283.93 274.62Z M299.44 279.27L300.99 279.27Q299.44 279.27 299.44 283.93L294.79 285.48Q294.79 283.93 290.13 283.93L288.58 279.27Q290.13 279.27 290.13 274.62L294.79 273.07Q294.79 274.62 299.44 274.62Z M345.99 279.27L347.54 279.27Q345.99 279.27 345.99 283.93L341.33 285.48Q341.33 283.93 336.68 283.93L335.13 279.27Q336.68 279.27 336.68 274.62L341.33 273.07Q341.33 274.62 345.99 274.62Z M361.50 279.27L363.05 279.27Q361.50 279.27 361.50 283.93L356.85 285.48Q356.85 283.93 352.19 283.93L350.64 279.27Q352.19 279.27 352.19 274.62L356.85 273.07Q356.85 274.62 361.50 274.62Z M377.02 279.27L378.57 279.27Q377.02 279.27 377.02 283.93L372.36 285.48Q372.36 283.93 367.71 283.93L366.16 279.27Q367.71 279.27 367.71 274.62L372.36 273.07Q372.36 274.62 377.02 274.62Z M392.53 279.27L394.08 279.27Q392.53 279.27 392.53 283.93L387.88 285.48Q387.88 283.93 383.22 283.93L381.67 279.27Q383.22 279.27 383.22 274.62L387.88 273.07Q387.88 274.62 392.53 274.62Z M408.05 279.27L409.60 279.27Q408.05 279.27 408.05 283.93L403.39 285.48Q403.39 283.93 398.74 283.93L397.19 279.27Q398.74 279.27 398.74 274.62L403.39 273.07Q403.39 274.62 408.05 274.62Z M113.26 294.79L114.81 294.79Q113.26 294.79 113.26 299.44L108.61 300.99Q108.61 299.44 103.95 299.44L102.40 294.79Q103.95 294.79 103.95 290.13L108.61 288.58Q108.61 290.13 113.26 290.13Z M128.78 294.79L130.33 294.79Q128.78 294.79 128.78 299.44L124.12 300.99Q124.12 299.44 119.47 299.44L117.92 294.79Q119.47 294.79 119.47 290.13L124.12 288.58Q124.12 290.13 128.78 290.13Z M175.32 294.79L176.87 294.79Q175.32 294.79 175.32 299.44L170.67 300.99Q170.67 299.44 166.01 299.44L164.46 294.79Q166.01 294.79 166.01 290.13L170.67 288.58Q170.67 290.13 175.32 290.13Z M237.38 294.79L238.93 294.79Q237.38 294.79 237.38 299.44L232.73 300.99Q232.73 299.44 228.07 299.44L226.52 294.79Q228.07 294.79 228.07 290.13L232.73 288.58Q232.73 290.13 237.38 290.13Z M268.41 294.79L269.96 294.79Q268.41 294.79 268.41 299.44L263.76 300.99Q263.76 299.44 259.10 299.44L257.55 294.79Q259.10 294.79 259.10 290.13L263.76 288.58Q263.76 290.13 268.41 290.13Z M299.44 294.79L300.99 294.79Q299.44 294.79 299.44 299.44L294.79 300.99Q294.79 299.44 290.13 299.44L288.58 294.79Q290.13 294.79 290.13 290.13L294.79 288.58Q294.79 290.13 299.44 290.13Z M345.99 294.79L347.54 294.79Q345.99 294.79 345.99 299.44L341.33 300.99Q341.33 299.44 336.68 299.44L335.13 294.79Q336.68 294.79 336.68 290.13L341.33 288.58Q341.33 290.13 345.99 290.13Z M361.50 294.79L363.05 294.79Q361.50 294.79 361.50 299.44L356.85 300.99Q356.85 299.44 352.19 299.44L350.64 294.79Q352.19 294.79 352.19 290.13L356.85 288.58Q356.85 290.13 361.50 290.13Z M377.02 294.79L378.57 294.79Q377.02 294.79 377.02 299.44L372.36 300.99Q372.36 299.44 367.71 299.44L366.16 294.79Q367.71 294.79 367.71 290.13L372.36 288.58Q372.36 290.13 377.02 290.13Z M408.05 294.79L409.60 294.79Q408.05 294.79 408.05 299.44L403.39 300.99Q403.39 299.44 398.74 299.44L397.19 294.79Q398.74 294.79 398.74 290.13L403.39 288.58Q403.39 290.13 408.05 290.13Z M423.56 294.79L425.12 294.79Q423.56 294.79 423.56 299.44L418.91 300.99Q418.91 299.44 414.25 299.44L412.70 294.79Q414.25 294.79 414.25 290.13L418.91 288.58Q418.91 290.13 423.56 290.13Z M66.72 310.30L68.27 310.30Q66.72 310.30 66.72 314.96L62.06 316.51Q62.06 314.96 57.41 314.96L55.85 310.30Q57.41 310.30 57.41 305.65L62.06 304.10Q62.06 305.65 66.72 305.65Z M82.23 310.30L83.78 310.30Q82.23 310.30 82.23 314.96L77.58 316.51Q77.58 314.96 72.92 314.96L71.37 310.30Q72.92 310.30 72.92 305.65L77.58 304.10Q77.58 305.65 82.23 305.65Z M113.26 310.30L114.81 310.30Q113.26 310.30 113.26 314.96L108.61 316.51Q108.61 314.96 103.95 314.96L102.40 310.30Q103.95 310.30 103.95 305.65L108.61 304.10Q108.61 305.65 113.26 305.65Z M128.78 310.30L130.33 310.30Q128.78 310.30 128.78 314.96L124.12 316.51Q124.12 314.96 119.47 314.96L117.92 310.30Q119.47 310.30 119.47 305.65L124.12 304.10Q124.12 305.65 128.78 305.65Z M144.29 310.30L145.84 310.30Q144.29 310.30 144.29 314.96L139.64 316.51Q139.64 314.96 134.98 314.96L133.43 310.30Q134.98 310.30 134.98 305.65L139.64 304.10Q139.64 305.65 144.29 305.65Z M159.81 310.30L161.36 310.30Q159.81 310.30 159.81 314.96L155.15 316.51Q155.15 314.96 150.50 314.96L148.95 310.30Q150.50 310.30 150.50 305.65L155.15 304.10Q155.15 305.65 159.81 305.65Z M175.32 310.30L176.87 310.30Q175.32 310.30 175.32 314.96L170.67 316.51Q170.67 314.96 166.01 314.96L164.46 310.30Q166.01 310.30 166.01 305.65L170.67 304.10Q170.67 305.65 175.32 305.65Z M221.87 310.30L223.42 310.30Q221.87 310.30 221.87 314.96L217.21 316.51Q217.21 314.96 212.56 314.96L211.01 310.30Q212.56 310.30 212.56 305.65L217.21 304.10Q217.21 305.65 221.87 305.65Z M252.90 310.30L254.45 310.30Q252.90 310.30 252.90 314.96L248.24 316.51Q248.24 314.96 243.59 314.96L242.04 310.30Q243.59 310.30 243.59 305.65L248.24 304.10Q248.24 305.65 252.90 305.65Z M268.41 310.30L269.96 310.30Q268.41 310.30 268.41 314.96L263.76 316.51Q263.76 314.96 259.10 314.96L257.55 310.30Q259.10 310.30 259.10 305.65L263.76 304.10Q263.76 305.65 268.41 305.65Z M314.96 310.30L316.51 310.30Q314.96 310.30 314.96 314.96L310.30 316.51Q310.30 314.96 305.65 314.96L304.10 310.30Q305.65 310.30 305.65 305.65L310.30 304.10Q310.30 305.65 314.96 305.65Z M330.47 310.30L332.02 310.30Q330.47 310.30 330.47 314.96L325.82 316.51Q325.82 314.96 321.16 314.96L319.61 310.30Q321.16 310.30 321.16 305.65L325.82 304.10Q325.82 305.65 330.47 305.65Z M345.99 310.30L347.54 310.30Q345.99 310.30 345.99 314.96L341.33 316.51Q341.33 314.96 336.68 314.96L335.13 310.30Q336.68 310.30 336.68 305.65L341.33 304.10Q341.33 305.65 345.99 305.65Z M361.50 310.30L363.05 310.30Q361.50 310.30 361.50 314.96L356.85 316.51Q356.85 314.96 352.19 314.96L350.64 310.30Q352.19 310.30 352.19 305.65L356.85 304.10Q356.85 305.65 361.50 305.65Z M377.02 310.30L378.57 310.30Q377.02 310.30 377.02 314.96L372.36 316.51Q372.36 314.96 367.71 314.96L366.16 310.30Q367.71 310.30 367.71 305.65L372.36 304.10Q372.36 305.65 377.02 305.65Z M392.53 310.30L394.08 310.30Q392.53 310.30 392.53 314.96L387.88 316.51Q387.88 314.96 383.22 314.96L381.67 310.30Q383.22 310.30 383.22 305.65L387.88 304.10Q387.88 305.65 392.53 305.65Z M408.05 310.30L409.60 310.30Q408.05 310.30 408.05 314.96L403.39 316.51Q403.39 314.96 398.74 314.96L397.19 310.30Q398.74 310.30 398.74 305.65L403.39 304.10Q403.39 305.65 408.05 305.65Z M190.84 325.82L192.39 325.82Q190.84 325.82 190.84 330.47L186.18 332.02Q186.18 330.47 181.53 330.47L179.98 325.82Q181.53 325.82 181.53 321.16L186.18 319.61Q186.18 321.16 190.84 321.16Z M221.87 325.82L223.42 325.82Q221.87 325.82 221.87 330.47L217.21 332.02Q217.21 330.47 212.56 330.47L211.01 325.82Q212.56 325.82 212.56 321.16L217.21 319.61Q217.21 321.16 221.87 321.16Z M268.41 325.82L269.96 325.82Q268.41 325.82 268.41 330.47L263.76 332.02Q263.76 330.47 259.10 330.47L257.55 325.82Q259.10 325.82 259.10 321.16L263.76 319.61Q263.76 321.16 268.41 321.16Z M283.93 325.82L285.48 325.82Q283.93 325.82 283.93 330.47L279.27 332.02Q279.27 330.47 274.62 330.47L273.07 325.82Q274.62 325.82 274.62 321.16L279.27 319.61Q279.27 321.16 283.93 321.16Z M314.96 325.82L316.51 325.82Q314.96 325.82 314.96 330.47L310.30 332.02Q310.30 330.47 305.65 330.47L304.10 325.82Q305.65 325.82 305.65 321.16L310.30 319.61Q310.30 321.16 314.96 321.16Z M377.02 325.82L378.57 325.82Q377.02 325.82 377.02 330.47L372.36 332.02Q372.36 330.47 367.71 330.47L366.16 325.82Q367.71 325.82 367.71 321.16L372.36 319.61Q372.36 321.16 377.02 321.16Z M66.72 341.33L68.27 341.33Q66.72 341.33 66.72 345.99L62.06 347.54Q62.06 345.99 57.41 345.99L55.85 341.33Q57.41 341.33 57.41 336.68L62.06 335.13Q62.06 336.68 66.72 336.68Z M82.23 341.33L83.78 341.33Q82.23 341.33 82.23 345.99L77.58 347.54Q77.58 345.99 72.92 345.99L71.37 341.33Q72.92 341.33 72.92 336.68L77.58 335.13Q77.58 336.68 82.23 336.68Z M97.75 341.33L99.30 341.33Q97.75 341.33 97.75 345.99L93.09 347.54Q93.09 345.99 88.44 345.99L86.88 341.33Q88.44 341.33 88.44 336.68L93.09 335.13Q93.09 336.68 97.75 336.68Z M113.26 341.33L114.81 341.33Q113.26 341.33 113.26 345.99L108.61 347.54Q108.61 345.99 103.95 345.99L102.40 341.33Q103.95 341.33 103.95 336.68L108.61 335.13Q108.61 336.68 113.26 336.68Z M128.78 341.33L130.33 341.33Q128.78 341.33 128.78 345.99L124.12 347.54Q124.12 345.99 119.47 345.99L117.92 341.33Q119.47 341.33 119.47 336.68L124.12 335.13Q124.12 336.68 128.78 336.68Z M144.29 341.33L145.84 341.33Q144.29 341.33 144.29 345.99L139.64 347.54Q139.64 345.99 134.98 345.99L133.43 341.33Q134.98 341.33 134.98 336.68L139.64 335.13Q139.64 336.68 144.29 336.68Z M159.81 341.33L161.36 341.33Q159.81 341.33 159.81 345.99L155.15 347.54Q155.15 345.99 150.50 345.99L148.95 341.33Q150.50 341.33 150.50 336.68L155.15 335.13Q155.15 336.68 159.81 336.68Z M190.84 341.33L192.39 341.33Q190.84 341.33 190.84 345.99L186.18 347.54Q186.18 345.99 181.53 345.99L179.98 341.33Q181.53 341.33 181.53 336.68L186.18 335.13Q186.18 336.68 190.84 336.68Z M221.87 341.33L223.42 341.33Q221.87 341.33 221.87 345.99L217.21 347.54Q217.21 345.99 212.56 345.99L211.01 341.33Q212.56 341.33 212.56 336.68L217.21 335.13Q217.21 336.68 221.87 336.68Z M314.96 341.33L316.51 341.33Q314.96 341.33 314.96 345.99L310.30 347.54Q310.30 345.99 305.65 345.99L304.10 341.33Q305.65 341.33 305.65 336.68L310.30 335.13Q310.30 336.68 314.96 336.68Z M345.99 341.33L347.54 341.33Q345.99 341.33 345.99 345.99L341.33 347.54Q341.33 345.99 336.68 345.99L335.13 341.33Q336.68 341.33 336.68 336.68L341.33 335.13Q341.33 336.68 345.99 336.68Z M377.02 341.33L378.57 341.33Q377.02 341.33 377.02 345.99L372.36 347.54Q372.36 345.99 367.71 345.99L366.16 341.33Q367.71 341.33 367.71 336.68L372.36 335.13Q372.36 336.68 377.02 336.68Z M66.72 356.85L68.27 356.85Q66.72 356.85 66.72 361.50L62.06 363.05Q62.06 361.50 57.41 361.50L55.85 356.85Q57.41 356.85 57.41 352.19L62.06 350.64Q62.06 352.19 66.72 352.19Z M159.81 356.85L161.36 356.85Q159.81 356.85 159.81 361.50L155.15 363.05Q155.15 361.50 150.50 361.50L148.95 356.85Q150.50 356.85 150.50 352.19L155.15 350.64Q155.15 352.19 159.81 352.19Z M221.87 356.85L223.42 356.85Q221.87 356.85 221.87 361.50L217.21 363.05Q217.21 361.50 212.56 361.50L211.01 356.85Q212.56 356.85 212.56 352.19L217.21 350.64Q217.21 352.19 221.87 352.19Z M252.90 356.85L254.45 356.85Q252.90 356.85 252.90 361.50L248.24 363.05Q248.24 361.50 243.59 361.50L242.04 356.85Q243.59 356.85 243.59 352.19L248.24 350.64Q248.24 352.19 252.90 352.19Z M283.93 356.85L285.48 356.85Q283.93 356.85 283.93 361.50L279.27 363.05Q279.27 361.50 274.62 361.50L273.07 356.85Q274.62 356.85 274.62 352.19L279.27 350.64Q279.27 352.19 283.93 352.19Z M314.96 356.85L316.51 356.85Q314.96 356.85 314.96 361.50L310.30 363.05Q310.30 361.50 305.65 361.50L304.10 356.85Q305.65 356.85 305.65 352.19L310.30 350.64Q310.30 352.19 314.96 352.19Z M377.02 356.85L378.57 356.85Q377.02 356.85 377.02 361.50L372.36 363.05Q372.36 361.50 367.71 361.50L366.16 356.85Q367.71 356.85 367.71 352.19L372.36 350.64Q372.36 352.19 377.02 352.19Z M392.53 356.85L394.08 356.85Q392.53 356.85 392.53 361.50L387.88 363.05Q387.88 361.50 383.22 361.50L381.67 356.85Q383.22 356.85 383.22 352.19L387.88 350.64Q387.88 352.19 392.53 352.19Z M408.05 356.85L409.60 356.85Q408.05 356.85 408.05 361.50L403.39 363.05Q403.39 361.50 398.74 361.50L397.19 356.85Q398.74 356.85 398.74 352.19L403.39 350.64Q403.39 352.19 408.05 352.19Z M423.56 356.85L425.12 356.85Q423.56 356.85 423.56 361.50L418.91 363.05Q418.91 361.50 414.25 361.50L412.70 356.85Q414.25 356.85 414.25 352.19L418.91 350.64Q418.91 352.19 423.56 352.19Z M439.08 356.85L440.63 356.85Q439.08 356.85 439.08 361.50L434.42 363.05Q434.42 361.50 429.77 361.50L428.22 356.85Q429.77 356.85 429.77 352.19L434.42 350.64Q434.42 352.19 439.08 352.19Z M66.72 372.36L68.27 372.36Q66.72 372.36 66.72 377.02L62.06 378.57Q62.06 377.02 57.41 377.02L55.85 372.36Q57.41 372.36 57.41 367.71L62.06 366.16Q62.06 367.71 66.72 367.71Z M97.75 372.36L99.30 372.36Q97.75 372.36 97.75 377.02L93.09 378.57Q93.09 377.02 88.44 377.02L86.88 372.36Q88.44 372.36 88.44 367.71L93.09 366.16Q93.09 367.71 97.75 367.71Z M113.26 372.36L114.81 372.36Q113.26 372.36 113.26 377.02L108.61 378.57Q108.61 377.02 103.95 377.02L102.40 372.36Q103.95 372.36 103.95 367.71L108.61 366.16Q108.61 367.71 113.26 367.71Z M128.78 372.36L130.33 372.36Q128.78 372.36 128.78 377.02L124.12 378.57Q124.12 377.02 119.47 377.02L117.92 372.36Q119.47 372.36 119.47 367.71L124.12 366.16Q124.12 367.71 128.78 367.71Z M159.81 372.36L161.36 372.36Q159.81 372.36 159.81 377.02L155.15 378.57Q155.15 377.02 150.50 377.02L148.95 372.36Q150.50 372.36 150.50 367.71L155.15 366.16Q155.15 367.71 159.81 367.71Z M190.84 372.36L192.39 372.36Q190.84 372.36 190.84 377.02L186.18 378.57Q186.18 377.02 181.53 377.02L179.98 372.36Q181.53 372.36 181.53 367.71L186.18 366.16Q186.18 367.71 190.84 367.71Z M206.35 372.36L207.90 372.36Q206.35 372.36 206.35 377.02L201.70 378.57Q201.70 377.02 197.04 377.02L195.49 372.36Q197.04 372.36 197.04 367.71L201.70 366.16Q201.70 367.71 206.35 367.71Z M237.38 372.36L238.93 372.36Q237.38 372.36 237.38 377.02L232.73 378.57Q232.73 377.02 228.07 377.02L226.52 372.36Q228.07 372.36 228.07 367.71L232.73 366.16Q232.73 367.71 237.38 367.71Z M268.41 372.36L269.96 372.36Q268.41 372.36 268.41 377.02L263.76 378.57Q263.76 377.02 259.10 377.02L257.55 372.36Q259.10 372.36 259.10 367.71L263.76 366.16Q263.76 367.71 268.41 367.71Z M283.93 372.36L285.48 372.36Q283.93 372.36 283.93 377.02L279.27 378.57Q279.27 377.02 274.62 377.02L273.07 372.36Q274.62 372.36 274.62 367.71L279.27 366.16Q279.27 367.71 283.93 367.71Z M314.96 372.36L316.51 372.36Q314.96 372.36 314.96 377.02L310.30 378.57Q310.30 377.02 305.65 377.02L304.10 372.36Q305.65 372.36 305.65 367.71L310.30 366.16Q310.30 367.71 314.96 367.71Z M330.47 372.36L332.02 372.36Q330.47 372.36 330.47 377.02L325.82 378.57Q325.82 377.02 321.16 377.02L319.61 372.36Q321.16 372.36 321.16 367.71L325.82 366.16Q325.82 367.71 330.47 367.71Z M345.99 372.36L347.54 372.36Q345.99 372.36 345.99 377.02L341.33 378.57Q341.33 377.02 336.68 377.02L335.13 372.36Q336.68 372.36 336.68 367.71L341.33 366.16Q341.33 367.71 345.99 367.71Z M361.50 372.36L363.05 372.36Q361.50 372.36 361.50 377.02L356.85 378.57Q356.85 377.02 352.19 377.02L350.64 372.36Q352.19 372.36 352.19 367.71L356.85 366.16Q356.85 367.71 361.50 367.71Z M377.02 372.36L378.57 372.36Q377.02 372.36 377.02 377.02L372.36 378.57Q372.36 377.02 367.71 377.02L366.16 372.36Q367.71 372.36 367.71 367.71L372.36 366.16Q372.36 367.71 377.02 367.71Z M392.53 372.36L394.08 372.36Q392.53 372.36 392.53 377.02L387.88 378.57Q387.88 377.02 383.22 377.02L381.67 372.36Q383.22 372.36 383.22 367.71L387.88 366.16Q387.88 367.71 392.53 367.71Z M408.05 372.36L409.60 372.36Q408.05 372.36 408.05 377.02L403.39 378.57Q403.39 377.02 398.74 377.02L397.19 372.36Q398.74 372.36 398.74 367.71L403.39 366.16Q403.39 367.71 408.05 367.71Z M439.08 372.36L440.63 372.36Q439.08 372.36 439.08 377.02L434.42 378.57Q434.42 377.02 429.77 377.02L428.22 372.36Q429.77 372.36 429.77 367.71L434.42 366.16Q434.42 367.71 439.08 367.71Z M66.72 387.88L68.27 387.88Q66.72 387.88 66.72 392.53L62.06 394.08Q62.06 392.53 57.41 392.53L55.85 387.88Q57.41 387.88 57.41 383.22L62.06 381.67Q62.06 383.22 66.72 383.22Z M97.75 387.88L99.30 387.88Q97.75 387.88 97.75 392.53L93.09 394.08Q93.09 392.53 88.44 392.53L86.88 387.88Q88.44 387.88 88.44 383.22L93.09 381.67Q93.09 383.22 97.75 383.22Z M113.26 387.88L114.81 387.88Q113.26 387.88 113.26 392.53L108.61 394.08Q108.61 392.53 103.95 392.53L102.40 387.88Q103.95 387.88 103.95 383.22L108.61 381.67Q108.61 383.22 113.26 383.22Z M128.78 387.88L130.33 387.88Q128.78 387.88 128.78 392.53L124.12 394.08Q124.12 392.53 119.47 392.53L117.92 387.88Q119.47 387.88 119.47 383.22L124.12 381.67Q124.12 383.22 128.78 383.22Z M159.81 387.88L161.36 387.88Q159.81 387.88 159.81 392.53L155.15 394.08Q155.15 392.53 150.50 392.53L148.95 387.88Q150.50 387.88 150.50 383.22L155.15 381.67Q155.15 383.22 159.81 383.22Z M206.35 387.88L207.90 387.88Q206.35 387.88 206.35 392.53L201.70 394.08Q201.70 392.53 197.04 392.53L195.49 387.88Q197.04 387.88 197.04 383.22L201.70 381.67Q201.70 383.22 206.35 383.22Z M221.87 387.88L223.42 387.88Q221.87 387.88 221.87 392.53L217.21 394.08Q217.21 392.53 212.56 392.53L211.01 387.88Q212.56 387.88 212.56 383.22L217.21 381.67Q217.21 383.22 221.87 383.22Z M252.90 387.88L254.45 387.88Q252.90 387.88 252.90 392.53L248.24 394.08Q248.24 392.53 243.59 392.53L242.04 387.88Q243.59 387.88 243.59 383.22L248.24 381.67Q248.24 383.22 252.90 383.22Z M330.47 387.88L332.02 387.88Q330.47 387.88 330.47 392.53L325.82 394.08Q325.82 392.53 321.16 392.53L319.61 387.88Q321.16 387.88 321.16 383.22L325.82 381.67Q325.82 383.22 330.47 383.22Z M345.99 387.88L347.54 387.88Q345.99 387.88 345.99 392.53L341.33 394.08Q341.33 392.53 336.68 392.53L335.13 387.88Q336.68 387.88 336.68 383.22L341.33 381.67Q341.33 383.22 345.99 383.22Z M361.50 387.88L363.05 387.88Q361.50 387.88 361.50 392.53L356.85 394.08Q356.85 392.53 352.19 392.53L350.64 387.88Q352.19 387.88 352.19 383.22L356.85 381.67Q356.85 383.22 361.50 383.22Z M408.05 387.88L409.60 387.88Q408.05 387.88 408.05 392.53L403.39 394.08Q403.39 392.53 398.74 392.53L397.19 387.88Q398.74 387.88 398.74 383.22L403.39 381.67Q403.39 383.22 408.05 383.22Z M423.56 387.88L425.12 387.88Q423.56 387.88 423.56 392.53L418.91 394.08Q418.91 392.53 414.25 392.53L412.70 387.88Q414.25 387.88 414.25 383.22L418.91 381.67Q418.91 383.22 423.56 383.22Z M439.08 387.88L440.63 387.88Q439.08 387.88 439.08 392.53L434.42 394.08Q434.42 392.53 429.77 392.53L428.22 387.88Q429.77 387.88 429.77 383.22L434.42 381.67Q434.42 383.22 439.08 383.22Z M66.72 403.39L68.27 403.39Q66.72 403.39 66.72 408.05L62.06 409.60Q62.06 408.05 57.41 408.05L55.85 403.39Q57.41 403.39 57.41 398.74L62.06 397.19Q62.06 398.74 66.72 398.74Z M97.75 403.39L99.30 403.39Q97.75 403.39 97.75 408.05L93.09 409.60Q93.09 408.05 88.44 408.05L86.88 403.39Q88.44 403.39 88.44 398.74L93.09 397.19Q93.09 398.74 97.75 398.74Z M113.26 403.39L114.81 403.39Q113.26 403.39 113.26 408.05L108.61 409.60Q108.61 408.05 103.95 408.05L102.40 403.39Q103.95 403.39 103.95 398.74L108.61 397.19Q108.61 398.74 113.26 398.74Z M128.78 403.39L130.33 403.39Q128.78 403.39 128.78 408.05L124.12 409.60Q124.12 408.05 119.47 408.05L117.92 403.39Q119.47 403.39 119.47 398.74L124.12 397.19Q124.12 398.74 128.78 398.74Z M159.81 403.39L161.36 403.39Q159.81 403.39 159.81 408.05L155.15 409.60Q155.15 408.05 150.50 408.05L148.95 403.39Q150.50 403.39 150.50 398.74L155.15 397.19Q155.15 398.74 159.81 398.74Z M206.35 403.39L207.90 403.39Q206.35 403.39 206.35 408.05L201.70 409.60Q201.70 408.05 197.04 408.05L195.49 403.39Q197.04 403.39 197.04 398.74L201.70 397.19Q201.70 398.74 206.35 398.74Z M221.87 403.39L223.42 403.39Q221.87 403.39 221.87 408.05L217.21 409.60Q217.21 408.05 212.56 408.05L211.01 403.39Q212.56 403.39 212.56 398.74L217.21 397.19Q217.21 398.74 221.87 398.74Z M237.38 403.39L238.93 403.39Q237.38 403.39 237.38 408.05L232.73 409.60Q232.73 408.05 228.07 408.05L226.52 403.39Q228.07 403.39 228.07 398.74L232.73 397.19Q232.73 398.74 237.38 398.74Z M252.90 403.39L254.45 403.39Q252.90 403.39 252.90 408.05L248.24 409.60Q248.24 408.05 243.59 408.05L242.04 403.39Q243.59 403.39 243.59 398.74L248.24 397.19Q248.24 398.74 252.90 398.74Z M268.41 403.39L269.96 403.39Q268.41 403.39 268.41 408.05L263.76 409.60Q263.76 408.05 259.10 408.05L257.55 403.39Q259.10 403.39 259.10 398.74L263.76 397.19Q263.76 398.74 268.41 398.74Z M283.93 403.39L285.48 403.39Q283.93 403.39 283.93 408.05L279.27 409.60Q279.27 408.05 274.62 408.05L273.07 403.39Q274.62 403.39 274.62 398.74L279.27 397.19Q279.27 398.74 283.93 398.74Z M330.47 403.39L332.02 403.39Q330.47 403.39 330.47 408.05L325.82 409.60Q325.82 408.05 321.16 408.05L319.61 403.39Q321.16 403.39 321.16 398.74L325.82 397.19Q325.82 398.74 330.47 398.74Z M345.99 403.39L347.54 403.39Q345.99 403.39 345.99 408.05L341.33 409.60Q341.33 408.05 336.68 408.05L335.13 403.39Q336.68 403.39 336.68 398.74L341.33 397.19Q341.33 398.74 345.99 398.74Z M392.53 403.39L394.08 403.39Q392.53 403.39 392.53 408.05L387.88 409.60Q387.88 408.05 383.22 408.05L381.67 403.39Q383.22 403.39 383.22 398.74L387.88 397.19Q387.88 398.74 392.53 398.74Z M423.56 403.39L425.12 403.39Q423.56 403.39 423.56 408.05L418.91 409.60Q418.91 408.05 414.25 408.05L412.70 403.39Q414.25 403.39 414.25 398.74L418.91 397.19Q418.91 398.74 423.56 398.74Z M66.72 418.91L68.27 418.91Q66.72 418.91 66.72 423.56L62.06 425.12Q62.06 423.56 57.41 423.56L55.85 418.91Q57.41 418.91 57.41 414.25L62.06 412.70Q62.06 414.25 66.72 414.25Z M159.81 418.91L161.36 418.91Q159.81 418.91 159.81 423.56L155.15 425.12Q155.15 423.56 150.50 423.56L148.95 418.91Q150.50 418.91 150.50 414.25L155.15 412.70Q155.15 414.25 159.81 414.25Z M221.87 418.91L223.42 418.91Q221.87 418.91 221.87 423.56L217.21 425.12Q217.21 423.56 212.56 423.56L211.01 418.91Q212.56 418.91 212.56 414.25L217.21 412.70Q217.21 414.25 221.87 414.25Z M237.38 418.91L238.93 418.91Q237.38 418.91 237.38 423.56L232.73 425.12Q232.73 423.56 228.07 423.56L226.52 418.91Q228.07 418.91 228.07 414.25L232.73 412.70Q232.73 414.25 237.38 414.25Z M268.41 418.91L269.96 418.91Q268.41 418.91 268.41 423.56L263.76 425.12Q263.76 423.56 259.10 423.56L257.55 418.91Q259.10 418.91 259.10 414.25L263.76 412.70Q263.76 414.25 268.41 414.25Z M299.44 418.91L300.99 418.91Q299.44 418.91 299.44 423.56L294.79 425.12Q294.79 423.56 290.13 423.56L288.58 418.91Q290.13 418.91 290.13 414.25L294.79 412.70Q294.79 414.25 299.44 414.25Z M361.50 418.91L363.05 418.91Q361.50 418.91 361.50 423.56L356.85 425.12Q356.85 423.56 352.19 423.56L350.64 418.91Q352.19 418.91 352.19 414.25L356.85 412.70Q356.85 414.25 361.50 414.25Z M377.02 418.91L378.57 418.91Q377.02 418.91 377.02 423.56L372.36 425.12Q372.36 423.56 367.71 423.56L366.16 418.91Q367.71 418.91 367.71 414.25L372.36 412.70Q372.36 414.25 377.02 414.25Z M392.53 418.91L394.08 418.91Q392.53 418.91 392.53 423.56L387.88 425.12Q387.88 423.56 383.22 423.56L381.67 418.91Q383.22 418.91 383.22 414.25L387.88 412.70Q387.88 414.25 392.53 414.25Z M408.05 418.91L409.60 418.91Q408.05 418.91 408.05 423.56L403.39 425.12Q403.39 423.56 398.74 423.56L397.19 418.91Q398.74 418.91 398.74 414.25L403.39 412.70Q403.39 414.25 408.05 414.25Z M423.56 418.91L425.12 418.91Q423.56 418.91 423.56 423.56L418.91 425.12Q418.91 423.56 414.25 423.56L412.70 418.91Q414.25 418.91 414.25 414.25L418.91 412.70Q418.91 414.25 423.56 414.25Z M66.72 434.42L68.27 434.42Q66.72 434.42 66.72 439.08L62.06 440.63Q62.06 439.08 57.41 439.08L55.85 434.42Q57.41 434.42 57.41 429.77L62.06 428.22Q62.06 429.77 66.72 429.77Z M82.23 434.42L83.78 434.42Q82.23 434.42 82.23 439.08L77.58 440.63Q77.58 439.08 72.92 439.08L71.37 434.42Q72.92 434.42 72.92 429.77L77.58 428.22Q77.58 429.77 82.23 429.77Z M97.75 434.42L99.30 434.42Q97.75 434.42 97.75 439.08L93.09 440.63Q93.09 439.08 88.44 439.08L86.88 434.42Q88.44 434.42 88.44 429.77L93.09 428.22Q93.09 429.77 97.75 429.77Z M113.26 434.42L114.81 434.42Q113.26 434.42 113.26 439.08L108.61 440.63Q108.61 439.08 103.95 439.08L102.40 434.42Q103.95 434.42 103.95 429.77L108.61 428.22Q108.61 429.77 113.26 429.77Z M128.78 434.42L130.33 434.42Q128.78 434.42 128.78 439.08L124.12 440.63Q124.12 439.08 119.47 439.08L117.92 434.42Q119.47 434.42 119.47 429.77L124.12 428.22Q124.12 429.77 128.78 429.77Z M144.29 434.42L145.84 434.42Q144.29 434.42 144.29 439.08L139.64 440.63Q139.64 439.08 134.98 439.08L133.43 434.42Q134.98 434.42 134.98 429.77L139.64 428.22Q139.64 429.77 144.29 429.77Z M159.81 434.42L161.36 434.42Q159.81 434.42 159.81 439.08L155.15 440.63Q155.15 439.08 150.50 439.08L148.95 434.42Q150.50 434.42 150.50 429.77L155.15 428.22Q155.15 429.77 159.81 429.77Z M190.84 434.42L192.39 434.42Q190.84 434.42 190.84 439.08L186.18 440.63Q186.18 439.08 181.53 439.08L179.98 434.42Q181.53 434.42 181.53 429.77L186.18 428.22Q186.18 429.77 190.84 429.77Z M221.87 434.42L223.42 434.42Q221.87 434.42 221.87 439.08L217.21 440.63Q217.21 439.08 212.56 439.08L211.01 434.42Q212.56 434.42 212.56 429.77L217.21 428.22Q217.21 429.77 221.87 429.77Z M252.90 434.42L254.45 434.42Q252.90 434.42 252.90 439.08L248.24 440.63Q248.24 439.08 243.59 439.08L242.04 434.42Q243.59 434.42 243.59 429.77L248.24 428.22Q248.24 429.77 252.90 429.77Z M268.41 434.42L269.96 434.42Q268.41 434.42 268.41 439.08L263.76 440.63Q263.76 439.08 259.10 439.08L257.55 434.42Q259.10 434.42 259.10 429.77L263.76 428.22Q263.76 429.77 268.41 429.77Z M299.44 434.42L300.99 434.42Q299.44 434.42 299.44 439.08L294.79 440.63Q294.79 439.08 290.13 439.08L288.58 434.42Q290.13 434.42 290.13 429.77L294.79 428.22Q294.79 429.77 299.44 429.77Z M330.47 434.42L332.02 434.42Q330.47 434.42 330.47 439.08L325.82 440.63Q325.82 439.08 321.16 439.08L319.61 434.42Q321.16 434.42 321.16 429.77L325.82 428.22Q325.82 429.77 330.47 429.77Z M408.05 434.42L409.60 434.42Q408.05 434.42 408.05 439.08L403.39 440.63Q403.39 439.08 398.74 439.08L397.19 434.42Q398.74 434.42 398.74 429.77L403.39 428.22Q403.39 429.77 408.05 429.77Z M423.56 434.42L425.12 434.42Q423.56 434.42 423.56 439.08L418.91 440.63Q418.91 439.08 414.25 439.08L412.70 434.42Q414.25 434.42 414.25 429.77L418.91 428.22Q418.91 429.77 423.56 429.77Z M439.08 434.42L440.63 434.42Q439.08 434.42 439.08 439.08L434.42 440.63Q434.42 439.08 429.77 439.08L428.22 434.42Q429.77 434.42 429.77 429.77L434.42 428.22Q434.42 429.77 439.08 429.77Z "/>
</svg>