<svg xmlns="http://www.w3.org/2000/svg" viewBox="0 0 512 512" width="512" height="512">
<rect width="100%" height="100%" fill="#FFFFFF"/>
<path fill="#e91e63" d="M69.82 65.16C69.82 63.61 68.27 62.06 65.94 62.06C63.61 62.06 62.06 64.39 62.06 66.72C62.06 70.59 69.82 77.58 69.82 77.58C69.82 77.58 77.58 70.59 77.58 66.72C77.58 64.39 76.02 62.06 73.70 62.06C71.37 62.06 69.82 63.61 69.82 65.16Z M85.33 65.16C85.33 63.61 83.78 62.06 81.45 62.06C79.13 62.06 77.58 64.39 77.58 66.72C77.58 70.59 85.33 77.58 85.33 77.58C85.33 77.58 93.09 70.59 93.09 66.72C93.09 64.39 91.54 62.06 89.21 62.06C86.88 62.06 85.33 63.61 85.33 65.16Z M100.85 65.16C100.85 63.61 99.30 62.06 96.97 62.06C94.64 62.06 93.09 64.39 93.09 66.72C93.09 70.59 100.85 77.58 100.85 77.58C100.85 77.58 108.61 70.59 108.61 66.72C108.61 64.39 107.05 62.06 104.73 62.06C102.40 62.06 100.85 63.61 100.85 65.16Z M116.36 65.16C116.36 63.61 114.81 62.06 112.48 62.06C110.16 62.06 108.61 64.39 108.61 66.72C108.61 70.59 116.36 77.58 116.36 77.58C116.36 77.58 124.12 70.59 124.12 66.72C124.12 64.39 122.57 62.06 120.24 62.06C117.92 62.06 116.36 63.61 116.36 65.16Z M131.88 65.16C131.88 63.61 130.33 62.06 128.00 62.06C125.67 62.06 124.12 64.39 124.12 66.72C124.12 70.59 131.88 77.58 131.88 77.58C131.88 77.58 139.64 70.59 139.64 66.72C139.64 64.39 138.08 62.06 135.76 62.06C133.43 62.06 131.88 63.61 131.88 65.16Z M147.39 65.16C147.39 63.61 145.84 62.06 143.52 62.06C141.19 62.06 139.64 64.39 139.64 66.72C139.64 70.59 147.39 77.58 147.39 77.58C147.39 77.58 155.15 70.59 155.15 66.72C155.15 64.39 153.60 62.06 151.27 62.06C148.95 62.06 147.39 63.61 147.39 65.16Z M162.91 65.16C162.91 63.61 161.36 62.06 159.03 62.06C156.70 62.06 155.15 64.39 155.15 66.72C155.15 70.59 162.91 77.58 162.91 77.58C162.91 77.58 170.67 70.59 170.67 66.72C170.67 64.39 169.12 62.06 166.79 62.06C164.46 62.06 162.91 63.61 162.91 65.16Z M193.94 65.16C193.94 63.61 192.39 62.06 190.06 62.06C187.73 62.06 186.18 64.39 186.18 66.72C186.18 70.59 193.94 77.58 193.94 77.58C193.94 77.58 201.70 70.59 201.70 66.72C201.70 64.39 200.15 62.06 197.82 62.06C195.49 62.06 193.94 63.61 193.94 65.16Z M209.45 65.16C209.45 63.61 207.90 62.06 205.58 62.06C203.25 62.06 201.70 64.39 201.70 66.72C201.70 70.59 209.45 77.58 209.45 77.58C209.45 77.58 217.21 70.59 217.21 66.72C217.21 64.39 215.66 62.06 213.33 62.06C211.01 62.06 209.45 63.61 209.45 65.16Z M240.48 65.16C240.48 63.61 238.93 62.06 236.61 62.06C234.28 62.06 232.73 64.39 232.73 66.72C232.73 70.59 240.48 77.58 240.48 77.58C240.48 77.58 248.24 70.59 248.24 66.72C248.24 64.39 246.69 62.06 244.36 62.06C242.04 62.06 240.48 63.61 240.48 65.16Z M256.00 65.16C256.00 63.61 254.45 62.06 252.12 62.06C249.79 62.06 248.24 64.39 248.24 66.72C248.24 70.59 256.00 77.58 256.00 77.58C256.00 77.58 263.76 70.59 263.76 66.72C263.76 64.39 262.21 62.06 259.88 62.06C257.55 62.06 256.00 63.61 256.00 65.16Z M287.03 65.16C287.03 63.61 285.48 62.06 283.15 62.06C280.82 62.06 279.27 64.39 279.27 66.72C279.27 70.59 287.03 77.58 287.03 77.58C287.03 77.58 294.79 70.59 294.79 66.72C294.79 64.39 293.24 62.06 290.91 62.06C288.58 62.06 287.03 63.61 287.03 65.16Z M302.55 65.16C302.55 63.61 300.99 62.06 298.67 62.06C296.34 62.06 294.79 64.39 294.79 66.72C294.79 70.59 302.55 77.58 302.55 77.58C302.55 77.58 310.30 70.59 310.30 66.72C310.30 64.39 308.75 62.06 306.42 62.06C304.10 62.06 302.55 63.61 302.55 65.16Z M318.06 65.16C318.06 63.61 316.51 62.06 314.18 62.06C311.85 62.06 310.30 64.39 310.30 66.72C310.30 70.59 318.06 77.58 318.06 77.58C318.06 77.58 325.82 70.59 325.82 66.72C325.82 64.39 324.27 62.06 321.94 62.06C319.61 62.06 318.06 63.61 318.06 65.16Z M349.09 65.16C349.09 63.61 347.54 62.06 345.21 62.06C342.88 62.06 341.33 64.39 341.33 66.72C341.33 70.59 349.09 77.58 349.09 77.58C349.09 77.58 356.85 70.59 356.85 66.72C356.85 64.39 355.30 62.06 352.97 62.06C350.64 62.06 349.09 63.61 349.09 65.16Z M364.61 65.16C364.61 63.61 363.05 62.06 360.73 62.06C358.40 62.06 356.85 64.39 356.85 66.72C356.85 70.59 364.61 77.58 364.61 77.58C364.61 77.58 372.36 70.59 372.36 66.72C372.36 64.39 370.81 62.06 368.48 62.06C366.16 62.06 364.61 63.61 364.61 65.16Z M380.12 65.16C380.12 63.61 378.57 62.06 376.24 62.06C373.92 62.06 372.36 64.39 372.36 66.72C372.36 70.59 380.12 77.58 380.12 77.58C380.12 77.58 387.88 70.59 387.88 66.72C387.88 64.39 386.33 62.06 384.00 62.06C381.67 62.06 380.12 63.61 380.12 65.16Z M395.64 65.16C395.64 63.61 394.08 62.06 391.76 62.06C389.43 62.06 387.88 64.39 387.88 66.72C387.88 70.59 395.64 77.58 395.64 77.58C395.64 77.58 403.39 70.59 403.39 66.72C403.39 64.39 401.84 62.06 399.52 62.06C397.19 62.06 395.64 63.61 395.64 65.16Z M411.15 65.16C411.15 63.61 409.60 62.06 407.27 62.06C404.95 62.06 403.39 64.39 403.39 66.72C403.39 70.59 411.15 77.58 411.15 77.58C411.15 77.58 418.91 70.59 418.91 66.72C418.91 64.39 417.36 62.06 415.03 62.06C412.70 62.06 411.15 63.61 411.15 65.16Z M426.67 65.16C426.67 63.61 425.12 62.06 422.79 62.06C420.46 62.06 418.91 64.39 418.91 66.72C418.91 70.59 426.67 77.58 426.67 77.58C426.67 77.58 434.42 70.59 434.42 66.72C434.42 64.39 432.87 62.06 430.55 62.06C428.22 62.06 426.67 63.61 426.67 65.16Z M442.18 65.16C442.18 63.61 440.63 62.06 438.30 62.06C435.98 62.06 434.42 64.39 434.42 66.72C434.42 70.59 442.18 77.58 442.18 77.58C442.18 77.58 449.94 70.59 449.94 66.72C449.94 64.39 448.39 62.06 446.06 62.06C443.73 62.06 442.18 63.61 442.18 65.16Z M69.82 80.68C69.82 79.13 68.27 77.58 65.94 77.58C63.61 77.58 62.06 79.90 62.06 82.23C62.06 86.11 69.82 93.09 69.82 93.09C69.82 93.09 77.58 86.11 77.58 82.23C77.58 79.90 76.02 77.58 73.70 77.58C71.37 77.58 69.82 79.13 69.82 80.68Z M162.91 80.68C162.91 79.13 161.36 77.58 159.03 77.58C156.70 77.58 155.15 79.90 155.15 82.23C155.15 86.11 162.91 93.09 162.91 93.09C162.91 93.09 170.67 86.11 170.67 82.23C170.67 79.90 169.12 77.58 166.79 77.58C164.46 77.58 162.91 79.13 162.91 80.68Z M224.97 80.68C224.97 79.13 223.42 77.58 221.09 77.58C218.76 77.58 217.21 79.90 217.21 82.23C217.21 86.11 224.97 93.09 224.97 93.09C224.97 93.09 232.73 86.11 232.73 82.23C232.73 79.90 231.18 77.58 228.85 77.58C226.52 77.58 224.97 79.13 224.97 80.68Z M240.48 80.68C240.48 79.13 238.93 77.58 236.61 77.58C234.28 77.58 232.73 79.90 232.73 82.23C232.73 86.11 240.48 93.09 240.48 93.09C240.48 93.09 248.24 86.11 248.24 82.23C248.24 79.90 246.69 77.58 244.36 77.58C242.04 77.58 240.48 79.13 240.48 80.68Z M271.52 80.68C271.52 79.13 269.96 77.58 267.64 77.58C265.31 77.58 263.76 79.90 263.76 82.23C263.76 86.11 271.52 93.09 271.52 93.09C271.52 93.09 279.27 86.11 279.27 82.23C279.27 79.90 277.72 77.58 275.39 77.58C273.07 77.58 271.52 79.13 271.52 80.68Z M318.06 80.68C318.06 79.13 316.51 77.58 314.18 77.58C311.85 77.58 310.30 79.90 310.30 82.23C310.30 86.11 318.06 93.09 318.06 93.09C318.06 93.09 325.82 86.11 325.82 82.23C325.82 79.90 324.27 77.58 321.94 77.58C319.61 77.58 318.06 79.13 318.06 80.68Z M349.09 80.68C349.09 79.13 347.54 77.58 345.21 77.58C342.88 77.58 341.33 79.90 341.33 82.23C341.33 86.11 349.09 93.09 349.09 93.09C349.09 93.09 356.85 86.11 356.85 82.23C356.85 79.90 355.30 77.58 352.97 77.58C350.64 77.58 349.09 79.13 349.09 80.68Z M442.18 80.68C442.18 79.13 440.63 77.58 438.30 77.58C435.98 77.58 434.42 79.90 434.42 82.23C434.42 86.11 442.18 93.09 442.18 93.09C442.18 93.09 449.94 86.11 449.94 82.23C449.94 79.90 448.39 77.58 446.06 77.58C443.73 77.58 442.18 79.13 442.18 80.68Z M69.82 96.19C69.82 94.64 68.27 93.09 65.94 93.09C63.61 93.09 62.06 95.42 62.06 97.75C62.06 101.62 69.82 108.61 69.82 108.61C69.82 108.61 77.58 101.62 77.58 97.75C77.58 95.42 76.02 93.09 73.70 93.09C71.37 93.09 69.82 94.64 69.82 96.19Z M100.85 96.19C100.85 94.64 99.30 93.09 96.97 93.09C94.64 93.09 93.09 95.42 93.09 97.75C93.09 101.62 100.85 108.61 100.85 108.61C100.85 108.61 108.61 101.62 108.61 97.75C108.61 95.42 107.05 93.09 104.73 93.09C102.40 93.09 100.85 94.64 100.85 96.19Z M116.36 96.19C116.36 94.64 114.81 93.09 112.48 93.09C110.16 93.09 108.61 95.42 108.61 97.75C108.61 101.62 116.36 108.61 116.36 108.61C116.36 108.61 124.12 101.62 124.12 97.75C124.12 95.42 122.57 93.09 120.24 93.09C117.92 93.09 116.36 94.64 116.36 96.19Z M131.88 96.19C131.88 94.64 130.33 93.09 128.00 93.09C125.67 93.09 124.12 95.42 124.12 97.75C124.12 101.62 131.88 108.61 131.88 108.61C131.88 108.61 139.64 101.62 139.64 97.75C139.64 95.42 138.08 93.09 135.76 93.09C133.43 93.09 131.88 94.64 131.88 96.19Z M162.91 96.19C162.91 94.64 161.36 93.09 159.03 93.09C156.70 93.09 155.15 95.42 155.15 97.75C155.15 101.62 162.91 108.61 162.91 108.61C162.91 108.61 170.67 101.62 170.67 97.75C170.67 95.42 169.12 93.09 166.79 93.09C164.46 93.09 162.91 94.64 162.91 96.19Z M209.45 96.19C209.45 94.64 207.90 93.09 205.58 93.09C203.25 93.09 201.70 95.42 201.70 97.75C201.70 101.62 209.45 108.61 209.45 108.61C209.45 108.61 217.21 101.62 217.21 97.75C217.21 95.42 215.66 93.09 213.33 93.09C211.01 93.09 209.45 94.64 209.45 96.19Z M224.97 96.19C224.97 94.64 223.42 93.09 221.09 93.09C218.76 93.09 217.21 95.42 217.21 97.75C217.21 101.62 224.97 108.61 224.97 108.61C224.97 108.61 232.73 101.62 232.73 97.75C232.73 95.42 231.18 93.09 228.85 93.09C226.52 93.09 224.97 94.64 224.97 96.19Z M256.00 96.19C256.00 94.64 254.45 93.09 252.12 93.09C249.79 93.09 248.24 95.42 248.24 97.75C248.24 101.62 256.00 108.61 256.00 108.61C256.00 108.61 263.76 101.62 263.76 97.75C263.76 95.42 262.21 93.09 259.88 93.09C257.55 93.09 256.00 94.64 256.00 96.19Z M287.03 96.19C287.03 94.64 285.48 93.09 283.15 93.09C280.82 93.09 279.27 95.42 279.27 97.75C279.27 101.62 287.03 108.61 287.03 108.61C287.03 108.61 294.79 101.62 294.79 97.75C294.79 95.42 293.24 93.09 290.91 93.09C288.58 93.09 287.03 94.64 287.03 96.19Z M349.09 96.19C349.09 94.64 347.54 93.09 345.21 93.09C342.88 93.09 341.33 95.42 341.33 97.75C341.33 101.62 349.09 108.61 349.09 108.61C349.09 108.61 356.85 101.62 356.85 97.75C356.85 95.42 355.30 93.09 352.97 93.09C350.64 93.09 349.09 94.64 349.09 96.19Z M380.12 96.19C380.12 94.64 378.57 93.09 376.24 93.09C373.92 93.09 372.36 95.42 372.36 97.75C372.36 101.62 380.12 108.61 380.12 108.61C380.12 108.61 387.88 101.62 387.88 97.75C387.88 95.42 386.33 93.09 384.00 93.09C381.67 93.09 380.12 94.64 380.12 96.19Z M395.64 96.19C395.64 94.64 394.08 93.09 391.76 93.09C389.43 93.09 387.88 95.42 387.88 97.75C387.88 101.62 395.64 108.61 395.64 108.61C395.64 108.61 403.39 101.62 403.39 97.75C403.39 95.42 401.84 93.09 399.52 93.09C397.19 93.09 395.64 94.64 395.64 96.19Z M411.15 96.19C411.15 94.64 409.60 93.09 407.27 93.09C404.95 93.09 403.39 95.42 403.39 97.75C403.39 101.62 411.15 108.61 411.15 108.61C411.15 108.61 418.91 101.62 418.91 97.75C418.91 95.42 417.36 93.09 415.03 93.09C412.70 93.09 411.15 94.64 411.15 96.19Z M442.18 96.19C442.18 94.64 440.63 93.09 438.30 93.09C435.98 93.09 434.42 95.42 434.42 97.75C434.42 101.62 442.18 108.61 442.18 108.61C442.18 108.61 449.94 101.62 449.94 97.75C449.94 95.42 448.39 93.09 446.06 93.09C443.73 93.09 442.18 94.64 442.18 96.19Z M69.82 111.71C69.82 110.16 68.27 108.61 65.94 108.61C63.61 108.61 62.06 110.93 62.06 113.26C62.06 117.14 69.82 124.12 69.82 124.12C69.82 124.12 77.58 117.14 77.58 113.26C77.58 110.93 76.02 108.61 73.70 108.61C71.37 108.61 69.82 110.16 69.82 111.71Z M100.85 111.71C100.85 110.16 99.30 108.61 96.97 108.61C94.64 108.61 93.09 110.93 93.09 113.26C93.09 117.14 100.85 124.12 100.85 124.12C100.85 124.12 108.61 117.14 108.61 113.26C108.61 110.93 107.05 108.61 104.73 108.61C102.40 108.61 100.85 110.16 100.85 111.71Z M116.36 111.71C116.36 110.16 114.81 108.61 112.48 108.61C110.16 108.61 108.61 110.93 108.61 113.26C108.61 117.14 116.36 124.12 116.36 124.12C116.36 124.12 124.12 117.14 124.12 113.26C124.12 110.93 122.57 108.61 120.24 108.61C117.92 108.61 116.36 110.16 116.36 111.71Z M131.88 111.71C131.88 110.16 130.33 108.61 128.00 108.61C125.67 108.61 124.12 110.93 124.12 113.26C124.12 117.14 131.88 124.12 131.88 124.12C131.88 124.12 139.64 117.14 139.64 113.26C139.64 110.93 138.08 108.61 135.76 108.61C133.43 108.61 131.88 110.16 131.88 111.71Z M162.91 111.71C162.91 110.16 161.36 108.61 159.03 108.61C156.70 108.61 155.15 110.93 155.15 113.26C155.15 117.14 162.91 124.12 162.91 124.12C162.91 124.12 170.67 117.14 170.67 113.26C170.67 110.93 169.12 108.61 166.79 108.61C164.46 108.61 162.91 110.16 162.91 111.71Z M318.06 111.71C318.06 110.16 316.51 108.61 314.18 108.61C311.85 108.61 310.30 110.93 310.30 113.26C310.30 117.14 318.06 124.12 318.06 124.12C318.06 124.12 325.82 117.14 325.82 113.26C325.82 110.93 324.27 108.61 321.94 108.61C319.61 108.61 318.06 110.16 318.06 111.71Z M349.09 111.71C349.09 110.16 347.54 108.61 345.21 108.61C342.88 108.61 341.33 110.93 341.33 113.26C341.33 117.14 349.09 124.12 349.09 124.12C349.09 124.12 356.85 117.14 356.85 113.26C356.85 110.93 355.30 108.61 352.97 108.61C350.64 108.61 349.09 110.16 349.09 111.71Z M380.12 111.71C380.12 110.16 378.57 108.61 376.24 108.61C373.92 108.61 372.36 110.93 372.36 113.26C372.36 117.14 380.12 124.12 380.12 124.12C380.12 124.12 387.88 117.14 387.88 113.26C387.88 110.93 386.33 108.61 384.00 108.61C381.67 108.61 380.12 110.16 380.12 111.71Z M395.64 111.71C395.64 110.16 394.08 108.61 391.76 108.61C389.43 108.61 387.88 110.93 387.88 113.26C387.88 117.14 395.64 124.12 395.64 124.12C395.64 124.12 403.39 117.14 403.39 113.26C403.39 110.93 401.84 108.61 399.52 108.61C397.19 108.61 395.64 110.16 395.64 111.71Z M411.15 111.71C411.15 110.16 409.60 108.61 407.27 108.61C404.95 108.61 403.39 110.93 403.39 113.26C403.39 117.14 411.15 124.12 411.15 124.12C411.15 124.12 418.91 117.14 418.91 113.26C418.91 110.93 417.36 108.61 415.03 108.61C412.70 108.61 411.15 110.16 411.15 111.71Z M442.18 111.71C442.18 110.16 440.63 108.61 438.30 108.61C435.98 108.61 434.42 110.93 434.42 113.26C434.42 117.14 442.18 124.12 442.18 124.12C442.18 124.12 449.94 117.14 449.94 113.26C449.94 110.93 448.39 108.61 446.06 108.61C443.73 108.61 442.18 110.16 442.18 111.71Z M69.82 127.22C69.82 125.67 68.27 124.12 65.94 124.12C63.61 124.12 62.06 126.45 62.06 128.78C62.06 132.65 69.82 139.64 69.82 139.64C69.82 139.64 77.58 132.65 77.58 128.78C77.58 126.45 76.02 124.12 73.70 124.12C71.37 124.12 69.82 125.67 69.82 127.22Z M100.85 127.22C100.85 125.67 99.30 124.12 96.97 124.12C94.64 124.12 93.09 126.45 93.09 128.78C93.09 132.65 100.85 139.64 100.85 139.64C100.85 139.64 108.61 132.65 108.61 128.78C108.61 126.45 107.05 124.12 104.73 124.12C102.40 124.12 100.85 125.67 100.85 127.22Z M116.36 127.22C116.36 125.67 114.81 124.12 112.48 124.12C110.16 124.12 108.61 126.45 108.61 128.78C108.61 132.65 116.36 139.64 116.36 139.64C116.36 139.64 124.12 132.65 124.12 128.78C124.12 126.45 122.57 124.12 120.24 124.12C117.92 124.12 116.36 125.67 116.36 127.22Z M131.88 127.22C131.88 125.67 130.33 124.12 128.00 124.12C125.67 124.12 124.12 126.45 124.12 128.78C124.12 132.65 131.88 139.64 131.88 139.64C131.88 139.64 139.64 132.65 139.64 128.78C139.64 126.45 138.08 124.12 135.76 124.12C133.43 124.12 131.88 125.67 131.88 127.22Z M162.91 127.22C162.91 125.67 161.36 124.12 159.03 124.12C156.70 124.12 155.15 126.45 155.15 128.78C155.15 132.65 162.91 139.64 162.91 139.64C162.91 139.64 170.67 132.65 170.67 128.78C170.67 126.45 169.12 124.12 166.79 124.12C164.46 124.12 162.91 125.67 162.91 127.22Z M193.94 127.22C193.94 125.67 192.39 124.12 190.06 124.12C187.73 124.12 186.18 126.45 186.18 128.78C186.18 132.65 193.94 139.64 193.94 139.64C193.94 139.64 201.70 132.65 201.70 128.78C201.70 126.45 200.15 124.12 197.82 124.12C195.49 124.12 193.94 125.67 193.94 127.22Z M209.45 127.22C209.45 125.67 207.90 124.12 205.58 124.12C203.25 124.12 201.70 126.45 201.70 128.78C201.70 132.65 209.45 139.64 209.45 139.64C209.45 139.64 217.21 132.65 217.21 128.78C217.21 126.45 215.66 124.12 213.33 124.12C211.01 124.12 209.45 125.67 209.45 127.22Z M240.48 127.22C240.48 125.67 238.93 124.12 236.61 124.12C234.28 124.12 232.73 126.45 232.73 128.78C232.73 132.65 240.48 139.64 240.48 139.64C240.48 139.64 248.24 132.65 248.24 128.78C248.24 126.45 246.69 124.12 244.36 124.12C242.04 124.12 240.48 125.67 240.48 127.22Z M256.00 127.22C256.00 125.67 254.45 124.12 252.12 124.12C249.79 124.12 248.24 126.45 248.24 128.78C248.24 132.65 256.00 139.64 256.00 139.64C256.00 139.64 263.76 132.65 263.76 128.78C263.76 126.45 262.21 124.12 259.88 124.12C257.55 124.12 256.00 125.67 256.00 127.22Z M287.03 127.22C287.03 125.67 285.48 124.12 283.15 124.12C280.82 124.12 279.27 126.45 279.27 128.78C279.27 132.65 287.03 139.64 287.03 139.64C287.03 139.64 294.79 132.65 294.79 128.78C294.79 126.45 293.24 124.12 290.91 124.12C288.58 124.12 287.03 125.67 287.03 127.22Z M302.55 127.22C302.55 125.67 300.99 124.12 298.67 124.12C296.34 124.12 294.79 126.45 294.79 128.78C294.79 132.65 302.55 139.64 302.55 139.64C302.55 139.64 310.30 132.65 310.30 128.78C310.30 126.45 308.75 124.12 306.42 124.12C304.10 124.12 302.55 125.67 302.55 127.22Z M318.06 127.22C318.06 125.67 316.51 124.12 314.18 124.12C311.85 124.12 310.30 126.45 310.30 128.78C310.30 132.65 318.06 139.64 318.06 139.64C318.06 139.64 325.82 132.65 325.82 128.78C325.82 126.45 324.27 124.12 321.94 124.12C319.61 124.12 318.06 125.67 318.06 127.22Z M349.09 127.22C349.09 125.67 347.54 124.12 345.21 124.12C342.88 124.12 341.33 126.45 341.33 128.78C341.33 132.65 349.09 139.64 349.09 139.64C349.09 139.64 356.85 132.65 356.85 128.78C356.85 126.45 355.30 124.12 352.97 124.12C350.64 124.12 349.09 125.67 349.09 127.22Z M380.12 127.22C380.12 125.67 378.57 124.12 376.24 124.12C373.92 124.12 372.36 126.45 372.36 128.78C372.36 132.65 380.12 139.64 380.12 139.64C380.12 139.64 387.88 132.65 387.88 128.78C387.88 126.45 386.33 124.12 384.00 124.12C381.67 124.12 380.12 125.67 380.12 127.22Z M395.64 127.22C395.64 125.67 394.08 124.12 391.76 124.12C389.43 124.12 387.88 126.45 387.88 128.78C387.88 132.65 395.64 139.64 395.64 139.64C395.64 139.64 403.39 132.65 403.39 128.78C403.39 126.45 401.84 124.12 399.52 124.12C397.19 124.12 395.64 125.67 395.64 127.22Z M411.15 127.22C411.15 125.67 409.60 124.12 407.27 124.12C404.95 124.12 403.39 126.45 403.39 128.78C403.39 132.65 411.15 139.64 411.15 139.64C411.15 139.64 418.91 132.65 418.91 128.78C418.91 126.45 417.36 124.12 415.03 124.12C412.70 124.12 411.15 125.67 411.15 127.22Z M442.18 127.22C442.18 125.67 440.63 124.12 438.30 124.12C435.98 124.12 434.42 126.45 434.42 128.78C434.42 132.65 442.18 139.64 442.18 139.64C442.18 139.64 449.94 132.65 449.94 128.78C449.94 126.45 448.39 124.12 446.06 124.12C443.73 124.12 442.18 125.67 442.18 127.22Z M69.82 142.74C69.82 141.19 68.27 139.64 65.94 139.64C63.61 139.64 62.06 141.96 62.06 144.29C62.06 148.17 69.82 155.15 69.82 155.15C69.82 155.15 77.58 148.17 77.58 144.29C77.58 141.96 76.02 139.64 73.70 139.64C71.37 139.64 69.82 141.19 69.82 142.74Z M162.91 142.74C162.91 141.19 161.36 139.64 159.03 139.64C156.70 139.64 155.15 141.96 155.15 144.29C155.15 148.17 162.91 155.15 162.91 155.15C162.91 155.15 170.67 148.17 170.67 144.29C170.67 141.96 169.12 139.64 166.79 139.64C164.46 139.64 162.91 141.19 162.91 142.74Z M224.97 142.74C224.97 141.19 223.42 139.64 221.09 139.64C218.76 139.64 217.21 141.96 217.21 144.29C217.21 148.17 224.97 155.15 224.97 155.15C224.97 155.15 232.73 148.17 232.73 144.29C232.73 141.96 231.18 139.64 228.85 139.64C226.52 139.64 224.97 141.19 224.97 142.74Z M240.48 142.74C240.48 141.19 238.93 139.64 236.61 139.64C234.28 139.64 232.73 141.96 232.73 144.29C232.73 148.17 240.48 155.15 240.48 155.15C240.48 155.15 248.24 148.17 248.24 144.29C248.24 141.96 246.69 139.64 244.36 139.64C242.04 139.64 240.48 141.19 240.48 142.74Z M318.06 142.74C318.06 141.19 316.51 139.64 314.18 139.64C311.85 139.64 310.30 141.96 310.30 144.29C310.30 148.17 318.06 155.15 318.06 155.15C318.06 155.15 325.82 148.17 325.82 144.29C325.82 141.96 324.27 139.64 321.94 139.64C319.61 139.64 318.06 141.19 318.06 142.74Z M349.09 142.74C349.09 141.19 347.54 139.64 345.21 139.64C342.88 139.64 341.33 141.96 341.33 144.29C341.33 148.17 349.09 155.15 349.09 155.15C349.09 155.15 356.85 148.17 356.85 144.29C356.85 141.96 355.30 139.64 352.97 139.64C350.64 139.64 349.09 141.19 349.09 142.74Z M442.18 142.74C442.18 141.19 440.63 139.64 438.30 139.64C435.98 139.64 434.42 141.96 434.42 144.29C434.42 148.17 442.18 155.15 442.18 155.15C442.18 155.15 449.94 148.17 449.94 144.29C449.94 141.96 448.39 139.64 446.06 139.64C443.73 139.64 442.18 141.19 442.18 142.74Z M69.82 158.25C69.82 156.70 68.27 155.15 65.94 155.15C63.61 155.15 62.06 157.48 62.06 159.81C62.06 163.68 69.82 170.67 69.82 170.67C69.82 170.67 77.58 163.68 77.58 159.81C77.58 157.48 76.02 155.15 73.70 155.15C71.37 155.15 69.82 156.70 69.82 158.25Z M85.33 158.25C85.33 156.70 83.78 155.15 81.45 155.15C79.13 155.15 77.58 157.48 77.58 159.81C77.58 163.68 85.33 170.67 85.33 170.67C85.33 170.67 93.09 163.68 93.09 159.81C93.09 157.48 91.54 155.15 89.21 155.15C86.88 155.15 85.33 156.70 85.33 158.25Z M100.85 158.25C100.85 156.70 99.30 155.15 96.97 155.15C94.64 155.15 93.09 157.48 93.09 159.81C93.09 163.68 100.85 170.67 100.85 170.67C100.85 170.67 108.61 163.68 108.61 159.81C108.61 157.48 107.05 155.15 104.73 155.15C102.40 155.15 100.85 156.70 100.85 158.25Z M116.36 158.25C116.36 156.70 114.81 155.15 112.48 155.15C110.16 155.15 108.61 157.48 108.61 159.81C108.61 163.68 116.36 170.67 116.36 170.67C116.36 170.67 124.12 163.68 124.12 159.81C124.12 157.48 122.57 155.15 120.24 155.15C117.92 155.15 116.36 156.70 116.36 158.25Z M131.88 158.25C131.88 156.70 130.33 155.15 128.00 155.15C125.67 155.15 124.12 157.48 124.12 159.81C124.12 163.68 131.88 170.67 131.88 170.67C131.88 170.67 139.64 163.68 139.64 159.81C139.64 157.48 138.08 155.15 135.76 155.15C133.43 155.15 131.88 156.70 131.88 158.25Z M147.39 158.25C147.39 156.70 145.84 155.15 143.52 155.15C141.19 155.15 139.64 157.48 139.64 159.81C139.64 163.68 147.39 170.67 147.39 170.67C147.39 170.67 155.15 163.68 155.15 159.81C155.15 157.48 153.60 155.15 151.27 155.15C148.95 155.15 147.39 156.70 147.39 158.25Z M162.91 158.25C162.91 156.70 161.36 155.15 159.03 155.15C156.70 155.15 155.15 157.48 155.15 159.81C155.15 163.68 162.91 170.67 162.91 170.67C162.91 170.67 170.67 163.68 170.67 159.81C170.67 157.48 169.12 155.15 166.79 155.15C164.46 155.15 162.91 156.70 162.91 158.25Z M193.94 158.25C193.94 156.70 192.39 155.15 190.06 155.15C187.73 155.15 186.18 157.48 186.18 159.81C186.18 163.68 193.94 170.67 193.94 170.67C193.94 170.67 201.70 163.68 201.70 159.81C201.70 157.48 200.15 155.15 197.82 155.15C195.49 155.15 193.94 156.70 193.94 158.25Z M224.97 158.25C224.97 156.70 223.42 155.15 221.09 155.15C218.76 155.15 217.21 157.48 217.21 159.81C217.21 163.68 224.97 170.67 224.97 170.67C224.97 170.67 232.73 163.68 232.73 159.81C232.73 157.48 231.18 155.15 228.85 155.15C226.52 155.15 224.97 156.70 224.97 158.25Z M256.00 158.25C256.00 156.70 254.45 155.15 252.12 155.15C249.79 155.15 248.24 157.48 248.24 159.81C248.24 163.68 256.00 170.67 256.00 170.67C256.00 170.67 263.76 163.68 263.76 159.81C263.76 157.48 262.21 155.15 259.88 155.15C257.55 155.15 256.00 156.70 256.00 158.25Z M287.03 158.25C287.03 156.70 285.48 155.15 283.15 155.15C280.82 155.15 279.27 157.48 279.27 159.81C279.27 163.68 287.03 170.67 287.03 170.67C287.03 170.67 294.79 163.68 294.79 159.81C294.79 157.48 293.24 155.15 290.91 155.15C288.58 155.15 287.03 156.70 287.03 158.25Z M318.06 158.25C318.06 156.70 316.51 155.15 314.18 155.15C311.85 155.15 310.30 157.48 310.30 159.81C310.30 163.68 318.06 170.67 318.06 170.67C318.06 170.67 325.82 163.68 325.82 159.81C325.82 157.48 324.27 155.15 321.94 155.15C319.61 155.15 318.06 156.70 318.06 158.25Z M349.09 158.25C349.09 156.70 347.54 155.15 345.21 155.15C342.88 155.15 341.33 157.48 341.33 159.81C341.33 163.68 349.09 170.67 349.09 170.67C349.09 170.67 356.85 163.68 356.85 159.81C356.85 157.48 355.30 155.15 352.97 155.15C350.64 155.15 349.09 156.70 349.09 158.25Z M364.61 158.25C364.61 156.70 363.05 155.15 360.73 155.15C358.40 155.15 356.85 157.48 356.85 159.81C356.85 163.68 364.61 170.67 364.61 170.67C364.61 170.67 372.36 163.68 372.36 159.81C372.36 157.48 370.81 155.15 368.48 155.15C366.16 155.15 364.61 156.70 364.61 158.25Z M380.12 158.25C380.12 156.70 378.57 155.15 376.24 155.15C373.92 155.15 372.36 157.48 372.36 159.81C372.36 163.68 380.12 170.67 380.12 170.67C380.12 170.67 387.88 163.68 387.88 159.81C387.88 157.48 386.33 155.15 384.00 155.15C381.67 155.15 380.12 156.70 380.12 158.25Z M395.64 158.25C395.64 156.70 394.08 155.15 391.76 155.15C389.43 155.15 387.88 157.48 387.88 159.81C387.88 163.68 395.64 170.67 395.64 170.67C395.64 170.67 403.39 163.68 403.39 159.81C403.39 157.48 401.84 155.15 399.52 155.15C397.19 155.15 395.64 156.70 395.64 158.25Z M411.15 158.25C411.15 156.70 409.60 155.15 407.27 155.15C404.95 155.15 403.39 157.48 403.39 159.81C403.39 163.68 411.15 170.67 411.15 170.67C411.15 170.67 418.91 163.68 418.91 159.81C418.91 157.48 417.36 155.15 415.03 155.15C412.70 155.15 411.15 156.70 411.15 158.25Z M426.67 158.25C426.67 156.70 425.12 155.15 422.79 155.15C420.46 155.15 418.91 157.48 418.91 159.81C418.91 163.68 426.67 170.67 426.67 170.67C426.67 170.67 434.42 163.68 434.42 159.81C434.42 157.48 432.87 155.15 430.55 155.15C428.22 155.15 426.67 156.70 426.67 158.25Z M442.18 158.25C442.18 156.70 440.63 155.15 438.30 155.15C435.98 155.15 434.42 157.48 434.42 159.81C434.42 163.68 442.18 170.67 442.18 170.67C442.18 170.67 449.94 163.68 449.94 159.81C449.94 157.48 448.39 155.15 446.06 155.15C443.73 155.15 442.18 156.70 442.18 158.25Z M193.94 173.77C193.94 172.22 192.39 170.67 190.06 170.67C187.73 170.67 186.18 172.99 186.18 175.32C186.18 179.20 193.94 186.18 193.94 186.18C193.94 186.18 201.70 179.20 201.70 175.32C201.70 172.99 200.15 170.67 197.82 170.67C195.49 170.67 193.94 172.22 193.94 173.77Z M209.45 173.77C209.45 172.22 207.90 170.67 205.58 170.67C203.25 170.67 201.70 172.99 201.70 175.32C201.70 179.20 209.45 186.18 209.45 186.18C209.45 186.18 217.21 179.20 217.21 175.32C217.21 172.99 215.66 170.67 213.33 170.67C211.01 170.67 209.45 172.22 209.45 173.77Z M256.00 173.77C256.00 172.22 254.45 170.67 252.12 170.67C249.79 170.67 248.24 172.99 248.24 175.32C248.24 179.20 256.00 186.18 256.00 186.18C256.00 186.18 263.76 179.20 263.76 175.32C263.76 172.99 262.21 170.67 259.88 170.67C257.55 170.67 256.00 172.22 256.00 173.77Z M271.52 173.77C271.52 172.22 269.96 170.67 267.64 170.67C265.31 170.67 263.76 172.99 263.76 175.32C263.76 179.20 271.52 186.18 271.52 186.18C271.52 186.18 279.27 179.20 279.27 175.32C279.27 172.99 277.72 170.67 275.39 170.67C273.07 170.67 271.52 172.22 271.52 173.77Z M318.06 173.77C318.06 172.22 316.51 170.67 314.18 170.67C311.85 170.67 310.30 172.99 310.30 175.32C310.30 179.20 318.06 186.18 318.06 186.18C318.06 186.18 325.82 179.20 325.82 175.32C325.82 172.99 324.27 170.67 321.94 170.67C319.61 170.67 318.06 172.22 318.06 173.77Z M69.82 189.28C69.82 187.73 68.27 186.18 65.94 186.18C63.61 186.18 62.06 188.51 62.06 190.84C62.06 194.72 69.82 201.70 69.82 201.70C69.82 201.70 77.58 194.72 77.58 190.84C77.58 188.51 76.02 186.18 73.70 186.18C71.37 186.18 69.82 187.73 69.82 189.28Z M116.36 189.28C116.36 187.73 114.81 186.18 112.48 186.18C110.16 186.18 108.61 188.51 108.61 190.84C108.61 194.72 116.36 201.70 116.36 201.70C116.36 201.70 124.12 194.72 124.12 190.84C124.12 188.51 122.57 186.18 120.24 186.18C117.92 186.18 116.36 187.73 116.36 189.28Z M131.88 189.28C131.88 187.73 130.33 186.18 128.00 186.18C125.67 186.18 124.12 188.51 124.12 190.84C124.12 194.72 131.88 201.70 131.88 201.70C131.88 201.70 139.64 194.72 139.64 190.84C139.64 188.51 138.08 186.18 135.76 186.18C133.43 186.18 131.88 187.73 131.88 189.28Z M147.39 189.28C147.39 187.73 145.84 186.18 143.52 186.18C141.19 186.18 139.64 188.51 139.64 190.84C139.64 194.72 147.39 201.70 147.39 201.70C147.39 201.70 155.15 194.72 155.15 190.84C155.15 188.51 153.60 186.18 151.27 186.18C148.95 186.18 147.39 187.73 147.39 189.28Z M162.91 189.28C162.91 187.73 161.36 186.18 159.03 186.18C156.70 186.18 155.15 188.51 155.15 190.84C155.15 194.72 162.91 201.70 162.91 201.70C162.91 201.70 170.67 194.72 170.67 190.84C170.67 188.51 169.12 186.18 166.79 186.18C164.46 186.18 162.91 187.73 162.91 189.28Z M178.42 189.28C178.42 187.73 176.87 186.18 174.55 186.18C172.22 186.18 170.67 188.51 170.67 190.84C170.67 194.72 178.42 201.70 178.42 201.70C178.42 201.70 186.18 194.72 186.18 190.84C186.18 188.51 184.63 186.18 182.30 186.18C179.98 186.18 178.42 187.73 178.42 189.28Z M193.94 189.28C193.94 187.73 192.39 186.18 190.06 186.18C187.73 186.18 186.18 188.51 186.18 190.84C186.18 194.72 193.94 201.70 193.94 201.70C193.94 201.70 201.70 194.72 201.70 190.84C201.70 188.51 200.15 186.18 197.82 186.18C195.49 186.18 193.94 187.73 193.94 189.28Z M209.45 189.28C209.45 187.73 207.90 186.18 205.58 186.18C203.25 186.18 201.70 188.51 201.70 190.84C201.70 194.72 209.45 201.70 209.45 201.70C209.45 201.70 217.21 194.72 217.21 190.84C217.21 188.51 215.66 186.18 213.33 186.18C211.01 186.18 209.45 187.73 209.45 189.28Z M271.52 189.28C271.52 187.73 269.96 186.18 267.64 186.18C265.31 186.18 263.76 188.51 263.76 190.84C263.76 194.72 271.52 201.70 271.52 201.70C271.52 201.70 279.27 194.72 279.27 190.84C279.27 188.51 277.72 186.18 275.39 186.18C273.07 186.18 271.52 187.73 271.52 189.28Z M333.58 189.28C333.58 187.73 332.02 186.18 329.70 186.18C327.37 186.18 325.82 188.51 325.82 190.84C325.82 194.72 333.58 201.70 333.58 201.70C333.58 201.70 341.33 194.72 341.33 190.84C341.33 188.51 339.78 186.18 337.45 186.18C335.13 186.18 333.58 187.73 333.58 189.28Z M349.09 189.28C349.09 187.73 347.54 186.18 345.21 186.18C342.88 186.18 341.33 188.51 341.33 190.84C341.33 194.72 349.09 201.70 349.09 201.70C349.09 201.70 356.85 194.72 356.85 190.84C356.85 188.51 355.30 186.18 352.97 186.18C350.64 186.18 349.09 187.73 349.09 189.28Z M364.61 189.28C364.61 187.73 363.05 186.18 360.73 186.18C358.40 186.18 356.85 188.51 356.85 190.84C356.85 194.72 364.61 201.70 364.61 201.70C364.61 201.70 372.36 194.72 372.36 190.84C372.36 188.51 370.81 186.18 368.48 186.18C366.16 186.18 364.61 187.73 364.61 189.28Z M380.12 189.28C380.12 187.73 378.57 186.18 376.24 186.18C373.92 186.18 372.36 188.51 372.36 190.84C372.36 194.72 380.12 201.70 380.12 201.70C380.12 201.70 387.88 194.72 387.88 190.84C387.88 188.51 386.33 186.18 384.00 186.18C381.67 186.18 380.12 187.73 380.12 189.28Z M395.64 189.28C395.64 187.73 394.08 186.18 391.76 186.18C389.43 186.18 387.88 188.51 387.88 190.84C387.88 194.72 395.64 201.70 395.64 201.70C395.64 201.70 403.39 194.72 403.39 190.84C403.39 188.51 401.84 186.18 399.52 186.18C397.19 186.18 395.64 187.73 395.64 189.28Z M442.18 189.28C442.18 187.73 440.63 186.18 438.30 186.18C435.98 186.18 434.42 188.51 434.42 190.84C434.42 194.72 442.18 201.70 442.18 201.70C442.18 201.70 449.94 194.72 449.94 190.84C449.94 188.51 448.39 186.18 446.06 186.18C443.73 186.18 442.18 187.73 442.18 189.28Z M116.36 204.80C116.36 203.25 114.81 201.70 112.48 201.70C110.16 201.70 108.61 204.02 108.61 206.35C108.61 210.23 116.36 217.21 116.36 217.21C116.36 217.21 124.12 210.23 124.12 206.35C124.12 204.02 122.57 201.70 120.24 201.70C117.92 201.70 116.36 203.25 116.36 204.80Z M193.94 204.80C193.94 203.25 192.39 201.70 190.06 201.70C187.73 201.70 186.18 204.02 186.18 206.35C186.18 210.23 193.94 217.21 193.94 217.21C193.94 217.21 201.70 210.23 201.70 206.35C201.70 204.02 200.15 201.70 197.82 201.70C195.49 201.70 193.94 203.25 193.94 204.80Z M224.97 204.80C224.97 203.25 223.42 201.70 221.09 201.70C218.76 201.70 217.21 204.02 217.21 206.35C217.21 210.23 224.97 217.21 224.97 217.21C224.97 217.21 232.73 210.23 232.73 206.35C232.73 204.02 231.18 201.70 228.85 201.70C226.52 201.70 224.97 203.25 224.97 204.80Z M271.52 204.80C271.52 203.25 269.96 201.70 267.64 201.70C265.31 201.70 263.76 204.02 263.76 206.35C263.76 210.23 271.52 217.21 271.52 217.21C271.52 217.21 279.27 210.23 279.27 206.35C279.27 204.02 277.72 201.70 275.39 201.70C273.07 201.70 271.52 203.25 271.52 204.80Z M287.03 204.80C287.03 203.25 285.48 201.70 283.15 201.70C280.82 201.70 279.27 204.02 279.27 206.35C279.27 210.23 287.03 217.21 287.03 217.21C287.03 217.21 294.79 210.23 294.79 206.35C294.79 204.02 293.24 201.70 290.91 201.70C288.58 201.70 287.03 203.25 287.03 204.80Z M302.55 204.80C302.55 203.25 300.99 201.70 298.67 201.70C296.34 201.70 294.79 204.02 294.79 206.35C294.79 210.23 302.55 217.21 302.55 217.21C302.55 217.21 310.30 210.23 310.30 206.35C310.30 204.02 308.75 201.70 306.42 201.70C304.10 201.70 302.55 203.25 302.55 204.80Z M318.06 204.80C318.06 203.25 316.51 201.70 314.18 201.70C311.85 201.70 310.30 204.02 310.30 206.35C310.30 210.23 318.06 217.21 318.06 217.21C318.06 217.21 325.82 210.23 325.82 206.35C325.82 204.02 324.27 201.70 321.94 201.70C319.61 201.70 318.06 203.25 318.06 204.80Z M380.12 204.80C380.12 203.25 378.57 201.70 376.24 201.70C373.92 201.70 372.36 204.02 372.36 206.35C372.36 210.23 380.12 217.21 380.12 217.21C380.12 217.21 387.88 210.23 387.88 206.35C387.88 204.02 386.33 201.70 384.00 201.70C381.67 201.70 380.12 203.25 380.12 204.80Z M395.64 204.80C395.64 203.25 394.08 201.70 391.76 201.70C389.43 201.70 387.88 204.02 387.88 206.35C387.88 210.23 395.64 217.21 395.64 217.21C395.64 217.21 403.39 210.23 403.39 206.35C403.39 204.02 401.84 201.70 399.52 201.70C397.19 201.70 395.64 203.25 395.64 204.80Z M426.67 204.80C426.67 203.25 425.12 201.70 422.79 201.70C420.46 201.70 418.91 204.02 418.91 206.35C418.91 210.23 426.67 217.21 426.67 217.21C426.67 217.21 434.42 210.23 434.42 206.35C434.42 204.02 432.87 201.70 430.55 201.70C428.22 201.70 426.67 203.25 426.67 204.80Z M69.82 220.32C69.82 218.76 68.27 217.21 65.94 217.21C63.61 217.21 62.06 219.54 62.06 221.87C62.06 225.75 69.82 232.73 69.82 232.73C69.82 232.73 77.58 225.75 77.58 221.87C77.58 219.54 76.02 217.21 73.70 217.21C71.37 217.21 69.82 218.76 69.82 220.32Z M85.33 220.32C85.33 218.76 83.78 217.21 81.45 217.21C79.13 217.21 77.58 219.54 77.58 221.87C77.58 225.75 85.33 232.73 85.33 232.73C85.33 232.73 93.09 225.75 93.09 221.87C93.09 219.54 91.54 217.21 89.21 217.21C86.88 217.21 85.33 218.76 85.33 220.32Z M100.85 220.32C100.85 218.76 99.30 217.21 96.97 217.21C94.64 217.21 93.09 219.54 93.09 221.87C93.09 225.75 100.85 232.73 100.85 232.73C100.85 232.73 108.61 225.75 108.61 221.87C108.61 219.54 107.05 217.21 104.73 217.21C102.40 217.21 100.85 218.76 100.85 220.32Z M116.36 220.32C116.36 218.76 114.81 217.21 112.48 217.21C110.16 217.21 108.61 219.54 108.61 221.87C108.61 225.75 116.36 232.73 116.36 232.73C116.36 232.73 124.12 225.75 124.12 221.87C124.12 219.54 122.57 217.21 120.24 217.21C117.92 217.21 116.36 218.76 116.36 220.32Z M131.88 220.32C131.88 218.76 130.33 217.21 128.00 217.21C125.67 217.21 124.12 219.54 124.12 221.87C124.12 225.75 131.88 232.73 131.88 232.73C131.88 232.73 139.64 225.75 139.64 221.87C139.64 219.54 138.08 217.21 135.76 217.21C133.43 217.21 131.88 218.76 131.88 220.32Z M147.39 220.32C147.39 218.76 145.84 217.21 143.52 217.21C141.19 217.21 139.64 219.54 139.64 221.87C139.64 225.75 147.39 232.73 147.39 232.73C147.39 232.73 155.15 225.75 155.15 221.87C155.15 219.54 153.60 217.21 151.27 217.21C148.95 217.21 147.39 218.76 147.39 220.32Z M162.91 220.32C162.91 218.76 161.36 217.21 159.03 217.21C156.70 217.21 155.15 219.54 155.15 221.87C155.15 225.75 162.91 232.73 162.91 232.73C162.91 232.73 170.67 225.75 170.67 221.87C170.67 219.54 169.12 217.21 166.79 217.21C164.46 217.21 162.91 218.76 162.91 220.32Z M193.94 220.32C193.94 218.76 192.39 217.21 190.06 217.21C187.73 217.21 186.18 219.54 186.18 221.87C186.18 225.75 193.94 232.73 193.94 232.73C193.94 232.73 201.70 225.75 201.70 221.87C201.70 219.54 200.15 217.21 197.82 217.21C195.49 217.21 193.94 218.76 193.94 220.32Z M209.45 220.32C209.45 218.76 207.90 217.21 205.58 217.21C203.25 217.21 201.70 219.54 201.70 221.87C201.70 225.75 209.45 232.73 209.45 232.73C209.45 232.73 217.21 225.75 217.21 221.87C217.21 219.54 215.66 217.21 213.33 217.21C211.01 217.21 209.45 218.76 209.45 220.32Z M240.48 220.32C240.48 218.76 238.93 217.21 236.61 217.21C234.28 217.21 232.73 219.54 232.73 221.87C232.73 225.75 240.48 232.73 240.48 232.73C240.48 232.73 248.24 225.75 248.24 221.87C248.24 219.54 246.69 217.21 244.36 217.21C242.04 217.21 240.48 218.76 240.48 220.32Z M256.00 220.32C256.00 218.76 254.45 217.21 252.12 217.21C249.79 217.21 248.24 219.54 248.24 221.87C248.24 225.75 256.00 232.73 256.00 232.73C256.00 232.73 263.76 225.75 263.76 221.87C263.76 219.54 262.21 217.21 259.88 217.21C257.55 217.21 256.00 218.76 256.00 220.32Z M302.55 220.32C302.55 218.76 300.99 217.21 298.67 217.21C296.34 217.21 294.79 219.54 294.79 221.87C294.79 225.75 302.55 232.73 302.55 232.73C302.55 232.73 310.30 225.75 310.30 221.87C310.30 219.54 308.75 217.21 306.42 217.21C304.10 217.21 302.55 218.76 302.55 220.32Z M318.06 220.32C318.06 218.76 316.51 217.21 314.18 217.21C311.85 217.21 310.30 219.54 310.30 221.87C310.30 225.75 318.06 232.73 318.06 232.73C318.06 232.73 325.82 225.75 325.82 221.87C325.82 219.54 324.27 217.21 321.94 217.21C319.61 217.21 318.06 218.76 318.06 220.32Z M349.09 220.32C349.09 218.76 347.54 217.21 345.21 217.21C342.88 217.21 341.33 219.54 341.33 221.87C341.33 225.75 349.09 232.73 349.09 232.73C349.09 232.73 356.85 225.75 356.85 221.87C356.85 219.54 355.30 217.21 352.97 217.21C350.64 217.21 349.09 218.76 349.09 220.32Z M364.61 220.32C364.61 218.76 363.05 217.21 360.73 217.21C358.40 217.21 356.85 219.54 356.85 221.87C356.85 225.75 364.61 232.73 364.61 232.73C364.61 232.73 372.36 225.75 372.36 221.87C372.36 219.54 370.81 217.21 368.48 217.21C366.16 217.21 364.61 218.76 364.61 220.32Z M380.12 220.32C380.12 218.76 378.57 217.21 376.24 217.21C373.92 217.21 372.36 219.54 372.36 221.87C372.36 225.75 380.12 232.73 380.12 232.73C380.12 232.73 387.88 225.75 387.88 221.87C387.88 219.54 386.33 217.21 384.00 217.21C381.67 217.21 380.12 218.76 380.12 220.32Z M395.64 220.32C395.64 218.76 394.08 217.21 391.76 217.21C389.43 217.21 387.88 219.54 387.88 221.87C387.88 225.75 395.64 232.73 395.64 232.73C395.64 232.73 403.39 225.75 403.39 221.87C403.39 219.54 401.84 217.21 399.52 217.21C397.19 217.21 395.64 218.76 395.64 220.32Z M411.15 220.32C411.15 218.76 409.60 217.21 407.27 217.21C404.95 217.21 403.39 219.54 403.39 221.87C403.39 225.75 411.15 232.73 411.15 232.73C411.15 232.73 418.91 225.75 418.91 221.87C418.91 219.54 417.36 217.21 415.03 217.21C412.70 217.21 411.15 218.76 411.15 220.32Z M69.82 235.83C69.82 234.28 68.27 232.73 65.94 232.73C63.61 232.73 62.06 235.05 62.06 237.38C62.06 241.26 69.82 248.24 69.82 248.24C69.82 248.24 77.58 241.26 77.58 237.38C77.58 235.05 76.02 232.73 73.70 232.73C71.37 232.73 69.82 234.28 69.82 235.83Z M100.85 235.83C100.85 234.28 99.30 232.73 96.97 232.73C94.64 232.73 93.09 235.05 93.09 237.38C93.09 241.26 100.85 248.24 100.85 248.24C100.85 248.24 108.61 241.26 108.61 237.38C108.61 235.05 107.05 232.73 104.73 232.73C102.40 232.73 100.85 234.28 100.85 235.83Z M193.94 235.83C193.94 234.28 192.39 232.73 190.06 232.73C187.73 232.73 186.18 235.05 186.18 237.38C186.18 241.26 193.94 248.24 193.94 248.24C193.94 248.24 201.70 241.26 201.70 237.38C201.70 235.05 200.15 232.73 197.82 232.73C195.49 232.73 193.94 234.28 193.94 235.83Z M209.45 235.83C209.45 234.28 207.90 232.73 205.58 232.73C203.25 232.73 201.70 235.05 201.70 237.38C201.70 241.26 209.45 248.24 209.45 248.24C209.45 248.24 217.21 241.26 217.21 237.38C217.21 235.05 215.66 232.73 213.33 232.73C211.01 232.73 209.45 234.28 209.45 235.83Z M287.03 235.83C287.03 234.28 285.48 232.73 283.15 232.73C280.82 232.73 279.27 235.05 279.27 237.38C279.27 241.26 287.03 248.24 287.03 248.24C287.03 248.24 294.79 241.26 294.79 237.38C294.79 235.05 293.24 232.73 290.91 232.73C288.58 232.73 287.03 234.28 287.03 235.83Z M349.09 235.83C349.09 234.28 347.54 232.73 345.21 232.73C342.88 232.73 341.33 235.05 341.33 237.38C341.33 241.26 349.09 248.24 349.09 248.24C349.09 248.24 356.85 241.26 356.85 237.38C356.85 235.05 355.30 232.73 352.97 232.73C350.64 232.73 349.09 234.28 349.09 235.83Z M364.61 235.83C364.61 234.28 363.05 232.73 360.73 232.73C358.40 232.73 356.85 235.05 356.85 237.38C356.85 241.26 364.61 248.24 364.61 248.24C364.61 248.24 372.36 241.26 372.36 237.38C372.36 235.05 370.81 232.73 368.48 232.73C366.16 232.73 364.61 234.28 364.61 235.83Z M411.15 235.83C411.15 234.28 409.60 232.73 407.27 232.73C404.95 232.73 403.39 235.05 403.39 237.38C403.39 241.26 411.15 248.24 411.15 248.24C411.15 248.24 418.91 241.26 418.91 237.38C418.91 235.05 417.36 232.73 415.03 232.73C412.70 232.73 411.15 234.28 411.15 235.83Z M426.67 235.83C426.67 234.28 425.12 232.73 422.79 232.73C420.46 232.73 418.91 235.05 418.91 237.38C418.91 241.26 426.67 248.24 426.67 248.24C426.67 248.24 434.42 241.26 434.42 237.38C434.42 235.05 432.87 232.73 430.55 232.73C428.22 232.73 426.67 234.28 426.67 235.83Z M69.82 251.35C69.82 249.79 68.27 248.24 65.94 248.24C63.61 248.24 62.06 250.57 62.06 252.90C62.06 256.78 69.82 263.76 69.82 263.76C69.82 263.76 77.58 256.78 77.58 252.90C77.58 250.57 76.02 248.24 73.70 248.24C71.37 248.24 69.82 249.79 69.82 251.35Z M100.85 251.35C100.85 249.79 99.30 248.24 96.97 248.24C94.64 248.24 93.09 250.57 93.09 252.90C93.09 256.78 100.85 263.76 100.85 263.76C100.85 263.76 108.61 256.78 108.61 252.90C108.61 250.57 107.05 248.24 104.73 248.24C102.40 248.24 100.85 249.79 100.85 251.35Z M131.88 251.35C131.88 249.79 130.33 248.24 128.00 248.24C125.67 248.24 124.12 250.57 124.12 252.90C124.12 256.78 131.88 263.76 131.88 263.76C131.88 263.76 139.64 256.78 139.64 252.90C139.64 250.57 138.08 248.24 135.76 248.24C133.43 248.24 131.88 249.79 131.88 251.35Z M147.39 251.35C147.39 249.79 145.84 248.24 143.52 248.24C141.19 248.24 139.64 250.57 139.64 252.90C139.64 256.78 147.39 263.76 147.39 263.76C147.39 263.76 155.15 256.78 155.15 252.90C155.15 250.57 153.60 248.24 151.27 248.24C148.95 248.24 147.39 249.79 147.39 251.35Z M162.91 251.35C162.91 249.79 161.36 248.24 159.03 248.24C156.70 248.24 155.15 250.57 155.15 252.90C155.15 256.78 162.91 263.76 162.91 263.76C162.91 263.76 170.67 256.78 170.67 252.90C170.67 250.57 169.12 248.24 166.79 248.24C164.46 248.24 162.91 249.79 162.91 251.35Z M178.42 251.35C178.42 249.79 176.87 248.24 174.55 248.24C172.22 248.24 170.67 250.57 170.67 252.90C170.67 256.78 178.42 263.76 178.42 263.76C178.42 263.76 186.18 256.78 186.18 252.90C186.18 250.57 184.63 248.24 182.30 248.24C179.98 248.24 178.42 249.79 178.42 251.35Z M209.45 251.35C209.45 249.79 207.90 248.24 205.58 248.24C203.25 248.24 201.70 250.57 201.70 252.90C201.70 256.78 209.45 263.76 209.45 263.76C209.45 263.76 217.21 256.78 217.21 252.90C217.21 250.57 215.66 248.24 213.33 248.24C211.01 248.24 209.45 249.79 209.45 251.35Z M224.97 251.35C224.97 249.79 223.42 248.24 221.09 248.24C218.76 248.24 217.21 250.57 217.21 252.90C217.21 256.78 224.97 263.76 224.97 263.76C224.97 263.76 232.73 256.78 232.73 252.90C232.73 250.57 231.18 248.24 228.85 248.24C226.52 248.24 224.97 249.79 224.97 251.35Z M271.52 251.35C271.52 249.79 269.96 248.24 267.64 248.24C265.31 248.24 263.76 250.57 263.76 252.90C263.76 256.78 271.52 263.76 271.52 263.76C271.52 263.76 279.27 256.78 279.27 252.90C279.27 250.57 277.72 248.24 275.39 248.24C273.07 248.24 271.52 249.79 271.52 251.35Z M287.03 251.35C287.03 249.79 285.48 248.24 283.15 248.24C280.82 248.24 279.27 250.57 279.27 252.90C279.27 256.78 287.03 263.76 287.03 263.76C287.03 263.76 294.79 256.78 294.79 252.90C294.79 250.57 293.24 248.24 290.91 248.24C288.58 248.24 287.03 249.79 287.03 251.35Z M302.55 251.35C302.55 249.79 300.99 248.24 298.67 248.24C296.34 248.24 294.79 250.57 294.79 252.90C294.79 256.78 302.55 263.76 302.55 263.76C302.55 263.76 310.30 256.78 310.30 252.90C310.30 250.57 308.75 248.24 306.42 248.24C304.10 248.24 302.55 249.79 302.55 251.35Z M333.58 251.35C333.58 249.79 332.02 248.24 329.70 248.24C327.37 248.24 325.82 250.57 325.82 252.90C325.82 256.78 333.58 263.76 333.58 263.76C333.58 263.76 341.33 256.78 341.33 252.90C341.33 250.57 339.78 248.24 337.45 248.24C335.13 248.24 333.58 249.79 333.58 251.35Z M349.09 251.35C349.09 249.79 347.54 248.24 345.21 248.24C342.88 248.24 341.33 250.57 341.33 252.90C341.33 256.78 349.09 263.76 349.09 263.76C349.09 263.76 356.85 256.78 356.85 252.90C356.85 250.57 355.30 248.24 352.97 248.24C350.64 248.24 349.09 249.79 349.09 251.35Z M364.61 251.35C364.61 249.79 363.05 248.24 360.73 248.24C358.40 248.24 356.85 250.57 356.85 252.90C356.85 256.78 364.61 263.76 364.61 263.76C364.61 263.76 372.36 256.78 372.36 252.90C372.36 250.57 370.81 248.24 368.48 248.24C366.16 248.24 364.61 249.79 364.61 251.35Z M395.64 251.35C395.64 249.79 394.08 248.24 391.76 248.24C389.43 248.24 387.88 250.57 387.88 252.90C387.88 256.78 395.64 263.76 395.64 263.76C395.64 263.76 403.39 256.78 403.39 252.90C403.39 250.57 401.84 248.24 399.52 248.24C397.19 248.24 395.64 249.79 395.64 251.35Z M411.15 251.35C411.15 249.79 409.60 248.24 407.27 248.24C404.95 248.24 403.39 250.57 403.39 252.90C403.39 256.78 411.15 263.76 411.15 263.76C411.15 263.76 418.91 256.78 418.91 252.90C418.91 250.57 417.36 248.24 415.03 248.24C412.70 248.24 411.15 249.79 411.15 251.35Z M426.67 251.35C426.67 249.79 425.12 248.24 422.79 248.24C420.46 248.24 418.91 250.57 418.91 252.90C418.91 256.78 426.67 263.76 426.67 263.76C426.67 263.76 434.42 256.78 434.42 252.90C434.42 250.57 432.87 248.24 430.55 248.24C428.22 248.24 426.67 249.79 426.67 251.35Z M442.18 251.35C442.18 249.79 440.63 248.24 438.30 248.24C435.98 248.24 434.42 250.57 434.42 252.90C434.42 256.78 442.18 263.76 442.18 263.76C442.18 263.76 449.94 256.78 449.94 252.90C449.94 250.57 448.39 248.24 446.06 248.24C443.73 248.24 442.18 249.79 442.18 251.35Z M69.82 266.86C69.82 265.31 68.27 263.76 65.94 263.76C63.61 263.76 62.06 266.08 62.06 268.41C62.06 272.29 69.82 279.27 69.82 279.27C69.82 279.27 77.58 272.29 77.58 268.41C77.58 266.08 76.02 263.76 73.70 263.76C71.37 263.76 69.82 265.31 69.82 266.86Z M85.33 266.86C85.33 265.31 83.78 263.76 81.45 263.76C79.13 263.76 77.58 266.08 77.58 268.41C77.58 272.29 85.33 279.27 85.33 279.27C85.33 279.27 93.09 272.29 93.09 268.41C93.09 266.08 91.54 263.76 89.21 263.76C86.88 263.76 85.33 265.31 85.33 266.86Z M116.36 266.86C116.36 265.31 114.81 263.76 112.48 263.76C110.16 263.76 108.61 266.08 108.61 268.41C108.61 272.29 116.36 279.27 116.36 279.27C116.36 279.27 124.12 272.29 124.12 268.41C124.12 266.08 122.57 263.76 120.24 263.76C117.92 263.76 116.36 265.31 116.36 266.86Z M131.88 266.86C131.88 265.31 130.33 263.76 128.00 263.76C125.67 263.76 124.12 266.08 124.12 268.41C124.12 272.29 131.88 279.27 131.88 279.27C131.88 279.27 139.64 272.29 139.64 268.41C139.64 266.08 138.08 263.76 135.76 263.76C133.43 263.76 131.88 265.31 131.88 266.86Z M147.39 266.86C147.39 265.31 145.84 263.76 143.52 263.76C141.19 263.76 139.64 266.08 139.64 268.41C139.64 272.29 147.39 279.27 147.39 279.27C147.39 279.27 155.15 272.29 155.15 268.41C155.15 266.08 153.60 263.76 151.27 263.76C148.95 263.76 147.39 265.31 147.39 266.86Z M193.94 266.86C193.94 265.31 192.39 263.76 190.06 263.76C187.73 263.76 186.18 266.08 186.18 268.41C186.18 272.29 193.94 279.27 193.94 279.27C193.94 279.27 201.70 272.29 201.70 268.41C201.70 266.08 200.15 263.76 197.82 263.76C195.49 263.76 193.94 265.31 193.94 266.86Z M209.45 266.86C209.45 265.31 207.90 263.76 205.58 263.76C203.25 263.76 201.70 266.08 201.70 268.41C201.70 272.29 209.45 279.27 209.45 279.27C209.45 279.27 217.21 272.29 217.21 268.41C217.21 266.08 215.66 263.76 213.33 263.76C211.01 263.76 209.45 265.31 209.45 266.86Z M224.97 266.86C224.97 265.31 223.42 263.76 221.09 263.76C218.76 263.76 217.21 266.08 217.21 268.41C217.21 272.29 224.97 279.27 224.97 279.27C224.97 279.27 232.73 272.29 232.73 268.41C232.73 266.08 231.18 263.76 228.85 263.76C226.52 263.76 224.97 265.31 224.97 266.86Z M256.00 266.86C256.00 265.31 254.45 263.76 252.12 263.76C249.79 263.76 248.24 266.08 248.24 268.41C248.24 272.29 256.00 279.27 256.00 279.27C256.00 279.27 263.76 272.29 263.76 268.41C263.76 266.08 262.21 263.76 259.88 263.76C257.55 263.76 256.00 265.31 256.00 266.86Z M302.55 266.86C302.55 265.31 300.99 263.76 298.67 263.76C296.34 263.76 294.79 266.08 294.79 268.41C294.79 272.29 302.55 279.27 302.55 279.27C302.55 279.27 310.30 272.29 310.30 268.41C310.30 266.08 308.75 263.76 306.42 263.76C304.10 263.76 302.55 265.31 302.55 266.86Z M380.12 266.86C380.12 265.31 378.57 263.76 376.24 263.76C373.92 263.76 372.36 266.08 372.36 268.41C372.36 272.29 380.12 279.27 380.12 279.27C380.12 279.27 387.88 272.29 387.88 268.41C387.88 266.08 386.33 263.76 384.00 263.76C381.67 263.76 380.12 265.31 380.12 266.86Z M426.67 266.86C426.67 265.31 425.12 263.76 422.79 263.76C420.46 263.76 418.91 266.08 418.91 268.41C418.91 272.29 426.67 279.27 426.67 279.27C426.67 279.27 434.42 272.29 434.42 268.41C434.42 266.08 432.87 263.76 430.55 263.76C428.22 263.76 426.67 265.31 426.67 266.86Z M162.91 282.38C162.91 280.82 161.36 279.27 159.03 279.27C156.70 279.27 155.15 281.60 155.15 283.93C155.15 287.81 162.91 294.79 162.91 294.79C162.91 294.79 170.67 287.81 170.67 283.93C170.67 281.60 169.12 279.27 166.79 279.27C164.46 279.27 162.91 280.82 162.91 282.38Z M193.94 282.38C193.94 280.82 192.39 279.27 190.06 279.27C187.73 279.27 186.18 281.60 186.18 283.93C186.18 287.81 193.94 294.79 193.94 294.79C193.94 294.79 201.70 287.81 201.70 283.93C201.70 281.60 200.15 279.27 197.82 279.27C195.49 279.27 193.94 280.82 193.94 282.38Z M209.45 282.38C209.45 280.82 207.90 279.27 205.58 279.27C203.25 279.27 201.70 281.60 201.70 283.93C201.70 287.81 209.45 294.79 209.45 294.79C209.45 294.79 217.21 287.81 217.21 283.93C217.21 281.60 215.66 279.27 213.33 279.27C211.01 279.27 209.45 280.82 209.45 282.38Z M240.48 282.38C240.48 280.82 238.93 279.27 236.61 279.27C234.28 279.27 232.73 281.60 232.73 283.93C232.73 287.81 240.48 294.79 240.48 294.79C240.48 294.79 248.24 287.81 248.24 283.93C248.24 281.60 246.69 279.27 244.36 279.27C242.04 279.27 240.48 280.82 240.48 282.38Z M256.00 282.38C256.00 280.82 254.45 279.27 252.12 279.27C249.79 279.27 248.24 281.60 248.24 283.93C248.24 287.81 256.00 294.79 256.00 294.79C256.00 294.79 263.76 287.81 263.76 283.93C263.76 281.60 262.21 279.27 259.88 279.27C257.55 279.27 256.00 280.82 256.00 282.38Z M271.52 282.38C271.52 280.82 269.96 279.27 267.64 279.27C265.31 279.27 263.76 281.60 263.76 283.93C263.76 287.81 271.52 294.79 271.52 294.79C271.52 294.79 279.27 287.81 279.27 283.93C279.27 281.60 277.72 279.27 275.39 279.27C273.07 279.27 271.52 280.82 271.52 282.38Z M287.03 282.38C287.03 280.82 285.48 279.27 283.15 279.27C280.82 279.27 279.27 281.60 279.27 283.93C279.27 287.81 287.03 294.79 287.03 294.79C287.03 294.79 294.79 287.81 294.79 283.93C294.79 281.60 293.24 279.27 290.91 279.27C288.58 279.27 287.03 280.82 287.03 282.38Z M302.55 282.38C302.55 280.82 300.99 279.27 298.67 279.27C296.34 279.27 294.79 281.60 294.79 283.93C294.79 287.81 302.55 294.79 302.55 294.79C302.55 294.79 310.30 287.81 310.30 283.93C310.30 281.60 308.75 279.27 306.42 279.27C304.10 279.27 302.55 280.82 302.55 282.38Z M349.09 282.38C349.09 280.82 347.54 279.27 345.21 279.27C342.88 279.27 341.33 281.60 341.33 283.93C341.33 287.81 349.09 294.79 349.09 294.79C349.09 294.79 356.85 287.81 356.85 283.93C356.85 281.60 355.30 279.27 352.97 279.27C350.64 279.27 349.09 280.82 349.09 282.38Z M364.61 282.38C364.61 280.82 363.05 279.27 360.73 279.27C358.40 279.27 356.85 281.60 356.85 283.93C356.85 287.81 364.61 294.79 364.61 294.79C364.61 294.79 372.36 287.81 372.36 283.93C372.36 281.60 370.81 279.27 368.48 279.27C366.16 279.27 364.61 280.82 364.61 282.38Z M380.12 282.38C380.12 280.82 378.57 279.27 376.24 279.27C373.92 279.27 372.36 281.60 372.36 283.93C372.36 287.81 380.12 294.79 380.12 294.79C380.12 294.79 387.88 287.81 387.88 283.93C387.88 281.60 386.33 279.27 384.00 279.27C381.67 279.27 380.12 280.82 380.12 282.38Z M395.64 282.38C395.64 280.82 394.08 279.27 391.76 279.27C389.43 279.27 387.88 281.60 387.88 283.93C387.88 287.81 395.64 294.79 395.64 294.79C395.64 294.79 403.39 287.81 403.39 283.93C403.39 281.60 401.84 279.27 399.52 279.27C397.19 279.27 395.64 280.82 395.64 282.38Z M411.15 282.38C411.15 280.82 409.60 279.27 407.27 279.27C404.95 279.27 403.39 281.60 403.39 283.93C403.39 287.81 411.15 294.79 411.15 294.79C411.15 294.79 418.91 287.81 418.91 283.93C418.91 281.60 417.36 279.27 415.03 279.27C412.70 279.27 411.15 280.82 411.15 282.38Z M116.36 297.89C116.36 296.34 114.81 294.79 112.48 294.79C110.16 294.79 108.61 297.12 108.61 299.44C108.61 303.32 116.36 310.30 116.36 310.30C116.36 310.30 124.12 303.32 124.12 299.44C124.12 297.12 122.57 294.79 120.24 294.79C117.92 294.79 116.36 296.34 116.36 297.89Z M131.88 297.89C131.88 296.34 130.33 294.79 128.00 294.79C125.67 294.79 124.12 297.12 124.12 299.44C124.12 303.32 131.88 310.30 131.88 310.30C131.88 310.30 139.64 303.32 139.64 299.44C139.64 297.12 138.08 294.79 135.76 294.79C133.43 294.79 131.88 296.34 131.88 297.89Z M178.42 297.89C178.42 296.34 176.87 294.79 174.55 294.79C172.22 294.79 170.67 297.12 170.67 299.44C170.67 303.32 178.42 310.30 178.42 310.30C178.42 310.30 186.18 303.32 186.18 299.44C186.18 297.12 184.63 294.79 182.30 294.79C179.98 294.79 178.42 296.34 178.42 297.89Z M240.48 297.89C240.48 296.34 238.93 294.79 236.61 294.79C234.28 294.79 232.73 297.12 232.73 299.44C232.73 303.32 240.48 310.30 240.48 310.30C240.48 310.30 248.24 303.32 248.24 299.44C248.24 297.12 246.69 294.79 244.36 294.79C242.04 294.79 240.48 296.34 240.48 297.89Z M271.52 297.89C271.52 296.34 269.96 294.79 267.64 294.79C265.31 294.79 263.76 297.12 263.76 299.44C263.76 303.32 271.52 310.30 271.52 310.30C271.52 310.30 279.27 303.32 279.27 299.44C279.27 297.12 277.72 294.79 275.39 294.79C273.07 294.79 271.52 296.34 271.52 297.89Z M302.55 297.89C302.55 296.34 300.99 294.79 298.67 294.79C296.34 294.79 294.79 297.12 294.79 299.44C294.79 303.32 302.55 310.30 302.55 310.30C302.55 310.30 310.30 303.32 310.30 299.44C310.30 297.12 308.75 294.79 306.42 294.79C304.10 294.79 302.55 296.34 302.55 297.89Z M349.09 297.89C349.09 296.34 347.54 294.79 345.21 294.79C342.88 294.79 341.33 297.12 341.33 299.44C341.33 303.32 349.09 310.30 349.09 310.30C349.09 310.30 356.85 303.32 356.85 299.44C356.85 297.12 355.30 294.79 352.97 294.79C350.64 294.79 349.09 296.34 349.09 297.89Z M364.61 297.89C364.61 296.34 363.05 294.79 360.73 294.79C358.40 294.79 356.85 297.12 356.85 299.44C356.85 303.32 364.61 310.30 364.61 310.30C364.61 310.30 372.36 303.32 372.36 299.44C372.36 297.12 370.81 294.79 368.48 294.79C366.16 294.79 364.61 296.34 364.61 297.89Z M380.12 297.89C380.12 296.34 378.57 294.79 376.24 294.79C373.92 294.79 372.36 297.12 372.36 299.44C372.36 303.32 380.12 310.30 380.12 310.30C380.12 310.30 387.88 303.32 387.88 299.44C387.88 297.12 386.33 294.79 384.00 294.79C381.67 294.79 380.12 296.34 380.12 297.89Z M411.15 297.89C411.15 296.34 409.60 294.79 407.27 294.79C404.95 294.79 403.39 297.12 403.39 299.44C403.39 303.32 411.15 310.30 411.15 310.30C411.15 310.30 418.91 303.32 418.91 299.44C418.91 297.12 417.36 294.79 415.03 294.79C412.70 294.79 411.15 296.34 411.15 297.89Z M426.67 297.89C426.67 296.34 425.12 294.79 422.79 294.79C420.46 294.79 418.91 297.12 418.91 299.44C418.91 303.32 426.67 310.30 426.67 310.30C426.67 310.30 434.42 303.32 434.42 299.44C434.42 297.12 432.87 294.79 430.55 294.79C428.22 294.79 426.67 296.34 426.67 297.89Z M69.82 313.41C69.82 311.85 68.27 310.30 65.94 310.30C63.61 310.30 62.06 312.63 62.06 314.96C62.06 318.84 69.82 325.82 69.82 325.82C69.82 325.82 77.58 318.84 77.58 314.96C77.58 312.63 76.02 310.30 73.70 310.30C71.37 310.30 69.82 311.85 69.82 313.41Z M85.33 313.41C85.33 311.85 83.78 310.30 81.45 310.30C79.13 310.30 77.58 312.63 77.58 314.96C77.58 318.84 85.33 325.82 85.33 325.82C85.33 325.82 93.09 318.84 93.09 314.96C93.09 312.63 91.54 310.30 89.21 310.30C86.88 310.30 85.33 311.85 85.33 313.41Z M116.36 313.41C116.36 311.85 114.81 310.30 112.48 310.30C110.16 310.30 108.61 312.63 108.61 314.96C108.61 318.84 116.36 325.82 116.36 325.82C116.36 325.82 124.12 318.84 124.12 314.96C124.12 312.63 122.57 310.30 120.24 310.30C117.92 310.30 116.36 311.85 116.36 313.41Z M131.88 313.41C131.88 311.85 130.33 310.30 128.00 310.30C125.67 310.30 124.12 312.63 124.12 314.96C124.12 318.84 131.88 325.82 131.88 325.82C131.88 325.82 139.64 318.84 139.64 314.96C139.64 312.63 138.08 310.30 135.76 310.30C133.43 310.30 131.88 311.85 131.88 313.41Z M147.39 313.41C147.39 311.85 145.84 310.30 143.52 310.30C141.19 310.30 139.64 312.63 139.64 314.96C139.64 318.84 147.39 325.82 147.39 325.82C147.39 325.82 155.15 318.84 155.15 314.96C155.15 312.63 153.60 310.30 151.27 310.30C148.95 310.30 147.39 311.85 147.39 313.41Z M162.91 313.41C162.91 311.85 161.36 310.30 159.03 310.30C156.70 310.30 155.15 312.63 155.15 314.96C155.15 318.84 162.91 325.82 162.91 325.82C162.91 325.82 170.67 318.84 170.67 314.96C170.67 312.63 169.12 310.30 166.79 310.30C164.46 310.30 162.91 311.85 162.91 313.41Z M178.42 313.41C178.42 311.85 176.87 310.30 174.55 310.30C172.22 310.30 170.67 312.63 170.67 314.96C170.67 318.84 178.42 325.82 178.42 325.82C178.42 325.82 186.18 318.84 186.18 314.96C186.18 312.63 184.63 310.30 182.30 310.30C179.98 310.30 178.42 311.85 178.42 313.41Z M224.97 313.41C224.97 311.85 223.42 310.30 221.09 310.30C218.76 310.30 217.21 312.63 217.21 314.96C217.21 318.84 224.97 325.82 224.97 325.82C224.97 325.82 232.73 318.84 232.73 314.96C232.73 312.63 231.18 310.30 228.85 310.30C226.52 310.30 224.97 311.85 224.97 313.41Z M256.00 313.41C256.00 311.85 254.45 310.30 252.12 310.30C249.79 310.30 248.24 312.63 248.24 314.96C248.24 318.84 256.00 325.82 256.00 325.82C256.00 325.82 263.76 318.84 263.76 314.96C263.76 312.63 262.21 310.30 259.88 310.30C257.55 310.30 256.00 311.85 256.00 313.41Z M271.52 313.41C271.52 311.85 269.96 310.30 267.64 310.30C265.31 310.30 263.76 312.63 263.76 314.96C263.76 318.84 271.52 325.82 271.52 325.82C271.52 325.82 279.27 318.84 279.27 314.96C279.27 312.63 277.72 310.30 275.39 310.30C273.07 310.30 271.52 311.85 271.52 313.41Z M318.06 313.41C318.06 311.85 316.51 310.30 314.18 310.30C311.85 310.30 310.30 312.63 310.30 314.96C310.30 318.84 318.06 325.82 318.06 325.82C318.06 325.82 325.82 318.84 325.82 314.96C325.82 312.63 324.27 310.30 321.94 310.30C319.61 310.30 318.06 311.85 318.06 313.41Z M333.58 313.41C333.58 311.85 332.02 310.30 329.70 310.30C327.37 310.30 325.82 312.63 325.82 314.96C325.82 318.84 333.58 325.82 333.58 325.82C333.58 325.82 341.33 318.84 341.33 314.96C341.33 312.63 339.78 310.30 337.45 310.30C335.13 310.30 333.58 311.85 333.58 313.41Z M349.09 313.41C349.09 311.85 347.54 310.30 345.21 310.30C342.88 310.30 341.33 312.63 341.33 314.96C341.33 318.84 349.09 325.82 349.09 325.82C349.09 325.82 356.85 318.84 356.85 314.96C356.85 312.63 355.30 310.30 352.97 310.30C350.64 310.30 349.09 311.85 349.09 313.41Z M364.61 313.41C364.61 311.85 363.05 310.30 360.73 310.30C358.40 310.30 356.85 312.63 356.85 314.96C356.85 318.84 364.61 325.82 364.61 325.82C364.61 325.82 372.36 318.84 372.36 314.96C372.36 312.63 370.81 310.30 368.48 310.30C366.16 310.30 364.61 311.85 364.61 313.41Z M380.12 313.41C380.12 311.85 378.57 310.30 376.24 310.30C373.92 310.30 372.36 312.63 372.36 314.96C372.36 318.84 380.12 325.82 380.12 325.82C380.12 325.82 387.88 318.84 387.88 314.96C387.88 312.63 386.33 310.30 384.00 310.30C381.67 310.30 380.12 311.85 380.12 313.41Z M395.64 313.41C395.64 311.85 394.08 310.30 391.76 310.30C389.43 310.30 387.88 312.63 387.88 314.96C387.88 318.84 395.64 325.82 395.64 325.82C395.64 325.82 403.39 318.84 403.39 314.96C403.39 312.63 401.84 310.30 399.52 310.30C397.19 310.30 395.64 311.85 395.64 313.41Z M411.15 313.41C411.15 311.85 409.60 310.30 407.27 310.30C404.95 310.30 403.39 312.63 403.39 314.96C403.39 318.84 411.15 325.82 411.15 325.82C411.15 325.82 418.91 318.84 418.91 314.96C418.91 312.63 417.36 310.30 415.03 310.30C412.70 310.30 411.15 311.85 411.15 313.41Z M193.94 328.92C193.94 327.37 192.39 325.82 190.06 325.82C187.73 325.82 186.18 328.15 186.18 330.47C186.18 334.35 193.94 341.33 193.94 341.33C193.94 341.33 201.70 334.35 201.70 330.47C201.70 328.15 200.15 325.82 197.82 325.82C195.49 325.82 193.94 327.37 193.94 328.92Z M224.97 328.92C224.97 327.37 223.42 325.82 221.09 325.82C218.76 325.82 217.21 328.15 217.21 330.47C217.21 334.35 224.97 341.33 224.97 341.33C224.97 341.33 232.73 334.35 232.73 330.47C232.73 328.15 231.18 325.82 228.85 325.82C226.52 325.82 224.97 327.37 224.97 328.92Z M271.52 328.92C271.52 327.37 269.96 325.82 267.64 325.82C265.31 325.82 263.76 328.15 263.76 330.47C263.76 334.35 271.52 341.33 271.52 341.33C271.52 341.33 279.27 334.35 279.27 330.47C279.27 328.15 277.72 325.82 275.39 325.82C273.07 325.82 271.52 327.37 271.52 328.92Z M287.03 328.92C287.03 327.37 285.48 325.82 283.15 325.82C280.82 325.82 279.27 328.15 279.27 330.47C279.27 334.35 287.03 341.33 287.03 341.33C287.03 341.33 294.79 334.35 294.79 330.47C294.79 328.15 293.24 325.82 290.91 325.82C288.58 325.82 287.03 327.37 287.03 328.92Z M318.06 328.92C318.06 327.37 316.51 325.82 314.18 325.82C311.85 325.82 310.30 328.15 310.30 330.47C310.30 334.35 318.06 341.33 318.06 341.33C318.06 341.33 325.82 334.35 325.82 330.47C325.82 328.15 324.27 325.82 321.94 325.82C319.61 325.82 318.06 327.37 318.06 328.92Z M380.12 328.92C380.12 327.37 378.57 325.82 376.24 325.82C373.92 325.82 372.36 328.15 372.36 330.47C372.36 334.35 380.12 341.33 380.12 341.33C380.12 341.33 387.88 334.35 387.88 330.47C387.88 328.15 386.33 325.82 384.00 325.82C381.67 325.82 380.12 327.37 380.12 328.92Z M69.82 344.44C69.82 342.88 68.27 341.33 65.94 341.33C63.61 341.33 62.06 343.66 62.06 345.99C62.06 349.87 69.82 356.85 69.82 356.85C69.82 356.85 77.58 349.87 77.58 345.99C77.58 343.66 76.02 341.33 73.70 341.33C71.37 341.33 69.82 342.88 69.82 344.44Z M85.33 344.44C85.33 342.88 83.78 341.33 81.45 341.33C79.13 341.33 77.58 343.66 77.58 345.99C77.58 349.87 85.33 356.85 85.33 356.85C85.33 356.85 93.09 349.87 93.09 345.99C93.09 343.66 91.54 341.33 89.21 341.33C86.88 341.33 85.33 342.88 85.33 344.44Z M100.85 344.44C100.85 342.88 99.30 341.33 96.97 341.33C94.64 341.33 93.09 343.66 93.09 345.99C93.09 349.87 100.85 356.85 100.85 356.85C100.85 356.85 108.61 349.87 108.61 345.99C108.61 343.66 107.05 341.33 104.73 341.33C102.40 341.33 100.85 342.88 100.85 344.44Z M116.36 344.44C116.36 342.88 114.81 341.33 112.48 341.33C110.16 341.33 108.61 343.66 108.61 345.99C108.61 349.87 116.36 356.85 116.36 356.85C116.36 356.85 124.12 349.87 124.12 345.99C124.12 343.66 122.57 341.33 120.24 341.33C117.92 341.33 116.36 342.88 116.36 344.44Z M131.88 344.44C131.88 342.88 130.33 341.33 128.00 341.33C125.67 341.33 124.12 343.66 124.12 345.99C124.12 349.87 131.88 356.85 131.88 356.85C131.88 356.85 139.64 349.87 139.64 345.99C139.64 343.66 138.08 341.33 135.76 341.33C133.43 341.33 131.88 342.88 131.88 344.44Z M147.39 344.44C147.39 342.88 145.84 341.33 143.52 341.33C141.19 341.33 139.64 343.66 139.64 345.99C139.64 349.87 147.39 356.85 147.39 356.85C147.39 356.85 155.15 349.87 155.15 345.99C155.15 343.66 153.60 341.33 151.27 341.33C148.95 341.33 147.39 342.88 147.39 344.44Z M162.91 344.44C162.91 342.88 161.36 341.33 159.03 341.33C156.70 341.33 155.15 343.66 155.15 345.99C155.15 349.87 162.91 356.85 162.91 356.85C162.91 356.85 170.67 349.87 170.67 345.99C170.67 343.66 169.12 341.33 166.79 341.33C164.46 341.33 162.91 342.88 162.91 344.44Z M193.94 344.44C193.94 342.88 192.39 341.33 190.06 341.33C187.73 341.33 186.18 343.66 186.18 345.99C186.18 349.87 193.94 356.85 193.94 356.85C193.94 356.85 201.70 349.87 201.70 345.99C201.70 343.66 200.15 341.33 197.82 341.33C195.49 341.33 193.94 342.88 193.94 344.44Z M224.97 344.44C224.97 342.88 223.42 341.33 221.09 341.33C218.76 341.33 217.21 343.66 217.21 345.99C217.21 349.87 224.97 356.85 224.97 356.85C224.97 356.85 232.73 349.87 232.73 345.99C232.73 343.66 231.18 341.33 228.85 341.33C226.52 341.33 224.97 342.88 224.97 344.44Z M318.06 344.44C318.06 342.88 316.51 341.33 314.18 341.33C311.85 341.33 310.30 343.66 310.30 345.99C310.30 349.87 318.06 356.85 318.06 356.85C318.06 356.85 325.82 349.87 325.82 345.99C325.82 343.66 324.27 341.33 321.94 341.33C319.61 341.33 318.06 342.88 318.06 344.44Z M349.09 344.44C349.09 342.88 347.54 341.33 345.21 341.33C342.88 341.33 341.33 343.66 341.33 345.99C341.33 349.87 349.09 356.85 349.09 356.85C349.09 356.85 356.85 349.87 356.85 345.99C356.85 343.66 355.30 341.33 352.97 341.33C350.64 341.33 349.09 342.88 349.09 344.44Z M380.12 344.44C380.12 342.88 378.57 341.33 376.24 341.33C373.92 341.33 372.36 343.66 372.36 345.99C372.36 349.87 380.12 356.85 380.12 356.85C380.12 356.85 387.88 349.87 387.88 345.99C387.88 343.66 386.33 341.33 384.00 341.33C381.67 341.33 380.12 342.88 380.12 344.44Z M69.82 359.95C69.82 358.40 68.27 356.85 65.94 356.85C63.61 356.85 62.06 359.18 62.06 361.50C62.06 365.38 69.82 372.36 69.82 372.36C69.82 372.36 77.58 365.38 77.58 361.50C77.58 359.18 76.02 356.85 73.70 356.85C71.37 356.85 69.82 358.40 69.82 359.95Z M162.91 359.95C162.91 358.40 161.36 356.85 159.03 356.85C156.70 356.85 155.15 359.18 155.15 361.50C155.15 365.38 162.91 372.36 162.91 372.36C162.91 372.36 170.67 365.38 170.67 361.50C170.67 359.18 169.12 356.85 166.79 356.85C164.46 356.85 162.91 358.40 162.91 359.95Z M224.97 359.95C224.97 358.40 223.42 356.85 221.09 356.85C218.76 356.85 217.21 359.18 217.21 361.50C217.21 365.38 224.97 372.36 224.97 372.36C224.97 372.36 232.73 365.38 232.73 361.50C232.73 359.18 231.18 356.85 228.85 356.85C226.52 356.85 224.97 358.40 224.97 359.95Z M256.00 359.95C256.00 358.40 254.45 356.85 252.12 356.85C249.79 356.85 248.24 359.18 248.24 361.50C248.24 365.38 256.00 372.36 256.00 372.36C256.00 372.36 263.76 365.38 263.76 361.50C263.76 359.18 262.21 356.85 259.88 356.85C257.55 356.85 256.00 358.40 256.00 359.95Z M287.03 359.95C287.03 358.40 285.48 356.85 283.15 356.85C280.82 356.85 279.27 359.18 279.27 361.50C279.27 365.38 287.03 372.36 287.03 372.36C287.03 372.36 294.79 365.38 294.79 361.50C294.79 359.18 293.24 356.85 290.91 356.85C288.58 356.85 287.03 358.40 287.03 359.95Z M318.06 359.95C318.06 358.40 316.51 356.85 314.18 356.85C311.85 356.85 310.30 359.18 310.30 361.50C310.30 365.38 318.06 372.36 318.06 372.36C318.06 372.36 325.82 365.38 325.82 361.50C325.82 359.18 324.27 356.85 321.94 356.85C319.61 356.85 318.06 358.40 318.06 359.95Z M380.12 359.95C380.12 358.40 378.57 356.85 376.24 356.85C373.92 356.85 372.36 359.18 372.36 361.50C372.36 365.38 380.12 372.36 380.12 372.36C380.12 372.36 387.88 365.38 387.88 361.50C387.88 359.18 386.33 356.85 384.00 356.85C381.67 356.85 380.12 358.40 380.12 359.95Z M395.64 359.95C395.64 358.40 394.08 356.85 391.76 356.85C389.43 356.85 387.88 359.18 387.88 361.50C387.88 365.38 395.64 372.36 395.64 372.36C395.64 372.36 403.39 365.38 403.39 361.50C403.39 359.18 401.84 356.85 399.52 356.85C397.19 356.85 395.64 358.40 395.64 359.95Z M411.15 359.95C411.15 358.40 409.60 356.85 407.27 356.85C404.95 356.85 403.39 359.18 403.39 361.50C403.39 365.38 411.15 372.36 411.15 372.36C411.15 372.36 418.91 365.38 418.91 361.50C418.91 359.18 417.36 356.85 415.03 356.85C412.70 356.85 411.15 358.40 411.15 359.95Z M426.67 359.95C426.67 358.40 425.12 356.85 422.79 356.85C420.46 356.85 418.91 359.18 418.91 361.50C418.91 365.38 426.67 372.36 426.67 372.36C426.67 372.36 434.42 365.38 434.42 361.50C434.42 359.18 432.87 356.85 430.55 356.85C428.22 356.85 426.67 358.40 426.67 359.95Z M442.18 359.95C442.18 358.40 440.63 356.85 438.30 356.85C435.98 356.85 434.42 359.18 434.42 361.50C434.42 365.38 442.18 372.36 442.18 372.36C442.18 372.36 449.94 365.38 449.94 361.50C449.94 359.18 448.39 356.85 446.06 356.85C443.73 356.85 442.18 358.40 442.18 359.95Z M69.82 375.47C69.82 373.92 68.27 372.36 65.94 372.36C63.61 372.36 62.06 374.69 62.06 377.02C62.06 380.90 69.82 387.88 69.82 387.88C69.82 387.88 77.58 380.90 77.58 377.02C77.58 374.69 76.02 372.36 73.70 372.36C71.37 372.36 69.82 373.92 69.82 375.47Z M100.85 375.47C100.85 373.92 99.30 372.36 96.97 372.36C94.64 372.36 93.09 374.69 93.09 377.02C93.09 380.90 100.85 387.88 100.85 387.88C100.85 387.88 108.61 380.90 108.61 377.02C108.61 374.69 107.05 372.36 104.73 372.36C102.40 372.36 100.85 373.92 100.85 375.47Z M116.36 375.47C116.36 373.92 114.81 372.36 112.48 372.36C110.16 372.36 108.61 374.69 108.61 377.02C108.61 380.90 116.36 387.88 116.36 387.88C116.36 387.88 124.12 380.90 124.12 377.02C124.12 374.69 122.57 372.36 120.24 372.36C117.92 372.36 116.36 373.92 116.36 375.47Z M131.88 375.47C131.88 373.92 130.33 372.36 128.00 372.36C125.67 372.36 124.12 374.69 124.12 377.02C124.12 380.90 131.88 387.88 131.88 387.88C131.88 387.88 139.64 380.90 139.64 377.02C139.64 374.69 138.08 372.36 135.76 372.36C133.43 372.36 131.88 373.92 131.88 375.47Z M162.91 375.47C162.91 373.92 161.36 372.36 159.03 372.36C156.70 372.36 155.15 374.69 155.15 377.02C155.15 380.90 162.91 387.88 162.91 387.88C162.91 387.88 170.67 380.90 170.67 377.02C170.67 374.69 169.12 372.36 166.79 372.36C164.46 372.36 162.91 373.92 162.91 375.47Z M193.94 375.47C193.94 373.92 192.39 372.36 190.06 372.36C187.73 372.36 186.18 374.69 186.18 377.02C186.18 380.90 193.94 387.88 193.94 387.88C193.94 387.88 201.70 380.90 201.70 377.02C201.70 374.69 200.15 372.36 197.82 372.36C195.49 372.36 193.94 373.92 193.94 375.47Z M209.45 375.47C209.45 373.92 207.90 372.36 205.58 372.36C203.25 372.36 201.70 374.69 201.70 377.02C201.70 380.90 209.45 387.88 209.45 387.88C209.45 387.88 217.21 380.90 217.21 377.02C217.21 374.69 215.66 372.36 213.33 372.36C211.01 372.36 209.45 373.92 209.45 375.47Z M240.48 375.47C240.48 373.92 238.93 372.36 236.61 372.36C234.28 372.36 232.73 374.69 232.73 377.02C232.73 380.90 240.48 387.88 240.48 387.88C240.48 387.88 248.24 380.90 248.24 377.02C248.24 374.69 246.69 372.36 244.36 372.36C242.04 372.36 240.48 373.92 240.48 375.47Z M271.52 375.47C271.52 373.92 269.96 372.36 267.64 372.36C265.31 372.36 263.76 374.69 263.76 377.02C263.76 380.90 271.52 387.88 271.52 387.88C271.52 387.88 279.27 380.90 279.27 377.02C279.27 374.69 277.72 372.36 275.39 372.36C273.07 372.36 271.52 373.92 271.52 375.47Z M287.03 375.47C287.03 373.92 285.48 372.36 283.15 372.36C280.82 372.36 279.27 374.69 279.27 377.02C279.27 380.90 287.03 387.88 287.03 387.88C287.03 387.88 294.79 380.90 294.79 377.02C294.79 374.69 293.24 372.36 290.91 372.36C288.58 372.36 287.03 373.92 287.03 375.47Z M318.06 375.47C318.06 373.92 316.51 372.36 314.18 372.36C311.85 372.36 310.30 374.69 310.30 377.02C310.30 380.90 318.06 387.88 318.06 387.88C318.06 387.88 325.82 380.90 325.82 377.02C325.82 374.69 324.27 372.36 321.94 372.36C319.61 372.36 318.06 373.92 318.06 375.47Z M333.58 375.47C333.58 373.92 332.02 372.36 329.70 372.36C327.37 372.36 325.82 374.69 325.82 377.02C325.82 380.90 333.58 387.88 333.58 387.88C333.58 387.88 341.33 380.90 341.33 377.02C341.33 374.69 339.78 372.36 337.45 372.36C335.13 372.36 333.58 373.92 333.58 375.47Z M349.09 375.47C349.09 373.92 347.54 372.36 345.21 372.36C342.88 372.36 341.33 374.69 341.33 377.02C341.33 380.90 349.09 387.88 349.09 387.88C349.09 387.88 356.85 380.90 356.85 377.02C356.85 374.69 355.30 372.36 352.97 372.36C350.64 372.36 349.09 373.92 349.09 375.47Z M364.61 375.47C364.61 373.92 363.05 372.36 360.73 372.36C358.40 372.36 356.85 374.69 356.85 377.02C356.85 380.90 364.61 387.88 364.61 387.88C364.61 387.88 372.36 380.90 372.36 377.02C372.36 374.69 370.81 372.36 368.48 372.36C366.16 372.36 364.61 373.92 364.61 375.47Z M380.12 375.47C380.12 373.92 378.57 372.36 376.24 372.36C373.92 372.36 372.36 374.69 372.36 377.02C372.36 380.90 380.12 387.88 380.12 387.88C380.12 387.88 387.88 380.90 387.88 377.02C387.88 374.69 386.33 372.36 384.00 372.36C381.67 372.36 380.12 373.92 380.12 375.47Z M395.64 375.47C395.64 373.92 394.08 372.36 391.76 372.36C389.43 372.36 387.88 374.69 387.88 377.02C387.88 380.90 395.64 387.88 395.64 387.88C395.64 387.88 403.39 380.90 403.39 377.02C403.39 374.69 401.84 372.36 399.52 372.36C397.19 372.36 395.64 373.92 395.64 375.47Z M411.15 375.47C411.15 373.92 409.60 372.36 407.27 372.36C404.95 372.36 403.39 374.69 403.39 377.02C403.39 380.90 411.15 387.88 411.15 387.88C411.15 387.88 418.91 380.90 418.91 377.02C418.91 374.69 417.36 372.36 415.03 372.36C412.70 372.36 411.15 373.92 411.15 375.47Z M442.18 375.47C442.18 373.92 440.63 372.36 438.30 372.36C435.98 372.36 434.42 374.69 434.42 377.02C434.42 380.90 442.18 387.88 442.18 387.88C442.18 387.88 449.94 380.90 449.94 377.02C449.94 374.69 448.39 372.36 446.06 372.36C443.73 372.36 442.18 373.92 442.18 375.47Z M69.82 390.98C69.82 389.43 68.27 387.88 65.94 387.88C63.61 387.88 62.06 390.21 62.06 392.53C62.06 396.41 69.82 403.39 69.82 403.39C69.82 403.39 77.58 396.41 77.58 392.53C77.58 390.21 76.02 387.88 73.70 387.88C71.37 387.88 69.82 389.43 69.82 390.98Z M100.85 390.98C100.85 389.43 99.30 387.88 96.97 387.88C94.64 387.88 93.09 390.21 93.09 392.53C93.09 396.41 100.85 403.39 100.85 403.39C100.85 403.39 108.61 396.41 108.61 392.53C108.61 390.21 107.05 387.88 104.73 387.88C102.40 387.88 100.85 389.43 100.85 390.98Z M116.36 390.98C116.36 389.43 114.81 387.88 112.48 387.88C110.16 387.88 108.61 390.21 108.61 392.53C108.61 396.41 116.36 403.39 116.36 403.39C116.36 403.39 124.12 396.41 124.12 392.53C124.12 390.21 122.57 387.88 120.24 387.88C117.92 387.88 116.36 389.43 116.36 390.98Z M131.88 390.98C131.88 389.43 130.33 387.88 128.00 387.88C125.67 387.88 124.12 390.21 124.12 392.53C124.12 396.41 131.88 403.39 131.88 403.39C131.88 403.39 139.64 396.41 139.64 392.53C139.64 390.21 138.08 387.88 135.76 387.88C133.43 387.88 131.88 389.43 131.88 390.98Z M162.91 390.98C162.91 389.43 161.36 387.88 159.03 387.88C156.70 387.88 155.15 390.21 155.15 392.53C155.15 396.41 162.91 403.39 162.91 403.39C162.91 403.39 170.67 396.41 170.67 392.53C170.67 390.21 169.12 387.88 166.79 387.88C164.46 387.88 162.91 389.43 162.91 390.98Z M209.45 390.98C209.45 389.43 207.90 387.88 205.58 387.88C203.25 387.88 201.70 390.21 201.70 392.53C201.70 396.41 209.45 403.39 209.45 403.39C209.45 403.39 217.21 396.41 217.21 392.53C217.21 390.21 215.66 387.88 213.33 387.88C211.01 387.88 209.45 389.43 209.45 390.98Z M224.97 390.98C224.97 389.43 223.42 387.88 221.09 387.88C218.76 387.88 217.21 390.21 217.21 392.53C217.21 396.41 224.97 403.39 224.97 403.39C224.97 403.39 232.73 396.41 232.73 392.53C232.73 390.21 231.18 387.88 228.85 387.88C226.52 387.88 224.97 389.43 224.97 390.98Z M256.00 390.98C256.00 389.43 254.45 387.88 252.12 387.88C249.79 387.88 248.24 390.21 248.24 392.53C248.24 396.41 256.00 403.39 256.00 403.39C256.00 403.39 263.76 396.41 263.76 392.53C263.76 390.21 262.21 387.88 259.88 387.88C257.55 387.88 256.00 389.43 256.00 390.98Z M333.58 390.98C333.58 389.43 332.02 387.88 329.70 387.88C327.37 387.88 325.82 390.21 325.82 392.53C325.82 396.41 333.58 403.39 333.58 403.39C333.58 403.39 341.33 396.41 341.33 392.53C341.33 390.21 339.78 387.88 337.45 387.88C335.13 387.88 333.58 389.43 333.58 390.98Z M349.09 390.98C349.09 389.43 347.54 387.88 345.21 387.88C342.88 387.88 341.33 390.21 341.33 392.53C341.33 396.41 349.09 403.39 349.09 403.39C349.09 403.39 356.85 396.41 356.85 392.53C356.85 390.21 355.30 387.88 352.97 387.88C350.64 387.88 349.09 389.43 349.09 390.98Z M364.61 390.98C364.61 389.43 363.05 387.88 360.73 387.88C358.40 387.88 356.85 390.21 356.85 392.53C356.85 396.41 364.61 403.39 364.61 403.39C364.61 403.39 372.36 396.41 372.36 392.53C372.36 390.21 370.81 387.88 368.48 387.88C366.16 387.88 364.61 389.43 364.61 390.98Z M411.15 390.98C411.15 389.43 409.60 387.88 407.27 387.88C404.95 387.88 403.39 390.21 403.39 392.53C403.39 396.41 411.15 403.39 411.15 403.39C411.15 403.39 418.91 396.41 418.91 392.53C418.91 390.21 417.36 387.88 415.03 387.88C412.70 387.88 411.15 389.43 411.15 390.98Z M426.67 390.98C426.67 389.43 425.12 387.88 422.79 387.88C420.46 387.88 418.91 390.21 418.91 392.53C418.91 396.41 426.67 403.39 426.67 403.39C426.67 403.39 434.42 396.41 434.42 392.53C434.42 390.21 432.87 387.88 430.55 387.88C428.22 387.88 426.67 389.43 426.67 390.98Z M442.18 390.98C442.18 389.43 440.63 387.88 438.30 387.88C435.98 387.88 434.42 390.21 434.42 392.53C434.42 396.41 442.18 403.39 442.18 403.39C442.18 403.39 449.94 396.41 449.94 392.53C449.94 390.21 448.39 387.88 446.06 387.88C443.73 387.88 442.18 389.43 442.18 390.98Z M69.82 406.50C69.82 404.95 68.27 403.39 65.94 403.39C63.61 403.39 62.06 405.72 62.06 408.05C62.06 411.93 69.82 418.91 69.82 418.91C69.82 418.91 77.58 411.93 77.58 408.05C77.58 405.72 76.02 403.39 73.70 403.39C71.37 403.39 69.82 404.95 69.82 406.50Z M100.85 406.50C100.85 404.95 99.30 403.39 96.97 403.39C94.64 403.39 93.09 405.72 93.09 408.05C93.09 411.93 100.85 418.91 100.85 418.91C100.85 418.91 108.61 411.93 108.61 408.05C108.61 405.72 107.05 403.39 104.73 403.39C102.40 403.39 100.85 404.95 100.85 406.50Z M116.36 406.50C116.36 404.95 114.81 403.39 112.48 403.39C110.16 403.39 108.61 405.72 108.61 408.05C108.61 411.93 116.36 418.91 116.36 418.91C116.36 418.91 124.12 411.93 124.12 408.05C124.12 405.72 122.57 403.39 120.24 403.39C117.92 403.39 116.36 404.95 116.36 406.50Z M131.88 406.50C131.88 404.95 130.33 403.39 128.00 403.39C125.67 403.39 124.12 405.72 124.12 408.05C124.12 411.93 131.88 418.91 131.88 418.91C131.88 418.91 139.64 411.93 139.64 408.05C139.64 405.72 138.08 403.39 135.76 403.39C133.43 403.39 131.88 404.95 131.88 406.50Z M162.91 406.50C162.91 404.95 161.36 403.39 159.03 403.39C156.70 403.39 155.15 405.72 155.15 408.05C155.15 411.93 162.91 418.91 162.91 418.91C162.91 418.91 170.67 411.93 170.67 408.05C170.67 405.72 169.12 403.39 166.79 403.39C164.46 403.39 162.91 404.95 162.91 406.50Z M209.45 406.50C209.45 404.95 207.90 403.39 205.58 403.39C203.25 403.39 201.70 405.72 201.70 408.05C201.70 411.93 209.45 418.91 209.45 418.91C209.45 418.91 217.21 411.93 217.21 408.05C217.21 405.72 215.66 403.39 213.33 403.39C211.01 403.39 209.45 404.95 209.45 406.50Z M224.97 406.50C224.97 404.95 223.42 403.39 221.09 403.39C218.76 403.39 217.21 405.72 217.21 408.05C217.21 411.93 224.97 418.91 224.97 418.91C224.97 418.91 232.73 411.93 232.73 408.05C232.73 405.72 231.18 403.39 228.85 403.39C226.52 403.39 224.97 404.95 224.97 406.50Z M240.48 406.50C240.48 404.95 238.93 403.39 236.61 403.39C234.28 403.39 232.73 405.72 232.73 408.05C232.73 411.93 240.48 418.91 240.48 418.91C240.48 418.91 248.24 411.93 248.24 408.05C248.24 405.72 246.69 403.39 244.36 403.39C242.04 403.39 240.48 404.95 240.48 406.50Z M256.00 406.50C256.00 404.95 254.45 403.39 252.12 403.39C249.79 403.39 248.24 405.72 248.24 408.05C248.24 411.93 256.00 418.91 256.00 418.91C256.00 418.91 263.76 411.93 263.76 408.05C263.76 405.72 262.21 403.39 259.88 403.39C257.55 403.39 256.00 404.95 256.00 406.50Z M271.52 406.50C271.52 404.95 269.96 403.39 267.64 403.39C265.31 403.39 263.76 405.72 263.76 408.05C263.76 411.93 271.52 418.91 271.52 418.91C271.52 418.91 279.27 411.93 279.27 408.05C279.27 405.72 277.72 403.39 275.39 403.39C273.07 403.39 271.52 404.95 271.52 406.50Z M287.03 406.50C287.03 404.95 285.48 403.39 283.15 403.39C280.82 403.39 279.27 405.72 279.27 408.05C279.27 411.93 287.03 418.91 287.03 418.91C287.03 418.91 294.79 411.93 294.79 408.05C294.79 405.72 293.24 403.39 290.91 403.39C288.58 403.39 287.03 404.95 287.03 406.50Z M333.58 406.50C333.58 404.95 332.02 403.39 329.70 403.39C327.37 403.39 325.82 405.72 325.82 408.05C325.82 411.93 333.58 418.91 333.58 418.91C333.58 418.91 341.33 411.93 341.33 408.05C341.33 405.72 339.78 403.39 337.45 403.39C335.13 403.39 333.58 404.95 333.58 406.50Z M349.09 406.50C349.09 404.95 347.54 403.39 345.21 403.39C342.88 403.39 341.33 405.72 341.33 408.05C341.33 411.93 349.09 418.91 349.09 418.91C349.09 418.91 356.85 411.93 356.85 408.05C356.85 405.72 355.30 403.39 352.97 403.39C350.64 403.39 349.09 404.95 349.09 406.50Z M395.64 406.50C395.64 404.95 394.08 403.39 391.76 403.39C389.43 403.39 387.88 405.72 387.88 408.05C387.88 411.93 395.64 418.91 395.64 418.91C395.64 418.91 403.39 411.93 403.39 408.05C403.39 405.72 401.84 403.39 399.52 403.39C397.19 403.39 395.64 404.95 395.64 406.50Z M426.67 406.50C426.67 404.95 425.12 403.39 422.79 403.39C420.46 403.39 418.91 405.72 418.91 408.05C418.91 411.93 426.67 418.91 426.67 418.91C426.67 418.91 434.42 411.93 434.42 408.05C434.42 405.72 432.87 403.39 430.55 403.39C428.22 403.39 426.67 404.95 426.67 406.50Z M69.82 422.01C69.82 420.46 68.27 418.91 65.94 418.91C63.61 418.91 62.06 421.24 62.06 423.56C62.06 427.44 69.82 434.42 69.82 434.42C69.82 434.42 77.58 427.44 77.58 423.56C77.58 421.24 76.02 418.91 73.70 418.91C71.37 418.91 69.82 420.46 69.82 422.01Z M162.91 422.01C162.91 420.46 161.36 418.91 159.03 418.91C156.70 418.91 155.15 421.24 155.15 423.56C155.15 427.44 162.91 434.42 162.91 434.42C162.91 434.42 170.67 427.44 170.67 423.56C170.67 421.24 169.12 418.91 166.79 418.91C164.46 418.91 162.91 420.46 162.91 422.01Z M224.97 422.01C224.97 420.46 223.42 418.91 221.09 418.91C218.76 418.91 217.21 421.24 217.21 423.56C217.21 427.44 224.97 434.42 224.97 434.42C224.97 434.42 232.73 427.44 232.73 423.56C232.73 421.24 231.18 418.91 228.85 418.91C226.52 418.91 224.97 420.46 224.97 422.01Z M240.48 422.01C240.48 420.46 238.93 418.91 236.61 418.91C234.28 418.91 232.73 421.24 232.73 423.56C232.73 427.44 240.48 434.42 240.48 434.42C240.48 434.42 248.24 427.44 248.24 423.56C248.24 421.24 246.69 418.91 244.36 418.91C242.04 418.91 240.48 420.46 240.48 422.01Z M271.52 422.01C271.52 420.46 269.96 418.91 267.64 418.91C265.31 418.91 263.76 421.24 263.76 423.56C263.76 427.44 271.52 434.42 271.52 434.42C271.52 434.42 279.27 427.44 279.27 423.56C279.27 421.24 277.72 418.91 275.39 418.91C273.07 418.91 271.52 420.46 271.52 422.01Z M302.55 422.01C302.55 420.46 300.99 418.91 298.67 418.91C296.34 418.91 294.79 421.24 294.79 423.56C294.79 427.44 302.55 434.42 302.55 434.42C302.55 434.42 310.30 427.44 310.30 423.56C310.30 421.24 308.75 418.91 306.42 418.91C304.10 418.91 302.55 420.46 302.55 422.01Z M364.61 422.01C364.61 420.46 363.05 418.91 360.73 418.91C358.40 418.91 356.85 421.24 356.85 423.56C356.85 427.44 364.61 434.42 364.61 434.42C364.61 434.42 372.36 427.44 372.36 423.56C372.36 421.24 370.81 418.91 368.48 418.91C366.16 418.91 364.61 420.46 364.61 422.01Z M380.12 422.01C380.12 420.46 378.57 418.91 376.24 418.91C373.92 418.91 372.36 421.24 372.36 423.56C372.36 427.44 380.12 434.42 380.12 434.42C380.12 434.42 387.88 427.44 387.88 423.56C387.88 421.24 386.33 418.91 384.00 418.91C381.67 418.91 380.12 420.46 380.12 422.01Z M395.64 422.01C395.64 420.46 394.08 418.91 391.76 418.91C389.43 418.91 387.88 421.24 387.88 423.56C387.88 427.44 395.64 434.42 395.64 434.42C395.64 434.42 403.39 427.44 403.39 423.56C403.39 421.24 401.84 418.91 399.52 418.91C397.19 418.91 395.64 420.46 395.64 422.01Z M411.15 422.01C411.15 420.46 409.60 418.91 407.27 418.91C404.95 418.91 403.39 421.24 403.39 423.56C403.39 427.44 411.15 434.42 411.15 434.42C411.15 434.42 418.91 427.44 418.91 423.56C418.91 421.24 417.36 418.91 415.03 418.91C412.70 418.91 411.15 420.46 411.15 422.01Z M426.67 422.01C426.67 420.46 425.12 418.91 422.79 418.91C420.46 418.91 418.91 421.24 418.91 423.56C418.91 427.44 426.67 434.42 426.67 434.42C426.67 434.42 434.42 427.44 434.42 423.56C434.42 421.24 432.87 418.91 430.55 418.91C428.22 418.91 426.67 420.46 426.67 422.01Z M69.82 437.53C69.82 435.98 68.27 434.42 65.94 434.42C63.61 434.42 62.06 436.75 62.06 439.08C62.06 442.96 69.82 449.94 69.82 449.94C69.82 449.94 77.58 442.96 77.58 439.08C77.58 436.75 76.02 434.42 73.70 434.42C71.37 434.42 69.82 435.98 69.82 437.53Z M85.33 437.53C85.33 435.98 83.78 434.42 81.45 434.42C79.13 434.42 77.58 436.75 77.58 439.08C77.58 442.96 85.33 449.94 85.33 449.94C85.33 449.94 93.09 442.96 93.09 439.08C93.09 436.75 91.54 434.42 89.21 434.42C86.88 434.42 85.33 435.98 85.33 437.53Z M100.85 437.53C100.85 435.98 99.30 434.42 96.97 434.42C94.64 434.42 93.09 436.75 93.09 439.08C93.09 442.96 100.85 449.94 100.85 449.94C100.85 449.94 108.61 442.96 108.61 439.08C108.61 436.75 107.05 434.42 104.73 434.42C102.40 434.42 100.85 435.98 100.85 437.53Z M116.36 437.53C116.36 435.98 114.81 434.42 112.48 434.42C110.16 434.42 108.61 436.75 108.61 439.08C108.61 442.96 116.36 449.94 116.36 449.94C116.36 449.94 124.12 442.96 124.12 439.08C124.12 436.75 122.57 434.42 120.24 434.42C117.92 434.42 116.36 435.98 116.36 437.53Z M131.88 437.53C131.88 435.98 130.33 434.42 128.00 434.42C125.67 434.42 124.12 436.75 124.12 439.08C124.12 442.96 131.88 449.94 131.88 449.94C131.88 449.94 139.64 442.96 139.64 439.08C139.64 436.75 138.08 434.42 135.76 434.42C133.43 434.42 131.88 435.98 131.88 437.53Z M147.39 437.53C147.39 435.98 145.84 434.42 143.52 434.42C141.19 434.42 139.64 436.75 139.64 439.08C139.64 442.96 147.39 449.94 147.39 449.94C147.39 449.94 155.15 442.96 155.15 439.08C155.15 436.75 153.60 434.42 151.27 434.42C148.95 434.42 147.39 435.98 147.39 437.53Z M162.91 437.53C162.91 435.98 161.36 434.42 159.03 434.42C156.70 434.42 155.15 436.75 155.15 439.08C155.15 442.96 162.91 449.94 162.91 449.94C162.91 449.94 170.67 442.96 170.67 439.08C170.67 436.75 169.12 434.42 166.79 434.42C164.46 434.42 162.91 435.98 162.91 437.53Z M193.94 437.53C193.94 435.98 192.39 434.42 190.06 434.42C187.73 434.42 186.18 436.75 186.18 439.08C186.18 442.96 193.94 449.94 193.94 449.94C193.94 449.94 201.70 442.96 201.70 439.08C201.70 436.75 200.15 434.42 197.82 434.42C195.49 434.42 193.94 435.98 193.94 437.53Z M224.97 437.53C224.97 435.98 223.42 434.42 221.09 434.42C218.76 434.42 217.21 436.75 217.21 439.08C217.21 442.96 224.97 449.94 224.97 449.94C224.97 449.94 232.73 442.96 232.73 439.08C232.73 436.75 231.18 434.42 228.85 434.42C226.52 434.42 224.97 435.98 224.97 437.53Z M256.00 437.53C256.00 435.98 254.45 434.42 252.12 434.42C249.79 434.42 248.24 436.75 248.24 439.08C248.24 442.96 256.00 449.94 256.00 449.94C256.00 449.94 263.76 442.96 263.76 439.08C263.76 436.75 262.21 434.42 259.88 434.42C257.55 434.42 256.00 435.98 256.00 437.53Z M271.52 437.53C271.52 435.98 269.96 434.42 267.64 434.42C265.31 434.42 263.76 436.75 263.76 439.08C263.76 442.96 271.52 449.94 271.52 449.94C271.52 449.94 279.27 442.96 279.27 439.08C279.27 436.75 277.72 434.42 275.39 434.42C273.07 434.42 271.52 435.98 271.52 437.53Z M302.55 437.53C302.55 435.98 300.99 434.42 298.67 434.42C296.34 434.42 294.79 436.75 294.79 439.08C294.79 442.96 302.55 449.94 302.55 449.94C302.55 449.94 310.30 442.96 310.30 439.08C310.30 436.75 308.75 434.42 306.42 434.42C304.10 434.42 302.55 435.98 302.55 437.53Z M333.58 437.53C333.58 435.98 332.02 434.42 329.70 434.42C327.37 434.42 325.82 436.75 325.82 439.08C325.82 442.96 333.58 449.94 333.58 449.94C333.58 449.94 341.33 442.96 341.33 439.08C341.33 436.75 339.78 434.42 337.45 434.42C335.13 434.42 333.58 435.98 333.58 437.53Z M411.15 437.53C411.15 435.98 409.60 434.42 407.27 434.42C404.95 434.42 403.39 436.75 403.39 439.08C403.39 442.96 411.15 449.94 411.15 449.94C411.15 449.94 418.91 442.96 418.91 439.08C418.91 436.75 417.36 434.42 415.03 434.42C412.70 434.42 411.15 435.98 411.15 437.53Z M426.67 437.53C426.67 435.98 425.12 434.42 422.79 434.42C420.46 434.42 418.91 436.75 418.91 439.08C418.91 442.96 426.67 449.94 426.67 449.94C426.67 449.94 434.42 442.96 434.42 439.08C434.42 436.75 432.87 434.42 430.55 434.42C428.22 434.42 426.67 435.98 426.67 437.53Z M442.18 437.53C442.18 435.98 440.63 434.42 438.30 434.42C435.98 434.42 434.42 436.75 434.42 439.08C434.42 442.96 442.18 449.94 442.18 449.94C442.18 449.94 449.94 442.96 449.94 439.08C449.94 436.75 448.39 434.42 446.06 434.42C443.73 434.42 442.18 435.98 442.18 437.53Z "/>
</svg>