<svg xmlns="http://www.w3.org/2000/svg" viewBox="0 0 512 512" width="512" height="512">
<rect width="100%" height="100%" fill="#FFFFFF"/>
<path fill="#e74c3c" d="M69.82 62.06L71.37 68.27L77.58 69.82L71.37 71.37L69.82 77.58L68.27 71.37L62.06 69.82L68.27 68.27Z M85.33 62.06L86.88 68.27L93.09 69.82L86.88 71.37L85.33 77.58L83.78 71.37L77.58 69.82L83.78 68.27Z M100.85 62.06L102.40 68.27L108.61 69.82L102.40 71.37L100.85 77.58L99.30 71.37L93.09 69.82L99.30 68.27Z M116.36 62.06L117.92 68.27L124.12 69.82L117.92 71.37L116.36 77.58L114.81 71.37L108.61 69.82L114.81 68.27Z M131.88 62.06L133.43 68.27L139.64 69.82L133.43 71.37L131.88 77.58L130.33 71.37L124.12 69.82L130.33 68.27Z M147.39 62.06L148.95 68.27L155.15 69.82L148.95 71.37L147.39 77.58L145.84 71.37L139.64 69.82L145.84 68.27Z M162.91 62.06L164.46 68.27L170.67 69.82L164.46 71.37L162.91 77.58L161.36 71.37L155.15 69.82L161.36 68.27Z M193.94 62.06L195.49 68.27L201.70 69.82L195.49 71.37L193.94 77.58L192.39 71.37L186.18 69.82L192.39 68.27Z M209.45 62.06L211.01 68.27L217.21 69.82L211.01 71.37L209.45 77.58L207.90 71.37L201.70 69.82L207.90 68.27Z M240.48 62.06L242.04 68.27L248.24 69.82L242.04 71.37L240.48 77.58L238.93 71.37L232.73 69.82L238.93 68.27Z M256.00 62.06L257.55 68.27L263.76 69.82L257.55 71.37L256.00 77.58L254.45 71.37L248.24 69.82L254.45 68.27Z M287.03 62.06L288.58 68.27L294.79 69.82L288.58 71.37L287.03 77.58L285.48 71.37L279.27 69.82L285.48 68.27Z M302.55 62.06L304.10 68.27L310.30 69.82L304.10 71.37L302.55 77.58L300.99 71.37L294.79 69.82L300.99 68.27Z M318.06 62.06L319.61 68.27L325.82 69.82L319.61 71.37L318.06 77.58L316.51 71.37L310.30 69.82L316.51 68.27Z M349.09 62.06L350.64 68.27L356.85 69.82L350.64 71.37L349.09 77.58L347.54 71.37L341.33 69.82L347.54 68.27Z M364.61 62.06L366.16 68.27L372.36 69.82L366.16 71.37L364.61 77.58L363.05 71.37L356.85 69.82L363.05 68.27Z M380.12 62.06L381.67 68.27L387.88 69.82L381.67 71.37L380.12 77.58L378.57 71.37L372.36 69.82L378.57 68.27Z M395.64 62.06L397.19 68.27L403.39 69.82L397.19 71.37L395.64 77.58L394.08 71.37L387.88 69.82L394.08 68.27Z M411.15 62.06L412.70 68.27L418.91 69.82L412.70 71.37L411.15 77.58L409.60 71.37L403.39 69.82L409.60 68.27Z M426.67 62.06L428.22 68.27L434.42 69.82L428.22 71.37L426.67 77.58L425.12 71.37L418.91 69.82L425.12 68.27Z M442.18 62.06L443.73 68.27L449.94 69.82L443.73 71.37L442.18 77.58L440.63 71.37L434.42 69.82L440.63 68.27Z M69.82 77.58L71.37 83.78L77.58 85.33L71.37 86.88L69.82 93.09L68.27 86.88L62.06 85.33L68.27 83.78Z M162.91 77.58L164.46 83.78L170.67 85.33L164.46 86.88L162.91 93.09L161.36 86.88L155.15 85.33L161.36 83.78Z M224.97 77.58L226.52 83.78L232.73 85.33L226.52 86.88L224.97 93.09L223.42 86.88L217.21 85.33L223.42 83.78Z M240.48 77.58L242.04 83.78L248.24 85.33L242.04 86.88L240.48 93.09L238.93 86.88L232.73 85.33L238.93 83.78Z M271.52 77.58L273.07 83.78L279.27 85.33L273.07 86.88L271.52 93.09L269.96 86.88L263.76 85.33L269.96 83.78Z M318.06 77.58L319.61 83.78L325.82 85.33L319.61 86.88L318.06 93.09L316.51 86.88L310.30 85.33L316.51 83.78Z M349.09 77.58L350.64 83.78L356.85 85.33L350.64 86.88L349.09 93.09L347.54 86.88L341.33 85.33L347.54 83.78Z M442.18 77.58L443.73 83.78L449.94 85.33L443.73 86.88L442.18 93.09L440.63 86.88L434.42 85.33L440.63 83.78Z M69.82 93.09L71.37 99.30L77.58 100.85L71.37 102.40L69.82 108.61L68.27 102.40L62.06 100.85L68.27 99.30Z M100.85 93.09L102.40 99.30L108.61 100.85L102.40 102.40L100.85 108.61L99.30 102.40L93.09 100.85L99.30 99.30Z M116.36 93.09L117.92 99.30L124.12 100.85L117.92 102.40L116.36 108.61L114.81 102.40L108.61 100.85L114.81 99.30Z M131.88 93.09L133.43 99.30L139.64 100.85L133.43 102.40L131.88 108.61L130.33 102.40L124.12 100.85L130.33 99.30Z M162.91 93.09L164.46 99.30L170.67 100.85L164.46 102.40L162.91 108.61L161.36 102.40L155.15 100.85L161.36 99.30Z M209.45 93.09L211.01 99.30L217.21 100.85L211.01 102.40L209.45 108.61L207.90 102.40L201.70 100.85L207.90 99.30Z M224.97 93.09L226.52 99.30L232.73 100.85L226.52 102.40L224.97 108.61L223.42 102.40L217.21 100.85L223.42 99.30Z M256.00 93.09L257.55 99.30L263.76 100.85L257.55 102.40L256.00 108.61L254.45 102.40L248.24 100.85L254.45 99.30Z M287.03 93.09L288.58 99.30L294.79 100.85L288.58 102.40L287.03 108.61L285.48 102.40L279.27 100.85L285.48 99.30Z M349.09 93.09L350.64 99.30L356.85 100.85L350.64 102.40L349.09 108.61L347.54 102.40L341.33 100.85L347.54 99.30Z M380.12 93.09L381.67 99.30L387.88 100.85L381.67 102.40L380.12 108.61L378.57 102.40L372.36 100.85L378.57 99.30Z M395.64 93.09L397.19 99.30L403.39 100.85L397.19 102.40L395.64 108.61L394.08 102.40L387.88 100.85L394.08 99.30Z M411.15 93.09L412.70 99.30L418.91 100.85L412.70 102.40L411.15 108.61L409.60 102.40L403.39 100.85L409.60 99.30Z M442.18 93.09L443.73 99.30L449.94 100.85L443.73 102.40L442.18 108.61L440.63 102.40L434.42 100.85L440.63 99.30Z M69.82 108.61L71.37 114.81L77.58 116.36L71.37 117.92L69.82 124.12L68.27 117.92L62.06 116.36L68.27 114.81Z M100.85 108.61L102.40 114.81L108.61 116.36L102.40 117.92L100.85 124.12L99.30 117.92L93.09 116.36L99.30 114.81Z M116.36 108.61L117.92 114.81L124.12 116.36L117.92 117.92L116.36 124.12L114.81 117.92L108.61 116.36L114.81 114.81Z M131.88 108.61L133.43 114.81L139.64 116.36L133.43 117.92L131.88 124.12L130.33 117.92L124.12 116.36L130.33 114.81Z M162.91 108.61L164.46 114.81L170.67 116.36L164.46 117.92L162.91 124.12L161.36 117.92L155.15 116.36L161.36 114.81Z M318.06 108.61L319.61 114.81L325.82 116.36L319.61 117.92L318.06 124.12L316.51 117.92L310.30 116.36L316.51 114.81Z M349.09 108.61L350.64 114.81L356.85 116.36L350.64 117.92L349.09 124.12L347.54 117.92L341.33 116.36L347.54 114.81Z M380.12 108.61L381.67 114.81L387.88 116.36L381.67 117.92L380.12 124.12L378.57 117.92L372.36 116.36L378.57 114.81Z M395.64 108.61L397.19 114.81L403.39 116.36L397.19 117.92L395.64 124.12L394.08 117.92L387.88 116.36L394.08 114.81Z M411.15 108.61L412.70 114.81L418.91 116.36L412.70 117.92L411.15 124.12L409.60 117.92L403.39 116.36L409.60 114.81Z M442.18 108.61L443.73 114.81L449.94 116.36L443.73 117.92L442.18 124.12L440.63 117.92L434.42 116.36L440.63 114.81Z M69.82 124.12L71.37 130.33L77.58 131.88L71.37 133.43L69.82 139.64L68.27 133.43L62.06 131.88L68.27 130.33Z M100.85 124.12L102.40 130.33L108.61 131.88L102.40 133.43L100.85 139.64L99.30 133.43L93.09 131.88L99.30 130.33Z M116.36 124.12L117.92 130.33L124.12 131.88L117.92 133.43L116.36 139.64L114.81 133.43L108.61 131.88L114.81 130.33Z M131.88 124.12L133.43 130.33L139.64 131.88L133.43 133.43L131.88 139.64L130.33 133.43L124.12 131.88L130.33 130.33Z M162.91 124.12L164.46 130.33L170.67 131.88L164.46 133.43L162.91 139.64L161.36 133.43L155.15 131.88L161.36 130.33Z M193.94 124.12L195.49 130.33L201.70 131.88L195.49 133.43L193.94 139.64L192.39 133.43L186.18 131.88L192.39 130.33Z M209.45 124.12L211.01 130.33L217.21 131.88L211.01 133.43L209.45 139.64L207.90 133.43L201.70 131.88L207.90 130.33Z M240.48 124.12L242.04 130.33L248.24 131.88L242.04 133.43L240.48 139.64L238.93 133.43L232.73 131.88L238.93 130.33Z M256.00 124.12L257.55 130.33L263.76 131.88L257.55 133.43L256.00 139.64L254.45 133.43L248.24 131.88L254.45 130.33Z M287.03 124.12L288.58 130.33L294.79 131.88L288.58 133.43L287.03 139.64L285.48 133.43L279.27 131.88L285.48 130.33Z M302.55 124.12L304.10 130.33L310.30 131.88L304.10 133.43L302.55 139.64L300.99 133.43L294.79 131.88L300.99 130.33Z M318.06 124.12L319.61 130.33L325.82 131.88L319.61 133.43L318.06 139.64L316.51 133.43L310.30 131.88L316.51 130.33Z M349.09 124.12L350.64 130.33L356.85 131.88L350.64 133.43L349.09 139.64L347.54 133.43L341.33 131.88L347.54 130.33Z M380.12 124.12L381.67 130.33L387.88 131.88L381.67 133.43L380.12 139.64L378.57 133.43L372.36 131.88L378.57 130.33Z M395.64 124.12L397.19 130.33L403.39 131.88L397.19 133.43L395.64 139.64L394.08 133.43L387.88 131.88L394.08 130.33Z M411.15 124.12L412.70 130.33L418.91 131.88L412.70 133.43L411.15 139.64L409.60 133.43L403.39 131.88L409.60 130.33Z M442.18 124.12L443.73 130.33L449.94 131.88L443.73 133.43L442.18 139.64L440.63 133.43L434.42 131.88L440.63 130.33Z M69.82 139.64L71.37 145.84L77.58 147.39L71.37 148.95L69.82 155.15L68.27 148.95L62.06 147.39L68.27 145.84Z M162.91 139.64L164.46 145.84L170.67 147.39L164.46 148.95L162.91 155.15L161.36 148.95L155.15 147.39L161.36 145.84Z M224.97 139.64L226.52 145.84L232.73 147.39L226.52 148.95L224.97 155.15L223.42 148.95L217.21 147.39L223.42 145.84Z M240.48 139.64L242.04 145.84L248.24 147.39L242.04 148.95L240.48 155.15L238.93 148.95L232.73 147.39L238.93 145.84Z M318.06 139.64L319.61 145.84L325.82 147.39L319.61 148.95L318.06 155.15L316.51 148.95L310.30 147.39L316.51 145.84Z M349.09 139.64L350.64 145.84L356.85 147.39L350.64 148.95L349.09 155.15L347.54 148.95L341.33 147.39L347.54 145.84Z M442.18 139.64L443.73 145.84L449.94 147.39L443.73 148.95L442.18 155.15L440.63 148.95L434.42 147.39L440.63 145.84Z M69.82 155.15L71.37 161.36L77.58 162.91L71.37 164.46L69.82 170.67L68.27 164.46L62.06 162.91L68.27 161.36Z M85.33 155.15L86.88 161.36L93.09 162.91L86.88 164.46L85.33 170.67L83.78 164.46L77.58 162.91L83.78 161.36Z M100.85 155.15L102.40 161.36L108.61 162.91L102.40 164.46L100.85 170.67L99.30 164.46L93.09 162.91L99.30 161.36Z M116.36 155.15L117.92 161.36L124.12 162.91L117.92 164.46L116.36 170.67L114.81 164.46L108.61 162.91L114.81 161.36Z M131.88 155.15L133.43 161.36L139.64 162.91L133.43 164.46L131.88 170.67L130.33 164.46L124.12 162.91L130.33 161.36Z M147.39 155.15L148.95 161.36L155.15 162.91L148.95 164.46L147.39 170.67L145.84 164.46L139.64 162.91L145.84 161.36Z M162.91 155.15L164.46 161.36L170.67 162.91L164.46 164.46L162.91 170.67L161.36 164.46L155.15 162.91L161.36 161.36Z M193.94 155.15L195.49 161.36L201.70 162.91L195.49 164.46L193.94 170.67L192.39 164.46L186.18 162.91L192.39 161.36Z M224.97 155.15L226.52 161.36L232.73 162.91L226.52 164.46L224.97 170.67L223.42 164.46L217.21 162.91L223.42 161.36Z M256.00 155.15L257.55 161.36L263.76 162.91L257.55 164.46L256.00 170.67L254.45 164.46L248.24 162.91L254.45 161.36Z M287.03 155.15L288.58 161.36L294.79 162.91L288.58 164.46L287.03 170.67L285.48 164.46L279.27 162.91L285.48 161.36Z M318.06 155.15L319.61 161.36L325.82 162.91L319.61 164.46L318.06 170.67L316.51 164.46L310.30 162.91L316.51 161.36Z M349.09 155.15L350.64 161.36L356.85 162.91L350.64 164.46L349.09 170.67L347.54 164.46L341.33 162.91L347.54 161.36Z M364.61 155.15L366.16 161.36L372.36 162.91L366.16 164.46L364.61 170.67L363.05 164.46L356.85 162.91L363.05 161.36Z M380.12 155.15L381.67 161.36L387.88 162.91L381.67 164.46L380.12 170.67L378.57 164.46L372.36 162.91L378.57 161.36Z M395.64 155.15L397.19 161.36L403.39 162.91L397.19 164.46L395.64 170.67L394.08 164.46L387.88 162.91L394.08 161.36Z M411.15 155.15L412.70 161.36L418.91 162.91L412.70 164.46L411.15 170.67L409.60 164.46L403.39 162.91L409.60 161.36Z M426.67 155.15L428.22 161.36L434.42 162.91L428.22 164.46L426.67 170.67L425.12 164.46L418.91 162.91L425.12 161.36Z M442.18 155.15L443.73 161.36L449.94 162.91L443.73 164.46L442.18 170.67L440.63 164.46L434.42 162.91L440.63 161.36Z M193.94 170.67L195.49 176.87L201.70 178.42L195.49 179.98L193.94 186.18L192.39 179.98L186.18 178.42L192.39 176.87Z M209.45 170.67L211.01 176.87L217.21 178.42L211.01 179.98L209.45 186.18L207.90 179.98L201.70 178.42L207.90 176.87Z M256.00 170.67L257.55 176.87L263.76 178.42L257.55 179.98L256.00 186.18L254.45 179.98L248.24 178.42L254.45 176.87Z M271.52 170.67L273.07 176.87L279.27 178.42L273.07 179.98L271.52 186.18L269.96 179.98L263.76 178.42L269.96 176.87Z M318.06 170.67L319.61 176.87L325.82 178.42L319.61 179.98L318.06 186.18L316.51 179.98L310.30 178.42L316.51 176.87Z M69.82 186.18L71.37 192.39L77.58 193.94L71.37 195.49L69.82 201.70L68.27 195.49L62.06 193.94L68.27 192.39Z M116.36 186.18L117.92 192.39L124.12 193.94L117.92 195.49L116.36 201.70L114.81 195.49L108.61 193.94L114.81 192.39Z M131.88 186.18L133.43 192.39L139.64 193.94L133.43 195.49L131.88 201.70L130.33 195.49L124.12 193.94L130.33 192.39Z M147.39 186.18L148.95 192.39L155.15 193.94L148.95 195.49L147.39 201.70L145.84 195.49L139.64 193.94L145.84 192.39Z M162.91 186.18L164.46 192.39L170.67 193.94L164.46 195.49L162.91 201.70L161.36 195.49L155.15 193.94L161.36 192.39Z M178.42 186.18L179.98 192.39L186.18 193.94L179.98 195.49L178.42 201.70L176.87 195.49L170.67 193.94L176.87 192.39Z M193.94 186.18L195.49 192.39L201.70 193.94L195.49 195.49L193.94 201.70L192.39 195.49L186.18 193.94L192.39 192.39Z M209.45 186.18L211.01 192.39L217.21 193.94L211.01 195.49L209.45 201.70L207.90 195.49L201.70 193.94L207.90 192.39Z M271.52 186.18L273.07 192.39L279.27 193.94L273.07 195.49L271.52 201.70L269.96 195.49L263.76 193.94L269.96 192.39Z M333.58 186.18L335.13 192.39L341.33 193.94L335.13 195.49L333.58 201.70L332.02 195.49L325.82 193.94L332.02 192.39Z M349.09 186.18L350.64 192.39L356.85 193.94L350.64 195.49L349.09 201.70L347.54 195.49L341.33 193.94L347.54 192.39Z M364.61 186.18L366.16 192.39L372.36 193.94L366.16 195.49L364.61 201.70L363.05 195.49L356.85 193.94L363.05 192.39Z M380.12 186.18L381.67 192.39L387.88 193.94L381.67 195.49L380.12 201.70L378.57 195.49L372.36 193.94L378.57 192.39Z M395.64 186.18L397.19 192.39L403.39 193.94L397.19 195.49L395.64 201.70L394.08 195.49L387.88 193.94L394.08 192.39Z M442.18 186.18L443.73 192.39L449.94 193.94L443.73 195.49L442.18 201.70L440.63 195.49L434.42 193.94L440.63 192.39Z M116.36 201.70L117.92 207.90L124.12 209.45L117.92 211.01L116.36 217.21L114.81 211.01L108.61 209.45L114.81 207.90Z M193.94 201.70L195.49 207.90L201.70 209.45L195.49 211.01L193.94 217.21L192.39 211.01L186.18 209.45L192.39 207.90Z M224.97 201.70L226.52 207.90L232.73 209.45L226.52 211.01L224.97 217.21L223.42 211.01L217.21 209.45L223.42 207.90Z M271.52 201.70L273.07 207.90L279.27 209.45L273.07 211.01L271.52 217.21L269.96 211.01L263.76 209.45L269.96 207.90Z M287.03 201.70L288.58 207.90L294.79 209.45L288.58 211.01L287.03 217.21L285.48 211.01L279.27 209.45L285.48 207.90Z M302.55 201.70L304.10 207.90L310.30 209.45L304.10 211.01L302.55 217.21L300.99 211.01L294.79 209.45L300.99 207.90Z M318.06 201.70L319.61 207.90L325.82 209.45L319.61 211.01L318.06 217.21L316.51 211.01L310.30 209.45L316.51 207.90Z M380.12 201.70L381.67 207.90L387.88 209.45L381.67 211.01L380.12 217.21L378.57 211.01L372.36 209.45L378.57 207.90Z M395.64 201.70L397.19 207.90L403.39 209.45L397.19 211.01L395.64 217.21L394.08 211.01L387.88 209.45L394.08 207.90Z M426.67 201.70L428.22 207.90L434.42 209.45L428.22 211.01L426.67 217.21L425.12 211.01L418.91 209.45L425.12 207.90Z M69.82 217.21L71.37 223.42L77.58 224.97L71.37 226.52L69.82 232.73L68.27 226.52L62.06 224.97L68.27 223.42Z M85.33 217.21L86.88 223.42L93.09 224.97L86.88 226.52L85.33 232.73L83.78 226.52L77.58 224.97L83.78 223.42Z M100.85 217.21L102.40 223.42L108.61 224.97L102.40 226.52L100.85 232.73L99.30 226.52L93.09 224.97L99.30 223.42Z M116.36 217.21L117.92 223.42L124.12 224.97L117.92 226.52L116.36 232.73L114.81 226.52L108.61 224.97L114.81 223.42Z M131.88 217.21L133.43 223.42L139.64 224.97L133.43 226.52L131.88 232.73L130.33 226.52L124.12 224.97L130.33 223.42Z M147.39 217.21L148.95 223.42L155.15 224.97L148.95 226.52L147.39 232.73L145.84 226.52L139.64 224.97L145.84 223.42Z M162.91 217.21L164.46 223.42L170.67 224.97L164.46 226.52L162.91 232.73L161.36 226.52L155.15 224.97L161.36 223.42Z M193.94 217.21L195.49 223.42L201.70 224.97L195.49 226.52L193.94 232.73L192.39 226.52L186.18 224.97L192.39 223.42Z M209.45 217.21L211.01 223.42L217.21 224.97L211.01 226.52L209.45 232.73L207.90 226.52L201.70 224.97L207.90 223.42Z M240.48 217.21L242.04 223.42L248.24 224.97L242.04 226.52L240.48 232.73L238.93 226.52L232.73 224.97L238.93 223.42Z M256.00 217.21L257.55 223.42L263.76 224.97L257.55 226.52L256.00 232.73L254.45 226.52L248.24 224.97L254.45 223.42Z M302.55 217.21L304.10 223.42L310.30 224.97L304.10 226.52L302.55 232.73L300.99 226.52L294.79 224.97L300.99 223.42Z M318.06 217.21L319.61 223.42L325.82 224.97L319.61 226.52L318.06 232.73L316.51 226.52L310.30 224.97L316.51 223.42Z M349.09 217.21L350.64 223.42L356.85 224.97L350.64 226.52L349.09 232.73L347.54 226.52L341.33 224.97L347.54 223.42Z M364.61 217.21L366.16 223.42L372.36 224.97L366.16 226.52L364.61 232.73L363.05 226.52L356.85 224.97L363.05 223.42Z M380.12 217.21L381.67 223.42L387.88 224.97L381.67 226.52L380.12 232.73L378.57 226.52L372.36 224.97L378.57 223.42Z M395.64 217.21L397.19 223.42L403.39 224.97L397.19 226.52L395.64 232.73L394.08 226.52L387.88 224.97L394.08 223.42Z M411.15 217.21L412.70 223.42L418.91 224.97L412.70 226.52L411.15 232.73L409.60 226.52L403.39 224.97L409.60 223.42Z M69.82 232.73L71.37 238.93L77.58 240.48L71.37 242.04L69.82 248.24L68.27 242.04L62.06 240.48L68.27 238.93Z M100.85 232.73L102.40 238.93L108.61 240.48L102.40 242.04L100.85 248.24L99.30 242.04L93.09 240.48L99.30 238.93Z M193.94 232.73L195.49 238.93L201.70 240.48L195.49 242.04L193.94 248.24L192.39 242.04L186.18 240.48L192.39 238.93Z M209.45 232.73L211.01 238.93L217.21 240.48L211.01 242.04L209.45 248.24L207.90 242.04L201.70 240.48L207.90 238.93Z M287.03 232.73L288.58 238.93L294.79 240.48L288.58 242.04L287.03 248.24L285.48 242.04L279.27 240.48L285.48 238.93Z M349.09 232.73L350.64 238.93L356.85 240.48L350.64 242.04L349.09 248.24L347.54 242.04L341.33 240.48L347.54 238.93Z M364.61 232.73L366.16 238.93L372.36 240.48L366.16 242.04L364.61 248.24L363.05 242.04L356.85 240.48L363.05 238.93Z M411.15 232.73L412.70 238.93L418.91 240.48L412.70 242.04L411.15 248.24L409.60 242.04L403.39 240.48L409.60 238.93Z M426.67 232.73L428.22 238.93L434.42 240.48L428.22 242.04L426.67 248.24L425.12 242.04L418.91 240.48L425.12 238.93Z M69.82 248.24L71.37 254.45L77.58 256.00L71.37 257.55L69.82 263.76L68.27 257.55L62.06 256.00L68.27 254.45Z M100.85 248.24L102.40 254.45L108.61 256.00L102.40 257.55L100.85 263.76L99.30 257.55L93.09 256.00L99.30 254.45Z M131.88 248.24L133.43 254.45L139.64 256.00L133.43 257.55L131.88 263.76L130.33 257.55L124.12 256.00L130.33 254.45Z M147.39 248.24L148.95 254.45L155.15 256.00L148.95 257.55L147.39 263.76L145.84 257.55L139.64 256.00L145.84 254.45Z M162.91 248.24L164.46 254.45L170.67 256.00L164.46 257.55L162.91 263.76L161.36 257.55L155.15 256.00L161.36 254.45Z M178.42 248.24L179.98 254.45L186.18 256.00L179.98 257.55L178.42 263.76L176.87 257.55L170.67 256.00L176.87 254.45Z M209.45 248.24L211.01 254.45L217.21 256.00L211.01 257.55L209.45 263.76L207.90 257.55L201.70 256.00L207.90 254.45Z M224.97 248.24L226.52 254.45L232.73 256.00L226.52 257.55L224.97 263.76L223.42 257.55L217.21 256.00L223.42 254.45Z M271.52 248.24L273.07 254.45L279.27 256.00L273.07 257.55L271.52 263.76L269.96 257.55L263.76 256.00L269.96 254.45Z M287.03 248.24L288.58 254.45L294.79 256.00L288.58 257.55L287.03 263.76L285.48 257.55L279.27 256.00L285.48 254.45Z M302.55 248.24L304.10 254.45L310.30 256.00L304.10 257.55L302.55 263.76L300.99 257.55L294.79 256.00L300.99 254.45Z M333.58 248.24L335.13 254.45L341.33 256.00L335.13 257.55L333.58 263.76L332.02 257.55L325.82 256.00L332.02 254.45Z M349.09 248.24L350.64 254.45L356.85 256.00L350.64 257.55L349.09 263.76L347.54 257.55L341.33 256.00L347.54 254.45Z M364.61 248.24L366.16 254.45L372.36 256.00L366.16 257.55L364.61 263.76L363.05 257.55L356.85 256.00L363.05 254.45Z M395.64 248.24L397.19 254.45L403.39 256.00L397.19 257.55L395.64 263.76L394.08 257.55L387.88 256.00L394.08 254.45Z M411.15 248.24L412.70 254.45L418.91 256.00L412.70 257.55L411.15 263.76L409.60 257.55L403.39 256.00L409.60 254.45Z M426.67 248.24L428.22 254.45L434.42 256.00L428.22 257.55L426.67 263.76L425.12 257.55L418.91 256.00L425.12 254.45Z M442.18 248.24L443.73 254.45L449.94 256.00L443.73 257.55L442.18 263.76L440.63 257.55L434.42 256.00L440.63 254.45Z M69.82 263.76L71.37 269.96L77.58 271.52L71.37 273.07L69.82 279.27L68.27 273.07L62.06 271.52L68.27 269.96Z M85.33 263.76L86.88 269.96L93.09 271.52L86.88 273.07L85.33 279.27L83.78 273.07L77.58 271.52L83.78 269.96Z M116.36 263.76L117.92 269.96L124.12 271.52L117.92 273.07L116.36 279.27L114.81 273.07L108.61 271.52L114.81 269.96Z M131.88 263.76L133.43 269.96L139.64 271.52L133.43 273.07L131.88 279.27L130.33 273.07L124.12 271.52L130.33 269.96Z M147.39 263.76L148.95 269.96L155.15 271.52L148.95 273.07L147.39 279.27L145.84 273.07L139.64 271.52L145.84 269.96Z M193.94 263.76L195.49 269.96L201.70 271.52L195.49 273.07L193.94 279.27L192.39 273.07L186.18 271.52L192.39 269.96Z M209.45 263.76L211.01 269.96L217.21 271.52L211.01 273.07L209.45 279.27L207.90 273.07L201.70 271.52L207.90 269.96Z M224.97 263.76L226.52 269.96L232.73 271.52L226.52 273.07L224.97 279.27L223.42 273.07L217.21 271.52L223.42 269.96Z M256.00 263.76L257.55 269.96L263.76 271.52L257.55 273.07L256.00 279.27L254.45 273.07L248.24 271.52L254.45 269.96Z M302.55 263.76L304.10 269.96L310.30 271.52L304.10 273.07L302.55 279.27L300.99 273.07L294.79 271.52L300.99 269.96Z M380.12 263.76L381.67 269.96L387.88 271.52L381.67 273.07L380.12 279.27L378.57 273.07L372.36 271.52L378.57 269.96Z M426.67 263.76L428.22 269.96L434.42 271.52L428.22 273.07L426.67 279.27L425.12 273.07L418.91 271.52L425.12 269.96Z M162.91 279.27L164.46 285.48L170.67 287.03L164.46 288.58L162.91 294.79L161.36 288.58L155.15 287.03L161.36 285.48Z M193.94 279.27L195.49 285.48L201.70 287.03L195.49 288.58L193.94 294.79L192.39 288.58L186.18 287.03L192.39 285.48Z M209.45 279.27L211.01 285.48L217.21 287.03L211.01 288.58L209.45 294.79L207.90 288.58L201.70 287.03L207.90 285.48Z M240.48 279.27L242.04 285.48L248.24 287.03L242.04 288.58L240.48 294.79L238.93 288.58L232.73 287.03L238.93 285.48Z M256.00 279.27L257.55 285.48L263.76 287.03L257.55 288.58L256.00 294.79L254.45 288.58L248.24 287.03L254.45 285.48Z M271.52 279.27L273.07 285.48L279.27 287.03L273.07 288.58L271.52 294.79L269.96 288.58L263.76 287.03L269.96 285.48Z M287.03 279.27L288.58 285.48L294.79 287.03L288.58 288.58L287.03 294.79L285.48 288.58L279.27 287.03L285.48 285.48Z M302.55 279.27L304.10 285.48L310.30 287.03L304.10 288.58L302.55 294.79L300.99 288.58L294.79 287.03L300.99 285.48Z M349.09 279.27L350.64 285.48L356.85 287.03L350.64 288.58L349.09 294.79L347.54 288.58L341.33 287.03L347.54 285.48Z M364.61 279.27L366.16 285.48L372.36 287.03L366.16 288.58L364.61 294.79L363.05 288.58L356.85 287.03L363.05 285.48Z M380.12 279.27L381.67 285.48L387.88 287.03L381.67 288.58L380.12 294.79L378.57 288.58L372.36 287.03L378.57 285.48Z M395.64 279.27L397.19 285.48L403.39 287.03L397.19 288.58L395.64 294.79L394.08 288.58L387.88 287.03L394.08 285.48Z M411.15 279.27L412.70 285.48L418.91 287.03L412.70 288.58L411.15 294.79L409.60 288.58L403.39 287.03L409.60 285.48Z M116.36 294.79L117.92 300.99L124.12 302.55L117.92 304.10L116.36 310.30L114.81 304.10L108.61 302.55L114.81 300.99Z M131.88 294.79L133.43 300.99L139.64 302.55L133.43 304.10L131.88 310.30L130.33 304.10L124.12 302.55L130.33 300.99Z M178.42 294.79L179.98 300.99L186.18 302.55L179.98 304.10L178.42 310.30L176.87 304.10L170.67 302.55L176.87 300.99Z M240.48 294.79L242.04 300.99L248.24 302.55L242.04 304.10L240.48 310.30L238.93 304.10L232.73 302.55L238.93 300.99Z M271.52 294.79L273.07 300.99L279.27 302.55L273.07 304.10L271.52 310.30L269.96 304.10L263.76 302.55L269.96 300.99Z M302.55 294.79L304.10 300.99L310.30 302.55L304.10 304.10L302.55 310.30L300.99 304.10L294.79 302.55L300.99 300.99Z M349.09 294.79L350.64 300.99L356.85 302.55L350.64 304.10L349.09 310.30L347.54 304.10L341.33 302.55L347.54 300.99Z M364.61 294.79L366.16 300.99L372.36 302.55L366.16 304.10L364.61 310.30L363.05 304.10L356.85 302.55L363.05 300.99Z M380.12 294.79L381.67 300.99L387.88 302.55L381.67 304.10L380.12 310.30L378.57 304.10L372.36 302.55L378.57 300.99Z M411.15 294.79L412.70 300.99L418.91 302.55L412.70 304.10L411.15 310.30L409.60 304.10L403.39 302.55L409.60 300.99Z M426.67 294.79L428.22 300.99L434.42 302.55L428.22 304.10L426.67 310.30L425.12 304.10L418.91 302.55L425.12 300.99Z M69.82 310.30L71.37 316.51L77.58 318.06L71.37 319.61L69.82 325.82L68.27 319.61L62.06 318.06L68.27 316.51Z M85.33 310.30L86.88 316.51L93.09 318.06L86.88 319.61L85.33 325.82L83.78 319.61L77.58 318.06L83.78 316.51Z M116.36 310.30L117.92 316.51L124.12 318.06L117.92 319.61L116.36 325.82L114.81 319.61L108.61 318.06L114.81 316.51Z M131.88 310.30L133.43 316.51L139.64 318.06L133.43 319.61L131.88 325.82L130.33 319.61L124.12 318.06L130.33 316.51Z M147.39 310.30L148.95 316.51L155.15 318.06L148.95 319.61L147.39 325.82L145.84 319.61L139.64 318.06L145.84 316.51Z M162.91 310.30L164.46 316.51L170.67 318.06L164.46 319.61L162.91 325.82L161.36 319.61L155.15 318.06L161.36 316.51Z M178.42 310.30L179.98 316.51L186.18 318.06L179.98 319.61L178.42 325.82L176.87 319.61L170.67 318.06L176.87 316.51Z M224.97 310.30L226.52 316.51L232.73 318.06L226.52 319.61L224.97 325.82L223.42 319.61L217.21 318.06L223.42 316.51Z M256.00 310.30L257.55 316.51L263.76 318.06L257.55 319.61L256.00 325.82L254.45 319.61L248.24 318.06L254.45 316.51Z M271.52 310.30L273.07 316.51L279.27 318.06L273.07 319.61L271.52 325.82L269.96 319.61L263.76 318.06L269.96 316.51Z M318.06 310.30L319.61 316.51L325.82 318.06L319.61 319.61L318.06 325.82L316.51 319.61L310.30 318.06L316.51 316.51Z M333.58 310.30L335.13 316.51L341.33 318.06L335.13 319.61L333.58 325.82L332.02 319.61L325.82 318.06L332.02 316.51Z M349.09 310.30L350.64 316.51L356.85 318.06L350.64 319.61L349.09 325.82L347.54 319.61L341.33 318.06L347.54 316.51Z M364.61 310.30L366.16 316.51L372.36 318.06L366.16 319.61L364.61 325.82L363.05 319.61L356.85 318.06L363.05 316.51Z M380.12 310.30L381.67 316.51L387.88 318.06L381.67 319.61L380.12 325.82L378.57 319.61L372.36 318.06L378.57 316.51Z M395.64 310.30L397.19 316.51L403.39 318.06L397.19 319.61L395.64 325.82L394.08 319.61L387.88 318.06L394.08 316.51Z M411.15 310.30L412.70 316.51L418.91 318.06L412.70 319.61L411.15 325.82L409.60 319.61L403.39 318.06L409.60 316.51Z M193.94 325.82L195.49 332.02L201.70 333.58L195.49 335.13L193.94 341.33L192.39 335.13L186.18 333.58L192.39 332.02Z M224.97 325.82L226.52 332.02L232.73 333.58L226.52 335.13L224.97 341.33L223.42 335.13L217.21 333.58L223.42 332.02Z M271.52 325.82L273.07 332.02L279.27 333.58L273.07 335.13L271.52 341.33L269.96 335.13L263.76 333.58L269.96 332.02Z M287.03 325.82L288.58 332.02L294.79 333.58L288.58 335.13L287.03 341.33L285.48 335.13L279.27 333.58L285.48 332.02Z M318.06 325.82L319.61 332.02L325.82 333.58L319.61 335.13L318.06 341.33L316.51 335.13L310.30 333.58L316.51 332.02Z M380.12 325.82L381.67 332.02L387.88 333.58L381.67 335.13L380.12 341.33L378.57 335.13L372.36 333.58L378.57 332.02Z M69.82 341.33L71.37 347.54L77.58 349.09L71.37 350.64L69.82 356.85L68.27 350.64L62.06 349.09L68.27 347.54Z M85.33 341.33L86.88 347.54L93.09 349.09L86.88 350.64L85.33 356.85L83.78 350.64L77.58 349.09L83.78 347.54Z M100.85 341.33L102.40 347.54L108.61 349.09L102.40 350.64L100.85 356.85L99.30 350.64L93.09 349.09L99.30 347.54Z M116.36 341.33L117.92 347.54L124.12 349.09L117.92 350.64L116.36 356.85L114.81 350.64L108.61 349.09L114.81 347.54Z M131.88 341.33L133.43 347.54L139.64 349.09L133.43 350.64L131.88 356.85L130.33 350.64L124.12 349.09L130.33 347.54Z M147.39 341.33L148.95 347.54L155.15 349.09L148.95 350.64L147.39 356.85L145.84 350.64L139.64 349.09L145.84 347.54Z M162.91 341.33L164.46 347.54L170.67 349.09L164.46 350.64L162.91 356.85L161.36 350.64L155.15 349.09L161.36 347.54Z M193.94 341.33L195.49 347.54L201.70 349.09L195.49 350.64L193.94 356.85L192.39 350.64L186.18 349.09L192.39 347.54Z M224.97 341.33L226.52 347.54L232.73 349.09L226.52 350.64L224.97 356.85L223.42 350.64L217.21 349.09L223.42 347.54Z M318.06 341.33L319.61 347.54L325.82 349.09L319.61 350.64L318.06 356.85L316.51 350.64L310.30 349.09L316.51 347.54Z M349.09 341.33L350.64 347.54L356.85 349.09L350.64 350.64L349.09 356.85L347.54 350.64L341.33 349.09L347.54 347.54Z M380.12 341.33L381.67 347.54L387.88 349.09L381.67 350.64L380.12 356.85L378.57 350.64L372.36 349.09L378.57 347.54Z M69.82 356.85L71.37 363.05L77.58 364.61L71.37 366.16L69.82 372.36L68.27 366.16L62.06 364.61L68.27 363.05Z M162.91 356.85L164.46 363.05L170.67 364.61L164.46 366.16L162.91 372.36L161.36 366.16L155.15 364.61L161.36 363.05Z M224.97 356.85L226.52 363.05L232.73 364.61L226.52 366.16L224.97 372.36L223.42 366.16L217.21 364.61L223.42 363.05Z M256.00 356.85L257.55 363.05L263.76 364.61L257.55 366.16L256.00 372.36L254.45 366.16L248.24 364.61L254.45 363.05Z M287.03 356.85L288.58 363.05L294.79 364.61L288.58 366.16L287.03 372.36L285.48 366.16L279.27 364.61L285.48 363.05Z M318.06 356.85L319.61 363.05L325.82 364.61L319.61 366.16L318.06 372.36L316.51 366.16L310.30 364.61L316.51 363.05Z M380.12 356.85L381.67 363.05L387.88 364.61L381.67 366.16L380.12 372.36L378.57 366.16L372.36 364.61L378.57 363.05Z M395.64 356.85L397.19 363.05L403.39 364.61L397.19 366.16L395.64 372.36L394.08 366.16L387.88 364.61L394.08 363.05Z M411.15 356.85L412.70 363.05L418.91 364.61L412.70 366.16L411.15 372.36L409.60 366.16L403.39 364.61L409.60 363.05Z M426.67 356.85L428.22 363.05L434.42 364.61L428.22 366.16L426.67 372.36L425.12 366.16L418.91 364.61L425.12 363.05Z M442.18 356.85L443.73 363.05L449.94 364.61L443.73 366.16L442.18 372.36L440.63 366.16L434.42 364.61L440.63 363.05Z M69.82 372.36L71.37 378.57L77.58 380.12L71.37 381.67L69.82 387.88L68.27 381.67L62.06 380.12L68.27 378.57Z M100.85 372.36L102.40 378.57L108.61 380.12L102.40 381.67L100.85 387.88L99.30 381.67L93.09 380.12L99.30 378.57Z M116.36 372.36L117.92 378.57L124.12 380.12L117.92 381.67L116.36 387.88L114.81 381.67L108.61 380.12L114.81 378.57Z M131.88 372.36L133.43 378.57L139.64 380.12L133.43 381.67L131.88 387.88L130.33 381.67L124.12 380.12L130.33 378.57Z M162.91 372.36L164.46 378.57L170.67 380.12L164.46 381.67L162.91 387.88L161.36 381.67L155.15 380.12L161.36 378.57Z M193.94 372.36L195.49 378.57L201.70 380.12L195.49 381.67L193.94 387.88L192.39 381.67L186.18 380.12L192.39 378.57Z M209.45 372.36L211.01 378.57L217.21 380.12L211.01 381.67L209.45 387.88L207.90 381.67L201.70 380.12L207.90 378.57Z M240.48 372.36L242.04 378.57L248.24 380.12L242.04 381.67L240.48 387.88L238.93 381.67L232.73 380.12L238.93 378.57Z M271.52 372.36L273.07 378.57L279.27 380.12L273.07 381.67L271.52 387.88L269.96 381.67L263.76 380.12L269.96 378.57Z M287.03 372.36L288.58 378.57L294.79 380.12L288.58 381.67L287.03 387.88L285.48 381.67L279.27 380.12L285.48 378.57Z M318.06 372.36L319.61 378.57L325.82 380.12L319.61 381.67L318.06 387.88L316.51 381.67L310.30 380.12L316.51 378.57Z M333.58 372.36L335.13 378.57L341.33 380.12L335.13 381.67L333.58 387.88L332.02 381.67L325.82 380.12L332.02 378.57Z M349.09 372.36L350.64 378.57L356.85 380.12L350.64 381.67L349.09 387.88L347.54 381.67L341.33 380.12L347.54 378.57Z M364.61 372.36L366.16 378.57L372.36 380.12L366.16 381.67L364.61 387.88L363.05 381.67L356.85 380.12L363.05 378.57Z M380.12 372.36L381.67 378.57L387.88 380.12L381.67 381.67L380.12 387.88L378.57 381.67L372.36 380.12L378.57 378.57Z M395.64 372.36L397.19 378.57L403.39 380.12L397.19 381.67L395.64 387.88L394.08 381.67L387.88 380.12L394.08 378.57Z M411.15 372.36L412.70 378.57L418.91 380.12L412.70 381.67L411.15 387.88L409.60 381.67L403.39 380.12L409.60 378.57Z M442.18 372.36L443.73 378.57L449.94 380.12L443.73 381.67L442.18 387.88L440.63 381.67L434.42 380.12L440.63 378.57Z M69.82 387.88L71.37 394.08L77.58 395.64L71.37 397.19L69.82 403.39L68.27 397.19L62.06 395.64L68.27 394.08Z M100.85 387.88L102.40 394.08L108.61 395.64L102.40 397.19L100.85 403.39L99.30 397.19L93.09 395.64L99.30 394.08Z M116.36 387.88L117.92 394.08L124.12 395.64L117.92 397.19L116.36 403.39L114.81 397.19L108.61 395.64L114.81 394.08Z M131.88 387.88L133.43 394.08L139.64 395.64L133.43 397.19L131.88 403.39L130.33 397.19L124.12 395.64L130.33 394.08Z M162.91 387.88L164.46 394.08L170.67 395.64L164.46 397.19L162.91 403.39L161.36 397.19L155.15 395.64L161.36 394.08Z M209.45 387.88L211.01 394.08L217.21 395.64L211.01 397.19L209.45 403.39L207.90 397.19L201.70 395.64L207.90 394.08Z M224.97 387.88L226.52 394.08L232.73 395.64L226.52 397.19L224.97 403.39L223.42 397.19L217.21 395.64L223.42 394.08Z M256.00 387.88L257.55 394.08L263.76 395.64L257.55 397.19L256.00 403.39L254.45 397.19L248.24 395.64L254.45 394.08Z M333.58 387.88L335.13 394.08L341.33 395.64L335.13 397.19L333.58 403.39L332.02 397.19L325.82 395.64L332.02 394.08Z M349.09 387.88L350.64 394.08L356.85 395.64L350.64 397.19L349.09 403.39L347.54 397.19L341.33 395.64L347.54 394.08Z M364.61 387.88L366.16 394.08L372.36 395.64L366.16 397.19L364.61 403.39L363.05 397.19L356.85 395.64L363.05 394.08Z M411.15 387.88L412.70 394.08L418.91 395.64L412.70 397.19L411.15 403.39L409.60 397.19L403.39 395.64L409.60 394.08Z M426.67 387.88L428.22 394.08L434.42 395.64L428.22 397.19L426.67 403.39L425.12 397.19L418.91 395.64L425.12 394.08Z M442.18 387.88L443.73 394.08L449.94 395.64L443.73 397.19L442.18 403.39L440.63 397.19L434.42 395.64L440.63 394.08Z M69.82 403.39L71.37 409.60L77.58 411.15L71.37 412.70L69.82 418.91L68.27 412.70L62.06 411.15L68.27 409.60Z M100.85 403.39L102.40 409.60L108.61 411.15L102.40 412.70L100.85 418.91L99.30 412.70L93.09 411.15L99.30 409.60Z M116.36 403.39L117.92 409.60L124.12 411.15L117.92 412.70L116.36 418.91L114.81 412.70L108.61 411.15L114.81 409.60Z M131.88 403.39L133.43 409.60L139.64 411.15L133.43 412.70L131.88 418.91L130.33 412.70L124.12 411.15L130.33 409.60Z M162.91 403.39L164.46 409.60L170.67 411.15L164.46 412.70L162.91 418.91L161.36 412.70L155.15 411.15L161.36 409.60Z M209.45 403.39L211.01 409.60L217.21 411.15L211.01 412.70L209.45 418.91L207.90 412.70L201.70 411.15L207.90 409.60Z M224.97 403.39L226.52 409.60L232.73 411.15L226.52 412.70L224.97 418.91L223.42 412.70L217.21 411.15L223.42 409.60Z M240.48 403.39L242.04 409.60L248.24 411.15L242.04 412.70L240.48 418.91L238.93 412.70L232.73 411.15L238.93 409.60Z M256.00 403.39L257.55 409.60L263.76 411.15L257.55 412.70L256.00 418.91L254.45 412.70L248.24 411.15L254.45 409.60Z M271.52 403.39L273.07 409.60L279.27 411.15L273.07 412.70L271.52 418.91L269.96 412.70L263.76 411.15L269.96 409.60Z M287.03 403.39L288.58 409.60L294.79 411.15L288.58 412.70L287.03 418.91L285.48 412.70L279.27 411.15L285.48 409.60Z M333.58 403.39L335.13 409.60L341.33 411.15L335.13 412.70L333.58 418.91L332.02 412.70L325.82 411.15L332.02 409.60Z M349.09 403.39L350.64 409.60L356.85 411.15L350.64 412.70L349.09 418.91L347.54 412.70L341.33 411.15L347.54 409.60Z M395.64 403.39L397.19 409.60L403.39 411.15L397.19 412.70L395.64 418.91L394.08 412.70L387.88 411.15L394.08 409.60Z M426.67 403.39L428.22 409.60L434.42 411.15L428.22 412.70L426.67 418.91L425.12 412.70L418.91 411.15L425.12 409.60Z M69.82 418.91L71.37 425.12L77.58 426.67L71.37 428.22L69.82 434.42L68.27 428.22L62.06 426.67L68.27 425.12Z M162.91 418.91L164.46 425.12L170.67 426.67L164.46 428.22L162.91 434.42L161.36 428.22L155.15 426.67L161.36 425.12Z M224.97 418.91L226.52 425.12L232.73 426.67L226.52 428.22L224.97 434.42L223.42 428.22L217.21 426.67L223.42 425.12Z M240.48 418.91L242.04 425.12L248.24 426.67L242.04 428.22L240.48 434.42L238.93 428.22L232.73 426.67L238.93 425.12Z M271.52 418.91L273.07 425.12L279.27 426.67L273.07 428.22L271.52 434.42L269.96 428.22L263.76 426.67L269.96 425.12Z M302.55 418.91L304.10 425.12L310.30 426.67L304.10 428.22L302.55 434.42L300.99 428.22L294.79 426.67L300.99 425.12Z M364.61 418.91L366.16 425.12L372.36 426.67L366.16 428.22L364.61 434.42L363.05 428.22L356.85 426.67L363.05 425.12Z M380.12 418.91L381.67 425.12L387.88 426.67L381.67 428.22L380.12 434.42L378.57 428.22L372.36 426.67L378.57 425.12Z M395.64 418.91L397.19 425.12L403.39 426.67L397.19 428.22L395.64 434.42L394.08 428.22L387.88 426.67L394.08 425.12Z M411.15 418.91L412.70 425.12L418.91 426.67L412.70 428.22L411.15 434.42L409.60 428.22L403.39 426.67L409.60 425.12Z M426.67 418.91L428.22 425.12L434.42 426.67L428.22 428.22L426.67 434.42L425.12 428.22L418.91 426.67L425.12 425.12Z M69.82 434.42L71.37 440.63L77.58 442.18L71.37 443.73L69.82 449.94L68.27 443.73L62.06 442.18L68.27 440.63Z M85.33 434.42L86.88 440.63L93.09 442.18L86.88 443.73L85.33 449.94L83.78 443.73L77.58 442.18L83.78 440.63Z M100.85 434.42L102.40 440.63L108.61 442.18L102.40 443.73L100.85 449.94L99.30 443.73L93.09 442.18L99.30 440.63Z M116.36 434.42L117.92 440.63L124.12 442.18L117.92 443.73L116.36 449.94L114.81 443.73L108.61 442.18L114.81 440.63Z M131.88 434.42L133.43 440.63L139.64 442.18L133.43 443.73L131.88 449.94L130.33 443.73L124.12 442.18L130.33 440.63Z M147.39 434.42L148.95 440.63L155.15 442.18L148.95 443.73L147.39 449.94L145.84 443.73L139.64 442.18L145.84 440.63Z M162.91 434.42L164.46 440.63L170.67 442.18L164.46 443.73L162.91 449.94L161.36 443.73L155.15 442.18L161.36 440.63Z M193.94 434.42L195.49 440.63L201.70 442.18L195.49 443.73L193.94 449.94L192.39 443.73L186.18 442.18L192.39 440.63Z M224.97 434.42L226.52 440.63L232.73 442.18L226.52 443.73L224.97 449.94L223.42 443.73L217.21 442.18L223.42 440.63Z M256.00 434.42L257.55 440.63L263.76 442.18L257.55 443.73L256.00 449.94L254.45 443.73L248.24 442.18L254.45 440.63Z M271.52 434.42L273.07 440.63L279.27 442.18L273.07 443.73L271.52 449.94L269.96 443.73L263.76 442.18L269.96 440.63Z M302.55 434.42L304.10 440.63L310.30 442.18L304.10 443.73L302.55 449.94L300.99 443.73L294.79 442.18L300.99 440.63Z M333.58 434.42L335.13 440.63L341.33 442.18L335.13 443.73L333.58 449.94L332.02 443.73L325.82 442.18L332.02 440.63Z M411.15 434.42L412.70 440.63L418.91 442.18L412.70 443.73L411.15 449.94L409.60 443.73L403.39 442.18L409.60 440.63Z M426.67 434.42L428.22 440.63L434.42 442.18L428.22 443.73L426.67 449.94L425.12 443.73L418.91 442.18L425.12 440.63Z M442.18 434.42L443.73 440.63L449.94 442.18L443.73 443.73L442.18 449.94L440.63 443.73L434.42 442.18L440.63 440.63Z "/>
</svg>