<svg xmlns="http://www.w3.org/2000/svg" viewBox="0 0 512 512" width="512" height="512">
<rect width="100%" height="100%" fill="#FFFFFF"/>
<path fill="#e67e22" d="M69.82 62.06L77.58 69.82L69.82 77.58L62.06 69.82Z M85.33 62.06L93.09 69.82L85.33 77.58L77.58 69.82Z M100.85 62.06L108.61 69.82L100.85 77.58L93.09 69.82Z M116.36 62.06L124.12 69.82L116.36 77.58L108.61 69.82Z M131.88 62.06L139.64 69.82L131.88 77.58L124.12 69.82Z M147.39 62.06L155.15 69.82L147.39 77.58L139.64 69.82Z M162.91 62.06L170.67 69.82L162.91 77.58L155.15 69.82Z M193.94 62.06L201.70 69.82L193.94 77.58L186.18 69.82Z M209.45 62.06L217.21 69.82L209.45 77.58L201.70 69.82Z M240.48 62.06L248.24 69.82L240.48 77.58L232.73 69.82Z M256.00 62.06L263.76 69.82L256.00 77.58L248.24 69.82Z M287.03 62.06L294.79 69.82L287.03 77.58L279.27 69.82Z M302.55 62.06L310.30 69.82L302.55 77.58L294.79 69.82Z M318.06 62.06L325.82 69.82L318.06 77.58L310.30 69.82Z M349.09 62.06L356.85 69.82L349.09 77.58L341.33 69.82Z M364.61 62.06L372.36 69.82L364.61 77.58L356.85 69.82Z M380.12 62.06L387.88 69.82L380.12 77.58L372.36 69.82Z M395.64 62.06L403.39 69.82L395.64 77.58L387.88 69.82Z M411.15 62.06L418.91 69.82L411.15 77.58L403.39 69.82Z M426.67 62.06L434.42 69.82L426.67 77.58L418.91 69.82Z M442.18 62.06L449.94 69.82L442.18 77.58L434.42 69.82Z M69.82 77.58L77.58 85.33L69.82 93.09L62.06 85.33Z M162.91 77.58L170.67 85.33L162.91 93.09L155.15 85.33Z M224.97 77.58L232.73 85.33L224.97 93.09L217.21 85.33Z M240.48 77.58L248.24 85.33L240.48 93.09L232.73 85.33Z M271.52 77.58L279.27 85.33L271.52 93.09L263.76 85.33Z M318.06 77.58L325.82 85.33L318.06 93.09L310.30 85.33Z M349.09 77.58L356.85 85.33L349.09 93.09L341.33 85.33Z M442.18 77.58L449.94 85.33L442.18 93.09L434.42 85.33Z M69.82 93.09L77.58 100.85L69.82 108.61L62.06 100.85Z M100.85 93.09L108.61 100.85L100.85 108.61L93.09 100.85Z M116.36 93.09L124.12 100.85L116.36 108.61L108.61 100.85Z M131.88 93.09L139.64 100.85L131.88 108.61L124.12 100.85Z M162.91 93.09L170.67 100.85L162.91 108.61L155.15 100.85Z M209.45 93.09L217.21 100.85L209.45 108.61L201.70 100.85Z M224.97 93.09L232.73 100.85L224.97 108.61L217.21 100.85Z M256.00 93.09L263.76 100.85L256.00 108.61L248.24 100.85Z M287.03 93.09L294.79 100.85L287.03 108.61L279.27 100.85Z M349.09 93.09L356.85 100.85L349.09 108.61L341.33 100.85Z M380.12 93.09L387.88 100.85L380.12 108.61L372.36 100.85Z M395.64 93.09L403.39 100.85L395.64 108.61L387.88 100.85Z M411.15 93.09L418.91 100.85L411.15 108.61L403.39 100.85Z M442.18 93.09L449.94 100.85L442.18 108.61L434.42 100.85Z M69.82 108.61L77.58 116.36L69.82 124.12L62.06 116.36Z M100.85 108.61L108.61 116.36L100.85 124.12L93.09 116.36Z M116.36 108.61L124.12 116.36L116.36 124.12L108.61 116.36Z M131.88 108.61L139.64 116.36L131.88 124.12L124.12 116.36Z M162.91 108.61L170.67 116.36L162.91 124.12L155.15 116.36Z M318.06 108.61L325.82 116.36L318.06 124.12L310.30 116.36Z M349.09 108.61L356.85 116.36L349.09 124.12L341.33 116.36Z M380.12 108.61L387.88 116.36L380.12 124.12L372.36 116.36Z M395.64 108.61L403.39 116.36L395.64 124.12L387.88 116.36Z M411.15 108.61L418.91 116.36L411.15 124.12L403.39 116.36Z M442.18 108.61L449.94 116.36L442.18 124.12L434.42 116.36Z M69.82 124.12L77.58 131.88L69.82 139.64L62.06 131.88Z M100.85 124.12L108.61 131.88L100.85 139.64L93.09 131.88Z M116.36 124.12L124.12 131.88L116.36 139.64L108.61 131.88Z M131.88 124.12L139.64 131.88L131.88 139.64L124.12 131.88Z M162.91 124.12L170.67 131.88L162.91 139.64L155.15 131.88Z M193.94 124.12L201.70 131.88L193.94 139.64L186.18 131.88Z M209.45 124.12L217.21 131.88L209.45 139.64L201.70 131.88Z M240.48 124.12L248.24 131.88L240.48 139.64L232.73 131.88Z M256.00 124.12L263.76 131.88L256.00 139.64L248.24 131.88Z M287.03 124.12L294.79 131.88L287.03 139.64L279.27 131.88Z M302.55 124.12L310.30 131.88L302.55 139.64L294.79 131.88Z M318.06 124.12L325.82 131.88L318.06 139.64L310.30 131.88Z M349.09 124.12L356.85 131.88L349.09 139.64L341.33 131.88Z M380.12 124.12L387.88 131.88L380.12 139.64L372.36 131.88Z M395.64 124.12L403.39 131.88L395.64 139.64L387.88 131.88Z M411.15 124.12L418.91 131.88L411.15 139.64L403.39 131.88Z M442.18 124.12L449.94 131.88L442.18 139.64L434.42 131.88Z M69.82 139.64L77.58 147.39L69.82 155.15L62.06 147.39Z M162.91 139.64L170.67 147.39L162.91 155.15L155.15 147.39Z M224.97 139.64L232.73 147.39L224.97 155.15L217.21 147.39Z M240.48 139.64L248.24 147.39L240.48 155.15L232.73 147.39Z M318.06 139.64L325.82 147.39L318.06 155.15L310.30 147.39Z M349.09 139.64L356.85 147.39L349.09 155.15L341.33 147.39Z M442.18 139.64L449.94 147.39L442.18 155.15L434.42 147.39Z M69.82 155.15L77.58 162.91L69.82 170.67L62.06 162.91Z M85.33 155.15L93.09 162.91L85.33 170.67L77.58 162.91Z M100.85 155.15L108.61 162.91L100.85 170.67L93.09 162.91Z M116.36 155.15L124.12 162.91L116.36 170.67L108.61 162.91Z M131.88 155.15L139.64 162.91L131.88 170.67L124.12 162.91Z M147.39 155.15L155.15 162.91L147.39 170.67L139.64 162.91Z M162.91 155.15L170.67 162.91L162.91 170.67L155.15 162.91Z M193.94 155.15L201.70 162.91L193.94 170.67L186.18 162.91Z M224.97 155.15L232.73 162.91L224.97 170.67L217.21 162.91Z M256.00 155.15L263.76 162.91L256.00 170.67L248.24 162.91Z M287.03 155.15L294.79 162.91L287.03 170.67L279.27 162.91Z M318.06 155.15L325.82 162.91L318.06 170.67L310.30 162.91Z M349.09 155.15L356.85 162.91L349.09 170.67L341.33 162.91Z M364.61 155.15L372.36 162.91L364.61 170.67L356.85 162.91Z M380.12 155.15L387.88 162.91L380.12 170.67L372.36 162.91Z M395.64 155.15L403.39 162.91L395.64 170.67L387.88 162.91Z M411.15 155.15L418.91 162.91L411.15 170.67L403.39 162.91Z M426.67 155.15L434.42 162.91L426.67 170.67L418.91 162.91Z M442.18 155.15L449.94 162.91L442.18 170.67L434.42 162.91Z M193.94 170.67L201.70 178.42L193.94 186.18L186.18 178.42Z M209.45 170.67L217.21 178.42L209.45 186.18L201.70 178.42Z M256.00 170.67L263.76 178.42L256.00 186.18L248.24 178.42Z M271.52 170.67L279.27 178.42L271.52 186.18L263.76 178.42Z M318.06 170.67L325.82 178.42L318.06 186.18L310.30 178.42Z M69.82 186.18L77.58 193.94L69.82 201.70L62.06 193.94Z M116.36 186.18L124.12 193.94L116.36 201.70L108.61 193.94Z M131.88 186.18L139.64 193.94L131.88 201.70L124.12 193.94Z M147.39 186.18L155.15 193.94L147.39 201.70L139.64 193.94Z M162.91 186.18L170.67 193.94L162.91 201.70L155.15 193.94Z M178.42 186.18L186.18 193.94L178.42 201.70L170.67 193.94Z M193.94 186.18L201.70 193.94L193.94 201.70L186.18 193.94Z M209.45 186.18L217.21 193.94L209.45 201.70L201.70 193.94Z M271.52 186.18L279.27 193.94L271.52 201.70L263.76 193.94Z M333.58 186.18L341.33 193.94L333.58 201.70L325.82 193.94Z M349.09 186.18L356.85 193.94L349.09 201.70L341.33 193.94Z M364.61 186.18L372.36 193.94L364.61 201.70L356.85 193.94Z M380.12 186.18L387.88 193.94L380.12 201.70L372.36 193.94Z M395.64 186.18L403.39 193.94L395.64 201.70L387.88 193.94Z M442.18 186.18L449.94 193.94L442.18 201.70L434.42 193.94Z M116.36 201.70L124.12 209.45L116.36 217.21L108.61 209.45Z M193.94 201.70L201.70 209.45L193.94 217.21L186.18 209.45Z M224.97 201.70L232.73 209.45L224.97 217.21L217.21 209.45Z M271.52 201.70L279.27 209.45L271.52 217.21L263.76 209.45Z M287.03 201.70L294.79 209.45L287.03 217.21L279.27 209.45Z M302.55 201.70L310.30 209.45L302.55 217.21L294.79 209.45Z M318.06 201.70L325.82 209.45L318.06 217.21L310.30 209.45Z M380.12 201.70L387.88 209.45L380.12 217.21L372.36 209.45Z M395.64 201.70L403.39 209.45L395.64 217.21L387.88 209.45Z M426.67 201.70L434.42 209.45L426.67 217.21L418.91 209.45Z M69.82 217.21L77.58 224.97L69.82 232.73L62.06 224.97Z M85.33 217.21L93.09 224.97L85.33 232.73L77.58 224.97Z M100.85 217.21L108.61 224.97L100.85 232.73L93.09 224.97Z M116.36 217.21L124.12 224.97L116.36 232.73L108.61 224.97Z M131.88 217.21L139.64 224.97L131.88 232.73L124.12 224.97Z M147.39 217.21L155.15 224.97L147.39 232.73L139.64 224.97Z M162.91 217.21L170.67 224.97L162.91 232.73L155.15 224.97Z M193.94 217.21L201.70 224.97L193.94 232.73L186.18 224.97Z M209.45 217.21L217.21 224.97L209.45 232.73L201.70 224.97Z M240.48 217.21L248.24 224.97L240.48 232.73L232.73 224.97Z M256.00 217.21L263.76 224.97L256.00 232.73L248.24 224.97Z M302.55 217.21L310.30 224.97L302.55 232.73L294.79 224.97Z M318.06 217.21L325.82 224.97L318.06 232.73L310.30 224.97Z M349.09 217.21L356.85 224.97L349.09 232.73L341.33 224.97Z M364.61 217.21L372.36 224.97L364.61 232.73L356.85 224.97Z M380.12 217.21L387.88 224.97L380.12 232.73L372.36 224.97Z M395.64 217.21L403.39 224.97L395.64 232.73L387.88 224.97Z M411.15 217.21L418.91 224.97L411.15 232.73L403.39 224.97Z M69.82 232.73L77.58 240.48L69.82 248.24L62.06 240.48Z M100.85 232.73L108.61 240.48L100.85 248.24L93.09 240.48Z M193.94 232.73L201.70 240.48L193.94 248.24L186.18 240.48Z M209.45 232.73L217.21 240.48L209.45 248.24L201.70 240.48Z M287.03 232.73L294.79 240.48L287.03 248.24L279.27 240.48Z M349.09 232.73L356.85 240.48L349.09 248.24L341.33 240.48Z M364.61 232.73L372.36 240.48L364.61 248.24L356.85 240.48Z M411.15 232.73L418.91 240.48L411.15 248.24L403.39 240.48Z M426.67 232.73L434.42 240.48L426.67 248.24L418.91 240.48Z M69.82 248.24L77.58 256.00L69.82 263.76L62.06 256.00Z M100.85 248.24L108.61 256.00L100.85 263.76L93.09 256.00Z M131.88 248.24L139.64 256.00L131.88 263.76L124.12 256.00Z M147.39 248.24L155.15 256.00L147.39 263.76L139.64 256.00Z M162.91 248.24L170.67 256.00L162.91 263.76L155.15 256.00Z M178.42 248.24L186.18 256.00L178.42 263.76L170.67 256.00Z M209.45 248.24L217.21 256.00L209.45 263.76L201.70 256.00Z M224.97 248.24L232.73 256.00L224.97 263.76L217.21 256.00Z M271.52 248.24L279.27 256.00L271.52 263.76L263.76 256.00Z M287.03 248.24L294.79 256.00L287.03 263.76L279.27 256.00Z M302.55 248.24L310.30 256.00L302.55 263.76L294.79 256.00Z M333.58 248.24L341.33 256.00L333.58 263.76L325.82 256.00Z M349.09 248.24L356.85 256.00L349.09 263.76L341.33 256.00Z M364.61 248.24L372.36 256.00L364.61 263.76L356.85 256.00Z M395.64 248.24L403.39 256.00L395.64 263.76L387.88 256.00Z M411.15 248.24L418.91 256.00L411.15 263.76L403.39 256.00Z M426.67 248.24L434.42 256.00L426.67 263.76L418.91 256.00Z M442.18 248.24L449.94 256.00L442.18 263.76L434.42 256.00Z M69.82 263.76L77.58 271.52L69.82 279.27L62.06 271.52Z M85.33 263.76L93.09 271.52L85.33 279.27L77.58 271.52Z M116.36 263.76L124.12 271.52L116.36 279.27L108.61 271.52Z M131.88 263.76L139.64 271.52L131.88 279.27L124.12 271.52Z M147.39 263.76L155.15 271.52L147.39 279.27L139.64 271.52Z M193.94 263.76L201.70 271.52L193.94 279.27L186.18 271.52Z M209.45 263.76L217.21 271.52L209.45 279.27L201.70 271.52Z M224.97 263.76L232.73 271.52L224.97 279.27L217.21 271.52Z M256.00 263.76L263.76 271.52L256.00 279.27L248.24 271.52Z M302.55 263.76L310.30 271.52L302.55 279.27L294.79 271.52Z M380.12 263.76L387.88 271.52L380.12 279.27L372.36 271.52Z M426.67 263.76L434.42 271.52L426.67 279.27L418.91 271.52Z M162.91 279.27L170.67 287.03L162.91 294.79L155.15 287.03Z M193.94 279.27L201.70 287.03L193.94 294.79L186.18 287.03Z M209.45 279.27L217.21 287.03L209.45 294.79L201.70 287.03Z M240.48 279.27L248.24 287.03L240.48 294.79L232.73 287.03Z M256.00 279.27L263.76 287.03L256.00 294.79L248.24 287.03Z M271.52 279.27L279.27 287.03L271.52 294.79L263.76 287.03Z M287.03 279.27L294.79 287.03L287.03 294.79L279.27 287.03Z M302.55 279.27L310.30 287.03L302.55 294.79L294.79 287.03Z M349.09 279.27L356.85 287.03L349.09 294.79L341.33 287.03Z M364.61 279.27L372.36 287.03L364.61 294.79L356.85 287.03Z M380.12 279.27L387.88 287.03L380.12 294.79L372.36 287.03Z M395.64 279.27L403.39 287.03L395.64 294.79L387.88 287.03Z M411.15 279.27L418.91 287.03L411.15 294.79L403.39 287.03Z M116.36 294.79L124.12 302.55L116.36 310.30L108.61 302.55Z M131.88 294.79L139.64 302.55L131.88 310.30L124.12 302.55Z M178.42 294.79L186.18 302.55L178.42 310.30L170.67 302.55Z M240.48 294.79L248.24 302.55L240.48 310.30L232.73 302.55Z M271.52 294.79L279.27 302.55L271.52 310.30L263.76 302.55Z M302.55 294.79L310.30 302.55L302.55 310.30L294.79 302.55Z M349.09 294.79L356.85 302.55L349.09 310.30L341.33 302.55Z M364.61 294.79L372.36 302.55L364.61 310.30L356.85 302.55Z M380.12 294.79L387.88 302.55L380.12 310.30L372.36 302.55Z M411.15 294.79L418.91 302.55L411.15 310.30L403.39 302.55Z M426.67 294.79L434.42 302.55L426.67 310.30L418.91 302.55Z M69.82 310.30L77.58 318.06L69.82 325.82L62.06 318.06Z M85.33 310.30L93.09 318.06L85.33 325.82L77.58 318.06Z M116.36 310.30L124.12 318.06L116.36 325.82L108.61 318.06Z M131.88 310.30L139.64 318.06L131.88 325.82L124.12 318.06Z M147.39 310.30L155.15 318.06L147.39 325.82L139.64 318.06Z M162.91 310.30L170.67 318.06L162.91 325.82L155.15 318.06Z M178.42 310.30L186.18 318.06L178.42 325.82L170.67 318.06Z M224.97 310.30L232.73 318.06L224.97 325.82L217.21 318.06Z M256.00 310.30L263.76 318.06L256.00 325.82L248.24 318.06Z M271.52 310.30L279.27 318.06L271.52 325.82L263.76 318.06Z M318.06 310.30L325.82 318.06L318.06 325.82L310.30 318.06Z M333.58 310.30L341.33 318.06L333.58 325.82L325.82 318.06Z M349.09 310.30L356.85 318.06L349.09 325.82L341.33 318.06Z M364.61 310.30L372.36 318.06L364.61 325.82L356.85 318.06Z M380.12 310.30L387.88 318.06L380.12 325.82L372.36 318.06Z M395.64 310.30L403.39 318.06L395.64 325.82L387.88 318.06Z M411.15 310.30L418.91 318.06L411.15 325.82L403.39 318.06Z M193.94 325.82L201.70 333.58L193.94 341.33L186.18 333.58Z M224.97 325.82L232.73 333.58L224.97 341.33L217.21 333.58Z M271.52 325.82L279.27 333.58L271.52 341.33L263.76 333.58Z M287.03 325.82L294.79 333.58L287.03 341.33L279.27 333.58Z M318.06 325.82L325.82 333.58L318.06 341.33L310.30 333.58Z M380.12 325.82L387.88 333.58L380.12 341.33L372.36 333.58Z M69.82 341.33L77.58 349.09L69.82 356.85L62.06 349.09Z M85.33 341.33L93.09 349.09L85.33 356.85L77.58 349.09Z M100.85 341.33L108.61 349.09L100.85 356.85L93.09 349.09Z M116.36 341.33L124.12 349.09L116.36 356.85L108.61 349.09Z M131.88 341.33L139.64 349.09L131.88 356.85L124.12 349.09Z M147.39 341.33L155.15 349.09L147.39 356.85L139.64 349.09Z M162.91 341.33L170.67 349.09L162.91 356.85L155.15 349.09Z M193.94 341.33L201.70 349.09L193.94 356.85L186.18 349.09Z M224.97 341.33L232.73 349.09L224.97 356.85L217.21 349.09Z M318.06 341.33L325.82 349.09L318.06 356.85L310.30 349.09Z M349.09 341.33L356.85 349.09L349.09 356.85L341.33 349.09Z M380.12 341.33L387.88 349.09L380.12 356.85L372.36 349.09Z M69.82 356.85L77.58 364.61L69.82 372.36L62.06 364.61Z M162.91 356.85L170.67 364.61L162.91 372.36L155.15 364.61Z M224.97 356.85L232.73 364.61L224.97 372.36L217.21 364.61Z M256.00 356.85L263.76 364.61L256.00 372.36L248.24 364.61Z M287.03 356.85L294.79 364.61L287.03 372.36L279.27 364.61Z M318.06 356.85L325.82 364.61L318.06 372.36L310.30 364.61Z M380.12 356.85L387.88 364.61L380.12 372.36L372.36 364.61Z M395.64 356.85L403.39 364.61L395.64 372.36L387.88 364.61Z M411.15 356.85L418.91 364.61L411.15 372.36L403.39 364.61Z M426.67 356.85L434.42 364.61L426.67 372.36L418.91 364.61Z M442.18 356.85L449.94 364.61L442.18 372.36L434.42 364.61Z M69.82 372.36L77.58 380.12L69.82 387.88L62.06 380.12Z M100.85 372.36L108.61 380.12L100.85 387.88L93.09 380.12Z M116.36 372.36L124.12 380.12L116.36 387.88L108.61 380.12Z M131.88 372.36L139.64 380.12L131.88 387.88L124.12 380.12Z M162.91 372.36L170.67 380.12L162.91 387.88L155.15 380.12Z M193.94 372.36L201.70 380.12L193.94 387.88L186.18 380.12Z M209.45 372.36L217.21 380.12L209.45 387.88L201.70 380.12Z M240.48 372.36L248.24 380.12L240.48 387.88L232.73 380.12Z M271.52 372.36L279.27 380.12L271.52 387.88L263.76 380.12Z M287.03 372.36L294.79 380.12L287.03 387.88L279.27 380.12Z M318.06 372.36L325.82 380.12L318.06 387.88L310.30 380.12Z M333.58 372.36L341.33 380.12L333.58 387.88L325.82 380.12Z M349.09 372.36L356.85 380.12L349.09 387.88L341.33 380.12Z M364.61 372.36L372.36 380.12L364.61 387.88L356.85 380.12Z M380.12 372.36L387.88 380.12L380.12 387.88L372.36 380.12Z M395.64 372.36L403.39 380.12L395.64 387.88L387.88 380.12Z M411.15 372.36L418.91 380.12L411.15 387.88L403.39 380.12Z M442.18 372.36L449.94 380.12L442.18 387.88L434.42 380.12Z M69.82 387.88L77.58 395.64L69.82 403.39L62.06 395.64Z M100.85 387.88L108.61 395.64L100.85 403.39L93.09 395.64Z M116.36 387.88L124.12 395.64L116.36 403.39L108.61 395.64Z M131.88 387.88L139.64 395.64L131.88 403.39L124.12 395.64Z M162.91 387.88L170.67 395.64L162.91 403.39L155.15 395.64Z M209.45 387.88L217.21 395.64L209.45 403.39L201.70 395.64Z M224.97 387.88L232.73 395.64L224.97 403.39L217.21 395.64Z M256.00 387.88L263.76 395.64L256.00 403.39L248.24 395.64Z M333.58 387.88L341.33 395.64L333.58 403.39L325.82 395.64Z M349.09 387.88L356.85 395.64L349.09 403.39L341.33 395.64Z M364.61 387.88L372.36 395.64L364.61 403.39L356.85 395.64Z M411.15 387.88L418.91 395.64L411.15 403.39L403.39 395.64Z M426.67 387.88L434.42 395.64L426.67 403.39L418.91 395.64Z M442.18 387.88L449.94 395.64L442.18 403.39L434.42 395.64Z M69.82 403.39L77.58 411.15L69.82 418.91L62.06 411.15Z M100.85 403.39L108.61 411.15L100.85 418.91L93.09 411.15Z M116.36 403.39L124.12 411.15L116.36 418.91L108.61 411.15Z M131.88 403.39L139.64 411.15L131.88 418.91L124.12 411.15Z M162.91 403.39L170.67 411.15L162.91 418.91L155.15 411.15Z M209.45 403.39L217.21 411.15L209.45 418.91L201.70 411.15Z M224.97 403.39L232.73 411.15L224.97 418.91L217.21 411.15Z M240.48 403.39L248.24 411.15L240.48 418.91L232.73 411.15Z M256.00 403.39L263.76 411.15L256.00 418.91L248.24 411.15Z M271.52 403.39L279.27 411.15L271.52 418.91L263.76 411.15Z M287.03 403.39L294.79 411.15L287.03 418.91L279.27 411.15Z M333.58 403.39L341.33 411.15L333.58 418.91L325.82 411.15Z M349.09 403.39L356.85 411.15L349.09 418.91L341.33 411.15Z M395.64 403.39L403.39 411.15L395.64 418.91L387.88 411.15Z M426.67 403.39L434.42 411.15L426.67 418.91L418.91 411.15Z M69.82 418.91L77.58 426.67L69.82 434.42L62.06 426.67Z M162.91 418.91L170.67 426.67L162.91 434.42L155.15 426.67Z M224.97 418.91L232.73 426.67L224.97 434.42L217.21 426.67Z M240.48 418.91L248.24 426.67L240.48 434.42L232.73 426.67Z M271.52 418.91L279.27 426.67L271.52 434.42L263.76 426.67Z M302.55 418.91L310.30 426.67L302.55 434.42L294.79 426.67Z M364.61 418.91L372.36 426.67L364.61 434.42L356.85 426.67Z M380.12 418.91L387.88 426.67L380.12 434.42L372.36 426.67Z M395.64 418.91L403.39 426.67L395.64 434.42L387.88 426.67Z M411.15 418.91L418.91 426.67L411.15 434.42L403.39 426.67Z M426.67 418.91L434.42 426.67L426.67 434.42L418.91 426.67Z M69.82 434.42L77.58 442.18L69.82 449.94L62.06 442.18Z M85.33 434.42L93.09 442.18L85.33 449.94L77.58 442.18Z M100.85 434.42L108.61 442.18L100.85 449.94L93.09 442.18Z M116.36 434.42L124.12 442.18L116.36 449.94L108.61 442.18Z M131.88 434.42L139.64 442.18L131.88 449.94L124.12 442.18Z M147.39 434.42L155.15 442.18L147.39 449.94L139.64 442.18Z M162.91 434.42L170.67 442.18L162.91 449.94L155.15 442.18Z M193.94 434.42L201.70 442.18L193.94 449.94L186.18 442.18Z M224.97 434.42L232.73 442.18L224.97 449.94L217.21 442.18Z M256.00 434.42L263.76 442.18L256.00 449.94L248.24 442.18Z M271.52 434.42L279.27 442.18L271.52 449.94L263.76 442.18Z M302.55 434.42L310.30 442.18L302.55 449.94L294.79 442.18Z M333.58 434.42L341.33 442.18L333.58 449.94L325.82 442.18Z M411.15 434.42L418.91 442.18L411.15 449.94L403.39 442.18Z M426.67 434.42L434.42 442.18L426.67 449.94L418.91 442.18Z M442.18 434.42L449.94 442.18L442.18 449.94L434.42 442.18Z "/>
</svg>