<svg xmlns="http://www.w3.org/2000/svg" viewBox="0 0 512 512" width="512" height="512">
<rect width="100%" height="100%" fill="#FFFFFF"/>
<path fill="#000000" d="M38.64 38.64h9.66v9.66h-9.66z M48.30 38.64h9.66v9.66h-9.66z M57.96 38.64h9.66v9.66h-9.66z M67.62 38.64h9.66v9.66h-9.66z M77.28 38.64h9.66v9.66h-9.66z M86.94 38.64h9.66v9.66h-9.66z M96.60 38.64h9.66v9.66h-9.66z M115.92 38.64h9.66v9.66h-9.66z M144.91 38.64h9.66v9.66h-9.66z M164.23 38.64h9.66v9.66h-9.66z M173.89 38.64h9.66v9.66h-9.66z M183.55 38.64h9.66v9.66h-9.66z M202.87 38.64h9.66v9.66h-9.66z M231.85 38.64h9.66v9.66h-9.66z M241.51 38.64h9.66v9.66h-9.66z M251.17 38.64h9.66v9.66h-9.66z M289.81 38.64h9.66v9.66h-9.66z M299.47 38.64h9.66v9.66h-9.66z M309.13 38.64h9.66v9.66h-9.66z M328.45 38.64h9.66v9.66h-9.66z M357.43 38.64h9.66v9.66h-9.66z M386.42 38.64h9.66v9.66h-9.66z M405.74 38.64h9.66v9.66h-9.66z M415.40 38.64h9.66v9.66h-9.66z M425.06 38.64h9.66v9.66h-9.66z M434.72 38.64h9.66v9.66h-9.66z M444.38 38.64h9.66v9.66h-9.66z M454.04 38.64h9.66v9.66h-9.66z M463.70 38.64h9.66v9.66h-9.66z M38.64 48.30h9.66v9.66h-9.66z M96.60 48.30h9.66v9.66h-9.66z M125.58 48.30h9.66v9.66h-9.66z M154.57 48.30h9.66v9.66h-9.66z M193.21 48.30h9.66v9.66h-9.66z M202.87 48.30h9.66v9.66h-9.66z M222.19 48.30h9.66v9.66h-9.66z M231.85 48.30h9.66v9.66h-9.66z M260.83 48.30h9.66v9.66h-9.66z M270.49 48.30h9.66v9.66h-9.66z M289.81 48.30h9.66v9.66h-9.66z M299.47 48.30h9.66v9.66h-9.66z M338.11 48.30h9.66v9.66h-9.66z M376.75 48.30h9.66v9.66h-9.66z M405.74 48.30h9.66v9.66h-9.66z M463.70 48.30h9.66v9.66h-9.66z M38.64 57.96h9.66v9.66h-9.66z M57.96 57.96h9.66v9.66h-9.66z M67.62 57.96h9.66v9.66h-9.66z M77.28 57.96h9.66v9.66h-9.66z M96.60 57.96h9.66v9.66h-9.66z M135.25 57.96h9.66v9.66h-9.66z M164.23 57.96h9.66v9.66h-9.66z M173.89 57.96h9.66v9.66h-9.66z M222.19 57.96h9.66v9.66h-9.66z M270.49 57.96h9.66v9.66h-9.66z M299.47 57.96h9.66v9.66h-9.66z M309.13 57.96h9.66v9.66h-9.66z M328.45 57.96h9.66v9.66h-9.66z M347.77 57.96h9.66v9.66h-9.66z M357.43 57.96h9.66v9.66h-9.66z M376.75 57.96h9.66v9.66h-9.66z M405.74 57.96h9.66v9.66h-9.66z M425.06 57.96h9.66v9.66h-9.66z M434.72 57.96h9.66v9.66h-9.66z M444.38 57.96h9.66v9.66h-9.66z M463.70 57.96h9.66v9.66h-9.66z M38.64 67.62h9.66v9.66h-9.66z M57.96 67.62h9.66v9.66h-9.66z M67.62 67.62h9.66v9.66h-9.66z M77.28 67.62h9.66v9.66h-9.66z M96.60 67.62h9.66v9.66h-9.66z M125.58 67.62h9.66v9.66h-9.66z M135.25 67.62h9.66v9.66h-9.66z M144.91 67.62h9.66v9.66h-9.66z M154.57 67.62h9.66v9.66h-9.66z M193.21 67.62h9.66v9.66h-9.66z M202.87 67.62h9.66v9.66h-9.66z M212.53 67.62h9.66v9.66h-9.66z M270.49 67.62h9.66v9.66h-9.66z M280.15 67.62h9.66v9.66h-9.66z M289.81 67.62h9.66v9.66h-9.66z M299.47 67.62h9.66v9.66h-9.66z M309.13 67.62h9.66v9.66h-9.66z M328.45 67.62h9.66v9.66h-9.66z M347.77 67.62h9.66v9.66h-9.66z M376.75 67.62h9.66v9.66h-9.66z M386.42 67.62h9.66v9.66h-9.66z M405.74 67.62h9.66v9.66h-9.66z M425.06 67.62h9.66v9.66h-9.66z M434.72 67.62h9.66v9.66h-9.66z M444.38 67.62h9.66v9.66h-9.66z M463.70 67.62h9.66v9.66h-9.66z M38.64 77.28h9.66v9.66h-9.66z M57.96 77.28h9.66v9.66h-9.66z M67.62 77.28h9.66v9.66h-9.66z M77.28 77.28h9.66v9.66h-9.66z M96.60 77.28h9.66v9.66h-9.66z M144.91 77.28h9.66v9.66h-9.66z M154.57 77.28h9.66v9.66h-9.66z M164.23 77.28h9.66v9.66h-9.66z M183.55 77.28h9.66v9.66h-9.66z M222.19 77.28h9.66v9.66h-9.66z M231.85 77.28h9.66v9.66h-9.66z M241.51 77.28h9.66v9.66h-9.66z M251.17 77.28h9.66v9.66h-9.66z M260.83 77.28h9.66v9.66h-9.66z M270.49 77.28h9.66v9.66h-9.66z M299.47 77.28h9.66v9.66h-9.66z M318.79 77.28h9.66v9.66h-9.66z M328.45 77.28h9.66v9.66h-9.66z M338.11 77.28h9.66v9.66h-9.66z M367.09 77.28h9.66v9.66h-9.66z M376.75 77.28h9.66v9.66h-9.66z M386.42 77.28h9.66v9.66h-9.66z M405.74 77.28h9.66v9.66h-9.66z M425.06 77.28h9.66v9.66h-9.66z M434.72 77.28h9.66v9.66h-9.66z M444.38 77.28h9.66v9.66h-9.66z M463.70 77.28h9.66v9.66h-9.66z M38.64 86.94h9.66v9.66h-9.66z M96.60 86.94h9.66v9.66h-9.66z M135.25 86.94h9.66v9.66h-9.66z M164.23 86.94h9.66v9.66h-9.66z M202.87 86.94h9.66v9.66h-9.66z M231.85 86.94h9.66v9.66h-9.66z M270.49 86.94h9.66v9.66h-9.66z M318.79 86.94h9.66v9.66h-9.66z M328.45 86.94h9.66v9.66h-9.66z M338.11 86.94h9.66v9.66h-9.66z M405.74 86.94h9.66v9.66h-9.66z M463.70 86.94h9.66v9.66h-9.66z M38.64 96.60h9.66v9.66h-9.66z M48.30 96.60h9.66v9.66h-9.66z M57.96 96.60h9.66v9.66h-9.66z M67.62 96.60h9.66v9.66h-9.66z M77.28 96.60h9.66v9.66h-9.66z M86.94 96.60h9.66v9.66h-9.66z M96.60 96.60h9.66v9.66h-9.66z M115.92 96.60h9.66v9.66h-9.66z M135.25 96.60h9.66v9.66h-9.66z M154.57 96.60h9.66v9.66h-9.66z M173.89 96.60h9.66v9.66h-9.66z M193.21 96.60h9.66v9.66h-9.66z M212.53 96.60h9.66v9.66h-9.66z M231.85 96.60h9.66v9.66h-9.66z M251.17 96.60h9.66v9.66h-9.66z M270.49 96.60h9.66v9.66h-9.66z M289.81 96.60h9.66v9.66h-9.66z M309.13 96.60h9.66v9.66h-9.66z M328.45 96.60h9.66v9.66h-9.66z M347.77 96.60h9.66v9.66h-9.66z M367.09 96.60h9.66v9.66h-9.66z M386.42 96.60h9.66v9.66h-9.66z M405.74 96.60h9.66v9.66h-9.66z M415.40 96.60h9.66v9.66h-9.66z M425.06 96.60h9.66v9.66h-9.66z M434.72 96.60h9.66v9.66h-9.66z M444.38 96.60h9.66v9.66h-9.66z M454.04 96.60h9.66v9.66h-9.66z M463.70 96.60h9.66v9.66h-9.66z M125.58 106.26h9.66v9.66h-9.66z M135.25 106.26h9.66v9.66h-9.66z M144.91 106.26h9.66v9.66h-9.66z M164.23 106.26h9.66v9.66h-9.66z M173.89 106.26h9.66v9.66h-9.66z M183.55 106.26h9.66v9.66h-9.66z M231.85 106.26h9.66v9.66h-9.66z M270.49 106.26h9.66v9.66h-9.66z M309.13 106.26h9.66v9.66h-9.66z M328.45 106.26h9.66v9.66h-9.66z M338.11 106.26h9.66v9.66h-9.66z M347.77 106.26h9.66v9.66h-9.66z M367.09 106.26h9.66v9.66h-9.66z M48.30 115.92h9.66v9.66h-9.66z M57.96 115.92h9.66v9.66h-9.66z M67.62 115.92h9.66v9.66h-9.66z M96.60 115.92h9.66v9.66h-9.66z M106.26 115.92h9.66v9.66h-9.66z M115.92 115.92h9.66v9.66h-9.66z M144.91 115.92h9.66v9.66h-9.66z M202.87 115.92h9.66v9.66h-9.66z M222.19 115.92h9.66v9.66h-9.66z M231.85 115.92h9.66v9.66h-9.66z M241.51 115.92h9.66v9.66h-9.66z M251.17 115.92h9.66v9.66h-9.66z M260.83 115.92h9.66v9.66h-9.66z M270.49 115.92h9.66v9.66h-9.66z M299.47 115.92h9.66v9.66h-9.66z M318.79 115.92h9.66v9.66h-9.66z M338.11 115.92h9.66v9.66h-9.66z M367.09 115.92h9.66v9.66h-9.66z M376.75 115.92h9.66v9.66h-9.66z M396.08 115.92h9.66v9.66h-9.66z M405.74 115.92h9.66v9.66h-9.66z M434.72 115.92h9.66v9.66h-9.66z M444.38 115.92h9.66v9.66h-9.66z M454.04 115.92h9.66v9.66h-9.66z M38.64 125.58h9.66v9.66h-9.66z M48.30 125.58h9.66v9.66h-9.66z M57.96 125.58h9.66v9.66h-9.66z M67.62 125.58h9.66v9.66h-9.66z M77.28 125.58h9.66v9.66h-9.66z M106.26 125.58h9.66v9.66h-9.66z M135.25 125.58h9.66v9.66h-9.66z M144.91 125.58h9.66v9.66h-9.66z M183.55 125.58h9.66v9.66h-9.66z M193.21 125.58h9.66v9.66h-9.66z M212.53 125.58h9.66v9.66h-9.66z M222.19 125.58h9.66v9.66h-9.66z M231.85 125.58h9.66v9.66h-9.66z M241.51 125.58h9.66v9.66h-9.66z M251.17 125.58h9.66v9.66h-9.66z M260.83 125.58h9.66v9.66h-9.66z M270.49 125.58h9.66v9.66h-9.66z M280.15 125.58h9.66v9.66h-9.66z M289.81 125.58h9.66v9.66h-9.66z M309.13 125.58h9.66v9.66h-9.66z M318.79 125.58h9.66v9.66h-9.66z M328.45 125.58h9.66v9.66h-9.66z M338.11 125.58h9.66v9.66h-9.66z M347.77 125.58h9.66v9.66h-9.66z M367.09 125.58h9.66v9.66h-9.66z M376.75 125.58h9.66v9.66h-9.66z M386.42 125.58h9.66v9.66h-9.66z M396.08 125.58h9.66v9.66h-9.66z M405.74 125.58h9.66v9.66h-9.66z M415.40 125.58h9.66v9.66h-9.66z M425.06 125.58h9.66v9.66h-9.66z M434.72 125.58h9.66v9.66h-9.66z M444.38 125.58h9.66v9.66h-9.66z M57.96 135.25h9.66v9.66h-9.66z M67.62 135.25h9.66v9.66h-9.66z M77.28 135.25h9.66v9.66h-9.66z M96.60 135.25h9.66v9.66h-9.66z M106.26 135.25h9.66v9.66h-9.66z M115.92 135.25h9.66v9.66h-9.66z M135.25 135.25h9.66v9.66h-9.66z M164.23 135.25h9.66v9.66h-9.66z M173.89 135.25h9.66v9.66h-9.66z M202.87 135.25h9.66v9.66h-9.66z M212.53 135.25h9.66v9.66h-9.66z M222.19 135.25h9.66v9.66h-9.66z M241.51 135.25h9.66v9.66h-9.66z M270.49 135.25h9.66v9.66h-9.66z M289.81 135.25h9.66v9.66h-9.66z M299.47 135.25h9.66v9.66h-9.66z M309.13 135.25h9.66v9.66h-9.66z M318.79 135.25h9.66v9.66h-9.66z M338.11 135.25h9.66v9.66h-9.66z M357.43 135.25h9.66v9.66h-9.66z M367.09 135.25h9.66v9.66h-9.66z M386.42 135.25h9.66v9.66h-9.66z M396.08 135.25h9.66v9.66h-9.66z M405.74 135.25h9.66v9.66h-9.66z M415.40 135.25h9.66v9.66h-9.66z M444.38 135.25h9.66v9.66h-9.66z M454.04 135.25h9.66v9.66h-9.66z M48.30 144.91h9.66v9.66h-9.66z M57.96 144.91h9.66v9.66h-9.66z M77.28 144.91h9.66v9.66h-9.66z M86.94 144.91h9.66v9.66h-9.66z M106.26 144.91h9.66v9.66h-9.66z M115.92 144.91h9.66v9.66h-9.66z M135.25 144.91h9.66v9.66h-9.66z M144.91 144.91h9.66v9.66h-9.66z M154.57 144.91h9.66v9.66h-9.66z M183.55 144.91h9.66v9.66h-9.66z M193.21 144.91h9.66v9.66h-9.66z M202.87 144.91h9.66v9.66h-9.66z M212.53 144.91h9.66v9.66h-9.66z M241.51 144.91h9.66v9.66h-9.66z M260.83 144.91h9.66v9.66h-9.66z M270.49 144.91h9.66v9.66h-9.66z M289.81 144.91h9.66v9.66h-9.66z M309.13 144.91h9.66v9.66h-9.66z M328.45 144.91h9.66v9.66h-9.66z M347.77 144.91h9.66v9.66h-9.66z M386.42 144.91h9.66v9.66h-9.66z M396.08 144.91h9.66v9.66h-9.66z M405.74 144.91h9.66v9.66h-9.66z M415.40 144.91h9.66v9.66h-9.66z M425.06 144.91h9.66v9.66h-9.66z M434.72 144.91h9.66v9.66h-9.66z M444.38 144.91h9.66v9.66h-9.66z M38.64 154.57h9.66v9.66h-9.66z M48.30 154.57h9.66v9.66h-9.66z M67.62 154.57h9.66v9.66h-9.66z M77.28 154.57h9.66v9.66h-9.66z M96.60 154.57h9.66v9.66h-9.66z M135.25 154.57h9.66v9.66h-9.66z M154.57 154.57h9.66v9.66h-9.66z M164.23 154.57h9.66v9.66h-9.66z M183.55 154.57h9.66v9.66h-9.66z M193.21 154.57h9.66v9.66h-9.66z M212.53 154.57h9.66v9.66h-9.66z M231.85 154.57h9.66v9.66h-9.66z M241.51 154.57h9.66v9.66h-9.66z M260.83 154.57h9.66v9.66h-9.66z M270.49 154.57h9.66v9.66h-9.66z M289.81 154.57h9.66v9.66h-9.66z M299.47 154.57h9.66v9.66h-9.66z M309.13 154.57h9.66v9.66h-9.66z M318.79 154.57h9.66v9.66h-9.66z M328.45 154.57h9.66v9.66h-9.66z M338.11 154.57h9.66v9.66h-9.66z M347.77 154.57h9.66v9.66h-9.66z M357.43 154.57h9.66v9.66h-9.66z M367.09 154.57h9.66v9.66h-9.66z M376.75 154.57h9.66v9.66h-9.66z M396.08 154.57h9.66v9.66h-9.66z M405.74 154.57h9.66v9.66h-9.66z M425.06 154.57h9.66v9.66h-9.66z M434.72 154.57h9.66v9.66h-9.66z M463.70 154.57h9.66v9.66h-9.66z M38.64 164.23h9.66v9.66h-9.66z M67.62 164.23h9.66v9.66h-9.66z M77.28 164.23h9.66v9.66h-9.66z M106.26 164.23h9.66v9.66h-9.66z M125.58 164.23h9.66v9.66h-9.66z M144.91 164.23h9.66v9.66h-9.66z M154.57 164.23h9.66v9.66h-9.66z M164.23 164.23h9.66v9.66h-9.66z M173.89 164.23h9.66v9.66h-9.66z M183.55 164.23h9.66v9.66h-9.66z M202.87 164.23h9.66v9.66h-9.66z M241.51 164.23h9.66v9.66h-9.66z M251.17 164.23h9.66v9.66h-9.66z M280.15 164.23h9.66v9.66h-9.66z M299.47 164.23h9.66v9.66h-9.66z M318.79 164.23h9.66v9.66h-9.66z M328.45 164.23h9.66v9.66h-9.66z M347.77 164.23h9.66v9.66h-9.66z M357.43 164.23h9.66v9.66h-9.66z M386.42 164.23h9.66v9.66h-9.66z M396.08 164.23h9.66v9.66h-9.66z M434.72 164.23h9.66v9.66h-9.66z M463.70 164.23h9.66v9.66h-9.66z M38.64 173.89h9.66v9.66h-9.66z M48.30 173.89h9.66v9.66h-9.66z M57.96 173.89h9.66v9.66h-9.66z M77.28 173.89h9.66v9.66h-9.66z M86.94 173.89h9.66v9.66h-9.66z M96.60 173.89h9.66v9.66h-9.66z M106.26 173.89h9.66v9.66h-9.66z M125.58 173.89h9.66v9.66h-9.66z M135.25 173.89h9.66v9.66h-9.66z M144.91 173.89h9.66v9.66h-9.66z M154.57 173.89h9.66v9.66h-9.66z M164.23 173.89h9.66v9.66h-9.66z M193.21 173.89h9.66v9.66h-9.66z M202.87 173.89h9.66v9.66h-9.66z M212.53 173.89h9.66v9.66h-9.66z M231.85 173.89h9.66v9.66h-9.66z M241.51 173.89h9.66v9.66h-9.66z M251.17 173.89h9.66v9.66h-9.66z M260.83 173.89h9.66v9.66h-9.66z M270.49 173.89h9.66v9.66h-9.66z M280.15 173.89h9.66v9.66h-9.66z M289.81 173.89h9.66v9.66h-9.66z M299.47 173.89h9.66v9.66h-9.66z M338.11 173.89h9.66v9.66h-9.66z M347.77 173.89h9.66v9.66h-9.66z M357.43 173.89h9.66v9.66h-9.66z M367.09 173.89h9.66v9.66h-9.66z M376.75 173.89h9.66v9.66h-9.66z M386.42 173.89h9.66v9.66h-9.66z M405.74 173.89h9.66v9.66h-9.66z M415.40 173.89h9.66v9.66h-9.66z M434.72 173.89h9.66v9.66h-9.66z M444.38 173.89h9.66v9.66h-9.66z M454.04 173.89h9.66v9.66h-9.66z M57.96 183.55h9.66v9.66h-9.66z M77.28 183.55h9.66v9.66h-9.66z M86.94 183.55h9.66v9.66h-9.66z M106.26 183.55h9.66v9.66h-9.66z M115.92 183.55h9.66v9.66h-9.66z M125.58 183.55h9.66v9.66h-9.66z M154.57 183.55h9.66v9.66h-9.66z M164.23 183.55h9.66v9.66h-9.66z M173.89 183.55h9.66v9.66h-9.66z M183.55 183.55h9.66v9.66h-9.66z M193.21 183.55h9.66v9.66h-9.66z M202.87 183.55h9.66v9.66h-9.66z M212.53 183.55h9.66v9.66h-9.66z M222.19 183.55h9.66v9.66h-9.66z M231.85 183.55h9.66v9.66h-9.66z M241.51 183.55h9.66v9.66h-9.66z M260.83 183.55h9.66v9.66h-9.66z M280.15 183.55h9.66v9.66h-9.66z M289.81 183.55h9.66v9.66h-9.66z M299.47 183.55h9.66v9.66h-9.66z M318.79 183.55h9.66v9.66h-9.66z M338.11 183.55h9.66v9.66h-9.66z M357.43 183.55h9.66v9.66h-9.66z M367.09 183.55h9.66v9.66h-9.66z M405.74 183.55h9.66v9.66h-9.66z M434.72 183.55h9.66v9.66h-9.66z M444.38 183.55h9.66v9.66h-9.66z M463.70 183.55h9.66v9.66h-9.66z M38.64 193.21h9.66v9.66h-9.66z M67.62 193.21h9.66v9.66h-9.66z M77.28 193.21h9.66v9.66h-9.66z M86.94 193.21h9.66v9.66h-9.66z M96.60 193.21h9.66v9.66h-9.66z M106.26 193.21h9.66v9.66h-9.66z M115.92 193.21h9.66v9.66h-9.66z M135.25 193.21h9.66v9.66h-9.66z M144.91 193.21h9.66v9.66h-9.66z M202.87 193.21h9.66v9.66h-9.66z M212.53 193.21h9.66v9.66h-9.66z M222.19 193.21h9.66v9.66h-9.66z M241.51 193.21h9.66v9.66h-9.66z M260.83 193.21h9.66v9.66h-9.66z M280.15 193.21h9.66v9.66h-9.66z M338.11 193.21h9.66v9.66h-9.66z M357.43 193.21h9.66v9.66h-9.66z M396.08 193.21h9.66v9.66h-9.66z M454.04 193.21h9.66v9.66h-9.66z M38.64 202.87h9.66v9.66h-9.66z M48.30 202.87h9.66v9.66h-9.66z M57.96 202.87h9.66v9.66h-9.66z M77.28 202.87h9.66v9.66h-9.66z M86.94 202.87h9.66v9.66h-9.66z M106.26 202.87h9.66v9.66h-9.66z M115.92 202.87h9.66v9.66h-9.66z M154.57 202.87h9.66v9.66h-9.66z M173.89 202.87h9.66v9.66h-9.66z M202.87 202.87h9.66v9.66h-9.66z M222.19 202.87h9.66v9.66h-9.66z M299.47 202.87h9.66v9.66h-9.66z M328.45 202.87h9.66v9.66h-9.66z M338.11 202.87h9.66v9.66h-9.66z M347.77 202.87h9.66v9.66h-9.66z M357.43 202.87h9.66v9.66h-9.66z M376.75 202.87h9.66v9.66h-9.66z M386.42 202.87h9.66v9.66h-9.66z M396.08 202.87h9.66v9.66h-9.66z M415.40 202.87h9.66v9.66h-9.66z M425.06 202.87h9.66v9.66h-9.66z M463.70 202.87h9.66v9.66h-9.66z M48.30 212.53h9.66v9.66h-9.66z M57.96 212.53h9.66v9.66h-9.66z M77.28 212.53h9.66v9.66h-9.66z M96.60 212.53h9.66v9.66h-9.66z M135.25 212.53h9.66v9.66h-9.66z M144.91 212.53h9.66v9.66h-9.66z M154.57 212.53h9.66v9.66h-9.66z M164.23 212.53h9.66v9.66h-9.66z M202.87 212.53h9.66v9.66h-9.66z M212.53 212.53h9.66v9.66h-9.66z M222.19 212.53h9.66v9.66h-9.66z M260.83 212.53h9.66v9.66h-9.66z M270.49 212.53h9.66v9.66h-9.66z M280.15 212.53h9.66v9.66h-9.66z M299.47 212.53h9.66v9.66h-9.66z M318.79 212.53h9.66v9.66h-9.66z M357.43 212.53h9.66v9.66h-9.66z M396.08 212.53h9.66v9.66h-9.66z M415.40 212.53h9.66v9.66h-9.66z M425.06 212.53h9.66v9.66h-9.66z M444.38 212.53h9.66v9.66h-9.66z M463.70 212.53h9.66v9.66h-9.66z M38.64 222.19h9.66v9.66h-9.66z M77.28 222.19h9.66v9.66h-9.66z M86.94 222.19h9.66v9.66h-9.66z M115.92 222.19h9.66v9.66h-9.66z M125.58 222.19h9.66v9.66h-9.66z M135.25 222.19h9.66v9.66h-9.66z M164.23 222.19h9.66v9.66h-9.66z M202.87 222.19h9.66v9.66h-9.66z M222.19 222.19h9.66v9.66h-9.66z M260.83 222.19h9.66v9.66h-9.66z M270.49 222.19h9.66v9.66h-9.66z M280.15 222.19h9.66v9.66h-9.66z M289.81 222.19h9.66v9.66h-9.66z M309.13 222.19h9.66v9.66h-9.66z M318.79 222.19h9.66v9.66h-9.66z M328.45 222.19h9.66v9.66h-9.66z M347.77 222.19h9.66v9.66h-9.66z M386.42 222.19h9.66v9.66h-9.66z M396.08 222.19h9.66v9.66h-9.66z M425.06 222.19h9.66v9.66h-9.66z M434.72 222.19h9.66v9.66h-9.66z M444.38 222.19h9.66v9.66h-9.66z M57.96 231.85h9.66v9.66h-9.66z M77.28 231.85h9.66v9.66h-9.66z M86.94 231.85h9.66v9.66h-9.66z M96.60 231.85h9.66v9.66h-9.66z M106.26 231.85h9.66v9.66h-9.66z M115.92 231.85h9.66v9.66h-9.66z M135.25 231.85h9.66v9.66h-9.66z M144.91 231.85h9.66v9.66h-9.66z M173.89 231.85h9.66v9.66h-9.66z M202.87 231.85h9.66v9.66h-9.66z M212.53 231.85h9.66v9.66h-9.66z M231.85 231.85h9.66v9.66h-9.66z M241.51 231.85h9.66v9.66h-9.66z M251.17 231.85h9.66v9.66h-9.66z M260.83 231.85h9.66v9.66h-9.66z M270.49 231.85h9.66v9.66h-9.66z M289.81 231.85h9.66v9.66h-9.66z M299.47 231.85h9.66v9.66h-9.66z M328.45 231.85h9.66v9.66h-9.66z M338.11 231.85h9.66v9.66h-9.66z M357.43 231.85h9.66v9.66h-9.66z M386.42 231.85h9.66v9.66h-9.66z M396.08 231.85h9.66v9.66h-9.66z M405.74 231.85h9.66v9.66h-9.66z M415.40 231.85h9.66v9.66h-9.66z M425.06 231.85h9.66v9.66h-9.66z M48.30 241.51h9.66v9.66h-9.66z M57.96 241.51h9.66v9.66h-9.66z M77.28 241.51h9.66v9.66h-9.66z M115.92 241.51h9.66v9.66h-9.66z M125.58 241.51h9.66v9.66h-9.66z M193.21 241.51h9.66v9.66h-9.66z M222.19 241.51h9.66v9.66h-9.66z M231.85 241.51h9.66v9.66h-9.66z M270.49 241.51h9.66v9.66h-9.66z M280.15 241.51h9.66v9.66h-9.66z M299.47 241.51h9.66v9.66h-9.66z M318.79 241.51h9.66v9.66h-9.66z M328.45 241.51h9.66v9.66h-9.66z M357.43 241.51h9.66v9.66h-9.66z M367.09 241.51h9.66v9.66h-9.66z M376.75 241.51h9.66v9.66h-9.66z M386.42 241.51h9.66v9.66h-9.66z M425.06 241.51h9.66v9.66h-9.66z M454.04 241.51h9.66v9.66h-9.66z M77.28 251.17h9.66v9.66h-9.66z M96.60 251.17h9.66v9.66h-9.66z M115.92 251.17h9.66v9.66h-9.66z M135.25 251.17h9.66v9.66h-9.66z M212.53 251.17h9.66v9.66h-9.66z M222.19 251.17h9.66v9.66h-9.66z M231.85 251.17h9.66v9.66h-9.66z M251.17 251.17h9.66v9.66h-9.66z M270.49 251.17h9.66v9.66h-9.66z M299.47 251.17h9.66v9.66h-9.66z M357.43 251.17h9.66v9.66h-9.66z M367.09 251.17h9.66v9.66h-9.66z M376.75 251.17h9.66v9.66h-9.66z M386.42 251.17h9.66v9.66h-9.66z M405.74 251.17h9.66v9.66h-9.66z M425.06 251.17h9.66v9.66h-9.66z M444.38 251.17h9.66v9.66h-9.66z M454.04 251.17h9.66v9.66h-9.66z M38.64 260.83h9.66v9.66h-9.66z M48.30 260.83h9.66v9.66h-9.66z M57.96 260.83h9.66v9.66h-9.66z M77.28 260.83h9.66v9.66h-9.66z M115.92 260.83h9.66v9.66h-9.66z M135.25 260.83h9.66v9.66h-9.66z M144.91 260.83h9.66v9.66h-9.66z M164.23 260.83h9.66v9.66h-9.66z M183.55 260.83h9.66v9.66h-9.66z M202.87 260.83h9.66v9.66h-9.66z M212.53 260.83h9.66v9.66h-9.66z M222.19 260.83h9.66v9.66h-9.66z M231.85 260.83h9.66v9.66h-9.66z M270.49 260.83h9.66v9.66h-9.66z M289.81 260.83h9.66v9.66h-9.66z M299.47 260.83h9.66v9.66h-9.66z M309.13 260.83h9.66v9.66h-9.66z M318.79 260.83h9.66v9.66h-9.66z M328.45 260.83h9.66v9.66h-9.66z M347.77 260.83h9.66v9.66h-9.66z M386.42 260.83h9.66v9.66h-9.66z M425.06 260.83h9.66v9.66h-9.66z M434.72 260.83h9.66v9.66h-9.66z M444.38 260.83h9.66v9.66h-9.66z M38.64 270.49h9.66v9.66h-9.66z M48.30 270.49h9.66v9.66h-9.66z M77.28 270.49h9.66v9.66h-9.66z M86.94 270.49h9.66v9.66h-9.66z M96.60 270.49h9.66v9.66h-9.66z M106.26 270.49h9.66v9.66h-9.66z M115.92 270.49h9.66v9.66h-9.66z M144.91 270.49h9.66v9.66h-9.66z M173.89 270.49h9.66v9.66h-9.66z M183.55 270.49h9.66v9.66h-9.66z M202.87 270.49h9.66v9.66h-9.66z M212.53 270.49h9.66v9.66h-9.66z M231.85 270.49h9.66v9.66h-9.66z M241.51 270.49h9.66v9.66h-9.66z M251.17 270.49h9.66v9.66h-9.66z M260.83 270.49h9.66v9.66h-9.66z M270.49 270.49h9.66v9.66h-9.66z M280.15 270.49h9.66v9.66h-9.66z M309.13 270.49h9.66v9.66h-9.66z M318.79 270.49h9.66v9.66h-9.66z M328.45 270.49h9.66v9.66h-9.66z M347.77 270.49h9.66v9.66h-9.66z M357.43 270.49h9.66v9.66h-9.66z M367.09 270.49h9.66v9.66h-9.66z M376.75 270.49h9.66v9.66h-9.66z M386.42 270.49h9.66v9.66h-9.66z M396.08 270.49h9.66v9.66h-9.66z M405.74 270.49h9.66v9.66h-9.66z M415.40 270.49h9.66v9.66h-9.66z M425.06 270.49h9.66v9.66h-9.66z M434.72 270.49h9.66v9.66h-9.66z M454.04 270.49h9.66v9.66h-9.66z M463.70 270.49h9.66v9.66h-9.66z M48.30 280.15h9.66v9.66h-9.66z M67.62 280.15h9.66v9.66h-9.66z M106.26 280.15h9.66v9.66h-9.66z M115.92 280.15h9.66v9.66h-9.66z M125.58 280.15h9.66v9.66h-9.66z M164.23 280.15h9.66v9.66h-9.66z M202.87 280.15h9.66v9.66h-9.66z M212.53 280.15h9.66v9.66h-9.66z M222.19 280.15h9.66v9.66h-9.66z M231.85 280.15h9.66v9.66h-9.66z M251.17 280.15h9.66v9.66h-9.66z M270.49 280.15h9.66v9.66h-9.66z M280.15 280.15h9.66v9.66h-9.66z M299.47 280.15h9.66v9.66h-9.66z M309.13 280.15h9.66v9.66h-9.66z M328.45 280.15h9.66v9.66h-9.66z M357.43 280.15h9.66v9.66h-9.66z M396.08 280.15h9.66v9.66h-9.66z M405.74 280.15h9.66v9.66h-9.66z M415.40 280.15h9.66v9.66h-9.66z M454.04 280.15h9.66v9.66h-9.66z M57.96 289.81h9.66v9.66h-9.66z M77.28 289.81h9.66v9.66h-9.66z M96.60 289.81h9.66v9.66h-9.66z M115.92 289.81h9.66v9.66h-9.66z M125.58 289.81h9.66v9.66h-9.66z M135.25 289.81h9.66v9.66h-9.66z M144.91 289.81h9.66v9.66h-9.66z M154.57 289.81h9.66v9.66h-9.66z M173.89 289.81h9.66v9.66h-9.66z M183.55 289.81h9.66v9.66h-9.66z M202.87 289.81h9.66v9.66h-9.66z M212.53 289.81h9.66v9.66h-9.66z M231.85 289.81h9.66v9.66h-9.66z M251.17 289.81h9.66v9.66h-9.66z M260.83 289.81h9.66v9.66h-9.66z M280.15 289.81h9.66v9.66h-9.66z M289.81 289.81h9.66v9.66h-9.66z M309.13 289.81h9.66v9.66h-9.66z M338.11 289.81h9.66v9.66h-9.66z M357.43 289.81h9.66v9.66h-9.66z M367.09 289.81h9.66v9.66h-9.66z M386.42 289.81h9.66v9.66h-9.66z M396.08 289.81h9.66v9.66h-9.66z M415.40 289.81h9.66v9.66h-9.66z M444.38 289.81h9.66v9.66h-9.66z M454.04 289.81h9.66v9.66h-9.66z M57.96 299.47h9.66v9.66h-9.66z M86.94 299.47h9.66v9.66h-9.66z M106.26 299.47h9.66v9.66h-9.66z M135.25 299.47h9.66v9.66h-9.66z M144.91 299.47h9.66v9.66h-9.66z M193.21 299.47h9.66v9.66h-9.66z M212.53 299.47h9.66v9.66h-9.66z M222.19 299.47h9.66v9.66h-9.66z M251.17 299.47h9.66v9.66h-9.66z M260.83 299.47h9.66v9.66h-9.66z M270.49 299.47h9.66v9.66h-9.66z M289.81 299.47h9.66v9.66h-9.66z M318.79 299.47h9.66v9.66h-9.66z M328.45 299.47h9.66v9.66h-9.66z M357.43 299.47h9.66v9.66h-9.66z M367.09 299.47h9.66v9.66h-9.66z M376.75 299.47h9.66v9.66h-9.66z M386.42 299.47h9.66v9.66h-9.66z M425.06 299.47h9.66v9.66h-9.66z M434.72 299.47h9.66v9.66h-9.66z M444.38 299.47h9.66v9.66h-9.66z M463.70 299.47h9.66v9.66h-9.66z M57.96 309.13h9.66v9.66h-9.66z M67.62 309.13h9.66v9.66h-9.66z M77.28 309.13h9.66v9.66h-9.66z M96.60 309.13h9.66v9.66h-9.66z M115.92 309.13h9.66v9.66h-9.66z M125.58 309.13h9.66v9.66h-9.66z M144.91 309.13h9.66v9.66h-9.66z M154.57 309.13h9.66v9.66h-9.66z M173.89 309.13h9.66v9.66h-9.66z M183.55 309.13h9.66v9.66h-9.66z M222.19 309.13h9.66v9.66h-9.66z M260.83 309.13h9.66v9.66h-9.66z M270.49 309.13h9.66v9.66h-9.66z M280.15 309.13h9.66v9.66h-9.66z M289.81 309.13h9.66v9.66h-9.66z M328.45 309.13h9.66v9.66h-9.66z M357.43 309.13h9.66v9.66h-9.66z M396.08 309.13h9.66v9.66h-9.66z M425.06 309.13h9.66v9.66h-9.66z M38.64 318.79h9.66v9.66h-9.66z M48.30 318.79h9.66v9.66h-9.66z M57.96 318.79h9.66v9.66h-9.66z M67.62 318.79h9.66v9.66h-9.66z M77.28 318.79h9.66v9.66h-9.66z M115.92 318.79h9.66v9.66h-9.66z M125.58 318.79h9.66v9.66h-9.66z M144.91 318.79h9.66v9.66h-9.66z M154.57 318.79h9.66v9.66h-9.66z M183.55 318.79h9.66v9.66h-9.66z M212.53 318.79h9.66v9.66h-9.66z M231.85 318.79h9.66v9.66h-9.66z M251.17 318.79h9.66v9.66h-9.66z M260.83 318.79h9.66v9.66h-9.66z M318.79 318.79h9.66v9.66h-9.66z M328.45 318.79h9.66v9.66h-9.66z M338.11 318.79h9.66v9.66h-9.66z M347.77 318.79h9.66v9.66h-9.66z M357.43 318.79h9.66v9.66h-9.66z M396.08 318.79h9.66v9.66h-9.66z M415.40 318.79h9.66v9.66h-9.66z M434.72 318.79h9.66v9.66h-9.66z M444.38 318.79h9.66v9.66h-9.66z M463.70 318.79h9.66v9.66h-9.66z M77.28 328.45h9.66v9.66h-9.66z M96.60 328.45h9.66v9.66h-9.66z M106.26 328.45h9.66v9.66h-9.66z M115.92 328.45h9.66v9.66h-9.66z M154.57 328.45h9.66v9.66h-9.66z M164.23 328.45h9.66v9.66h-9.66z M173.89 328.45h9.66v9.66h-9.66z M183.55 328.45h9.66v9.66h-9.66z M202.87 328.45h9.66v9.66h-9.66z M212.53 328.45h9.66v9.66h-9.66z M231.85 328.45h9.66v9.66h-9.66z M251.17 328.45h9.66v9.66h-9.66z M260.83 328.45h9.66v9.66h-9.66z M270.49 328.45h9.66v9.66h-9.66z M280.15 328.45h9.66v9.66h-9.66z M309.13 328.45h9.66v9.66h-9.66z M318.79 328.45h9.66v9.66h-9.66z M347.77 328.45h9.66v9.66h-9.66z M357.43 328.45h9.66v9.66h-9.66z M376.75 328.45h9.66v9.66h-9.66z M405.74 328.45h9.66v9.66h-9.66z M415.40 328.45h9.66v9.66h-9.66z M425.06 328.45h9.66v9.66h-9.66z M444.38 328.45h9.66v9.66h-9.66z M463.70 328.45h9.66v9.66h-9.66z M48.30 338.11h9.66v9.66h-9.66z M57.96 338.11h9.66v9.66h-9.66z M77.28 338.11h9.66v9.66h-9.66z M86.94 338.11h9.66v9.66h-9.66z M125.58 338.11h9.66v9.66h-9.66z M135.25 338.11h9.66v9.66h-9.66z M144.91 338.11h9.66v9.66h-9.66z M164.23 338.11h9.66v9.66h-9.66z M222.19 338.11h9.66v9.66h-9.66z M231.85 338.11h9.66v9.66h-9.66z M241.51 338.11h9.66v9.66h-9.66z M260.83 338.11h9.66v9.66h-9.66z M299.47 338.11h9.66v9.66h-9.66z M309.13 338.11h9.66v9.66h-9.66z M328.45 338.11h9.66v9.66h-9.66z M347.77 338.11h9.66v9.66h-9.66z M357.43 338.11h9.66v9.66h-9.66z M367.09 338.11h9.66v9.66h-9.66z M376.75 338.11h9.66v9.66h-9.66z M405.74 338.11h9.66v9.66h-9.66z M434.72 338.11h9.66v9.66h-9.66z M444.38 338.11h9.66v9.66h-9.66z M454.04 338.11h9.66v9.66h-9.66z M463.70 338.11h9.66v9.66h-9.66z M38.64 347.77h9.66v9.66h-9.66z M48.30 347.77h9.66v9.66h-9.66z M67.62 347.77h9.66v9.66h-9.66z M77.28 347.77h9.66v9.66h-9.66z M86.94 347.77h9.66v9.66h-9.66z M96.60 347.77h9.66v9.66h-9.66z M106.26 347.77h9.66v9.66h-9.66z M115.92 347.77h9.66v9.66h-9.66z M125.58 347.77h9.66v9.66h-9.66z M135.25 347.77h9.66v9.66h-9.66z M154.57 347.77h9.66v9.66h-9.66z M173.89 347.77h9.66v9.66h-9.66z M193.21 347.77h9.66v9.66h-9.66z M222.19 347.77h9.66v9.66h-9.66z M241.51 347.77h9.66v9.66h-9.66z M328.45 347.77h9.66v9.66h-9.66z M338.11 347.77h9.66v9.66h-9.66z M367.09 347.77h9.66v9.66h-9.66z M386.42 347.77h9.66v9.66h-9.66z M415.40 347.77h9.66v9.66h-9.66z M425.06 347.77h9.66v9.66h-9.66z M434.72 347.77h9.66v9.66h-9.66z M454.04 347.77h9.66v9.66h-9.66z M463.70 347.77h9.66v9.66h-9.66z M38.64 357.43h9.66v9.66h-9.66z M57.96 357.43h9.66v9.66h-9.66z M67.62 357.43h9.66v9.66h-9.66z M86.94 357.43h9.66v9.66h-9.66z M106.26 357.43h9.66v9.66h-9.66z M125.58 357.43h9.66v9.66h-9.66z M144.91 357.43h9.66v9.66h-9.66z M164.23 357.43h9.66v9.66h-9.66z M173.89 357.43h9.66v9.66h-9.66z M183.55 357.43h9.66v9.66h-9.66z M193.21 357.43h9.66v9.66h-9.66z M212.53 357.43h9.66v9.66h-9.66z M222.19 357.43h9.66v9.66h-9.66z M260.83 357.43h9.66v9.66h-9.66z M280.15 357.43h9.66v9.66h-9.66z M289.81 357.43h9.66v9.66h-9.66z M318.79 357.43h9.66v9.66h-9.66z M328.45 357.43h9.66v9.66h-9.66z M367.09 357.43h9.66v9.66h-9.66z M376.75 357.43h9.66v9.66h-9.66z M386.42 357.43h9.66v9.66h-9.66z M396.08 357.43h9.66v9.66h-9.66z M405.74 357.43h9.66v9.66h-9.66z M425.06 357.43h9.66v9.66h-9.66z M434.72 357.43h9.66v9.66h-9.66z M77.28 367.09h9.66v9.66h-9.66z M96.60 367.09h9.66v9.66h-9.66z M106.26 367.09h9.66v9.66h-9.66z M144.91 367.09h9.66v9.66h-9.66z M154.57 367.09h9.66v9.66h-9.66z M164.23 367.09h9.66v9.66h-9.66z M193.21 367.09h9.66v9.66h-9.66z M202.87 367.09h9.66v9.66h-9.66z M212.53 367.09h9.66v9.66h-9.66z M241.51 367.09h9.66v9.66h-9.66z M289.81 367.09h9.66v9.66h-9.66z M299.47 367.09h9.66v9.66h-9.66z M357.43 367.09h9.66v9.66h-9.66z M367.09 367.09h9.66v9.66h-9.66z M376.75 367.09h9.66v9.66h-9.66z M386.42 367.09h9.66v9.66h-9.66z M396.08 367.09h9.66v9.66h-9.66z M425.06 367.09h9.66v9.66h-9.66z M48.30 376.75h9.66v9.66h-9.66z M57.96 376.75h9.66v9.66h-9.66z M67.62 376.75h9.66v9.66h-9.66z M77.28 376.75h9.66v9.66h-9.66z M106.26 376.75h9.66v9.66h-9.66z M115.92 376.75h9.66v9.66h-9.66z M125.58 376.75h9.66v9.66h-9.66z M135.25 376.75h9.66v9.66h-9.66z M164.23 376.75h9.66v9.66h-9.66z M212.53 376.75h9.66v9.66h-9.66z M241.51 376.75h9.66v9.66h-9.66z M260.83 376.75h9.66v9.66h-9.66z M270.49 376.75h9.66v9.66h-9.66z M299.47 376.75h9.66v9.66h-9.66z M309.13 376.75h9.66v9.66h-9.66z M338.11 376.75h9.66v9.66h-9.66z M347.77 376.75h9.66v9.66h-9.66z M357.43 376.75h9.66v9.66h-9.66z M367.09 376.75h9.66v9.66h-9.66z M376.75 376.75h9.66v9.66h-9.66z M396.08 376.75h9.66v9.66h-9.66z M405.74 376.75h9.66v9.66h-9.66z M415.40 376.75h9.66v9.66h-9.66z M434.72 376.75h9.66v9.66h-9.66z M444.38 376.75h9.66v9.66h-9.66z M463.70 376.75h9.66v9.66h-9.66z M38.64 386.42h9.66v9.66h-9.66z M67.62 386.42h9.66v9.66h-9.66z M77.28 386.42h9.66v9.66h-9.66z M96.60 386.42h9.66v9.66h-9.66z M106.26 386.42h9.66v9.66h-9.66z M125.58 386.42h9.66v9.66h-9.66z M183.55 386.42h9.66v9.66h-9.66z M202.87 386.42h9.66v9.66h-9.66z M222.19 386.42h9.66v9.66h-9.66z M231.85 386.42h9.66v9.66h-9.66z M241.51 386.42h9.66v9.66h-9.66z M251.17 386.42h9.66v9.66h-9.66z M260.83 386.42h9.66v9.66h-9.66z M270.49 386.42h9.66v9.66h-9.66z M289.81 386.42h9.66v9.66h-9.66z M309.13 386.42h9.66v9.66h-9.66z M318.79 386.42h9.66v9.66h-9.66z M328.45 386.42h9.66v9.66h-9.66z M347.77 386.42h9.66v9.66h-9.66z M367.09 386.42h9.66v9.66h-9.66z M376.75 386.42h9.66v9.66h-9.66z M386.42 386.42h9.66v9.66h-9.66z M396.08 386.42h9.66v9.66h-9.66z M405.74 386.42h9.66v9.66h-9.66z M415.40 386.42h9.66v9.66h-9.66z M425.06 386.42h9.66v9.66h-9.66z M434.72 386.42h9.66v9.66h-9.66z M454.04 386.42h9.66v9.66h-9.66z M463.70 386.42h9.66v9.66h-9.66z M115.92 396.08h9.66v9.66h-9.66z M154.57 396.08h9.66v9.66h-9.66z M183.55 396.08h9.66v9.66h-9.66z M193.21 396.08h9.66v9.66h-9.66z M202.87 396.08h9.66v9.66h-9.66z M212.53 396.08h9.66v9.66h-9.66z M231.85 396.08h9.66v9.66h-9.66z M270.49 396.08h9.66v9.66h-9.66z M299.47 396.08h9.66v9.66h-9.66z M318.79 396.08h9.66v9.66h-9.66z M328.45 396.08h9.66v9.66h-9.66z M338.11 396.08h9.66v9.66h-9.66z M347.77 396.08h9.66v9.66h-9.66z M357.43 396.08h9.66v9.66h-9.66z M376.75 396.08h9.66v9.66h-9.66z M386.42 396.08h9.66v9.66h-9.66z M425.06 396.08h9.66v9.66h-9.66z M434.72 396.08h9.66v9.66h-9.66z M444.38 396.08h9.66v9.66h-9.66z M463.70 396.08h9.66v9.66h-9.66z M38.64 405.74h9.66v9.66h-9.66z M48.30 405.74h9.66v9.66h-9.66z M57.96 405.74h9.66v9.66h-9.66z M67.62 405.74h9.66v9.66h-9.66z M77.28 405.74h9.66v9.66h-9.66z M86.94 405.74h9.66v9.66h-9.66z M96.60 405.74h9.66v9.66h-9.66z M125.58 405.74h9.66v9.66h-9.66z M164.23 405.74h9.66v9.66h-9.66z M173.89 405.74h9.66v9.66h-9.66z M183.55 405.74h9.66v9.66h-9.66z M222.19 405.74h9.66v9.66h-9.66z M231.85 405.74h9.66v9.66h-9.66z M251.17 405.74h9.66v9.66h-9.66z M270.49 405.74h9.66v9.66h-9.66z M280.15 405.74h9.66v9.66h-9.66z M299.47 405.74h9.66v9.66h-9.66z M309.13 405.74h9.66v9.66h-9.66z M338.11 405.74h9.66v9.66h-9.66z M347.77 405.74h9.66v9.66h-9.66z M357.43 405.74h9.66v9.66h-9.66z M367.09 405.74h9.66v9.66h-9.66z M386.42 405.74h9.66v9.66h-9.66z M405.74 405.74h9.66v9.66h-9.66z M425.06 405.74h9.66v9.66h-9.66z M434.72 405.74h9.66v9.66h-9.66z M444.38 405.74h9.66v9.66h-9.66z M38.64 415.40h9.66v9.66h-9.66z M96.60 415.40h9.66v9.66h-9.66z M125.58 415.40h9.66v9.66h-9.66z M135.25 415.40h9.66v9.66h-9.66z M164.23 415.40h9.66v9.66h-9.66z M183.55 415.40h9.66v9.66h-9.66z M202.87 415.40h9.66v9.66h-9.66z M222.19 415.40h9.66v9.66h-9.66z M231.85 415.40h9.66v9.66h-9.66z M270.49 415.40h9.66v9.66h-9.66z M280.15 415.40h9.66v9.66h-9.66z M289.81 415.40h9.66v9.66h-9.66z M328.45 415.40h9.66v9.66h-9.66z M338.11 415.40h9.66v9.66h-9.66z M367.09 415.40h9.66v9.66h-9.66z M386.42 415.40h9.66v9.66h-9.66z M425.06 415.40h9.66v9.66h-9.66z M444.38 415.40h9.66v9.66h-9.66z M38.64 425.06h9.66v9.66h-9.66z M57.96 425.06h9.66v9.66h-9.66z M67.62 425.06h9.66v9.66h-9.66z M77.28 425.06h9.66v9.66h-9.66z M96.60 425.06h9.66v9.66h-9.66z M125.58 425.06h9.66v9.66h-9.66z M135.25 425.06h9.66v9.66h-9.66z M144.91 425.06h9.66v9.66h-9.66z M231.85 425.06h9.66v9.66h-9.66z M241.51 425.06h9.66v9.66h-9.66z M251.17 425.06h9.66v9.66h-9.66z M260.83 425.06h9.66v9.66h-9.66z M270.49 425.06h9.66v9.66h-9.66z M280.15 425.06h9.66v9.66h-9.66z M328.45 425.06h9.66v9.66h-9.66z M338.11 425.06h9.66v9.66h-9.66z M357.43 425.06h9.66v9.66h-9.66z M367.09 425.06h9.66v9.66h-9.66z M376.75 425.06h9.66v9.66h-9.66z M386.42 425.06h9.66v9.66h-9.66z M396.08 425.06h9.66v9.66h-9.66z M405.74 425.06h9.66v9.66h-9.66z M415.40 425.06h9.66v9.66h-9.66z M425.06 425.06h9.66v9.66h-9.66z M38.64 434.72h9.66v9.66h-9.66z M57.96 434.72h9.66v9.66h-9.66z M67.62 434.72h9.66v9.66h-9.66z M77.28 434.72h9.66v9.66h-9.66z M96.60 434.72h9.66v9.66h-9.66z M135.25 434.72h9.66v9.66h-9.66z M173.89 434.72h9.66v9.66h-9.66z M193.21 434.72h9.66v9.66h-9.66z M222.19 434.72h9.66v9.66h-9.66z M231.85 434.72h9.66v9.66h-9.66z M260.83 434.72h9.66v9.66h-9.66z M270.49 434.72h9.66v9.66h-9.66z M280.15 434.72h9.66v9.66h-9.66z M309.13 434.72h9.66v9.66h-9.66z M318.79 434.72h9.66v9.66h-9.66z M328.45 434.72h9.66v9.66h-9.66z M357.43 434.72h9.66v9.66h-9.66z M376.75 434.72h9.66v9.66h-9.66z M396.08 434.72h9.66v9.66h-9.66z M415.40 434.72h9.66v9.66h-9.66z M425.06 434.72h9.66v9.66h-9.66z M434.72 434.72h9.66v9.66h-9.66z M444.38 434.72h9.66v9.66h-9.66z M454.04 434.72h9.66v9.66h-9.66z M463.70 434.72h9.66v9.66h-9.66z M38.64 444.38h9.66v9.66h-9.66z M57.96 444.38h9.66v9.66h-9.66z M67.62 444.38h9.66v9.66h-9.66z M77.28 444.38h9.66v9.66h-9.66z M96.60 444.38h9.66v9.66h-9.66z M125.58 444.38h9.66v9.66h-9.66z M183.55 444.38h9.66v9.66h-9.66z M251.17 444.38h9.66v9.66h-9.66z M280.15 444.38h9.66v9.66h-9.66z M309.13 444.38h9.66v9.66h-9.66z M318.79 444.38h9.66v9.66h-9.66z M338.11 444.38h9.66v9.66h-9.66z M347.77 444.38h9.66v9.66h-9.66z M386.42 444.38h9.66v9.66h-9.66z M425.06 444.38h9.66v9.66h-9.66z M444.38 444.38h9.66v9.66h-9.66z M463.70 444.38h9.66v9.66h-9.66z M38.64 454.04h9.66v9.66h-9.66z M96.60 454.04h9.66v9.66h-9.66z M125.58 454.04h9.66v9.66h-9.66z M135.25 454.04h9.66v9.66h-9.66z M144.91 454.04h9.66v9.66h-9.66z M164.23 454.04h9.66v9.66h-9.66z M173.89 454.04h9.66v9.66h-9.66z M193.21 454.04h9.66v9.66h-9.66z M202.87 454.04h9.66v9.66h-9.66z M231.85 454.04h9.66v9.66h-9.66z M299.47 454.04h9.66v9.66h-9.66z M309.13 454.04h9.66v9.66h-9.66z M328.45 454.04h9.66v9.66h-9.66z M347.77 454.04h9.66v9.66h-9.66z M357.43 454.04h9.66v9.66h-9.66z M367.09 454.04h9.66v9.66h-9.66z M376.75 454.04h9.66v9.66h-9.66z M386.42 454.04h9.66v9.66h-9.66z M396.08 454.04h9.66v9.66h-9.66z M415.40 454.04h9.66v9.66h-9.66z M425.06 454.04h9.66v9.66h-9.66z M444.38 454.04h9.66v9.66h-9.66z M38.64 463.70h9.66v9.66h-9.66z M48.30 463.70h9.66v9.66h-9.66z M57.96 463.70h9.66v9.66h-9.66z M67.62 463.70h9.66v9.66h-9.66z M77.28 463.70h9.66v9.66h-9.66z M86.94 463.70h9.66v9.66h-9.66z M96.60 463.70h9.66v9.66h-9.66z M115.92 463.70h9.66v9.66h-9.66z M154.57 463.70h9.66v9.66h-9.66z M164.23 463.70h9.66v9.66h-9.66z M183.55 463.70h9.66v9.66h-9.66z M222.19 463.70h9.66v9.66h-9.66z M241.51 463.70h9.66v9.66h-9.66z M260.83 463.70h9.66v9.66h-9.66z M270.49 463.70h9.66v9.66h-9.66z M318.79 463.70h9.66v9.66h-9.66z M328.45 463.70h9.66v9.66h-9.66z M338.11 463.70h9.66v9.66h-9.66z M367.09 463.70h9.66v9.66h-9.66z M405.74 463.70h9.66v9.66h-9.66z M415.40 463.70h9.66v9.66h-9.66z M454.04 463.70h9.66v9.66h-9.66z "/>
</svg>