<svg xmlns="http://www.w3.org/2000/svg" viewBox="0 0 320 320" width="320" height="320">
<rect width="100%" height="100%" fill="#FFFFFF"/>
<path fill="#3498db" d="M38.92 34.59 A4.32 4.32 0 0 1 38.92 43.24 A4.32 4.32 0 0 1 38.92 34.59 Z  M47.57 34.59 A4.32 4.32 0 0 1 47.57 43.24 A4.32 4.32 0 0 1 47.57 34.59 Z  M56.22 34.59 A4.32 4.32 0 0 1 56.22 43.24 A4.32 4.32 0 0 1 56.22 34.59 Z  M64.86 34.59 A4.32 4.32 0 0 1 64.86 43.24 A4.32 4.32 0 0 1 64.86 34.59 Z  M73.51 34.59 A4.32 4.32 0 0 1 73.51 43.24 A4.32 4.32 0 0 1 73.51 34.59 Z  M82.16 34.59 A4.32 4.32 0 0 1 82.16 43.24 A4.32 4.32 0 0 1 82.16 34.59 Z  M90.81 34.59 A4.32 4.32 0 0 1 90.81 43.24 A4.32 4.32 0 0 1 90.81 34.59 Z  M108.11 34.59 A4.32 4.32 0 0 1 108.11 43.24 A4.32 4.32 0 0 1 108.11 34.59 Z  M116.76 34.59 A4.32 4.32 0 0 1 116.76 43.24 A4.32 4.32 0 0 1 116.76 34.59 Z  M125.41 34.59 A4.32 4.32 0 0 1 125.41 43.24 A4.32 4.32 0 0 1 125.41 34.59 Z  M177.30 34.59 A4.32 4.32 0 0 1 177.30 43.24 A4.32 4.32 0 0 1 177.30 34.59 Z  M194.59 34.59 A4.32 4.32 0 0 1 194.59 43.24 A4.32 4.32 0 0 1 194.59 34.59 Z  M203.24 34.59 A4.32 4.32 0 0 1 203.24 43.24 A4.32 4.32 0 0 1 203.24 34.59 Z  M211.89 34.59 A4.32 4.32 0 0 1 211.89 43.24 A4.32 4.32 0 0 1 211.89 34.59 Z  M229.19 34.59 A4.32 4.32 0 0 1 229.19 43.24 A4.32 4.32 0 0 1 229.19 34.59 Z  M237.84 34.59 A4.32 4.32 0 0 1 237.84 43.24 A4.32 4.32 0 0 1 237.84 34.59 Z  M246.49 34.59 A4.32 4.32 0 0 1 246.49 43.24 A4.32 4.32 0 0 1 246.49 34.59 Z  M255.14 34.59 A4.32 4.32 0 0 1 255.14 43.24 A4.32 4.32 0 0 1 255.14 34.59 Z  M263.78 34.59 A4.32 4.32 0 0 1 263.78 43.24 A4.32 4.32 0 0 1 263.78 34.59 Z  M272.43 34.59 A4.32 4.32 0 0 1 272.43 43.24 A4.32 4.32 0 0 1 272.43 34.59 Z  M281.08 34.59 A4.32 4.32 0 0 1 281.08 43.24 A4.32 4.32 0 0 1 281.08 34.59 Z  M38.92 43.24 A4.32 4.32 0 0 1 38.92 51.89 A4.32 4.32 0 0 1 38.92 43.24 Z  M90.81 43.24 A4.32 4.32 0 0 1 90.81 51.89 A4.32 4.32 0 0 1 90.81 43.24 Z  M116.76 43.24 A4.32 4.32 0 0 1 116.76 51.89 A4.32 4.32 0 0 1 116.76 43.24 Z  M185.95 43.24 A4.32 4.32 0 0 1 185.95 51.89 A4.32 4.32 0 0 1 185.95 43.24 Z  M194.59 43.24 A4.32 4.32 0 0 1 194.59 51.89 A4.32 4.32 0 0 1 194.59 43.24 Z  M229.19 43.24 A4.32 4.32 0 0 1 229.19 51.89 A4.32 4.32 0 0 1 229.19 43.24 Z  M281.08 43.24 A4.32 4.32 0 0 1 281.08 51.89 A4.32 4.32 0 0 1 281.08 43.24 Z  M38.92 51.89 A4.32 4.32 0 0 1 38.92 60.54 A4.32 4.32 0 0 1 38.92 51.89 Z  M56.22 51.89 A4.32 4.32 0 0 1 56.22 60.54 A4.32 4.32 0 0 1 56.22 51.89 Z  M64.86 51.89 A4.32 4.32 0 0 1 64.86 60.54 A4.32 4.32 0 0 1 64.86 51.89 Z  M73.51 51.89 A4.32 4.32 0 0 1 73.51 60.54 A4.32 4.32 0 0 1 73.51 51.89 Z  M90.81 51.89 A4.32 4.32 0 0 1 90.81 60.54 A4.32 4.32 0 0 1 90.81 51.89 Z  M108.11 51.89 A4.32 4.32 0 0 1 108.11 60.54 A4.32 4.32 0 0 1 108.11 51.89 Z  M116.76 51.89 A4.32 4.32 0 0 1 116.76 60.54 A4.32 4.32 0 0 1 116.76 51.89 Z  M125.41 51.89 A4.32 4.32 0 0 1 125.41 60.54 A4.32 4.32 0 0 1 125.41 51.89 Z  M134.05 51.89 A4.32 4.32 0 0 1 134.05 60.54 A4.32 4.32 0 0 1 134.05 51.89 Z  M142.70 51.89 A4.32 4.32 0 0 1 142.70 60.54 A4.32 4.32 0 0 1 142.70 51.89 Z  M151.35 51.89 A4.32 4.32 0 0 1 151.35 60.54 A4.32 4.32 0 0 1 151.35 51.89 Z  M160.00 51.89 A4.32 4.32 0 0 1 160.00 60.54 A4.32 4.32 0 0 1 160.00 51.89 Z  M194.59 51.89 A4.32 4.32 0 0 1 194.59 60.54 A4.32 4.32 0 0 1 194.59 51.89 Z  M203.24 51.89 A4.32 4.32 0 0 1 203.24 60.54 A4.32 4.32 0 0 1 203.24 51.89 Z  M211.89 51.89 A4.32 4.32 0 0 1 211.89 60.54 A4.32 4.32 0 0 1 211.89 51.89 Z  M229.19 51.89 A4.32 4.32 0 0 1 229.19 60.54 A4.32 4.32 0 0 1 229.19 51.89 Z  M246.49 51.89 A4.32 4.32 0 0 1 246.49 60.54 A4.32 4.32 0 0 1 246.49 51.89 Z  M255.14 51.89 A4.32 4.32 0 0 1 255.14 60.54 A4.32 4.32 0 0 1 255.14 51.89 Z  M263.78 51.89 A4.32 4.32 0 0 1 263.78 60.54 A4.32 4.32 0 0 1 263.78 51.89 Z  M281.08 51.89 A4.32 4.32 0 0 1 281.08 60.54 A4.32 4.32 0 0 1 281.08 51.89 Z  M38.92 60.54 A4.32 4.32 0 0 1 38.92 69.19 A4.32 4.32 0 0 1 38.92 60.54 Z  M56.22 60.54 A4.32 4.32 0 0 1 56.22 69.19 A4.32 4.32 0 0 1 56.22 60.54 Z  M64.86 60.54 A4.32 4.32 0 0 1 64.86 69.19 A4.32 4.32 0 0 1 64.86 60.54 Z  M73.51 60.54 A4.32 4.32 0 0 1 73.51 69.19 A4.32 4.32 0 0 1 73.51 60.54 Z  M90.81 60.54 A4.32 4.32 0 0 1 90.81 69.19 A4.32 4.32 0 0 1 90.81 60.54 Z  M108.11 60.54 A4.32 4.32 0 0 1 108.11 69.19 A4.32 4.32 0 0 1 108.11 60.54 Z  M116.76 60.54 A4.32 4.32 0 0 1 116.76 69.19 A4.32 4.32 0 0 1 116.76 60.54 Z  M125.41 60.54 A4.32 4.32 0 0 1 125.41 69.19 A4.32 4.32 0 0 1 125.41 60.54 Z  M142.70 60.54 A4.32 4.32 0 0 1 142.70 69.19 A4.32 4.32 0 0 1 142.70 60.54 Z  M168.65 60.54 A4.32 4.32 0 0 1 168.65 69.19 A4.32 4.32 0 0 1 168.65 60.54 Z  M185.95 60.54 A4.32 4.32 0 0 1 185.95 69.19 A4.32 4.32 0 0 1 185.95 60.54 Z  M203.24 60.54 A4.32 4.32 0 0 1 203.24 69.19 A4.32 4.32 0 0 1 203.24 60.54 Z  M229.19 60.54 A4.32 4.32 0 0 1 229.19 69.19 A4.32 4.32 0 0 1 229.19 60.54 Z  M246.49 60.54 A4.32 4.32 0 0 1 246.49 69.19 A4.32 4.32 0 0 1 246.49 60.54 Z  M255.14 60.54 A4.32 4.32 0 0 1 255.14 69.19 A4.32 4.32 0 0 1 255.14 60.54 Z  M263.78 60.54 A4.32 4.32 0 0 1 263.78 69.19 A4.32 4.32 0 0 1 263.78 60.54 Z  M281.08 60.54 A4.32 4.32 0 0 1 281.08 69.19 A4.32 4.32 0 0 1 281.08 60.54 Z  M38.92 69.19 A4.32 4.32 0 0 1 38.92 77.84 A4.32 4.32 0 0 1 38.92 69.19 Z  M56.22 69.19 A4.32 4.32 0 0 1 56.22 77.84 A4.32 4.32 0 0 1 56.22 69.19 Z  M64.86 69.19 A4.32 4.32 0 0 1 64.86 77.84 A4.32 4.32 0 0 1 64.86 69.19 Z  M73.51 69.19 A4.32 4.32 0 0 1 73.51 77.84 A4.32 4.32 0 0 1 73.51 69.19 Z  M90.81 69.19 A4.32 4.32 0 0 1 90.81 77.84 A4.32 4.32 0 0 1 90.81 69.19 Z  M116.76 69.19 A4.32 4.32 0 0 1 116.76 77.84 A4.32 4.32 0 0 1 116.76 69.19 Z  M134.05 69.19 A4.32 4.32 0 0 1 134.05 77.84 A4.32 4.32 0 0 1 134.05 69.19 Z  M151.35 69.19 A4.32 4.32 0 0 1 151.35 77.84 A4.32 4.32 0 0 1 151.35 69.19 Z  M160.00 69.19 A4.32 4.32 0 0 1 160.00 77.84 A4.32 4.32 0 0 1 160.00 69.19 Z  M168.65 69.19 A4.32 4.32 0 0 1 168.65 77.84 A4.32 4.32 0 0 1 168.65 69.19 Z  M177.30 69.19 A4.32 4.32 0 0 1 177.30 77.84 A4.32 4.32 0 0 1 177.30 69.19 Z  M185.95 69.19 A4.32 4.32 0 0 1 185.95 77.84 A4.32 4.32 0 0 1 185.95 69.19 Z  M203.24 69.19 A4.32 4.32 0 0 1 203.24 77.84 A4.32 4.32 0 0 1 203.24 69.19 Z  M229.19 69.19 A4.32 4.32 0 0 1 229.19 77.84 A4.32 4.32 0 0 1 229.19 69.19 Z  M246.49 69.19 A4.32 4.32 0 0 1 246.49 77.84 A4.32 4.32 0 0 1 246.49 69.19 Z  M255.14 69.19 A4.32 4.32 0 0 1 255.14 77.84 A4.32 4.32 0 0 1 255.14 69.19 Z  M263.78 69.19 A4.32 4.32 0 0 1 263.78 77.84 A4.32 4.32 0 0 1 263.78 69.19 Z  M281.08 69.19 A4.32 4.32 0 0 1 281.08 77.84 A4.32 4.32 0 0 1 281.08 69.19 Z  M38.92 77.84 A4.32 4.32 0 0 1 38.92 86.49 A4.32 4.32 0 0 1 38.92 77.84 Z  M90.81 77.84 A4.32 4.32 0 0 1 90.81 86.49 A4.32 4.32 0 0 1 90.81 77.84 Z  M108.11 77.84 A4.32 4.32 0 0 1 108.11 86.49 A4.32 4.32 0 0 1 108.11 77.84 Z  M116.76 77.84 A4.32 4.32 0 0 1 116.76 86.49 A4.32 4.32 0 0 1 116.76 77.84 Z  M134.05 77.84 A4.32 4.32 0 0 1 134.05 86.49 A4.32 4.32 0 0 1 134.05 77.84 Z  M160.00 77.84 A4.32 4.32 0 0 1 160.00 86.49 A4.32 4.32 0 0 1 160.00 77.84 Z  M194.59 77.84 A4.32 4.32 0 0 1 194.59 86.49 A4.32 4.32 0 0 1 194.59 77.84 Z  M203.24 77.84 A4.32 4.32 0 0 1 203.24 86.49 A4.32 4.32 0 0 1 203.24 77.84 Z  M229.19 77.84 A4.32 4.32 0 0 1 229.19 86.49 A4.32 4.32 0 0 1 229.19 77.84 Z  M281.08 77.84 A4.32 4.32 0 0 1 281.08 86.49 A4.32 4.32 0 0 1 281.08 77.84 Z  M38.92 86.49 A4.32 4.32 0 0 1 38.92 95.14 A4.32 4.32 0 0 1 38.92 86.49 Z  M47.57 86.49 A4.32 4.32 0 0 1 47.57 95.14 A4.32 4.32 0 0 1 47.57 86.49 Z  M56.22 86.49 A4.32 4.32 0 0 1 56.22 95.14 A4.32 4.32 0 0 1 56.22 86.49 Z  M64.86 86.49 A4.32 4.32 0 0 1 64.86 95.14 A4.32 4.32 0 0 1 64.86 86.49 Z  M73.51 86.49 A4.32 4.32 0 0 1 73.51 95.14 A4.32 4.32 0 0 1 73.51 86.49 Z  M82.16 86.49 A4.32 4.32 0 0 1 82.16 95.14 A4.32 4.32 0 0 1 82.16 86.49 Z  M90.81 86.49 A4.32 4.32 0 0 1 90.81 95.14 A4.32 4.32 0 0 1 90.81 86.49 Z  M108.11 86.49 A4.32 4.32 0 0 1 108.11 95.14 A4.32 4.32 0 0 1 108.11 86.49 Z  M125.41 86.49 A4.32 4.32 0 0 1 125.41 95.14 A4.32 4.32 0 0 1 125.41 86.49 Z  M142.70 86.49 A4.32 4.32 0 0 1 142.70 95.14 A4.32 4.32 0 0 1 142.70 86.49 Z  M160.00 86.49 A4.32 4.32 0 0 1 160.00 95.14 A4.32 4.32 0 0 1 160.00 86.49 Z  M177.30 86.49 A4.32 4.32 0 0 1 177.30 95.14 A4.32 4.32 0 0 1 177.30 86.49 Z  M194.59 86.49 A4.32 4.32 0 0 1 194.59 95.14 A4.32 4.32 0 0 1 194.59 86.49 Z  M211.89 86.49 A4.32 4.32 0 0 1 211.89 95.14 A4.32 4.32 0 0 1 211.89 86.49 Z  M229.19 86.49 A4.32 4.32 0 0 1 229.19 95.14 A4.32 4.32 0 0 1 229.19 86.49 Z  M237.84 86.49 A4.32 4.32 0 0 1 237.84 95.14 A4.32 4.32 0 0 1 237.84 86.49 Z  M246.49 86.49 A4.32 4.32 0 0 1 246.49 95.14 A4.32 4.32 0 0 1 246.49 86.49 Z  M255.14 86.49 A4.32 4.32 0 0 1 255.14 95.14 A4.32 4.32 0 0 1 255.14 86.49 Z  M263.78 86.49 A4.32 4.32 0 0 1 263.78 95.14 A4.32 4.32 0 0 1 263.78 86.49 Z  M272.43 86.49 A4.32 4.32 0 0 1 272.43 95.14 A4.32 4.32 0 0 1 272.43 86.49 Z  M281.08 86.49 A4.32 4.32 0 0 1 281.08 95.14 A4.32 4.32 0 0 1 281.08 86.49 Z  M108.11 95.14 A4.32 4.32 0 0 1 108.11 103.78 A4.32 4.32 0 0 1 108.11 95.14 Z  M116.76 95.14 A4.32 4.32 0 0 1 116.76 103.78 A4.32 4.32 0 0 1 116.76 95.14 Z  M125.41 95.14 A4.32 4.32 0 0 1 125.41 103.78 A4.32 4.32 0 0 1 125.41 95.14 Z  M134.05 95.14 A4.32 4.32 0 0 1 134.05 103.78 A4.32 4.32 0 0 1 134.05 95.14 Z  M142.70 95.14 A4.32 4.32 0 0 1 142.70 103.78 A4.32 4.32 0 0 1 142.70 95.14 Z  M151.35 95.14 A4.32 4.32 0 0 1 151.35 103.78 A4.32 4.32 0 0 1 151.35 95.14 Z  M160.00 95.14 A4.32 4.32 0 0 1 160.00 103.78 A4.32 4.32 0 0 1 160.00 95.14 Z  M168.65 95.14 A4.32 4.32 0 0 1 168.65 103.78 A4.32 4.32 0 0 1 168.65 95.14 Z  M177.30 95.14 A4.32 4.32 0 0 1 177.30 103.78 A4.32 4.32 0 0 1 177.30 95.14 Z  M185.95 95.14 A4.32 4.32 0 0 1 185.95 103.78 A4.32 4.32 0 0 1 185.95 95.14 Z  M211.89 95.14 A4.32 4.32 0 0 1 211.89 103.78 A4.32 4.32 0 0 1 211.89 95.14 Z  M38.92 103.78 A4.32 4.32 0 0 1 38.92 112.43 A4.32 4.32 0 0 1 38.92 103.78 Z  M47.57 103.78 A4.32 4.32 0 0 1 47.57 112.43 A4.32 4.32 0 0 1 47.57 103.78 Z  M64.86 103.78 A4.32 4.32 0 0 1 64.86 112.43 A4.32 4.32 0 0 1 64.86 103.78 Z  M90.81 103.78 A4.32 4.32 0 0 1 90.81 112.43 A4.32 4.32 0 0 1 90.81 103.78 Z  M99.46 103.78 A4.32 4.32 0 0 1 99.46 112.43 A4.32 4.32 0 0 1 99.46 103.78 Z  M116.76 103.78 A4.32 4.32 0 0 1 116.76 112.43 A4.32 4.32 0 0 1 116.76 103.78 Z  M125.41 103.78 A4.32 4.32 0 0 1 125.41 112.43 A4.32 4.32 0 0 1 125.41 103.78 Z  M151.35 103.78 A4.32 4.32 0 0 1 151.35 112.43 A4.32 4.32 0 0 1 151.35 103.78 Z  M160.00 103.78 A4.32 4.32 0 0 1 160.00 112.43 A4.32 4.32 0 0 1 160.00 103.78 Z  M168.65 103.78 A4.32 4.32 0 0 1 168.65 112.43 A4.32 4.32 0 0 1 168.65 103.78 Z  M177.30 103.78 A4.32 4.32 0 0 1 177.30 112.43 A4.32 4.32 0 0 1 177.30 103.78 Z  M185.95 103.78 A4.32 4.32 0 0 1 185.95 112.43 A4.32 4.32 0 0 1 185.95 103.78 Z  M194.59 103.78 A4.32 4.32 0 0 1 194.59 112.43 A4.32 4.32 0 0 1 194.59 103.78 Z  M229.19 103.78 A4.32 4.32 0 0 1 229.19 112.43 A4.32 4.32 0 0 1 229.19 103.78 Z  M255.14 103.78 A4.32 4.32 0 0 1 255.14 112.43 A4.32 4.32 0 0 1 255.14 103.78 Z  M272.43 103.78 A4.32 4.32 0 0 1 272.43 112.43 A4.32 4.32 0 0 1 272.43 103.78 Z  M281.08 103.78 A4.32 4.32 0 0 1 281.08 112.43 A4.32 4.32 0 0 1 281.08 103.78 Z  M38.92 112.43 A4.32 4.32 0 0 1 38.92 121.08 A4.32 4.32 0 0 1 38.92 112.43 Z  M47.57 112.43 A4.32 4.32 0 0 1 47.57 121.08 A4.32 4.32 0 0 1 47.57 112.43 Z  M56.22 112.43 A4.32 4.32 0 0 1 56.22 121.08 A4.32 4.32 0 0 1 56.22 112.43 Z  M64.86 112.43 A4.32 4.32 0 0 1 64.86 121.08 A4.32 4.32 0 0 1 64.86 112.43 Z  M73.51 112.43 A4.32 4.32 0 0 1 73.51 121.08 A4.32 4.32 0 0 1 73.51 112.43 Z  M99.46 112.43 A4.32 4.32 0 0 1 99.46 121.08 A4.32 4.32 0 0 1 99.46 112.43 Z  M108.11 112.43 A4.32 4.32 0 0 1 108.11 121.08 A4.32 4.32 0 0 1 108.11 112.43 Z  M116.76 112.43 A4.32 4.32 0 0 1 116.76 121.08 A4.32 4.32 0 0 1 116.76 112.43 Z  M142.70 112.43 A4.32 4.32 0 0 1 142.70 121.08 A4.32 4.32 0 0 1 142.70 112.43 Z  M177.30 112.43 A4.32 4.32 0 0 1 177.30 121.08 A4.32 4.32 0 0 1 177.30 112.43 Z  M203.24 112.43 A4.32 4.32 0 0 1 203.24 121.08 A4.32 4.32 0 0 1 203.24 112.43 Z  M211.89 112.43 A4.32 4.32 0 0 1 211.89 121.08 A4.32 4.32 0 0 1 211.89 112.43 Z  M229.19 112.43 A4.32 4.32 0 0 1 229.19 121.08 A4.32 4.32 0 0 1 229.19 112.43 Z  M237.84 112.43 A4.32 4.32 0 0 1 237.84 121.08 A4.32 4.32 0 0 1 237.84 112.43 Z  M246.49 112.43 A4.32 4.32 0 0 1 246.49 121.08 A4.32 4.32 0 0 1 246.49 112.43 Z  M281.08 112.43 A4.32 4.32 0 0 1 281.08 121.08 A4.32 4.32 0 0 1 281.08 112.43 Z  M38.92 121.08 A4.32 4.32 0 0 1 38.92 129.73 A4.32 4.32 0 0 1 38.92 121.08 Z  M73.51 121.08 A4.32 4.32 0 0 1 73.51 129.73 A4.32 4.32 0 0 1 73.51 121.08 Z  M82.16 121.08 A4.32 4.32 0 0 1 82.16 129.73 A4.32 4.32 0 0 1 82.16 121.08 Z  M90.81 121.08 A4.32 4.32 0 0 1 90.81 129.73 A4.32 4.32 0 0 1 90.81 121.08 Z  M99.46 121.08 A4.32 4.32 0 0 1 99.46 129.73 A4.32 4.32 0 0 1 99.46 121.08 Z  M134.05 121.08 A4.32 4.32 0 0 1 134.05 129.73 A4.32 4.32 0 0 1 134.05 121.08 Z  M160.00 121.08 A4.32 4.32 0 0 1 160.00 129.73 A4.32 4.32 0 0 1 160.00 121.08 Z  M177.30 121.08 A4.32 4.32 0 0 1 177.30 129.73 A4.32 4.32 0 0 1 177.30 121.08 Z  M185.95 121.08 A4.32 4.32 0 0 1 185.95 129.73 A4.32 4.32 0 0 1 185.95 121.08 Z  M194.59 121.08 A4.32 4.32 0 0 1 194.59 129.73 A4.32 4.32 0 0 1 194.59 121.08 Z  M220.54 121.08 A4.32 4.32 0 0 1 220.54 129.73 A4.32 4.32 0 0 1 220.54 121.08 Z  M237.84 121.08 A4.32 4.32 0 0 1 237.84 129.73 A4.32 4.32 0 0 1 237.84 121.08 Z  M263.78 121.08 A4.32 4.32 0 0 1 263.78 129.73 A4.32 4.32 0 0 1 263.78 121.08 Z  M272.43 121.08 A4.32 4.32 0 0 1 272.43 129.73 A4.32 4.32 0 0 1 272.43 121.08 Z  M38.92 129.73 A4.32 4.32 0 0 1 38.92 138.38 A4.32 4.32 0 0 1 38.92 129.73 Z  M47.57 129.73 A4.32 4.32 0 0 1 47.57 138.38 A4.32 4.32 0 0 1 47.57 129.73 Z  M64.86 129.73 A4.32 4.32 0 0 1 64.86 138.38 A4.32 4.32 0 0 1 64.86 129.73 Z  M73.51 129.73 A4.32 4.32 0 0 1 73.51 138.38 A4.32 4.32 0 0 1 73.51 129.73 Z  M108.11 129.73 A4.32 4.32 0 0 1 108.11 138.38 A4.32 4.32 0 0 1 108.11 129.73 Z  M125.41 129.73 A4.32 4.32 0 0 1 125.41 138.38 A4.32 4.32 0 0 1 125.41 129.73 Z  M134.05 129.73 A4.32 4.32 0 0 1 134.05 138.38 A4.32 4.32 0 0 1 134.05 129.73 Z  M142.70 129.73 A4.32 4.32 0 0 1 142.70 138.38 A4.32 4.32 0 0 1 142.70 129.73 Z  M151.35 129.73 A4.32 4.32 0 0 1 151.35 138.38 A4.32 4.32 0 0 1 151.35 129.73 Z  M160.00 129.73 A4.32 4.32 0 0 1 160.00 138.38 A4.32 4.32 0 0 1 160.00 129.73 Z  M168.65 129.73 A4.32 4.32 0 0 1 168.65 138.38 A4.32 4.32 0 0 1 168.65 129.73 Z  M203.24 129.73 A4.32 4.32 0 0 1 203.24 138.38 A4.32 4.32 0 0 1 203.24 129.73 Z  M220.54 129.73 A4.32 4.32 0 0 1 220.54 138.38 A4.32 4.32 0 0 1 220.54 129.73 Z  M229.19 129.73 A4.32 4.32 0 0 1 229.19 138.38 A4.32 4.32 0 0 1 229.19 129.73 Z  M246.49 129.73 A4.32 4.32 0 0 1 246.49 138.38 A4.32 4.32 0 0 1 246.49 129.73 Z  M281.08 129.73 A4.32 4.32 0 0 1 281.08 138.38 A4.32 4.32 0 0 1 281.08 129.73 Z  M38.92 138.38 A4.32 4.32 0 0 1 38.92 147.03 A4.32 4.32 0 0 1 38.92 138.38 Z  M56.22 138.38 A4.32 4.32 0 0 1 56.22 147.03 A4.32 4.32 0 0 1 56.22 138.38 Z  M64.86 138.38 A4.32 4.32 0 0 1 64.86 147.03 A4.32 4.32 0 0 1 64.86 138.38 Z  M73.51 138.38 A4.32 4.32 0 0 1 73.51 147.03 A4.32 4.32 0 0 1 73.51 138.38 Z  M90.81 138.38 A4.32 4.32 0 0 1 90.81 147.03 A4.32 4.32 0 0 1 90.81 138.38 Z  M116.76 138.38 A4.32 4.32 0 0 1 116.76 147.03 A4.32 4.32 0 0 1 116.76 138.38 Z  M125.41 138.38 A4.32 4.32 0 0 1 125.41 147.03 A4.32 4.32 0 0 1 125.41 138.38 Z  M168.65 138.38 A4.32 4.32 0 0 1 168.65 147.03 A4.32 4.32 0 0 1 168.65 138.38 Z  M185.95 138.38 A4.32 4.32 0 0 1 185.95 147.03 A4.32 4.32 0 0 1 185.95 138.38 Z  M255.14 138.38 A4.32 4.32 0 0 1 255.14 147.03 A4.32 4.32 0 0 1 255.14 138.38 Z  M263.78 138.38 A4.32 4.32 0 0 1 263.78 147.03 A4.32 4.32 0 0 1 263.78 138.38 Z  M47.57 147.03 A4.32 4.32 0 0 1 47.57 155.68 A4.32 4.32 0 0 1 47.57 147.03 Z  M56.22 147.03 A4.32 4.32 0 0 1 56.22 155.68 A4.32 4.32 0 0 1 56.22 147.03 Z  M64.86 147.03 A4.32 4.32 0 0 1 64.86 155.68 A4.32 4.32 0 0 1 64.86 147.03 Z  M73.51 147.03 A4.32 4.32 0 0 1 73.51 155.68 A4.32 4.32 0 0 1 73.51 147.03 Z  M99.46 147.03 A4.32 4.32 0 0 1 99.46 155.68 A4.32 4.32 0 0 1 99.46 147.03 Z  M151.35 147.03 A4.32 4.32 0 0 1 151.35 155.68 A4.32 4.32 0 0 1 151.35 147.03 Z  M168.65 147.03 A4.32 4.32 0 0 1 168.65 155.68 A4.32 4.32 0 0 1 168.65 147.03 Z  M177.30 147.03 A4.32 4.32 0 0 1 177.30 155.68 A4.32 4.32 0 0 1 177.30 147.03 Z  M185.95 147.03 A4.32 4.32 0 0 1 185.95 155.68 A4.32 4.32 0 0 1 185.95 147.03 Z  M203.24 147.03 A4.32 4.32 0 0 1 203.24 155.68 A4.32 4.32 0 0 1 203.24 147.03 Z  M229.19 147.03 A4.32 4.32 0 0 1 229.19 155.68 A4.32 4.32 0 0 1 229.19 147.03 Z  M263.78 147.03 A4.32 4.32 0 0 1 263.78 155.68 A4.32 4.32 0 0 1 263.78 147.03 Z  M272.43 147.03 A4.32 4.32 0 0 1 272.43 155.68 A4.32 4.32 0 0 1 272.43 147.03 Z  M281.08 147.03 A4.32 4.32 0 0 1 281.08 155.68 A4.32 4.32 0 0 1 281.08 147.03 Z  M47.57 155.68 A4.32 4.32 0 0 1 47.57 164.32 A4.32 4.32 0 0 1 47.57 155.68 Z  M73.51 155.68 A4.32 4.32 0 0 1 73.51 164.32 A4.32 4.32 0 0 1 73.51 155.68 Z  M90.81 155.68 A4.32 4.32 0 0 1 90.81 164.32 A4.32 4.32 0 0 1 90.81 155.68 Z  M108.11 155.68 A4.32 4.32 0 0 1 108.11 164.32 A4.32 4.32 0 0 1 108.11 155.68 Z  M116.76 155.68 A4.32 4.32 0 0 1 116.76 164.32 A4.32 4.32 0 0 1 116.76 155.68 Z  M142.70 155.68 A4.32 4.32 0 0 1 142.70 164.32 A4.32 4.32 0 0 1 142.70 155.68 Z  M160.00 155.68 A4.32 4.32 0 0 1 160.00 164.32 A4.32 4.32 0 0 1 160.00 155.68 Z  M203.24 155.68 A4.32 4.32 0 0 1 203.24 164.32 A4.32 4.32 0 0 1 203.24 155.68 Z  M211.89 155.68 A4.32 4.32 0 0 1 211.89 164.32 A4.32 4.32 0 0 1 211.89 155.68 Z  M229.19 155.68 A4.32 4.32 0 0 1 229.19 164.32 A4.32 4.32 0 0 1 229.19 155.68 Z  M263.78 155.68 A4.32 4.32 0 0 1 263.78 164.32 A4.32 4.32 0 0 1 263.78 155.68 Z  M272.43 155.68 A4.32 4.32 0 0 1 272.43 164.32 A4.32 4.32 0 0 1 272.43 155.68 Z  M281.08 155.68 A4.32 4.32 0 0 1 281.08 164.32 A4.32 4.32 0 0 1 281.08 155.68 Z  M56.22 164.32 A4.32 4.32 0 0 1 56.22 172.97 A4.32 4.32 0 0 1 56.22 164.32 Z  M64.86 164.32 A4.32 4.32 0 0 1 64.86 172.97 A4.32 4.32 0 0 1 64.86 164.32 Z  M73.51 164.32 A4.32 4.32 0 0 1 73.51 172.97 A4.32 4.32 0 0 1 73.51 164.32 Z  M82.16 164.32 A4.32 4.32 0 0 1 82.16 172.97 A4.32 4.32 0 0 1 82.16 164.32 Z  M99.46 164.32 A4.32 4.32 0 0 1 99.46 172.97 A4.32 4.32 0 0 1 99.46 164.32 Z  M108.11 164.32 A4.32 4.32 0 0 1 108.11 172.97 A4.32 4.32 0 0 1 108.11 164.32 Z  M116.76 164.32 A4.32 4.32 0 0 1 116.76 172.97 A4.32 4.32 0 0 1 116.76 164.32 Z  M125.41 164.32 A4.32 4.32 0 0 1 125.41 172.97 A4.32 4.32 0 0 1 125.41 164.32 Z  M134.05 164.32 A4.32 4.32 0 0 1 134.05 172.97 A4.32 4.32 0 0 1 134.05 164.32 Z  M142.70 164.32 A4.32 4.32 0 0 1 142.70 172.97 A4.32 4.32 0 0 1 142.70 164.32 Z  M151.35 164.32 A4.32 4.32 0 0 1 151.35 172.97 A4.32 4.32 0 0 1 151.35 164.32 Z  M168.65 164.32 A4.32 4.32 0 0 1 168.65 172.97 A4.32 4.32 0 0 1 168.65 164.32 Z  M177.30 164.32 A4.32 4.32 0 0 1 177.30 172.97 A4.32 4.32 0 0 1 177.30 164.32 Z  M203.24 164.32 A4.32 4.32 0 0 1 203.24 172.97 A4.32 4.32 0 0 1 203.24 164.32 Z  M211.89 164.32 A4.32 4.32 0 0 1 211.89 172.97 A4.32 4.32 0 0 1 211.89 164.32 Z  M220.54 164.32 A4.32 4.32 0 0 1 220.54 172.97 A4.32 4.32 0 0 1 220.54 164.32 Z  M229.19 164.32 A4.32 4.32 0 0 1 229.19 172.97 A4.32 4.32 0 0 1 229.19 164.32 Z  M237.84 164.32 A4.32 4.32 0 0 1 237.84 172.97 A4.32 4.32 0 0 1 237.84 164.32 Z  M246.49 164.32 A4.32 4.32 0 0 1 246.49 172.97 A4.32 4.32 0 0 1 246.49 164.32 Z  M272.43 164.32 A4.32 4.32 0 0 1 272.43 172.97 A4.32 4.32 0 0 1 272.43 164.32 Z  M38.92 172.97 A4.32 4.32 0 0 1 38.92 181.62 A4.32 4.32 0 0 1 38.92 172.97 Z  M73.51 172.97 A4.32 4.32 0 0 1 73.51 181.62 A4.32 4.32 0 0 1 73.51 172.97 Z  M90.81 172.97 A4.32 4.32 0 0 1 90.81 181.62 A4.32 4.32 0 0 1 90.81 172.97 Z  M99.46 172.97 A4.32 4.32 0 0 1 99.46 181.62 A4.32 4.32 0 0 1 99.46 172.97 Z  M108.11 172.97 A4.32 4.32 0 0 1 108.11 181.62 A4.32 4.32 0 0 1 108.11 172.97 Z  M125.41 172.97 A4.32 4.32 0 0 1 125.41 181.62 A4.32 4.32 0 0 1 125.41 172.97 Z  M142.70 172.97 A4.32 4.32 0 0 1 142.70 181.62 A4.32 4.32 0 0 1 142.70 172.97 Z  M168.65 172.97 A4.32 4.32 0 0 1 168.65 181.62 A4.32 4.32 0 0 1 168.65 172.97 Z  M194.59 172.97 A4.32 4.32 0 0 1 194.59 181.62 A4.32 4.32 0 0 1 194.59 172.97 Z  M203.24 172.97 A4.32 4.32 0 0 1 203.24 181.62 A4.32 4.32 0 0 1 203.24 172.97 Z  M211.89 172.97 A4.32 4.32 0 0 1 211.89 181.62 A4.32 4.32 0 0 1 211.89 172.97 Z  M246.49 172.97 A4.32 4.32 0 0 1 246.49 181.62 A4.32 4.32 0 0 1 246.49 172.97 Z  M255.14 172.97 A4.32 4.32 0 0 1 255.14 181.62 A4.32 4.32 0 0 1 255.14 172.97 Z  M272.43 172.97 A4.32 4.32 0 0 1 272.43 181.62 A4.32 4.32 0 0 1 272.43 172.97 Z  M47.57 181.62 A4.32 4.32 0 0 1 47.57 190.27 A4.32 4.32 0 0 1 47.57 181.62 Z  M56.22 181.62 A4.32 4.32 0 0 1 56.22 190.27 A4.32 4.32 0 0 1 56.22 181.62 Z  M108.11 181.62 A4.32 4.32 0 0 1 108.11 190.27 A4.32 4.32 0 0 1 108.11 181.62 Z  M116.76 181.62 A4.32 4.32 0 0 1 116.76 190.27 A4.32 4.32 0 0 1 116.76 181.62 Z  M125.41 181.62 A4.32 4.32 0 0 1 125.41 190.27 A4.32 4.32 0 0 1 125.41 181.62 Z  M134.05 181.62 A4.32 4.32 0 0 1 134.05 190.27 A4.32 4.32 0 0 1 134.05 181.62 Z  M151.35 181.62 A4.32 4.32 0 0 1 151.35 190.27 A4.32 4.32 0 0 1 151.35 181.62 Z  M168.65 181.62 A4.32 4.32 0 0 1 168.65 190.27 A4.32 4.32 0 0 1 168.65 181.62 Z  M177.30 181.62 A4.32 4.32 0 0 1 177.30 190.27 A4.32 4.32 0 0 1 177.30 181.62 Z  M185.95 181.62 A4.32 4.32 0 0 1 185.95 190.27 A4.32 4.32 0 0 1 185.95 181.62 Z  M237.84 181.62 A4.32 4.32 0 0 1 237.84 190.27 A4.32 4.32 0 0 1 237.84 181.62 Z  M255.14 181.62 A4.32 4.32 0 0 1 255.14 190.27 A4.32 4.32 0 0 1 255.14 181.62 Z  M263.78 181.62 A4.32 4.32 0 0 1 263.78 190.27 A4.32 4.32 0 0 1 263.78 181.62 Z  M272.43 181.62 A4.32 4.32 0 0 1 272.43 190.27 A4.32 4.32 0 0 1 272.43 181.62 Z  M38.92 190.27 A4.32 4.32 0 0 1 38.92 198.92 A4.32 4.32 0 0 1 38.92 190.27 Z  M64.86 190.27 A4.32 4.32 0 0 1 64.86 198.92 A4.32 4.32 0 0 1 64.86 190.27 Z  M73.51 190.27 A4.32 4.32 0 0 1 73.51 198.92 A4.32 4.32 0 0 1 73.51 190.27 Z  M90.81 190.27 A4.32 4.32 0 0 1 90.81 198.92 A4.32 4.32 0 0 1 90.81 190.27 Z  M108.11 190.27 A4.32 4.32 0 0 1 108.11 198.92 A4.32 4.32 0 0 1 108.11 190.27 Z  M134.05 190.27 A4.32 4.32 0 0 1 134.05 198.92 A4.32 4.32 0 0 1 134.05 190.27 Z  M142.70 190.27 A4.32 4.32 0 0 1 142.70 198.92 A4.32 4.32 0 0 1 142.70 190.27 Z  M168.65 190.27 A4.32 4.32 0 0 1 168.65 198.92 A4.32 4.32 0 0 1 168.65 190.27 Z  M194.59 190.27 A4.32 4.32 0 0 1 194.59 198.92 A4.32 4.32 0 0 1 194.59 190.27 Z  M211.89 190.27 A4.32 4.32 0 0 1 211.89 198.92 A4.32 4.32 0 0 1 211.89 190.27 Z  M229.19 190.27 A4.32 4.32 0 0 1 229.19 198.92 A4.32 4.32 0 0 1 229.19 190.27 Z  M237.84 190.27 A4.32 4.32 0 0 1 237.84 198.92 A4.32 4.32 0 0 1 237.84 190.27 Z  M246.49 190.27 A4.32 4.32 0 0 1 246.49 198.92 A4.32 4.32 0 0 1 246.49 190.27 Z  M263.78 190.27 A4.32 4.32 0 0 1 263.78 198.92 A4.32 4.32 0 0 1 263.78 190.27 Z  M56.22 198.92 A4.32 4.32 0 0 1 56.22 207.57 A4.32 4.32 0 0 1 56.22 198.92 Z  M64.86 198.92 A4.32 4.32 0 0 1 64.86 207.57 A4.32 4.32 0 0 1 64.86 198.92 Z  M73.51 198.92 A4.32 4.32 0 0 1 73.51 207.57 A4.32 4.32 0 0 1 73.51 198.92 Z  M116.76 198.92 A4.32 4.32 0 0 1 116.76 207.57 A4.32 4.32 0 0 1 116.76 198.92 Z  M125.41 198.92 A4.32 4.32 0 0 1 125.41 207.57 A4.32 4.32 0 0 1 125.41 198.92 Z  M168.65 198.92 A4.32 4.32 0 0 1 168.65 207.57 A4.32 4.32 0 0 1 168.65 198.92 Z  M185.95 198.92 A4.32 4.32 0 0 1 185.95 207.57 A4.32 4.32 0 0 1 185.95 198.92 Z  M229.19 198.92 A4.32 4.32 0 0 1 229.19 207.57 A4.32 4.32 0 0 1 229.19 198.92 Z  M237.84 198.92 A4.32 4.32 0 0 1 237.84 207.57 A4.32 4.32 0 0 1 237.84 198.92 Z  M246.49 198.92 A4.32 4.32 0 0 1 246.49 207.57 A4.32 4.32 0 0 1 246.49 198.92 Z  M263.78 198.92 A4.32 4.32 0 0 1 263.78 207.57 A4.32 4.32 0 0 1 263.78 198.92 Z  M47.57 207.57 A4.32 4.32 0 0 1 47.57 216.22 A4.32 4.32 0 0 1 47.57 207.57 Z  M56.22 207.57 A4.32 4.32 0 0 1 56.22 216.22 A4.32 4.32 0 0 1 56.22 207.57 Z  M73.51 207.57 A4.32 4.32 0 0 1 73.51 216.22 A4.32 4.32 0 0 1 73.51 207.57 Z  M90.81 207.57 A4.32 4.32 0 0 1 90.81 216.22 A4.32 4.32 0 0 1 90.81 207.57 Z  M116.76 207.57 A4.32 4.32 0 0 1 116.76 216.22 A4.32 4.32 0 0 1 116.76 207.57 Z  M125.41 207.57 A4.32 4.32 0 0 1 125.41 216.22 A4.32 4.32 0 0 1 125.41 207.57 Z  M151.35 207.57 A4.32 4.32 0 0 1 151.35 216.22 A4.32 4.32 0 0 1 151.35 207.57 Z  M185.95 207.57 A4.32 4.32 0 0 1 185.95 216.22 A4.32 4.32 0 0 1 185.95 207.57 Z  M194.59 207.57 A4.32 4.32 0 0 1 194.59 216.22 A4.32 4.32 0 0 1 194.59 207.57 Z  M211.89 207.57 A4.32 4.32 0 0 1 211.89 216.22 A4.32 4.32 0 0 1 211.89 207.57 Z  M220.54 207.57 A4.32 4.32 0 0 1 220.54 216.22 A4.32 4.32 0 0 1 220.54 207.57 Z  M229.19 207.57 A4.32 4.32 0 0 1 229.19 216.22 A4.32 4.32 0 0 1 229.19 207.57 Z  M237.84 207.57 A4.32 4.32 0 0 1 237.84 216.22 A4.32 4.32 0 0 1 237.84 207.57 Z  M246.49 207.57 A4.32 4.32 0 0 1 246.49 216.22 A4.32 4.32 0 0 1 246.49 207.57 Z  M255.14 207.57 A4.32 4.32 0 0 1 255.14 216.22 A4.32 4.32 0 0 1 255.14 207.57 Z  M263.78 207.57 A4.32 4.32 0 0 1 263.78 216.22 A4.32 4.32 0 0 1 263.78 207.57 Z  M108.11 216.22 A4.32 4.32 0 0 1 108.11 224.86 A4.32 4.32 0 0 1 108.11 216.22 Z  M125.41 216.22 A4.32 4.32 0 0 1 125.41 224.86 A4.32 4.32 0 0 1 125.41 216.22 Z  M151.35 216.22 A4.32 4.32 0 0 1 151.35 224.86 A4.32 4.32 0 0 1 151.35 216.22 Z  M160.00 216.22 A4.32 4.32 0 0 1 160.00 224.86 A4.32 4.32 0 0 1 160.00 216.22 Z  M177.30 216.22 A4.32 4.32 0 0 1 177.30 224.86 A4.32 4.32 0 0 1 177.30 216.22 Z  M194.59 216.22 A4.32 4.32 0 0 1 194.59 224.86 A4.32 4.32 0 0 1 194.59 216.22 Z  M211.89 216.22 A4.32 4.32 0 0 1 211.89 224.86 A4.32 4.32 0 0 1 211.89 216.22 Z  M246.49 216.22 A4.32 4.32 0 0 1 246.49 224.86 A4.32 4.32 0 0 1 246.49 216.22 Z  M255.14 216.22 A4.32 4.32 0 0 1 255.14 224.86 A4.32 4.32 0 0 1 255.14 216.22 Z  M263.78 216.22 A4.32 4.32 0 0 1 263.78 224.86 A4.32 4.32 0 0 1 263.78 216.22 Z  M272.43 216.22 A4.32 4.32 0 0 1 272.43 224.86 A4.32 4.32 0 0 1 272.43 216.22 Z  M281.08 216.22 A4.32 4.32 0 0 1 281.08 224.86 A4.32 4.32 0 0 1 281.08 216.22 Z  M38.92 224.86 A4.32 4.32 0 0 1 38.92 233.51 A4.32 4.32 0 0 1 38.92 224.86 Z  M47.57 224.86 A4.32 4.32 0 0 1 47.57 233.51 A4.32 4.32 0 0 1 47.57 224.86 Z  M56.22 224.86 A4.32 4.32 0 0 1 56.22 233.51 A4.32 4.32 0 0 1 56.22 224.86 Z  M64.86 224.86 A4.32 4.32 0 0 1 64.86 233.51 A4.32 4.32 0 0 1 64.86 224.86 Z  M73.51 224.86 A4.32 4.32 0 0 1 73.51 233.51 A4.32 4.32 0 0 1 73.51 224.86 Z  M82.16 224.86 A4.32 4.32 0 0 1 82.16 233.51 A4.32 4.32 0 0 1 82.16 224.86 Z  M90.81 224.86 A4.32 4.32 0 0 1 90.81 233.51 A4.32 4.32 0 0 1 90.81 224.86 Z  M108.11 224.86 A4.32 4.32 0 0 1 108.11 233.51 A4.32 4.32 0 0 1 108.11 224.86 Z  M125.41 224.86 A4.32 4.32 0 0 1 125.41 233.51 A4.32 4.32 0 0 1 125.41 224.86 Z  M134.05 224.86 A4.32 4.32 0 0 1 134.05 233.51 A4.32 4.32 0 0 1 134.05 224.86 Z  M142.70 224.86 A4.32 4.32 0 0 1 142.70 233.51 A4.32 4.32 0 0 1 142.70 224.86 Z  M151.35 224.86 A4.32 4.32 0 0 1 151.35 233.51 A4.32 4.32 0 0 1 151.35 224.86 Z  M177.30 224.86 A4.32 4.32 0 0 1 177.30 233.51 A4.32 4.32 0 0 1 177.30 224.86 Z  M185.95 224.86 A4.32 4.32 0 0 1 185.95 233.51 A4.32 4.32 0 0 1 185.95 224.86 Z  M203.24 224.86 A4.32 4.32 0 0 1 203.24 233.51 A4.32 4.32 0 0 1 203.24 224.86 Z  M211.89 224.86 A4.32 4.32 0 0 1 211.89 233.51 A4.32 4.32 0 0 1 211.89 224.86 Z  M229.19 224.86 A4.32 4.32 0 0 1 229.19 233.51 A4.32 4.32 0 0 1 229.19 224.86 Z  M246.49 224.86 A4.32 4.32 0 0 1 246.49 233.51 A4.32 4.32 0 0 1 246.49 224.86 Z  M255.14 224.86 A4.32 4.32 0 0 1 255.14 233.51 A4.32 4.32 0 0 1 255.14 224.86 Z  M272.43 224.86 A4.32 4.32 0 0 1 272.43 233.51 A4.32 4.32 0 0 1 272.43 224.86 Z  M38.92 233.51 A4.32 4.32 0 0 1 38.92 242.16 A4.32 4.32 0 0 1 38.92 233.51 Z  M90.81 233.51 A4.32 4.32 0 0 1 90.81 242.16 A4.32 4.32 0 0 1 90.81 233.51 Z  M108.11 233.51 A4.32 4.32 0 0 1 108.11 242.16 A4.32 4.32 0 0 1 108.11 233.51 Z  M116.76 233.51 A4.32 4.32 0 0 1 116.76 242.16 A4.32 4.32 0 0 1 116.76 233.51 Z  M177.30 233.51 A4.32 4.32 0 0 1 177.30 242.16 A4.32 4.32 0 0 1 177.30 233.51 Z  M194.59 233.51 A4.32 4.32 0 0 1 194.59 242.16 A4.32 4.32 0 0 1 194.59 233.51 Z  M211.89 233.51 A4.32 4.32 0 0 1 211.89 242.16 A4.32 4.32 0 0 1 211.89 233.51 Z  M246.49 233.51 A4.32 4.32 0 0 1 246.49 242.16 A4.32 4.32 0 0 1 246.49 233.51 Z  M255.14 233.51 A4.32 4.32 0 0 1 255.14 242.16 A4.32 4.32 0 0 1 255.14 233.51 Z  M272.43 233.51 A4.32 4.32 0 0 1 272.43 242.16 A4.32 4.32 0 0 1 272.43 233.51 Z  M281.08 233.51 A4.32 4.32 0 0 1 281.08 242.16 A4.32 4.32 0 0 1 281.08 233.51 Z  M38.92 242.16 A4.32 4.32 0 0 1 38.92 250.81 A4.32 4.32 0 0 1 38.92 242.16 Z  M56.22 242.16 A4.32 4.32 0 0 1 56.22 250.81 A4.32 4.32 0 0 1 56.22 242.16 Z  M64.86 242.16 A4.32 4.32 0 0 1 64.86 250.81 A4.32 4.32 0 0 1 64.86 242.16 Z  M73.51 242.16 A4.32 4.32 0 0 1 73.51 250.81 A4.32 4.32 0 0 1 73.51 242.16 Z  M90.81 242.16 A4.32 4.32 0 0 1 90.81 250.81 A4.32 4.32 0 0 1 90.81 242.16 Z  M125.41 242.16 A4.32 4.32 0 0 1 125.41 250.81 A4.32 4.32 0 0 1 125.41 242.16 Z  M142.70 242.16 A4.32 4.32 0 0 1 142.70 250.81 A4.32 4.32 0 0 1 142.70 242.16 Z  M160.00 242.16 A4.32 4.32 0 0 1 160.00 250.81 A4.32 4.32 0 0 1 160.00 242.16 Z  M168.65 242.16 A4.32 4.32 0 0 1 168.65 250.81 A4.32 4.32 0 0 1 168.65 242.16 Z  M177.30 242.16 A4.32 4.32 0 0 1 177.30 250.81 A4.32 4.32 0 0 1 177.30 242.16 Z  M185.95 242.16 A4.32 4.32 0 0 1 185.95 250.81 A4.32 4.32 0 0 1 185.95 242.16 Z  M211.89 242.16 A4.32 4.32 0 0 1 211.89 250.81 A4.32 4.32 0 0 1 211.89 242.16 Z  M220.54 242.16 A4.32 4.32 0 0 1 220.54 250.81 A4.32 4.32 0 0 1 220.54 242.16 Z  M229.19 242.16 A4.32 4.32 0 0 1 229.19 250.81 A4.32 4.32 0 0 1 229.19 242.16 Z  M237.84 242.16 A4.32 4.32 0 0 1 237.84 250.81 A4.32 4.32 0 0 1 237.84 242.16 Z  M246.49 242.16 A4.32 4.32 0 0 1 246.49 250.81 A4.32 4.32 0 0 1 246.49 242.16 Z  M263.78 242.16 A4.32 4.32 0 0 1 263.78 250.81 A4.32 4.32 0 0 1 263.78 242.16 Z  M38.92 250.81 A4.32 4.32 0 0 1 38.92 259.46 A4.32 4.32 0 0 1 38.92 250.81 Z  M56.22 250.81 A4.32 4.32 0 0 1 56.22 259.46 A4.32 4.32 0 0 1 56.22 250.81 Z  M64.86 250.81 A4.32 4.32 0 0 1 64.86 259.46 A4.32 4.32 0 0 1 64.86 250.81 Z  M73.51 250.81 A4.32 4.32 0 0 1 73.51 259.46 A4.32 4.32 0 0 1 73.51 250.81 Z  M90.81 250.81 A4.32 4.32 0 0 1 90.81 259.46 A4.32 4.32 0 0 1 90.81 250.81 Z  M108.11 250.81 A4.32 4.32 0 0 1 108.11 259.46 A4.32 4.32 0 0 1 108.11 250.81 Z  M125.41 250.81 A4.32 4.32 0 0 1 125.41 259.46 A4.32 4.32 0 0 1 125.41 250.81 Z  M134.05 250.81 A4.32 4.32 0 0 1 134.05 259.46 A4.32 4.32 0 0 1 134.05 250.81 Z  M142.70 250.81 A4.32 4.32 0 0 1 142.70 259.46 A4.32 4.32 0 0 1 142.70 250.81 Z  M160.00 250.81 A4.32 4.32 0 0 1 160.00 259.46 A4.32 4.32 0 0 1 160.00 250.81 Z  M168.65 250.81 A4.32 4.32 0 0 1 168.65 259.46 A4.32 4.32 0 0 1 168.65 250.81 Z  M177.30 250.81 A4.32 4.32 0 0 1 177.30 259.46 A4.32 4.32 0 0 1 177.30 250.81 Z  M185.95 250.81 A4.32 4.32 0 0 1 185.95 259.46 A4.32 4.32 0 0 1 185.95 250.81 Z  M194.59 250.81 A4.32 4.32 0 0 1 194.59 259.46 A4.32 4.32 0 0 1 194.59 250.81 Z  M203.24 250.81 A4.32 4.32 0 0 1 203.24 259.46 A4.32 4.32 0 0 1 203.24 250.81 Z  M220.54 250.81 A4.32 4.32 0 0 1 220.54 259.46 A4.32 4.32 0 0 1 220.54 250.81 Z  M237.84 250.81 A4.32 4.32 0 0 1 237.84 259.46 A4.32 4.32 0 0 1 237.84 250.81 Z  M246.49 250.81 A4.32 4.32 0 0 1 246.49 259.46 A4.32 4.32 0 0 1 246.49 250.81 Z  M255.14 250.81 A4.32 4.32 0 0 1 255.14 259.46 A4.32 4.32 0 0 1 255.14 250.81 Z  M281.08 250.81 A4.32 4.32 0 0 1 281.08 259.46 A4.32 4.32 0 0 1 281.08 250.81 Z  M38.92 259.46 A4.32 4.32 0 0 1 38.92 268.11 A4.32 4.32 0 0 1 38.92 259.46 Z  M56.22 259.46 A4.32 4.32 0 0 1 56.22 268.11 A4.32 4.32 0 0 1 56.22 259.46 Z  M64.86 259.46 A4.32 4.32 0 0 1 64.86 268.11 A4.32 4.32 0 0 1 64.86 259.46 Z  M73.51 259.46 A4.32 4.32 0 0 1 73.51 268.11 A4.32 4.32 0 0 1 73.51 259.46 Z  M90.81 259.46 A4.32 4.32 0 0 1 90.81 268.11 A4.32 4.32 0 0 1 90.81 259.46 Z  M108.11 259.46 A4.32 4.32 0 0 1 108.11 268.11 A4.32 4.32 0 0 1 108.11 259.46 Z  M116.76 259.46 A4.32 4.32 0 0 1 116.76 268.11 A4.32 4.32 0 0 1 116.76 259.46 Z  M125.41 259.46 A4.32 4.32 0 0 1 125.41 268.11 A4.32 4.32 0 0 1 125.41 259.46 Z  M134.05 259.46 A4.32 4.32 0 0 1 134.05 268.11 A4.32 4.32 0 0 1 134.05 259.46 Z  M142.70 259.46 A4.32 4.32 0 0 1 142.70 268.11 A4.32 4.32 0 0 1 142.70 259.46 Z  M185.95 259.46 A4.32 4.32 0 0 1 185.95 268.11 A4.32 4.32 0 0 1 185.95 259.46 Z  M211.89 259.46 A4.32 4.32 0 0 1 211.89 268.11 A4.32 4.32 0 0 1 211.89 259.46 Z  M237.84 259.46 A4.32 4.32 0 0 1 237.84 268.11 A4.32 4.32 0 0 1 237.84 259.46 Z  M263.78 259.46 A4.32 4.32 0 0 1 263.78 268.11 A4.32 4.32 0 0 1 263.78 259.46 Z  M281.08 259.46 A4.32 4.32 0 0 1 281.08 268.11 A4.32 4.32 0 0 1 281.08 259.46 Z  M38.92 268.11 A4.32 4.32 0 0 1 38.92 276.76 A4.32 4.32 0 0 1 38.92 268.11 Z  M90.81 268.11 A4.32 4.32 0 0 1 90.81 276.76 A4.32 4.32 0 0 1 90.81 268.11 Z  M125.41 268.11 A4.32 4.32 0 0 1 125.41 276.76 A4.32 4.32 0 0 1 125.41 268.11 Z  M151.35 268.11 A4.32 4.32 0 0 1 151.35 276.76 A4.32 4.32 0 0 1 151.35 268.11 Z  M177.30 268.11 A4.32 4.32 0 0 1 177.30 276.76 A4.32 4.32 0 0 1 177.30 268.11 Z  M211.89 268.11 A4.32 4.32 0 0 1 211.89 276.76 A4.32 4.32 0 0 1 211.89 268.11 Z  M220.54 268.11 A4.32 4.32 0 0 1 220.54 276.76 A4.32 4.32 0 0 1 220.54 268.11 Z  M237.84 268.11 A4.32 4.32 0 0 1 237.84 276.76 A4.32 4.32 0 0 1 237.84 268.11 Z  M255.14 268.11 A4.32 4.32 0 0 1 255.14 276.76 A4.32 4.32 0 0 1 255.14 268.11 Z  M272.43 268.11 A4.32 4.32 0 0 1 272.43 276.76 A4.32 4.32 0 0 1 272.43 268.11 Z  M38.92 276.76 A4.32 4.32 0 0 1 38.92 285.41 A4.32 4.32 0 0 1 38.92 276.76 Z  M47.57 276.76 A4.32 4.32 0 0 1 47.57 285.41 A4.32 4.32 0 0 1 47.57 276.76 Z  M56.22 276.76 A4.32 4.32 0 0 1 56.22 285.41 A4.32 4.32 0 0 1 56.22 276.76 Z  M64.86 276.76 A4.32 4.32 0 0 1 64.86 285.41 A4.32 4.32 0 0 1 64.86 276.76 Z  M73.51 276.76 A4.32 4.32 0 0 1 73.51 285.41 A4.32 4.32 0 0 1 73.51 276.76 Z  M82.16 276.76 A4.32 4.32 0 0 1 82.16 285.41 A4.32 4.32 0 0 1 82.16 276.76 Z  M90.81 276.76 A4.32 4.32 0 0 1 90.81 285.41 A4.32 4.32 0 0 1 90.81 276.76 Z  M108.11 276.76 A4.32 4.32 0 0 1 108.11 285.41 A4.32 4.32 0 0 1 108.11 276.76 Z  M142.70 276.76 A4.32 4.32 0 0 1 142.70 285.41 A4.32 4.32 0 0 1 142.70 276.76 Z  M151.35 276.76 A4.32 4.32 0 0 1 151.35 285.41 A4.32 4.32 0 0 1 151.35 276.76 Z  M168.65 276.76 A4.32 4.32 0 0 1 168.65 285.41 A4.32 4.32 0 0 1 168.65 276.76 Z  M203.24 276.76 A4.32 4.32 0 0 1 203.24 285.41 A4.32 4.32 0 0 1 203.24 276.76 Z  M211.89 276.76 A4.32 4.32 0 0 1 211.89 285.41 A4.32 4.32 0 0 1 211.89 276.76 Z  M220.54 276.76 A4.32 4.32 0 0 1 220.54 285.41 A4.32 4.32 0 0 1 220.54 276.76 Z  M229.19 276.76 A4.32 4.32 0 0 1 229.19 285.41 A4.32 4.32 0 0 1 229.19 276.76 Z  M272.43 276.76 A4.32 4.32 0 0 1 272.43 285.41 A4.32 4.32 0 0 1 272.43 276.76 Z  "/>
</svg>